<?xml version="1.0" encoding="UTF-8"?>
<svg id="Capa_2" data-name="Capa 2" xmlns="http://www.w3.org/2000/svg" viewBox="0 0 874.85 282.04">
  <defs>
    
  </defs>
  <g id="imagotipo_color" data-name="imagotipo color">
    <path class="cls-3" d="M870.37,161.39l-17.55-18.62c-7.93-8.29-13.81-24.24-13.81-35.46v-61.32c0-5-2.54-9.12-5.72-12.68-3.73-3.02-9.16-4.38-14.43-4.38h-12.84c-11.79,0-22.96,8.23-22.96,19.45v.44c0,11.22-5.71,13.6-13.63,5.29l.38-.43c-.7-.58-1.39-1.21-2.1-1.97l-44.98-47.23c-7.98-6.54-19.58-5.96-26.87,1.76l-148.94,157.56c-5.06,5.33-5.82,11-2.64,15.14,1.68,1.2,3.65,2.19,6.23,2.83l6.83,1.79c5.03,1.27,9.1,4.24,12.72,8.11,5.93,5.09,8.84,12.55,8.84,19.88v52.05c0,5.01,3.04,9.79,6.21,13.34,3.73,3.03,9.67,5.05,14.93,5.05h79.16c1.77,0,3.4-.24,4.91-.64-4.28-2.99-22.74-22.76-24.88-28.83-.86-2.47-1.26-10.33-1.43-18.93-4.96.85-10.64-3.93-12.99-11.23-1.14-3.55-1.9-8.11-1.21-11h128.79c1.05,3.06,1.05,7-.25,11-2.29,7.11-7.77,11.86-12.63,11.29-.26,8.67-.81,16.55-1.96,18.87-2.71,5.58-19.35,24.98-24.95,28.63,1.9.53,3.89.85,5.9.85h77.89c11.78,0,22.65-9.56,22.65-20.77v-52.05c0-11.22,8.75-22.84,20.1-25.84l4.9-1.43c11.36-3,14.31-12.22,6.36-20.51ZM778.17,203.98h-139.26v-23.12h7.46c.6-27.94,15.48-51.35,41.25-58.57v58.57h7.44v-67.07h26.96v67.07h7.43v-58.57c25.76,7.22,40.67,30.63,41.24,58.57h7.48v23.12Z"></path>
    <g>
      <rect class="cls-1" x="276.02" y="101.19" width="13.04" height="19.3"></rect>
      <path class="cls-2" d="M224.99,123.03c-.49-3.33-1.74-5.74-3.74-7.26-2.01-1.51-5.06-2.27-9.16-2.27s-6.87.46-8.87,1.39c-2,.93-3,2.52-3,4.77,0,1.95,1,3.52,3,4.69,2.01,1.17,4.91,2.29,8.73,3.37,6.26,1.76,11.53,3.25,15.84,4.47,4.3,1.22,7.75,2.67,10.34,4.32,2.59,1.66,4.44,3.75,5.57,6.23,1.12,2.5,1.68,5.85,1.68,10.05,0,6.45-2.69,11.8-8.06,16.05-5.38,4.25-13.34,6.38-23.9,6.38-5.19,0-9.88-.59-14.08-1.76-4.2-1.18-7.79-2.86-10.77-5.06-2.98-2.2-5.28-4.83-6.9-7.92-1.61-3.08-2.46-6.52-2.56-10.34h19.65c0,3.42,1.34,6.07,4.03,7.92,2.69,1.86,6.18,2.79,10.48,2.79,3.62,0,6.72-.56,9.31-1.69,2.59-1.13,3.88-2.86,3.88-5.2,0-2.65-.95-4.55-2.86-5.72-1.9-1.18-4.81-2.2-8.72-3.08-7.03-1.57-12.71-3.21-17-4.91-4.3-1.71-7.65-3.6-10.05-5.65-2.4-2.05-4.01-4.29-4.84-6.75-.83-2.44-1.24-5.18-1.24-8.2,0-2.73.56-5.33,1.69-7.77,1.12-2.44,2.91-4.59,5.36-6.45,2.44-1.85,5.61-3.35,9.53-4.47,3.91-1.13,8.7-1.69,14.37-1.69,10.36,0,17.94,2.1,22.73,6.3,4.79,4.21,7.43,10.03,7.92,17.45h-18.33Z"></path>
      <path class="cls-2" d="M296.98,173.32v-10.12c-4.89,8.01-12.36,12.03-22.43,12.03-3.61,0-6.91-.64-9.89-1.91-2.98-1.27-5.55-3.08-7.7-5.43-2.15-2.35-3.84-5.12-5.06-8.36-1.22-3.22-1.83-6.84-1.83-10.85v-47.5h19.06v44.57c0,8.99,4.06,13.49,12.17,13.49,4.88,0,8.57-1.55,11.07-4.62,2.49-3.09,3.73-7.02,3.73-11.81v-41.63h18.92v72.13h-18.04Z"></path>
      <path class="cls-2" d="M416.03,142.24c.3,5.47,1.89,9.82,4.77,13.05,2.88,3.22,6.67,4.84,11.36,4.84,3.14,0,5.89-.71,8.29-2.12,2.4-1.42,3.94-3.4,4.62-5.94h19.64c-2.25,7.43-6.15,13.14-11.73,17.16-5.57,4.01-12.22,6.01-19.94,6.01-24.04,0-36.07-13.1-36.07-39.3,0-5.57.78-10.61,2.35-15.1,1.56-4.5,3.83-8.36,6.81-11.59s6.63-5.69,10.93-7.41c4.3-1.7,9.24-2.56,14.81-2.56,11.14,0,19.57,3.58,25.29,10.71,5.72,7.13,8.57,17.88,8.57,32.26h-49.71ZM446.09,130.21c-.1-2.64-.56-4.95-1.39-6.96-.83-2.01-1.93-3.66-3.3-4.98-1.37-1.32-2.93-2.3-4.7-2.93-1.76-.63-3.56-.96-5.42-.96-3.81,0-7.11,1.4-9.9,4.18-2.78,2.79-4.37,6.68-4.76,11.66h29.47Z"></path>
      <path class="cls-2" d="M471.6,173.32v-72.13h17.89v8.65c1.56-2.45,3.2-4.35,4.91-5.72,1.71-1.37,3.47-2.42,5.28-3.15,1.81-.74,3.64-1.2,5.49-1.39,1.86-.19,3.77-.29,5.72-.29h2.5v19.5c-1.76-.29-3.52-.45-5.28-.45-11.63,0-17.45,5.83-17.45,17.46v37.53h-19.06Z"></path>
      <path class="cls-3" d="M84.6,280.13v-43.69c0-4.4-1.03-7.97-3.08-10.7-2.05-2.73-4.79-4.1-8.21-4.1s-6.43,1.46-8.72,4.4c-2.29,2.93-3.45,6.6-3.45,11v43.1h-19.06v-43.41c0-2.93-.2-5.32-.59-7.18-.39-1.86-1.05-3.32-1.98-4.4-.93-1.07-2.12-1.83-3.59-2.28-1.47-.43-3.22-.65-5.28-.65-7.72,0-11.58,4.69-11.58,14.08v43.84H0v-72.13h17.89v10.55c2.44-4.79,5.37-8.06,8.8-9.82,3.42-1.76,7.53-2.64,12.32-2.64,2.44,0,4.61.19,6.52.58,1.9.4,3.62,1.05,5.13,1.99,1.52.93,2.96,2.12,4.33,3.59,1.37,1.46,2.74,3.22,4.1,5.28,1.95-4.01,4.55-6.91,7.77-8.73,3.23-1.81,7.13-2.71,11.73-2.71,3.61,0,6.94.61,9.97,1.83,3.03,1.22,5.62,2.93,7.77,5.13,2.15,2.2,3.83,4.76,5.06,7.69,1.22,2.94,1.83,6.06,1.83,9.39v50h-18.62Z"></path>
      <path class="cls-3" d="M156.01,280.13c-.59-1.86-.98-4.01-1.17-6.45-2.25,2.54-5.23,4.57-8.95,6.08-3.71,1.51-8.02,2.27-12.9,2.27-8.31,0-14.4-1.83-18.26-5.5-3.86-3.67-5.79-8.43-5.79-14.3,0-5.18.83-9.3,2.49-12.39,1.66-3.08,3.96-5.5,6.89-7.26,2.93-1.76,6.43-3.05,10.48-3.88,4.06-.82,8.48-1.58,13.27-2.27,4.79-.68,8.02-1.59,9.68-2.72,1.66-1.12,2.5-2.95,2.5-5.5,0-2.35-1.1-4.18-3.3-5.5-2.2-1.32-5.16-1.98-8.87-1.98-4.4,0-7.55.98-9.46,2.94-1.9,1.96-3.1,4.54-3.59,7.76h-17.74c.09-3.71.71-7.13,1.83-10.26,1.13-3.13,2.94-5.82,5.43-8.06,2.49-2.24,5.74-3.98,9.75-5.2s8.89-1.83,14.66-1.83,10.48.63,14.44,1.91c3.95,1.27,7.13,3.1,9.53,5.5,2.39,2.39,4.12,5.38,5.2,8.95,1.07,3.57,1.62,7.6,1.62,12.1v45.6h-17.74ZM154.69,244.8c-.98.98-2.39,1.76-4.25,2.34-1.86.59-4.54,1.23-8.06,1.91-5.47,1.07-9.23,2.44-11.29,4.1-2.05,1.66-3.08,4.06-3.08,7.18,0,5.38,3.08,8.06,9.24,8.06,2.44,0,4.71-.41,6.82-1.24,2.1-.83,3.91-1.96,5.43-3.37,1.51-1.41,2.73-3.07,3.66-4.98.93-1.91,1.39-3.94,1.39-6.09l.15-7.92Z"></path>
      <path class="cls-3" d="M198.82,249.05c.3,5.47,1.88,9.81,4.77,13.05,2.88,3.22,6.67,4.83,11.36,4.83,3.13,0,5.89-.7,8.28-2.12,2.4-1.41,3.94-3.39,4.62-5.94h19.64c-2.25,7.44-6.16,13.15-11.73,17.16-5.57,4.01-12.22,6.01-19.94,6.01-24.05,0-36.07-13.1-36.07-39.29,0-5.57.78-10.61,2.34-15.11,1.57-4.5,3.84-8.36,6.82-11.58,2.98-3.22,6.62-5.69,10.93-7.4,4.3-1.71,9.24-2.57,14.81-2.57,11.15,0,19.58,3.57,25.3,10.71,5.72,7.13,8.58,17.88,8.58,32.26h-49.71ZM228.88,237.03c-.1-2.64-.56-4.96-1.39-6.97-.84-2.01-1.93-3.68-3.3-4.99-1.37-1.32-2.93-2.29-4.69-2.93-1.76-.63-3.57-.95-5.42-.95-3.81,0-7.11,1.39-9.9,4.18-2.78,2.79-4.38,6.67-4.77,11.66h29.47Z"></path>
      <path class="cls-3" d="M297.79,229.84c-.49-3.32-1.73-5.74-3.74-7.26-2.01-1.51-5.06-2.27-9.16-2.27s-6.87.47-8.87,1.39c-2,.93-3.01,2.52-3.01,4.77,0,1.95,1.01,3.51,3.01,4.69,2,1.18,4.91,2.29,8.72,3.37,6.25,1.76,11.53,3.25,15.84,4.47,4.3,1.23,7.74,2.67,10.34,4.33,2.59,1.66,4.45,3.74,5.57,6.23,1.12,2.49,1.69,5.84,1.69,10.04,0,6.45-2.69,11.81-8.07,16.06-5.38,4.26-13.34,6.38-23.89,6.38-5.19,0-9.88-.58-14.08-1.76-4.2-1.18-7.79-2.86-10.77-5.06-2.98-2.2-5.28-4.85-6.89-7.92-1.61-3.08-2.47-6.52-2.57-10.34h19.64c0,3.42,1.35,6.06,4.03,7.92,2.69,1.86,6.19,2.79,10.48,2.79,3.61,0,6.72-.56,9.31-1.69,2.6-1.12,3.89-2.86,3.89-5.2,0-2.64-.95-4.55-2.86-5.73-1.91-1.17-4.82-2.19-8.73-3.07-7.03-1.57-12.7-3.21-17.01-4.91-4.3-1.71-7.65-3.59-10.04-5.65-2.4-2.05-4.01-4.3-4.84-6.75-.83-2.44-1.24-5.18-1.24-8.2,0-2.74.56-5.32,1.69-7.78,1.12-2.43,2.9-4.59,5.35-6.45,2.44-1.85,5.62-3.35,9.53-4.47,3.91-1.12,8.7-1.69,14.37-1.69,10.36,0,17.94,2.1,22.73,6.3,4.78,4.21,7.42,10.02,7.92,17.45h-18.33Z"></path>
      <path class="cls-3" d="M322.63,189.19v63.85c0,3.92.77,7.59,1.84,11.11,1.08,3.52,2.8,6.6,5.2,9.24,2.4,2.64,5.45,4.74,9.17,6.3,3.71,1.56,8.21,2.34,13.49,2.34s9.46-.78,13.12-2.34c3.67-1.56,6.7-3.69,9.1-6.38,2.4-2.68,4.15-5.76,5.28-9.23,1.12-3.47,1.68-7.11,1.68-10.92v-13h-17.74v11.23c0,4.5-.9,7.97-2.72,10.42-1.81,2.44-4.61,3.66-8.43,3.66s-6.72-1.25-8.43-3.73c-1.71-2.49-2.57-6.04-2.57-10.64v-29.62h39.88v-13.48l-40.14.06.02-18.87"></path>
      <path class="cls-2" d="M390.08,121.71c-1.56-4.79-3.71-8.85-6.45-12.17-2.74-3.32-6.05-5.87-9.9-7.62-3.87-1.76-8.04-2.64-12.54-2.64-8.99,0-15.69,3.58-20.08,10.71l-.15-8.8h-18.34v88h18.76l.02-25.25c5.38,7.53,12.51,11.3,21.41,11.3,4.69,0,8.87-.91,12.54-2.72,3.66-1.81,6.77-4.37,9.3-7.69,2.54-3.32,4.47-7.27,5.79-11.81,1.32-4.55,1.98-9.55,1.98-15.03,0-6.06-.78-11.49-2.35-16.27ZM356.65,158.95c-10.65,0-15.98-7.82-15.98-23.46,0-6.16,1.54-11.14,4.62-14.96,3.08-3.81,6.92-5.72,11.51-5.72s8.7,2.03,11.73,6.09c3.03,4.06,4.54,9.31,4.54,15.76,0,14.86-5.48,22.29-16.42,22.29Z"></path>
      <path class="cls-3" d="M388.4,280.13v-72.13h17.89v8.64c1.56-2.43,3.2-4.34,4.91-5.71,1.71-1.37,3.47-2.42,5.28-3.15,1.81-.73,3.64-1.19,5.5-1.39,1.85-.2,3.77-.29,5.72-.29h2.49v19.5c-1.76-.3-3.52-.44-5.27-.44-11.64,0-17.45,5.82-17.45,17.44v37.54h-19.06Z"></path>
      <path class="cls-3" d="M466.26,282.04c-5.87,0-11.1-.93-15.69-2.79-4.6-1.85-8.49-4.45-11.66-7.77-3.18-3.32-5.6-7.33-7.26-12.02-1.67-4.7-2.49-9.83-2.49-15.4s.85-10.85,2.56-15.55c1.71-4.69,4.18-8.7,7.41-12.02,3.23-3.32,7.11-5.88,11.66-7.7,4.54-1.81,9.7-2.71,15.47-2.71s10.74.9,15.24,2.71c4.5,1.82,8.34,4.35,11.51,7.63,3.18,3.27,5.62,7.26,7.33,11.95,1.71,4.69,2.57,9.92,2.57,15.69s-.86,10.97-2.57,15.61c-1.71,4.64-4.15,8.63-7.33,11.96-3.17,3.32-7.04,5.88-11.58,7.69-4.55,1.81-9.61,2.72-15.17,2.72ZM466.26,266.06c11.63,0,17.44-7.33,17.44-21.99s-5.81-21.85-17.44-21.85-17.45,7.28-17.45,21.85,5.82,21.99,17.45,21.99Z"></path>
    </g>
  </g>
</svg>