<svg width="272" height="42" viewBox="0 0 272 42" fill="none" xmlns="http://www.w3.org/2000/svg">
<path d="M33.832 21V8.352H31.504V4.68H38.2V21H33.832Z" fill="#828181"/>
<path d="M16.702 34.41L15.512 31.442C15.4467 31.302 15.386 31.1527 15.33 30.994C15.2833 30.826 15.2367 30.672 15.19 30.532C15.1433 30.364 15.092 30.196 15.036 30.028C14.9893 30.196 14.9427 30.364 14.896 30.532C14.8493 30.672 14.798 30.826 14.742 30.994C14.686 31.1527 14.63 31.302 14.574 31.442L13.384 34.41H16.702ZM14.98 27.382H15.148L19.32 37H17.78L17.234 35.656H12.88L12.334 37H10.906L14.98 27.382ZM22.4423 37.14C22.1623 37.14 21.9057 37.1027 21.6723 37.028C21.4483 36.9533 21.2523 36.832 21.0843 36.664C20.9257 36.496 20.7997 36.2767 20.7063 36.006C20.6223 35.7353 20.5803 35.404 20.5803 35.012V32.31H19.6983V31.12H20.5803V28.054H21.9943V31.12H23.5623V32.31H21.9943V35.04C21.9943 35.376 22.0457 35.6047 22.1483 35.726C22.251 35.8473 22.3957 35.908 22.5823 35.908C22.7503 35.908 22.8903 35.88 23.0023 35.824C23.1143 35.7587 23.2077 35.6933 23.2823 35.628L23.9543 36.58C23.805 36.72 23.609 36.8507 23.3663 36.972C23.133 37.084 22.825 37.14 22.4423 37.14ZM25.1499 31.12H26.5639L26.5499 32.226C26.7459 31.7593 26.9979 31.442 27.3059 31.274C27.6139 31.0967 27.9312 31.008 28.2579 31.008C28.4726 31.008 28.6546 31.0313 28.8039 31.078C28.9532 31.1247 29.0932 31.1853 29.2239 31.26L28.7479 32.534C28.6359 32.478 28.5192 32.4313 28.3979 32.394C28.2766 32.3567 28.1366 32.338 27.9779 32.338C27.5579 32.338 27.2172 32.4733 26.9559 32.744C26.6946 33.0147 26.5639 33.4813 26.5639 34.144V37H25.1499V31.12ZM30.4146 31.12H31.8426V37H30.4146V31.12ZM31.1286 29.776C30.8766 29.776 30.6572 29.692 30.4706 29.524C30.2839 29.3467 30.1906 29.118 30.1906 28.838C30.1906 28.5673 30.2839 28.348 30.4706 28.18C30.6572 28.0027 30.8766 27.914 31.1286 27.914C31.3806 27.914 31.5999 28.0027 31.7866 28.18C31.9732 28.348 32.0666 28.5673 32.0666 28.838C32.0666 29.118 31.9732 29.3467 31.7866 29.524C31.5999 29.692 31.3806 29.776 31.1286 29.776ZM36.7612 35.88C37.2745 35.88 37.6805 35.7167 37.9792 35.39C38.2778 35.054 38.4272 34.606 38.4272 34.046C38.4272 33.514 38.2778 33.0847 37.9792 32.758C37.6805 32.422 37.2745 32.254 36.7612 32.254C36.2385 32.254 35.8232 32.422 35.5152 32.758C35.2072 33.0847 35.0532 33.514 35.0532 34.046C35.0532 34.606 35.2072 35.054 35.5152 35.39C35.8232 35.7167 36.2385 35.88 36.7612 35.88ZM37.1252 37.126C36.6305 37.126 36.2105 37.0187 35.8652 36.804C35.5198 36.58 35.2538 36.2907 35.0672 35.936L35.1092 37H33.6812V26.892H35.1092V32.142C35.3052 31.806 35.5665 31.5307 35.8932 31.316C36.2292 31.1013 36.6492 30.994 37.1532 30.994C37.5358 30.994 37.8905 31.0687 38.2172 31.218C38.5532 31.3673 38.8425 31.5773 39.0852 31.848C39.3372 32.1187 39.5332 32.4407 39.6732 32.814C39.8132 33.1873 39.8832 33.598 39.8832 34.046C39.8832 34.494 39.8085 34.9047 39.6592 35.278C39.5192 35.6513 39.3232 35.978 39.0712 36.258C38.8285 36.5287 38.5392 36.7433 38.2032 36.902C37.8672 37.0513 37.5078 37.126 37.1252 37.126ZM43.5201 37.126C42.8761 37.126 42.3488 36.9113 41.9381 36.482C41.5368 36.0433 41.3361 35.4227 41.3361 34.62V31.12H42.7501V34.508C42.7501 34.928 42.8481 35.2547 43.0441 35.488C43.2401 35.7213 43.5481 35.838 43.9681 35.838C44.4348 35.838 44.7988 35.7027 45.0601 35.432C45.3308 35.1613 45.4661 34.788 45.4661 34.312V31.12H46.8801V37H45.4661L45.4941 35.922C45.3074 36.3047 45.0414 36.6033 44.6961 36.818C44.3601 37.0233 43.9681 37.126 43.5201 37.126ZM50.9755 37.14C50.6955 37.14 50.4389 37.1027 50.2055 37.028C49.9815 36.9533 49.7855 36.832 49.6175 36.664C49.4589 36.496 49.3329 36.2767 49.2395 36.006C49.1555 35.7353 49.1135 35.404 49.1135 35.012V32.31H48.2315V31.12H49.1135V28.054H50.5275V31.12H52.0955V32.31H50.5275V35.04C50.5275 35.376 50.5789 35.6047 50.6815 35.726C50.7842 35.8473 50.9289 35.908 51.1155 35.908C51.2835 35.908 51.4235 35.88 51.5355 35.824C51.6475 35.7587 51.7409 35.6933 51.8155 35.628L52.4875 36.58C52.3382 36.72 52.1422 36.8507 51.8995 36.972C51.6662 37.084 51.3582 37.14 50.9755 37.14ZM56.4988 35.908C57.0308 35.908 57.4461 35.7353 57.7448 35.39C58.0528 35.0447 58.2068 34.6013 58.2068 34.06C58.2068 33.5187 58.0528 33.08 57.7448 32.744C57.4461 32.3987 57.0308 32.226 56.4988 32.226C55.9668 32.226 55.5468 32.3987 55.2388 32.744C54.9308 33.08 54.7767 33.5187 54.7767 34.06C54.7767 34.6013 54.9308 35.0447 55.2388 35.39C55.5468 35.7353 55.9668 35.908 56.4988 35.908ZM56.4988 37.126C56.0508 37.126 55.6354 37.0513 55.2528 36.902C54.8701 36.7433 54.5341 36.5287 54.2448 36.258C53.9554 35.978 53.7268 35.6513 53.5588 35.278C53.4001 34.9047 53.3208 34.4987 53.3208 34.06C53.3208 33.6213 53.4001 33.2153 53.5588 32.842C53.7268 32.4687 53.9554 32.1467 54.2448 31.876C54.5341 31.596 54.8701 31.3813 55.2528 31.232C55.6354 31.0733 56.0508 30.994 56.4988 30.994C56.9468 30.994 57.3621 31.0733 57.7448 31.232C58.1368 31.3813 58.4728 31.596 58.7528 31.876C59.0328 32.1467 59.2521 32.4687 59.4108 32.842C59.5788 33.2153 59.6628 33.6213 59.6628 34.06C59.6628 34.4987 59.5788 34.9047 59.4108 35.278C59.2521 35.6513 59.0328 35.978 58.7528 36.258C58.4728 36.5287 58.1368 36.7433 57.7448 36.902C57.3621 37.0513 56.9468 37.126 56.4988 37.126Z" fill="#828181"/>
<path d="M95.788 21C95.572 21 95.524 20.856 95.716 20.664L102.772 13.128C103.66 12.144 104.428 11.208 104.428 10.032C104.428 8.976 103.684 8.208 102.484 8.208C101.26 8.208 100.252 9.168 100.012 10.728L96.1 9.576C96.844 6.36 99.196 4.488 102.604 4.488C106.084 4.488 108.676 6.48 108.676 9.672C108.676 11.736 107.596 13.32 106.012 15L103.732 17.424H108.58V21H95.788Z" fill="#828181"/>
<path d="M83.702 34.41L82.512 31.442C82.4467 31.302 82.386 31.1527 82.33 30.994C82.2833 30.826 82.2367 30.672 82.19 30.532C82.1433 30.364 82.092 30.196 82.036 30.028C81.9893 30.196 81.9427 30.364 81.896 30.532C81.8493 30.672 81.798 30.826 81.742 30.994C81.686 31.1527 81.63 31.302 81.574 31.442L80.384 34.41H83.702ZM81.98 27.382H82.148L86.32 37H84.78L84.234 35.656H79.88L79.334 37H77.906L81.98 27.382ZM89.4423 37.14C89.1623 37.14 88.9057 37.1027 88.6723 37.028C88.4483 36.9533 88.2523 36.832 88.0843 36.664C87.9257 36.496 87.7997 36.2767 87.7063 36.006C87.6223 35.7353 87.5803 35.404 87.5803 35.012V32.31H86.6983V31.12H87.5803V28.054H88.9943V31.12H90.5623V32.31H88.9943V35.04C88.9943 35.376 89.0457 35.6047 89.1483 35.726C89.251 35.8473 89.3957 35.908 89.5823 35.908C89.7503 35.908 89.8903 35.88 90.0023 35.824C90.1143 35.7587 90.2077 35.6933 90.2823 35.628L90.9543 36.58C90.805 36.72 90.609 36.8507 90.3663 36.972C90.133 37.084 89.825 37.14 89.4423 37.14ZM92.1499 31.12H93.5639L93.5499 32.226C93.7459 31.7593 93.9979 31.442 94.3059 31.274C94.6139 31.0967 94.9312 31.008 95.2579 31.008C95.4726 31.008 95.6546 31.0313 95.8039 31.078C95.9532 31.1247 96.0932 31.1853 96.2239 31.26L95.7479 32.534C95.6359 32.478 95.5192 32.4313 95.3979 32.394C95.2766 32.3567 95.1366 32.338 94.9779 32.338C94.5579 32.338 94.2172 32.4733 93.9559 32.744C93.6946 33.0147 93.5639 33.4813 93.5639 34.144V37H92.1499V31.12ZM97.4146 31.12H98.8426V37H97.4146V31.12ZM98.1286 29.776C97.8766 29.776 97.6572 29.692 97.4706 29.524C97.2839 29.3467 97.1906 29.118 97.1906 28.838C97.1906 28.5673 97.2839 28.348 97.4706 28.18C97.6572 28.0027 97.8766 27.914 98.1286 27.914C98.3806 27.914 98.5999 28.0027 98.7866 28.18C98.9732 28.348 99.0666 28.5673 99.0666 28.838C99.0666 29.118 98.9732 29.3467 98.7866 29.524C98.5999 29.692 98.3806 29.776 98.1286 29.776ZM103.761 35.88C104.274 35.88 104.68 35.7167 104.979 35.39C105.278 35.054 105.427 34.606 105.427 34.046C105.427 33.514 105.278 33.0847 104.979 32.758C104.68 32.422 104.274 32.254 103.761 32.254C103.238 32.254 102.823 32.422 102.515 32.758C102.207 33.0847 102.053 33.514 102.053 34.046C102.053 34.606 102.207 35.054 102.515 35.39C102.823 35.7167 103.238 35.88 103.761 35.88ZM104.125 37.126C103.63 37.126 103.21 37.0187 102.865 36.804C102.52 36.58 102.254 36.2907 102.067 35.936L102.109 37H100.681V26.892H102.109V32.142C102.305 31.806 102.566 31.5307 102.893 31.316C103.229 31.1013 103.649 30.994 104.153 30.994C104.536 30.994 104.89 31.0687 105.217 31.218C105.553 31.3673 105.842 31.5773 106.085 31.848C106.337 32.1187 106.533 32.4407 106.673 32.814C106.813 33.1873 106.883 33.598 106.883 34.046C106.883 34.494 106.808 34.9047 106.659 35.278C106.519 35.6513 106.323 35.978 106.071 36.258C105.828 36.5287 105.539 36.7433 105.203 36.902C104.867 37.0513 104.508 37.126 104.125 37.126ZM110.52 37.126C109.876 37.126 109.349 36.9113 108.938 36.482C108.537 36.0433 108.336 35.4227 108.336 34.62V31.12H109.75V34.508C109.75 34.928 109.848 35.2547 110.044 35.488C110.24 35.7213 110.548 35.838 110.968 35.838C111.435 35.838 111.799 35.7027 112.06 35.432C112.331 35.1613 112.466 34.788 112.466 34.312V31.12H113.88V37H112.466L112.494 35.922C112.307 36.3047 112.041 36.6033 111.696 36.818C111.36 37.0233 110.968 37.126 110.52 37.126ZM117.976 37.14C117.696 37.14 117.439 37.1027 117.206 37.028C116.982 36.9533 116.786 36.832 116.618 36.664C116.459 36.496 116.333 36.2767 116.24 36.006C116.156 35.7353 116.114 35.404 116.114 35.012V32.31H115.232V31.12H116.114V28.054H117.528V31.12H119.096V32.31H117.528V35.04C117.528 35.376 117.579 35.6047 117.682 35.726C117.784 35.8473 117.929 35.908 118.116 35.908C118.284 35.908 118.424 35.88 118.536 35.824C118.648 35.7587 118.741 35.6933 118.816 35.628L119.488 36.58C119.338 36.72 119.142 36.8507 118.9 36.972C118.666 37.084 118.358 37.14 117.976 37.14ZM123.499 35.908C124.031 35.908 124.446 35.7353 124.745 35.39C125.053 35.0447 125.207 34.6013 125.207 34.06C125.207 33.5187 125.053 33.08 124.745 32.744C124.446 32.3987 124.031 32.226 123.499 32.226C122.967 32.226 122.547 32.3987 122.239 32.744C121.931 33.08 121.777 33.5187 121.777 34.06C121.777 34.6013 121.931 35.0447 122.239 35.39C122.547 35.7353 122.967 35.908 123.499 35.908ZM123.499 37.126C123.051 37.126 122.635 37.0513 122.253 36.902C121.87 36.7433 121.534 36.5287 121.245 36.258C120.955 35.978 120.727 35.6513 120.559 35.278C120.4 34.9047 120.321 34.4987 120.321 34.06C120.321 33.6213 120.4 33.2153 120.559 32.842C120.727 32.4687 120.955 32.1467 121.245 31.876C121.534 31.596 121.87 31.3813 122.253 31.232C122.635 31.0733 123.051 30.994 123.499 30.994C123.947 30.994 124.362 31.0733 124.745 31.232C125.137 31.3813 125.473 31.596 125.753 31.876C126.033 32.1467 126.252 32.4687 126.411 32.842C126.579 33.2153 126.663 33.6213 126.663 34.06C126.663 34.4987 126.579 34.9047 126.411 35.278C126.252 35.6513 126.033 35.978 125.753 36.258C125.473 36.5287 125.137 36.7433 124.745 36.902C124.362 37.0513 123.947 37.126 123.499 37.126Z" fill="#828181"/>
<path d="M169.104 21.24C165.696 21.24 163.296 19.536 162.24 17.424L165.816 15.576C166.32 16.656 167.208 17.544 168.816 17.544C170.472 17.544 171.48 16.68 171.48 15.264C171.48 13.8 170.472 12.984 168.624 12.984C167.592 12.984 166.824 13.152 166.224 13.368C166.008 13.44 165.816 13.344 165.96 13.128L169.368 8.352H163.752V4.68H175.776C175.896 4.68 175.944 4.752 175.848 4.872L171.768 10.344C173.904 10.752 175.896 12.312 175.896 15.456C175.896 18.888 173.256 21.24 169.104 21.24Z" fill="#828181"/>
<path d="M150.702 34.41L149.512 31.442C149.447 31.302 149.386 31.1527 149.33 30.994C149.283 30.826 149.237 30.672 149.19 30.532C149.143 30.364 149.092 30.196 149.036 30.028C148.989 30.196 148.943 30.364 148.896 30.532C148.849 30.672 148.798 30.826 148.742 30.994C148.686 31.1527 148.63 31.302 148.574 31.442L147.384 34.41H150.702ZM148.98 27.382H149.148L153.32 37H151.78L151.234 35.656H146.88L146.334 37H144.906L148.98 27.382ZM156.442 37.14C156.162 37.14 155.906 37.1027 155.672 37.028C155.448 36.9533 155.252 36.832 155.084 36.664C154.926 36.496 154.8 36.2767 154.706 36.006C154.622 35.7353 154.58 35.404 154.58 35.012V32.31H153.698V31.12H154.58V28.054H155.994V31.12H157.562V32.31H155.994V35.04C155.994 35.376 156.046 35.6047 156.148 35.726C156.251 35.8473 156.396 35.908 156.582 35.908C156.75 35.908 156.89 35.88 157.002 35.824C157.114 35.7587 157.208 35.6933 157.282 35.628L157.954 36.58C157.805 36.72 157.609 36.8507 157.366 36.972C157.133 37.084 156.825 37.14 156.442 37.14ZM159.15 31.12H160.564L160.55 32.226C160.746 31.7593 160.998 31.442 161.306 31.274C161.614 31.0967 161.931 31.008 162.258 31.008C162.473 31.008 162.655 31.0313 162.804 31.078C162.953 31.1247 163.093 31.1853 163.224 31.26L162.748 32.534C162.636 32.478 162.519 32.4313 162.398 32.394C162.277 32.3567 162.137 32.338 161.978 32.338C161.558 32.338 161.217 32.4733 160.956 32.744C160.695 33.0147 160.564 33.4813 160.564 34.144V37H159.15V31.12ZM164.415 31.12H165.843V37H164.415V31.12ZM165.129 29.776C164.877 29.776 164.657 29.692 164.471 29.524C164.284 29.3467 164.191 29.118 164.191 28.838C164.191 28.5673 164.284 28.348 164.471 28.18C164.657 28.0027 164.877 27.914 165.129 27.914C165.381 27.914 165.6 28.0027 165.787 28.18C165.973 28.348 166.067 28.5673 166.067 28.838C166.067 29.118 165.973 29.3467 165.787 29.524C165.6 29.692 165.381 29.776 165.129 29.776ZM170.761 35.88C171.274 35.88 171.68 35.7167 171.979 35.39C172.278 35.054 172.427 34.606 172.427 34.046C172.427 33.514 172.278 33.0847 171.979 32.758C171.68 32.422 171.274 32.254 170.761 32.254C170.238 32.254 169.823 32.422 169.515 32.758C169.207 33.0847 169.053 33.514 169.053 34.046C169.053 34.606 169.207 35.054 169.515 35.39C169.823 35.7167 170.238 35.88 170.761 35.88ZM171.125 37.126C170.63 37.126 170.21 37.0187 169.865 36.804C169.52 36.58 169.254 36.2907 169.067 35.936L169.109 37H167.681V26.892H169.109V32.142C169.305 31.806 169.566 31.5307 169.893 31.316C170.229 31.1013 170.649 30.994 171.153 30.994C171.536 30.994 171.89 31.0687 172.217 31.218C172.553 31.3673 172.842 31.5773 173.085 31.848C173.337 32.1187 173.533 32.4407 173.673 32.814C173.813 33.1873 173.883 33.598 173.883 34.046C173.883 34.494 173.808 34.9047 173.659 35.278C173.519 35.6513 173.323 35.978 173.071 36.258C172.828 36.5287 172.539 36.7433 172.203 36.902C171.867 37.0513 171.508 37.126 171.125 37.126ZM177.52 37.126C176.876 37.126 176.349 36.9113 175.938 36.482C175.537 36.0433 175.336 35.4227 175.336 34.62V31.12H176.75V34.508C176.75 34.928 176.848 35.2547 177.044 35.488C177.24 35.7213 177.548 35.838 177.968 35.838C178.435 35.838 178.799 35.7027 179.06 35.432C179.331 35.1613 179.466 34.788 179.466 34.312V31.12H180.88V37H179.466L179.494 35.922C179.307 36.3047 179.041 36.6033 178.696 36.818C178.36 37.0233 177.968 37.126 177.52 37.126ZM184.976 37.14C184.696 37.14 184.439 37.1027 184.206 37.028C183.982 36.9533 183.786 36.832 183.618 36.664C183.459 36.496 183.333 36.2767 183.24 36.006C183.156 35.7353 183.114 35.404 183.114 35.012V32.31H182.232V31.12H183.114V28.054H184.528V31.12H186.096V32.31H184.528V35.04C184.528 35.376 184.579 35.6047 184.682 35.726C184.784 35.8473 184.929 35.908 185.116 35.908C185.284 35.908 185.424 35.88 185.536 35.824C185.648 35.7587 185.741 35.6933 185.816 35.628L186.488 36.58C186.338 36.72 186.142 36.8507 185.9 36.972C185.666 37.084 185.358 37.14 184.976 37.14ZM190.499 35.908C191.031 35.908 191.446 35.7353 191.745 35.39C192.053 35.0447 192.207 34.6013 192.207 34.06C192.207 33.5187 192.053 33.08 191.745 32.744C191.446 32.3987 191.031 32.226 190.499 32.226C189.967 32.226 189.547 32.3987 189.239 32.744C188.931 33.08 188.777 33.5187 188.777 34.06C188.777 34.6013 188.931 35.0447 189.239 35.39C189.547 35.7353 189.967 35.908 190.499 35.908ZM190.499 37.126C190.051 37.126 189.635 37.0513 189.253 36.902C188.87 36.7433 188.534 36.5287 188.245 36.258C187.955 35.978 187.727 35.6513 187.559 35.278C187.4 34.9047 187.321 34.4987 187.321 34.06C187.321 33.6213 187.4 33.2153 187.559 32.842C187.727 32.4687 187.955 32.1467 188.245 31.876C188.534 31.596 188.87 31.3813 189.253 31.232C189.635 31.0733 190.051 30.994 190.499 30.994C190.947 30.994 191.362 31.0733 191.745 31.232C192.137 31.3813 192.473 31.596 192.753 31.876C193.033 32.1467 193.252 32.4687 193.411 32.842C193.579 33.2153 193.663 33.6213 193.663 34.06C193.663 34.4987 193.579 34.9047 193.411 35.278C193.252 35.6513 193.033 35.978 192.753 36.258C192.473 36.5287 192.137 36.7433 191.745 36.902C191.362 37.0513 190.947 37.126 190.499 37.126Z" fill="#828181"/>
<path d="M241.796 18.168V21H237.62V18.168H229.316V14.856L237.308 4.68H241.796V14.712H243.668V18.168H241.796ZM237.62 14.712V9.768L233.732 14.712H237.62Z" fill="#828181"/>
<path d="M217.702 34.41L216.512 31.442C216.447 31.302 216.386 31.1527 216.33 30.994C216.283 30.826 216.237 30.672 216.19 30.532C216.143 30.364 216.092 30.196 216.036 30.028C215.989 30.196 215.943 30.364 215.896 30.532C215.849 30.672 215.798 30.826 215.742 30.994C215.686 31.1527 215.63 31.302 215.574 31.442L214.384 34.41H217.702ZM215.98 27.382H216.148L220.32 37H218.78L218.234 35.656H213.88L213.334 37H211.906L215.98 27.382ZM223.442 37.14C223.162 37.14 222.906 37.1027 222.672 37.028C222.448 36.9533 222.252 36.832 222.084 36.664C221.926 36.496 221.8 36.2767 221.706 36.006C221.622 35.7353 221.58 35.404 221.58 35.012V32.31H220.698V31.12H221.58V28.054H222.994V31.12H224.562V32.31H222.994V35.04C222.994 35.376 223.046 35.6047 223.148 35.726C223.251 35.8473 223.396 35.908 223.582 35.908C223.75 35.908 223.89 35.88 224.002 35.824C224.114 35.7587 224.208 35.6933 224.282 35.628L224.954 36.58C224.805 36.72 224.609 36.8507 224.366 36.972C224.133 37.084 223.825 37.14 223.442 37.14ZM226.15 31.12H227.564L227.55 32.226C227.746 31.7593 227.998 31.442 228.306 31.274C228.614 31.0967 228.931 31.008 229.258 31.008C229.473 31.008 229.655 31.0313 229.804 31.078C229.953 31.1247 230.093 31.1853 230.224 31.26L229.748 32.534C229.636 32.478 229.519 32.4313 229.398 32.394C229.277 32.3567 229.137 32.338 228.978 32.338C228.558 32.338 228.217 32.4733 227.956 32.744C227.695 33.0147 227.564 33.4813 227.564 34.144V37H226.15V31.12ZM231.415 31.12H232.843V37H231.415V31.12ZM232.129 29.776C231.877 29.776 231.657 29.692 231.471 29.524C231.284 29.3467 231.191 29.118 231.191 28.838C231.191 28.5673 231.284 28.348 231.471 28.18C231.657 28.0027 231.877 27.914 232.129 27.914C232.381 27.914 232.6 28.0027 232.787 28.18C232.973 28.348 233.067 28.5673 233.067 28.838C233.067 29.118 232.973 29.3467 232.787 29.524C232.6 29.692 232.381 29.776 232.129 29.776ZM237.761 35.88C238.274 35.88 238.68 35.7167 238.979 35.39C239.278 35.054 239.427 34.606 239.427 34.046C239.427 33.514 239.278 33.0847 238.979 32.758C238.68 32.422 238.274 32.254 237.761 32.254C237.238 32.254 236.823 32.422 236.515 32.758C236.207 33.0847 236.053 33.514 236.053 34.046C236.053 34.606 236.207 35.054 236.515 35.39C236.823 35.7167 237.238 35.88 237.761 35.88ZM238.125 37.126C237.63 37.126 237.21 37.0187 236.865 36.804C236.52 36.58 236.254 36.2907 236.067 35.936L236.109 37H234.681V26.892H236.109V32.142C236.305 31.806 236.566 31.5307 236.893 31.316C237.229 31.1013 237.649 30.994 238.153 30.994C238.536 30.994 238.89 31.0687 239.217 31.218C239.553 31.3673 239.842 31.5773 240.085 31.848C240.337 32.1187 240.533 32.4407 240.673 32.814C240.813 33.1873 240.883 33.598 240.883 34.046C240.883 34.494 240.808 34.9047 240.659 35.278C240.519 35.6513 240.323 35.978 240.071 36.258C239.828 36.5287 239.539 36.7433 239.203 36.902C238.867 37.0513 238.508 37.126 238.125 37.126ZM244.52 37.126C243.876 37.126 243.349 36.9113 242.938 36.482C242.537 36.0433 242.336 35.4227 242.336 34.62V31.12H243.75V34.508C243.75 34.928 243.848 35.2547 244.044 35.488C244.24 35.7213 244.548 35.838 244.968 35.838C245.435 35.838 245.799 35.7027 246.06 35.432C246.331 35.1613 246.466 34.788 246.466 34.312V31.12H247.88V37H246.466L246.494 35.922C246.307 36.3047 246.041 36.6033 245.696 36.818C245.36 37.0233 244.968 37.126 244.52 37.126ZM251.976 37.14C251.696 37.14 251.439 37.1027 251.206 37.028C250.982 36.9533 250.786 36.832 250.618 36.664C250.459 36.496 250.333 36.2767 250.24 36.006C250.156 35.7353 250.114 35.404 250.114 35.012V32.31H249.232V31.12H250.114V28.054H251.528V31.12H253.096V32.31H251.528V35.04C251.528 35.376 251.579 35.6047 251.682 35.726C251.784 35.8473 251.929 35.908 252.116 35.908C252.284 35.908 252.424 35.88 252.536 35.824C252.648 35.7587 252.741 35.6933 252.816 35.628L253.488 36.58C253.338 36.72 253.142 36.8507 252.9 36.972C252.666 37.084 252.358 37.14 251.976 37.14ZM257.499 35.908C258.031 35.908 258.446 35.7353 258.745 35.39C259.053 35.0447 259.207 34.6013 259.207 34.06C259.207 33.5187 259.053 33.08 258.745 32.744C258.446 32.3987 258.031 32.226 257.499 32.226C256.967 32.226 256.547 32.3987 256.239 32.744C255.931 33.08 255.777 33.5187 255.777 34.06C255.777 34.6013 255.931 35.0447 256.239 35.39C256.547 35.7353 256.967 35.908 257.499 35.908ZM257.499 37.126C257.051 37.126 256.635 37.0513 256.253 36.902C255.87 36.7433 255.534 36.5287 255.245 36.258C254.955 35.978 254.727 35.6513 254.559 35.278C254.4 34.9047 254.321 34.4987 254.321 34.06C254.321 33.6213 254.4 33.2153 254.559 32.842C254.727 32.4687 254.955 32.1467 255.245 31.876C255.534 31.596 255.87 31.3813 256.253 31.232C256.635 31.0733 257.051 30.994 257.499 30.994C257.947 30.994 258.362 31.0733 258.745 31.232C259.137 31.3813 259.473 31.596 259.753 31.876C260.033 32.1467 260.252 32.4687 260.411 32.842C260.579 33.2153 260.663 33.6213 260.663 34.06C260.663 34.4987 260.579 34.9047 260.411 35.278C260.252 35.6513 260.033 35.978 259.753 36.258C259.473 36.5287 259.137 36.7433 258.745 36.902C258.362 37.0513 257.947 37.126 257.499 37.126Z" fill="#828181"/>
</svg>
