<svg width="375" height="215" viewBox="0 0 375 215" fill="none" xmlns="http://www.w3.org/2000/svg">
<rect width="375" height="215" fill="#D9D9D9"/>
<rect width="127" height="44" transform="translate(220 31)" fill="#ED1B24"/>
<path d="M237.104 60.24C233.696 60.24 231.296 58.536 230.24 56.424L233.816 54.576C234.32 55.656 235.208 56.544 236.816 56.544C238.472 56.544 239.48 55.68 239.48 54.264C239.48 52.8 238.472 51.984 236.624 51.984C235.592 51.984 234.824 52.152 234.224 52.368C234.008 52.44 233.816 52.344 233.96 52.128L237.368 47.352H231.752V43.68H243.776C243.896 43.68 243.944 43.752 243.848 43.872L239.768 49.344C241.904 49.752 243.896 51.312 243.896 54.456C243.896 57.888 241.256 60.24 237.104 60.24ZM246.31 60L252.166 47.352H245.014V43.68H258.214C258.334 43.68 258.382 43.728 258.286 43.944L250.918 60H246.31ZM264.635 60.24C261.395 60.24 259.139 58.752 258.107 56.736L261.611 54.792C262.019 55.536 262.979 56.52 264.491 56.52C265.955 56.52 267.011 55.8 267.011 54.408C267.011 52.8 265.835 52.152 263.987 52.152C262.235 52.152 260.795 52.824 259.979 53.352C259.715 53.52 259.619 53.448 259.619 53.232V43.68H269.891V47.352H263.195V49.08C263.507 48.96 264.083 48.84 265.043 48.84C269.243 48.84 271.475 51.168 271.475 54.384C271.475 57.936 268.763 60.24 264.635 60.24ZM283.762 51.24L279.01 43.68H283.882L286.306 47.808L288.754 43.68H293.29L288.562 51.048L294.178 60H289.306L286.018 54.48L282.658 60H278.122L283.762 51.24ZM300.226 60C300.01 60 299.962 59.856 300.154 59.664L307.21 52.128C308.098 51.144 308.866 50.208 308.866 49.032C308.866 47.976 308.122 47.208 306.922 47.208C305.698 47.208 304.69 48.168 304.45 49.728L300.538 48.576C301.282 45.36 303.634 43.488 307.042 43.488C310.522 43.488 313.114 45.48 313.114 48.672C313.114 50.736 312.034 52.32 310.45 54L308.17 56.424H313.018V60H300.226ZM316.668 60V47.352H314.34V43.68H321.036V60H316.668ZM329.416 60.24C326.176 60.24 323.92 58.752 322.888 56.736L326.392 54.792C326.8 55.536 327.76 56.52 329.272 56.52C330.736 56.52 331.792 55.8 331.792 54.408C331.792 52.8 330.616 52.152 328.768 52.152C327.016 52.152 325.576 52.824 324.76 53.352C324.496 53.52 324.4 53.448 324.4 53.232V43.68H334.672V47.352H327.976V49.08C328.288 48.96 328.864 48.84 329.824 48.84C334.024 48.84 336.256 51.168 336.256 54.384C336.256 57.936 333.544 60.24 329.416 60.24Z" fill="white"/>
</svg>
