<svg width="55" height="55" viewBox="0 0 55 55" fill="none" xmlns="http://www.w3.org/2000/svg">
<circle cx="27.5" cy="27.5" r="27.5" fill="#EEEEEE"/>
<path d="M11.0256 31.0994C10.6089 31.0994 10.2337 31.0166 9.89986 30.8509C9.56605 30.6851 9.29853 30.4579 9.0973 30.169C8.89607 29.8802 8.78598 29.5511 8.76705 29.1818H9.61932C9.65246 29.5109 9.80161 29.7831 10.0668 29.9986C10.3343 30.2116 10.6539 30.3182 11.0256 30.3182C11.3239 30.3182 11.589 30.2483 11.821 30.1087C12.0554 29.969 12.2389 29.7772 12.3714 29.5334C12.5064 29.2872 12.5739 29.009 12.5739 28.6989C12.5739 28.3816 12.504 28.0987 12.3643 27.8501C12.227 27.5992 12.0376 27.4015 11.7962 27.2571C11.5547 27.1127 11.2789 27.0393 10.9688 27.0369C10.7462 27.0346 10.5178 27.0689 10.2834 27.1399C10.049 27.2086 9.85606 27.2973 9.70455 27.4062L8.88068 27.3068L9.32102 23.7273H13.0994V24.5085H10.0597L9.80398 26.6534H9.84659C9.99574 26.535 10.1828 26.4368 10.4077 26.3587C10.6326 26.2805 10.867 26.2415 11.1108 26.2415C11.5559 26.2415 11.9524 26.348 12.3004 26.5611C12.6508 26.7718 12.9254 27.0606 13.1243 27.4276C13.3255 27.7945 13.4261 28.2135 13.4261 28.6847C13.4261 29.1487 13.322 29.563 13.1136 29.9276C12.9077 30.2898 12.6236 30.5762 12.2614 30.7869C11.8991 30.9953 11.4872 31.0994 11.0256 31.0994ZM17.1096 31.0994C16.6929 31.0994 16.3176 31.0166 15.9838 30.8509C15.65 30.6851 15.3825 30.4579 15.1813 30.169C14.9801 29.8802 14.87 29.5511 14.851 29.1818H15.7033C15.7364 29.5109 15.8856 29.7831 16.1507 29.9986C16.4183 30.2116 16.7379 30.3182 17.1096 30.3182C17.4078 30.3182 17.673 30.2483 17.905 30.1087C18.1394 29.969 18.3229 29.7772 18.4554 29.5334C18.5904 29.2872 18.6578 29.009 18.6578 28.6989C18.6578 28.3816 18.588 28.0987 18.4483 27.8501C18.311 27.5992 18.1216 27.4015 17.8801 27.2571C17.6387 27.1127 17.3629 27.0393 17.0527 27.0369C16.8302 27.0346 16.6017 27.0689 16.3674 27.1399C16.133 27.2086 15.94 27.2973 15.7885 27.4062L14.9647 27.3068L15.405 23.7273H19.1834V24.5085H16.1436L15.888 26.6534H15.9306C16.0797 26.535 16.2667 26.4368 16.4917 26.3587C16.7166 26.2805 16.9509 26.2415 17.1948 26.2415C17.6399 26.2415 18.0364 26.348 18.3844 26.5611C18.7348 26.7718 19.0094 27.0606 19.2083 27.4276C19.4095 27.7945 19.5101 28.2135 19.5101 28.6847C19.5101 29.1487 19.406 29.563 19.1976 29.9276C18.9917 30.2898 18.7076 30.5762 18.3453 30.7869C17.9831 30.9953 17.5712 31.0994 17.1096 31.0994ZM25.1964 29.6932L21.1907 25.6875L21.7305 25.1477L25.7362 29.1534L25.1964 29.6932ZM21.7305 29.6932L21.1907 29.1534L25.1964 25.1477L25.7362 25.6875L21.7305 29.6932ZM29.7853 31.0994C29.3687 31.0994 28.9934 31.0166 28.6596 30.8509C28.3258 30.6851 28.0583 30.4579 27.8571 30.169C27.6558 29.8802 27.5458 29.5511 27.5268 29.1818H28.3791C28.4122 29.5109 28.5614 29.7831 28.8265 29.9986C29.094 30.2116 29.4136 30.3182 29.7853 30.3182C30.0836 30.3182 30.3488 30.2483 30.5808 30.1087C30.8152 29.969 30.9986 29.7772 31.1312 29.5334C31.2662 29.2872 31.3336 29.009 31.3336 28.6989C31.3336 28.3816 31.2638 28.0987 31.1241 27.8501C30.9868 27.5992 30.7974 27.4015 30.5559 27.2571C30.3145 27.1127 30.0386 27.0393 29.7285 27.0369C29.506 27.0346 29.2775 27.0689 29.0431 27.1399C28.8088 27.2086 28.6158 27.2973 28.4643 27.4062L27.6404 27.3068L28.0808 23.7273H31.8592V24.5085H28.8194L28.5637 26.6534H28.6064C28.7555 26.535 28.9425 26.4368 29.1674 26.3587C29.3923 26.2805 29.6267 26.2415 29.8706 26.2415C30.3156 26.2415 30.7122 26.348 31.0602 26.5611C31.4106 26.7718 31.6852 27.0606 31.8841 27.4276C32.0853 27.7945 32.1859 28.2135 32.1859 28.6847C32.1859 29.1487 32.0817 29.563 31.8734 29.9276C31.6674 30.2898 31.3833 30.5762 31.0211 30.7869C30.6589 30.9953 30.247 31.0994 29.7853 31.0994ZM35.8693 31.0994C35.4527 31.0994 35.0774 31.0166 34.7436 30.8509C34.4098 30.6851 34.1423 30.4579 33.9411 30.169C33.7398 29.8802 33.6297 29.5511 33.6108 29.1818H34.4631C34.4962 29.5109 34.6454 29.7831 34.9105 29.9986C35.178 30.2116 35.4976 30.3182 35.8693 30.3182C36.1676 30.3182 36.4328 30.2483 36.6648 30.1087C36.8991 29.969 37.0826 29.7772 37.2152 29.5334C37.3501 29.2872 37.4176 29.009 37.4176 28.6989C37.4176 28.3816 37.3478 28.0987 37.2081 27.8501C37.0708 27.5992 36.8814 27.4015 36.6399 27.2571C36.3984 27.1127 36.1226 27.0393 35.8125 27.0369C35.59 27.0346 35.3615 27.0689 35.1271 27.1399C34.8928 27.2086 34.6998 27.2973 34.5483 27.4062L33.7244 27.3068L34.1648 23.7273H37.9432V24.5085H34.9034L34.6477 26.6534H34.6903C34.8395 26.535 35.0265 26.4368 35.2514 26.3587C35.4763 26.2805 35.7107 26.2415 35.9545 26.2415C36.3996 26.2415 36.7962 26.348 37.1442 26.5611C37.4946 26.7718 37.7692 27.0606 37.968 27.4276C38.1693 27.7945 38.2699 28.2135 38.2699 28.6847C38.2699 29.1487 38.1657 29.563 37.9574 29.9276C37.7514 30.2898 37.4673 30.5762 37.1051 30.7869C36.7429 30.9953 36.331 31.0994 35.8693 31.0994ZM39.6948 33.0455V25.5455H40.5044V26.4119H40.6039C40.6654 26.3172 40.7507 26.1965 40.8596 26.0497C40.9708 25.9006 41.1294 25.768 41.3354 25.652C41.5437 25.5336 41.8255 25.4744 42.1806 25.4744C42.6399 25.4744 43.0447 25.5893 43.3951 25.8189C43.7454 26.0485 44.0189 26.3741 44.2154 26.7955C44.4119 27.2169 44.5101 27.714 44.5101 28.2869C44.5101 28.8646 44.4119 29.3653 44.2154 29.7891C44.0189 30.2105 43.7466 30.5372 43.3986 30.7692C43.0506 30.9988 42.6493 31.1136 42.1948 31.1136C41.8444 31.1136 41.5639 31.0556 41.3532 30.9396C41.1425 30.8213 40.9803 30.6875 40.8667 30.5384C40.753 30.3868 40.6654 30.2614 40.6039 30.1619H40.5328V33.0455H39.6948ZM40.5186 28.2727C40.5186 28.6847 40.579 29.0481 40.6998 29.3629C40.8205 29.6754 40.9969 29.9205 41.2289 30.098C41.4609 30.2732 41.745 30.3608 42.0811 30.3608C42.4315 30.3608 42.7239 30.2685 42.9583 30.0838C43.195 29.8968 43.3726 29.6458 43.4909 29.331C43.6117 29.0137 43.6721 28.661 43.6721 28.2727C43.6721 27.8892 43.6129 27.5436 43.4945 27.2358C43.3785 26.9257 43.2021 26.6806 42.9654 26.5007C42.731 26.3184 42.4363 26.2273 42.0811 26.2273C41.7402 26.2273 41.4538 26.3137 41.2218 26.4865C40.9898 26.657 40.8146 26.8961 40.6962 27.2038C40.5778 27.5092 40.5186 27.8655 40.5186 28.2727ZM46.1889 25.5455L47.4957 27.7756L48.8026 25.5455H49.7685L48.0071 28.2727L49.7685 31H48.8026L47.4957 28.8835L46.1889 31H45.223L46.956 28.2727L45.223 25.5455H46.1889Z" fill="black"/>
</svg>
