<svg width="29" height="24" viewBox="0 0 29 24" fill="none" xmlns="http://www.w3.org/2000/svg">
<path d="M20.2548 0C17.6729 0 15.4124 1.11026 14.0033 2.98695C12.5942 1.11026 10.3337 0 7.75183 0C5.69663 0.00231647 3.72626 0.819769 2.27302 2.27302C0.819769 3.72626 0.00231647 5.69663 0 7.75183C0 16.5039 12.9768 23.5881 13.5294 23.8806C13.6751 23.959 13.8379 24 14.0033 24C14.1687 24 14.3315 23.959 14.4772 23.8806C15.0298 23.5881 28.0066 16.5039 28.0066 7.75183C28.0043 5.69663 27.1868 3.72626 25.7336 2.27302C24.2803 0.819769 22.31 0.00231647 20.2548 0ZM14.0033 21.8552C11.7203 20.5248 2.00047 14.4647 2.00047 7.75183C2.00246 6.22708 2.60904 4.76536 3.6872 3.6872C4.76536 2.60904 6.22708 2.00246 7.75183 2.00047C10.1837 2.00047 12.2254 3.29578 13.0781 5.37627C13.1534 5.55972 13.2816 5.71663 13.4464 5.82706C13.6111 5.93749 13.805 5.99645 14.0033 5.99645C14.2016 5.99645 14.3955 5.93749 14.5602 5.82706C14.725 5.71663 14.8532 5.55972 14.9285 5.37627C15.7812 3.29203 17.823 2.00047 20.2548 2.00047C21.7795 2.00246 23.2412 2.60904 24.3194 3.6872C25.3976 4.76536 26.0041 6.22708 26.0061 7.75183C26.0061 14.4547 16.2838 20.5236 14.0033 21.8552Z" fill="#3D3C3C"/>
</svg>
