<svg width="15" height="15" viewBox="0 0 15 15" fill="none" xmlns="http://www.w3.org/2000/svg">
<path fill-rule="evenodd" clip-rule="evenodd" d="M7.5 14.138C3.73223 14.138 0.684239 11.1256 0.684239 7.40666C0.684239 3.68776 3.73667 0.675364 7.5 0.675364C11.2633 0.675364 14.3158 3.68776 14.3158 7.40666C14.3158 11.1256 11.2633 14.138 7.5 14.138ZM7.5 0C3.35901 0 0 3.31454 0 7.40666C0 11.4988 3.35901 14.8134 7.5 14.8134C11.641 14.8134 15 11.4988 15 7.40666C15 3.31454 11.641 0 7.5 0ZM6.71801 3.46561C6.6558 3.4034 6.57139 3.36787 6.47808 3.36787C6.29147 3.36787 6.13596 3.51894 6.13596 3.70555C6.13596 3.79886 6.17595 3.8833 6.23815 3.9455L9.42832 7.41111L6.23815 10.8768C6.17595 10.939 6.13596 11.0234 6.13596 11.1167C6.13596 11.3033 6.28703 11.4544 6.47808 11.4544C6.57139 11.4544 6.6558 11.4188 6.71801 11.3566L10.1259 7.6555C10.1881 7.5933 10.2281 7.50886 10.2281 7.41556C10.2281 7.32225 10.1881 7.23787 10.1259 7.17566L6.71801 3.4745V3.46561Z" fill="#E2E1E1"/>
</svg>
