<svg width="15" height="15" viewBox="0 0 15 15" fill="none" xmlns="http://www.w3.org/2000/svg">
<path fill-rule="evenodd" clip-rule="evenodd" d="M7.5 14.138C3.73222 14.138 0.684239 11.1256 0.684239 7.40666C0.684239 3.68776 3.73667 0.675364 7.5 0.675364C11.2633 0.675364 14.3158 3.68776 14.3158 7.40666C14.3158 11.1256 11.2633 14.138 7.5 14.138ZM7.5 0C3.359 0 0 3.31454 0 7.40666C0 11.4988 3.359 14.8134 7.5 14.8134C11.641 14.8134 15 11.4988 15 7.40666C15 3.31454 11.641 0 7.5 0ZM8.86404 3.70111C8.86404 3.5145 8.71297 3.36342 8.52192 3.36342C8.42861 3.36342 8.3442 3.39896 8.28199 3.46116L4.87411 7.16232C4.81191 7.22453 4.77192 7.30896 4.77192 7.40227C4.77192 7.49557 4.81191 7.57996 4.87411 7.64216L8.28199 11.3433C8.3442 11.4055 8.42861 11.4411 8.52192 11.4411C8.70853 11.4411 8.86404 11.29 8.86404 11.1034C8.86404 11.0101 8.82405 10.9256 8.76185 10.8634L5.57168 7.39782L8.76185 3.93216C8.82405 3.86995 8.86404 3.78552 8.86404 3.69221" fill="#E2E1E1"/>
</svg>
