<svg width="246" height="39" viewBox="0 0 246 39" fill="none" xmlns="http://www.w3.org/2000/svg">
<path d="M225.296 16.168V19H221.12V16.168H212.816V12.856L220.808 2.68H225.296V12.712H227.168V16.168H225.296ZM221.12 12.712V7.768L217.232 12.712H221.12Z" fill="#828181"/>
<path d="M153.104 19.24C149.696 19.24 147.296 17.536 146.24 15.424L149.816 13.576C150.32 14.656 151.208 15.544 152.816 15.544C154.472 15.544 155.48 14.68 155.48 13.264C155.48 11.8 154.472 10.984 152.624 10.984C151.592 10.984 150.824 11.152 150.224 11.368C150.008 11.44 149.816 11.344 149.96 11.128L153.368 6.352H147.752V2.68H159.776C159.896 2.68 159.944 2.752 159.848 2.872L155.768 8.344C157.904 8.752 159.896 10.312 159.896 13.456C159.896 16.888 157.256 19.24 153.104 19.24Z" fill="#828181"/>
<path d="M78.288 19C78.072 19 78.024 18.856 78.216 18.664L85.272 11.128C86.16 10.144 86.928 9.208 86.928 8.032C86.928 6.976 86.184 6.208 84.984 6.208C83.76 6.208 82.752 7.168 82.512 8.728L78.6 7.576C79.344 4.36 81.696 2.488 85.104 2.488C88.584 2.488 91.176 4.48 91.176 7.672C91.176 9.736 90.096 11.32 88.512 13L86.232 15.424H91.08V19H78.288Z" fill="#828181"/>
<path d="M17.832 19V6.352H15.504V2.68H22.2V19H17.832Z" fill="#828181"/>
<path d="M6.804 35.39V37H1.316V27.48H2.996V35.39H6.804ZM14.0117 33.024V33.864C14.0117 34.8533 13.741 35.6467 13.1997 36.244C12.6584 36.8413 11.893 37.14 10.9037 37.14C9.91437 37.14 9.14904 36.8413 8.6077 36.244C8.06637 35.6467 7.7957 34.8533 7.7957 33.864V33.024C7.7957 32.0347 8.0617 31.246 8.5937 30.658C9.13504 30.0607 9.90504 29.762 10.9037 29.762C11.9024 29.762 12.6677 30.0607 13.1997 30.658C13.741 31.246 14.0117 32.0347 14.0117 33.024ZM12.3597 33.024C12.3597 32.4547 12.2337 32.0113 11.9817 31.694C11.7297 31.3673 11.3704 31.204 10.9037 31.204C10.437 31.204 10.0777 31.3673 9.8257 31.694C9.5737 32.0113 9.4477 32.4547 9.4477 33.024V33.864C9.4477 34.4333 9.5737 34.8813 9.8257 35.208C10.0777 35.5347 10.437 35.698 10.9037 35.698C11.3704 35.698 11.7297 35.5347 11.9817 35.208C12.2337 34.8813 12.3597 34.4333 12.3597 33.864V33.024ZM19.8209 31.372C19.3823 31.372 18.9623 31.442 18.5609 31.582C18.1689 31.7127 17.7909 31.9273 17.4269 32.226V37H15.8169V29.902H17.3429V30.994C17.8189 30.546 18.2436 30.2287 18.6169 30.042C18.9903 29.8553 19.3916 29.762 19.8209 29.762V31.372ZM26.621 36.594C26.1357 36.79 25.6783 36.93 25.249 37.014C24.8197 37.098 24.4137 37.14 24.031 37.14C22.9763 37.14 22.1783 36.8413 21.637 36.244C21.0957 35.6467 20.825 34.8533 20.825 33.864V33.024C20.825 32.3613 20.9463 31.7873 21.189 31.302C21.4317 30.8167 21.777 30.4387 22.225 30.168C22.673 29.8973 23.2003 29.762 23.807 29.762C24.3017 29.762 24.7637 29.8647 25.193 30.07C25.6317 30.266 25.9863 30.5787 26.257 31.008C26.537 31.428 26.677 31.9693 26.677 32.632C26.677 32.828 26.663 33.038 26.635 33.262C26.607 33.4767 26.5603 33.7053 26.495 33.948H22.379C22.3977 34.5267 22.5423 34.9607 22.813 35.25C23.0837 35.5393 23.5177 35.684 24.115 35.684C24.4323 35.684 24.759 35.6467 25.095 35.572C25.4403 35.4973 25.795 35.3853 26.159 35.236L26.621 36.594ZM23.807 31.12C23.3777 31.12 23.0417 31.26 22.799 31.54C22.5657 31.8107 22.4303 32.2027 22.393 32.716H25.081C25.0903 32.6693 25.095 32.6273 25.095 32.59C25.095 32.5433 25.095 32.5013 25.095 32.464C25.095 32.016 24.969 31.68 24.717 31.456C24.465 31.232 24.1617 31.12 23.807 31.12ZM30.1418 32.086V37H28.5318V29.902H30.0578V30.84C30.4964 30.4573 30.9024 30.182 31.2758 30.014C31.6491 29.846 32.0318 29.762 32.4238 29.762C33.2918 29.762 33.8844 30.1447 34.2018 30.91C34.6684 30.4993 35.1024 30.2053 35.5038 30.028C35.9051 29.8507 36.3111 29.762 36.7218 29.762C37.3751 29.762 37.8744 29.9813 38.2198 30.42C38.5651 30.8493 38.7378 31.456 38.7378 32.24V37H37.1278V32.436C37.1278 31.652 36.8291 31.26 36.2318 31.26C35.9984 31.26 35.7418 31.316 35.4618 31.428C35.1818 31.54 34.8411 31.7593 34.4398 32.086V37H32.8298V32.436C32.8298 31.652 32.5311 31.26 31.9338 31.26C31.7004 31.26 31.4438 31.316 31.1638 31.428C30.8838 31.54 30.5431 31.7593 30.1418 32.086Z" fill="#828181"/>
<path d="M209.804 35.39V37H204.316V27.48H205.996V35.39H209.804ZM217.012 33.024V33.864C217.012 34.8533 216.741 35.6467 216.2 36.244C215.658 36.8413 214.893 37.14 213.904 37.14C212.914 37.14 212.149 36.8413 211.608 36.244C211.066 35.6467 210.796 34.8533 210.796 33.864V33.024C210.796 32.0347 211.062 31.246 211.594 30.658C212.135 30.0607 212.905 29.762 213.904 29.762C214.902 29.762 215.668 30.0607 216.2 30.658C216.741 31.246 217.012 32.0347 217.012 33.024ZM215.36 33.024C215.36 32.4547 215.234 32.0113 214.982 31.694C214.73 31.3673 214.37 31.204 213.904 31.204C213.437 31.204 213.078 31.3673 212.826 31.694C212.574 32.0113 212.448 32.4547 212.448 33.024V33.864C212.448 34.4333 212.574 34.8813 212.826 35.208C213.078 35.5347 213.437 35.698 213.904 35.698C214.37 35.698 214.73 35.5347 214.982 35.208C215.234 34.8813 215.36 34.4333 215.36 33.864V33.024ZM222.821 31.372C222.382 31.372 221.962 31.442 221.561 31.582C221.169 31.7127 220.791 31.9273 220.427 32.226V37H218.817V29.902H220.343V30.994C220.819 30.546 221.244 30.2287 221.617 30.042C221.99 29.8553 222.392 29.762 222.821 29.762V31.372ZM229.621 36.594C229.136 36.79 228.678 36.93 228.249 37.014C227.82 37.098 227.414 37.14 227.031 37.14C225.976 37.14 225.178 36.8413 224.637 36.244C224.096 35.6467 223.825 34.8533 223.825 33.864V33.024C223.825 32.3613 223.946 31.7873 224.189 31.302C224.432 30.8167 224.777 30.4387 225.225 30.168C225.673 29.8973 226.2 29.762 226.807 29.762C227.302 29.762 227.764 29.8647 228.193 30.07C228.632 30.266 228.986 30.5787 229.257 31.008C229.537 31.428 229.677 31.9693 229.677 32.632C229.677 32.828 229.663 33.038 229.635 33.262C229.607 33.4767 229.56 33.7053 229.495 33.948H225.379C225.398 34.5267 225.542 34.9607 225.813 35.25C226.084 35.5393 226.518 35.684 227.115 35.684C227.432 35.684 227.759 35.6467 228.095 35.572C228.44 35.4973 228.795 35.3853 229.159 35.236L229.621 36.594ZM226.807 31.12C226.378 31.12 226.042 31.26 225.799 31.54C225.566 31.8107 225.43 32.2027 225.393 32.716H228.081C228.09 32.6693 228.095 32.6273 228.095 32.59C228.095 32.5433 228.095 32.5013 228.095 32.464C228.095 32.016 227.969 31.68 227.717 31.456C227.465 31.232 227.162 31.12 226.807 31.12ZM233.142 32.086V37H231.532V29.902H233.058V30.84C233.496 30.4573 233.902 30.182 234.276 30.014C234.649 29.846 235.032 29.762 235.424 29.762C236.292 29.762 236.884 30.1447 237.202 30.91C237.668 30.4993 238.102 30.2053 238.504 30.028C238.905 29.8507 239.311 29.762 239.722 29.762C240.375 29.762 240.874 29.9813 241.22 30.42C241.565 30.8493 241.738 31.456 241.738 32.24V37H240.128V32.436C240.128 31.652 239.829 31.26 239.232 31.26C238.998 31.26 238.742 31.316 238.462 31.428C238.182 31.54 237.841 31.7593 237.44 32.086V37H235.83V32.436C235.83 31.652 235.531 31.26 234.934 31.26C234.7 31.26 234.444 31.316 234.164 31.428C233.884 31.54 233.543 31.7593 233.142 32.086Z" fill="#828181"/>
<path d="M140.804 35.39V37H135.316V27.48H136.996V35.39H140.804ZM148.012 33.024V33.864C148.012 34.8533 147.741 35.6467 147.2 36.244C146.658 36.8413 145.893 37.14 144.904 37.14C143.914 37.14 143.149 36.8413 142.608 36.244C142.066 35.6467 141.796 34.8533 141.796 33.864V33.024C141.796 32.0347 142.062 31.246 142.594 30.658C143.135 30.0607 143.905 29.762 144.904 29.762C145.902 29.762 146.668 30.0607 147.2 30.658C147.741 31.246 148.012 32.0347 148.012 33.024ZM146.36 33.024C146.36 32.4547 146.234 32.0113 145.982 31.694C145.73 31.3673 145.37 31.204 144.904 31.204C144.437 31.204 144.078 31.3673 143.826 31.694C143.574 32.0113 143.448 32.4547 143.448 33.024V33.864C143.448 34.4333 143.574 34.8813 143.826 35.208C144.078 35.5347 144.437 35.698 144.904 35.698C145.37 35.698 145.73 35.5347 145.982 35.208C146.234 34.8813 146.36 34.4333 146.36 33.864V33.024ZM153.821 31.372C153.382 31.372 152.962 31.442 152.561 31.582C152.169 31.7127 151.791 31.9273 151.427 32.226V37H149.817V29.902H151.343V30.994C151.819 30.546 152.244 30.2287 152.617 30.042C152.99 29.8553 153.392 29.762 153.821 29.762V31.372ZM160.621 36.594C160.136 36.79 159.678 36.93 159.249 37.014C158.82 37.098 158.414 37.14 158.031 37.14C156.976 37.14 156.178 36.8413 155.637 36.244C155.096 35.6467 154.825 34.8533 154.825 33.864V33.024C154.825 32.3613 154.946 31.7873 155.189 31.302C155.432 30.8167 155.777 30.4387 156.225 30.168C156.673 29.8973 157.2 29.762 157.807 29.762C158.302 29.762 158.764 29.8647 159.193 30.07C159.632 30.266 159.986 30.5787 160.257 31.008C160.537 31.428 160.677 31.9693 160.677 32.632C160.677 32.828 160.663 33.038 160.635 33.262C160.607 33.4767 160.56 33.7053 160.495 33.948H156.379C156.398 34.5267 156.542 34.9607 156.813 35.25C157.084 35.5393 157.518 35.684 158.115 35.684C158.432 35.684 158.759 35.6467 159.095 35.572C159.44 35.4973 159.795 35.3853 160.159 35.236L160.621 36.594ZM157.807 31.12C157.378 31.12 157.042 31.26 156.799 31.54C156.566 31.8107 156.43 32.2027 156.393 32.716H159.081C159.09 32.6693 159.095 32.6273 159.095 32.59C159.095 32.5433 159.095 32.5013 159.095 32.464C159.095 32.016 158.969 31.68 158.717 31.456C158.465 31.232 158.162 31.12 157.807 31.12ZM164.142 32.086V37H162.532V29.902H164.058V30.84C164.496 30.4573 164.902 30.182 165.276 30.014C165.649 29.846 166.032 29.762 166.424 29.762C167.292 29.762 167.884 30.1447 168.202 30.91C168.668 30.4993 169.102 30.2053 169.504 30.028C169.905 29.8507 170.311 29.762 170.722 29.762C171.375 29.762 171.874 29.9813 172.22 30.42C172.565 30.8493 172.738 31.456 172.738 32.24V37H171.128V32.436C171.128 31.652 170.829 31.26 170.232 31.26C169.998 31.26 169.742 31.316 169.462 31.428C169.182 31.54 168.841 31.7593 168.44 32.086V37H166.83V32.436C166.83 31.652 166.531 31.26 165.934 31.26C165.7 31.26 165.444 31.316 165.164 31.428C164.884 31.54 164.543 31.7593 164.142 32.086Z" fill="#828181"/>
<path d="M71.804 35.39V37H66.316V27.48H67.996V35.39H71.804ZM79.0117 33.024V33.864C79.0117 34.8533 78.741 35.6467 78.1997 36.244C77.6584 36.8413 76.893 37.14 75.9037 37.14C74.9144 37.14 74.149 36.8413 73.6077 36.244C73.0664 35.6467 72.7957 34.8533 72.7957 33.864V33.024C72.7957 32.0347 73.0617 31.246 73.5937 30.658C74.135 30.0607 74.905 29.762 75.9037 29.762C76.9024 29.762 77.6677 30.0607 78.1997 30.658C78.741 31.246 79.0117 32.0347 79.0117 33.024ZM77.3597 33.024C77.3597 32.4547 77.2337 32.0113 76.9817 31.694C76.7297 31.3673 76.3704 31.204 75.9037 31.204C75.437 31.204 75.0777 31.3673 74.8257 31.694C74.5737 32.0113 74.4477 32.4547 74.4477 33.024V33.864C74.4477 34.4333 74.5737 34.8813 74.8257 35.208C75.0777 35.5347 75.437 35.698 75.9037 35.698C76.3704 35.698 76.7297 35.5347 76.9817 35.208C77.2337 34.8813 77.3597 34.4333 77.3597 33.864V33.024ZM84.8209 31.372C84.3823 31.372 83.9623 31.442 83.5609 31.582C83.1689 31.7127 82.7909 31.9273 82.4269 32.226V37H80.8169V29.902H82.3429V30.994C82.8189 30.546 83.2436 30.2287 83.6169 30.042C83.9903 29.8553 84.3916 29.762 84.8209 29.762V31.372ZM91.621 36.594C91.1357 36.79 90.6783 36.93 90.249 37.014C89.8197 37.098 89.4137 37.14 89.031 37.14C87.9763 37.14 87.1783 36.8413 86.637 36.244C86.0957 35.6467 85.825 34.8533 85.825 33.864V33.024C85.825 32.3613 85.9463 31.7873 86.189 31.302C86.4317 30.8167 86.777 30.4387 87.225 30.168C87.673 29.8973 88.2003 29.762 88.807 29.762C89.3017 29.762 89.7637 29.8647 90.193 30.07C90.6317 30.266 90.9863 30.5787 91.257 31.008C91.537 31.428 91.677 31.9693 91.677 32.632C91.677 32.828 91.663 33.038 91.635 33.262C91.607 33.4767 91.5603 33.7053 91.495 33.948H87.379C87.3977 34.5267 87.5423 34.9607 87.813 35.25C88.0837 35.5393 88.5177 35.684 89.115 35.684C89.4323 35.684 89.759 35.6467 90.095 35.572C90.4403 35.4973 90.795 35.3853 91.159 35.236L91.621 36.594ZM88.807 31.12C88.3777 31.12 88.0417 31.26 87.799 31.54C87.5657 31.8107 87.4303 32.2027 87.393 32.716H90.081C90.0903 32.6693 90.095 32.6273 90.095 32.59C90.095 32.5433 90.095 32.5013 90.095 32.464C90.095 32.016 89.969 31.68 89.717 31.456C89.465 31.232 89.1617 31.12 88.807 31.12ZM95.1418 32.086V37H93.5318V29.902H95.0578V30.84C95.4964 30.4573 95.9024 30.182 96.2758 30.014C96.6491 29.846 97.0318 29.762 97.4238 29.762C98.2918 29.762 98.8844 30.1447 99.2018 30.91C99.6684 30.4993 100.102 30.2053 100.504 30.028C100.905 29.8507 101.311 29.762 101.722 29.762C102.375 29.762 102.874 29.9813 103.22 30.42C103.565 30.8493 103.738 31.456 103.738 32.24V37H102.128V32.436C102.128 31.652 101.829 31.26 101.232 31.26C100.998 31.26 100.742 31.316 100.462 31.428C100.182 31.54 99.8411 31.7593 99.4398 32.086V37H97.8298V32.436C97.8298 31.652 97.5311 31.26 96.9338 31.26C96.7004 31.26 96.4438 31.316 96.1638 31.428C95.8838 31.54 95.5431 31.7593 95.1418 32.086Z" fill="#828181"/>
</svg>
