<svg width="29" height="28" viewBox="0 0 29 28" fill="none" xmlns="http://www.w3.org/2000/svg">
<rect x="0.5" width="28" height="28" rx="4" fill="#686868"/>
<path d="M9.5 19H19.5V17H9.5V19ZM14.5 16L18.5 12L17.1 10.6L15.5 12.15V8H13.5V12.15L11.9 10.6L10.5 12L14.5 16ZM14.5 24C13.1167 24 11.8167 23.7375 10.6 23.2125C9.38333 22.6875 8.325 21.975 7.425 21.075C6.525 20.175 5.8125 19.1167 5.2875 17.9C4.7625 16.6833 4.5 15.3833 4.5 14C4.5 12.6167 4.7625 11.3167 5.2875 10.1C5.8125 8.88333 6.525 7.825 7.425 6.925C8.325 6.025 9.38333 5.3125 10.6 4.7875C11.8167 4.2625 13.1167 4 14.5 4C15.8833 4 17.1833 4.2625 18.4 4.7875C19.6167 5.3125 20.675 6.025 21.575 6.925C22.475 7.825 23.1875 8.88333 23.7125 10.1C24.2375 11.3167 24.5 12.6167 24.5 14C24.5 15.3833 24.2375 16.6833 23.7125 17.9C23.1875 19.1167 22.475 20.175 21.575 21.075C20.675 21.975 19.6167 22.6875 18.4 23.2125C17.1833 23.7375 15.8833 24 14.5 24ZM14.5 22C16.7333 22 18.625 21.225 20.175 19.675C21.725 18.125 22.5 16.2333 22.5 14C22.5 11.7667 21.725 9.875 20.175 8.325C18.625 6.775 16.7333 6 14.5 6C12.2667 6 10.375 6.775 8.825 8.325C7.275 9.875 6.5 11.7667 6.5 14C6.5 16.2333 7.275 18.125 8.825 19.675C10.375 21.225 12.2667 22 14.5 22Z" fill="white"/>
</svg>
