<svg width="20" height="18" viewBox="0 0 20 18" fill="none" xmlns="http://www.w3.org/2000/svg">
<path d="M9 18V16H17V8.9C17 7.93333 16.8167 7.025 16.45 6.175C16.0833 5.325 15.5833 4.58333 14.95 3.95C14.3167 3.31667 13.575 2.81667 12.725 2.45C11.875 2.08333 10.9667 1.9 10 1.9C9.03333 1.9 8.125 2.08333 7.275 2.45C6.425 2.81667 5.68333 3.31667 5.05 3.95C4.41667 4.58333 3.91667 5.325 3.55 6.175C3.18333 7.025 3 7.93333 3 8.9V15H2C1.45 15 0.979167 14.8042 0.5875 14.4125C0.195833 14.0208 0 13.55 0 13V11C0 10.6167 0.0916667 10.2792 0.275 9.9875C0.458333 9.69583 0.7 9.45833 1 9.275L1.075 7.95C1.225 6.73333 1.57083 5.63333 2.1125 4.65C2.65417 3.66667 3.32917 2.83333 4.1375 2.15C4.94583 1.46667 5.85417 0.9375 6.8625 0.5625C7.87083 0.1875 8.91667 0 10 0C11.1 0 12.1542 0.1875 13.1625 0.5625C14.1708 0.9375 15.075 1.47083 15.875 2.1625C16.675 2.85417 17.3458 3.6875 17.8875 4.6625C18.4292 5.6375 18.775 6.725 18.925 7.925L19 9.225C19.3 9.375 19.5417 9.59583 19.725 9.8875C19.9083 10.1792 20 10.5 20 10.85V13.15C20 13.5167 19.9083 13.8417 19.725 14.125C19.5417 14.4083 19.3 14.625 19 14.775V16C19 16.55 18.8042 17.0208 18.4125 17.4125C18.0208 17.8042 17.55 18 17 18H9ZM7 11C6.71667 11 6.47917 10.9042 6.2875 10.7125C6.09583 10.5208 6 10.2833 6 10C6 9.71667 6.09583 9.47917 6.2875 9.2875C6.47917 9.09583 6.71667 9 7 9C7.28333 9 7.52083 9.09583 7.7125 9.2875C7.90417 9.47917 8 9.71667 8 10C8 10.2833 7.90417 10.5208 7.7125 10.7125C7.52083 10.9042 7.28333 11 7 11ZM13 11C12.7167 11 12.4792 10.9042 12.2875 10.7125C12.0958 10.5208 12 10.2833 12 10C12 9.71667 12.0958 9.47917 12.2875 9.2875C12.4792 9.09583 12.7167 9 13 9C13.2833 9 13.5208 9.09583 13.7125 9.2875C13.9042 9.47917 14 9.71667 14 10C14 10.2833 13.9042 10.5208 13.7125 10.7125C13.5208 10.9042 13.2833 11 13 11ZM4.025 9.45C3.95833 8.46667 4.09583 7.575 4.4375 6.775C4.77917 5.975 5.2375 5.29583 5.8125 4.7375C6.3875 4.17917 7.05 3.75 7.8 3.45C8.55 3.15 9.3 3 10.05 3C11.5667 3 12.8792 3.47917 13.9875 4.4375C15.0958 5.39583 15.7667 6.59167 16 8.025C14.4333 8.00833 13.0167 7.5875 11.75 6.7625C10.4833 5.9375 9.525 4.86667 8.875 3.55C8.60833 4.9 8.04583 6.09583 7.1875 7.1375C6.32917 8.17917 5.275 8.95 4.025 9.45Z" fill="#686868"/>
</svg>
