<svg width="29" height="24" viewBox="0 0 29 24" fill="none" xmlns="http://www.w3.org/2000/svg">
<path d="M20.9188 0C18.337 0 16.0764 1.11026 14.6674 2.98695C13.2583 1.11026 10.9977 0 8.41589 0C6.36069 0.00231647 4.39033 0.819769 2.93708 2.27302C1.48383 3.72626 0.666379 5.69663 0.664062 7.75183C0.664063 16.5039 13.6409 23.5881 14.1935 23.8806C14.3392 23.959 14.502 24 14.6674 24C14.8328 24 14.9956 23.959 15.1412 23.8806C15.6939 23.5881 28.6707 16.5039 28.6707 7.75183C28.6683 5.69663 27.8509 3.72626 26.3976 2.27302C24.9444 0.819769 22.974 0.00231647 20.9188 0ZM14.6674 21.8552C12.3843 20.5248 2.66453 14.4647 2.66453 7.75183C2.66652 6.22708 3.2731 4.76536 4.35126 3.6872C5.42942 2.60904 6.89114 2.00246 8.41589 2.00047C10.8477 2.00047 12.8894 3.29578 13.7421 5.37627C13.8175 5.55972 13.9457 5.71663 14.1104 5.82706C14.2752 5.93749 14.469 5.99645 14.6674 5.99645C14.8657 5.99645 15.0595 5.93749 15.2243 5.82706C15.389 5.71663 15.5172 5.55972 15.5926 5.37627C16.4453 3.29203 18.487 2.00047 20.9188 2.00047C22.4436 2.00246 23.9053 2.60904 24.9835 3.6872C26.0616 4.76536 26.6682 6.22708 26.6702 7.75183C26.6702 14.4547 16.9479 20.5236 14.6674 21.8552Z" fill="#3D3C3C"/>
</svg>
