<svg width="27" height="24" viewBox="0 0 27 24" fill="none" xmlns="http://www.w3.org/2000/svg">
<path d="M26.333 8C26.3335 7.90702 26.3209 7.81444 26.2955 7.725L24.5018 1.45C24.3812 1.03364 24.1292 0.667454 23.7834 0.406117C23.4375 0.14478 23.0165 0.00231617 22.583 0H4.08301C3.64955 0.00231617 3.22847 0.14478 2.88265 0.406117C2.53683 0.667454 2.28482 1.03364 2.16426 1.45L0.371759 7.725C0.345936 7.81438 0.33289 7.90696 0.333009 8V10C0.333009 10.7762 0.513734 11.5418 0.860873 12.2361C1.20801 12.9303 1.71203 13.5343 2.33301 14V22C2.33301 22.5304 2.54372 23.0391 2.91879 23.4142C3.29387 23.7893 3.80258 24 4.33301 24H22.333C22.8634 24 23.3721 23.7893 23.7472 23.4142C24.1223 23.0391 24.333 22.5304 24.333 22V14C24.954 13.5343 25.458 12.9303 25.8051 12.2361C26.1523 11.5418 26.333 10.7762 26.333 10V8ZM4.08301 2H22.583L24.0105 7H2.65926L4.08301 2ZM10.333 9H16.333V10C16.333 10.7956 16.0169 11.5587 15.4543 12.1213C14.8917 12.6839 14.1287 13 13.333 13C12.5374 13 11.7743 12.6839 11.2117 12.1213C10.6491 11.5587 10.333 10.7956 10.333 10V9ZM8.33301 9V10C8.33301 10.7956 8.01694 11.5587 7.45433 12.1213C6.89172 12.6839 6.12866 13 5.33301 13C4.53736 13 3.7743 12.6839 3.21169 12.1213C2.64908 11.5587 2.33301 10.7956 2.33301 10V9H8.33301ZM22.333 22H4.33301V14.9C4.66221 14.9664 4.99719 14.9999 5.33301 15C6.10923 15 6.8748 14.8193 7.56908 14.4721C8.26335 14.125 8.86727 13.621 9.33301 13C9.79874 13.621 10.4027 14.125 11.0969 14.4721C11.7912 14.8193 12.5568 15 13.333 15C14.1092 15 14.8748 14.8193 15.5691 14.4721C16.2634 14.125 16.8673 13.621 17.333 13C17.7987 13.621 18.4027 14.125 19.0969 14.4721C19.7912 14.8193 20.5568 15 21.333 15C21.6688 14.9999 22.0038 14.9664 22.333 14.9V22ZM21.333 13C20.5374 13 19.7743 12.6839 19.2117 12.1213C18.6491 11.5587 18.333 10.7956 18.333 10V9H24.333V10C24.333 10.7956 24.0169 11.5587 23.4543 12.1213C22.8917 12.6839 22.1287 13 21.333 13Z" fill="#3D3C3C"/>
</svg>
