<svg width="16" height="16" viewBox="0 0 16 16" fill="none" xmlns="http://www.w3.org/2000/svg">
<path d="M15.4002 8.00009C15.4002 8.60009 15.2002 9.10009 14.8002 9.50009C13.8002 10.5001 12.8002 11.5001 11.8002 12.6001C11.0002 13.4001 10.3002 14.1001 9.50023 14.9001C9.10023 15.3001 8.70023 15.5001 8.10023 15.5001C7.50023 15.5001 7.00023 15.3001 6.60023 14.9001C6.20023 14.5001 5.80023 14.1001 5.50023 13.7001C4.00023 12.4001 2.60023 10.9001 1.20023 9.50009C0.900232 9.20009 0.700232 8.80009 0.600232 8.30009C0.500232 7.70009 0.700232 7.20009 1.00023 6.70009C1.10023 6.60009 1.10023 6.50009 1.20023 6.50009C3.00023 4.70009 4.70023 2.90009 6.50023 1.20009C6.80023 0.900093 7.20023 0.600093 7.70023 0.500093C8.40023 0.400093 9.00023 0.600093 9.50023 1.00009C9.80023 1.20009 10.0002 1.50009 10.2002 1.70009C11.7002 3.30009 13.3002 4.80009 14.8002 6.40009C15.1002 6.70009 15.3002 7.10009 15.4002 7.60009C15.4002 7.80009 15.4002 7.90009 15.4002 8.00009ZM8.00023 14.9001C8.40023 14.9001 8.80023 14.7001 9.10023 14.4001C10.4002 13.1001 11.8002 11.7001 13.1002 10.4001C13.5002 9.90009 14.0002 9.50009 14.4002 9.00009C14.7002 8.70009 14.9002 8.20009 14.8002 7.80009C14.8002 7.40009 14.6002 7.10009 14.3002 6.80009C12.5002 5.00009 10.8002 3.20009 9.00023 1.50009L8.90023 1.40009C8.60023 1.20009 8.30023 1.00009 7.80023 1.10009C7.40023 1.10009 7.10023 1.30009 6.90023 1.60009C5.30023 3.10009 3.80023 4.70009 2.20023 6.30009C2.00023 6.50009 1.80023 6.70009 1.60023 6.90009C1.20023 7.40009 1.00023 7.90009 1.20023 8.40009C1.30023 8.70009 1.40023 8.90009 1.60023 9.10009C3.30023 10.8001 5.00023 12.5001 6.70023 14.3001C6.80023 14.4001 6.90023 14.5001 6.90023 14.5001C7.30023 14.8001 7.60023 14.9001 8.00023 14.9001Z" fill="#ED1C24"/>
<path d="M14.1984 8C14.1984 8.2 14.0984 8.4 13.9984 8.5C13.4984 9 12.9984 9.5 12.4984 10.1C12.2984 10.3 12.1984 10.4 11.9984 10.6C11.6984 10.9 11.2984 10.9 10.9984 10.6C10.2984 9.9 9.69844 9.2 8.99844 8.6C8.69844 8.3 8.69844 7.9 8.99844 7.6C9.69844 6.9 10.2984 6.2 10.9984 5.6C11.2984 5.3 11.6984 5.3 11.9984 5.6C12.6984 6.3 13.3984 7 13.9984 7.6C14.0984 7.6 14.1984 7.8 14.1984 8Z" fill="#ED1C24"/>
<path d="M10.6984 11.4002C10.6984 11.6002 10.5984 11.8002 10.4984 11.9002C10.1984 12.2002 9.89844 12.5002 9.59844 12.8002C9.19844 13.2002 8.89844 13.5002 8.49844 13.9002C8.39844 14.0002 8.29844 14.1002 8.09844 14.1002C7.89844 14.1002 7.59844 14.1002 7.49844 13.9002C6.99844 13.4002 6.49844 12.9002 6.09844 12.4002C5.89844 12.2002 5.69844 12.0002 5.49844 11.8002C5.19844 11.5002 5.19844 11.1002 5.49844 10.8002C6.19844 10.1002 6.79844 9.4002 7.49844 8.8002C7.79844 8.5002 8.19844 8.5002 8.49844 8.8002C9.19844 9.5002 9.79844 10.1002 10.4984 10.8002C10.5984 11.0002 10.6984 11.2002 10.6984 11.4002Z" fill="#ED1C24"/>
<path d="M4.50006 10.8C4.30006 10.8 4.10006 10.7 4.00006 10.6C3.70006 10.3 3.50006 10 3.20006 9.80005C2.80006 9.30005 2.40006 8.90005 1.90006 8.50005C1.70006 8.30005 1.70006 8.10005 1.80006 7.80005C1.80006 7.70005 1.90006 7.60005 2.00006 7.50005C2.70006 6.80005 3.40006 6.10005 4.00006 5.40005C4.30006 5.10005 4.70006 5.10005 5.00006 5.40005C5.70006 6.10005 6.40006 6.80005 7.00006 7.50005C7.30006 7.80005 7.30006 8.20005 7.00006 8.50005C6.30006 9.20005 5.60006 9.90005 5.00006 10.6C4.80006 10.7 4.70006 10.8 4.50006 10.8Z" fill="#ED1C24"/>
<path d="M7.90169 1.90015C8.30169 2.10015 8.50169 2.50015 8.40169 2.90015C8.40169 3.10015 8.30169 3.20015 8.20169 3.40015C8.20169 3.60015 8.10169 3.70015 8.00169 3.90015C7.80169 4.40015 7.90169 4.90015 8.20169 5.30015C8.40169 5.50015 8.60169 5.70015 8.90169 5.90015C8.90169 6.00015 9.00169 6.10015 9.10169 6.20015C9.10169 6.40015 9.10169 6.50015 9.00169 6.50015C8.50169 6.80015 8.10169 6.80015 7.70169 6.70015C7.30169 6.60015 7.00169 6.40015 6.70169 6.10015C6.30169 5.80015 6.20169 5.40015 6.30169 5.00015C6.40169 4.60015 6.60169 4.30015 6.80169 4.00015C7.10169 3.60015 7.40169 3.30015 7.70169 2.90015C8.00169 2.60015 8.00169 2.40015 7.90169 2.10015C7.90169 2.10015 7.90169 2.00015 7.90169 1.90015Z" fill="#ED1C24"/>
<path d="M8.39844 4.39998C8.39844 4.19998 8.49844 3.99998 8.49844 3.69998C8.59844 3.49998 8.69844 3.39998 8.89844 3.59998C8.99844 3.59998 8.99844 3.69998 8.99844 3.69998C9.19844 4.09998 9.39844 4.39998 9.49844 4.79998C9.49844 4.99998 9.49844 5.19998 9.39844 5.29998C9.29844 5.59998 9.09844 5.69998 8.89844 5.49998C8.79844 5.39998 8.69844 5.29998 8.59844 5.19998C8.49844 4.99998 8.39844 4.69998 8.39844 4.39998Z" fill="#ED1C24"/>
</svg>
