<?xml version="1.0" encoding="utf-8"?>
<!-- Generator: Adobe Illustrator 24.1.1, SVG Export Plug-In . SVG Version: 6.00 Build 0)  -->
<svg version="1.1" id="Capa_1" xmlns="http://www.w3.org/2000/svg" xmlns:xlink="http://www.w3.org/1999/xlink" x="0px" y="0px"
	 viewBox="0 0 80 45" style="enable-background:new 0 0 80 45;" xml:space="preserve">
<style type="text/css">
	.st0{fill:none;}
	.st1{fill:#CE0538;}
	.st2{fill:#C40D3C;}
	.st3{fill:#00205C;}
	.st4{fill:#FFFFFF;}
</style>
<g>
	<rect y="30.6" class="st0" width="80" height="3.2"/>
	<rect y="27.4" class="st1" width="80" height="3.2"/>
	<rect y="40.3" class="st1" width="80" height="3.2"/>
	<rect y="33.8" class="st1" width="80" height="3.2"/>
	<rect y="24.1" class="st0" width="80" height="3.2"/>
	<rect y="37.1" class="st0" width="80" height="3.2"/>
	<rect y="17.6" class="st0" width="80" height="3.2"/>
	<rect y="20.9" class="st1" width="80" height="3.2"/>
	<rect y="4.7" class="st0" width="80" height="3.2"/>
	<rect y="7.9" class="st1" width="80" height="3.2"/>
	<rect y="1.5" class="st2" width="80" height="3.2"/>
	<rect y="11.2" class="st0" width="80" height="3.2"/>
	<rect y="14.4" class="st1" width="80" height="3.2"/>
	<rect y="1.5" class="st3" width="32" height="22.6"/>
	<polygon class="st4" points="5.1,4.3 5.5,5.3 6.5,5.3 5.7,5.9 6,6.9 5.1,6.3 4.3,6.9 4.6,5.9 3.8,5.3 4.8,5.3 	"/>
	<polygon class="st4" points="10.5,4.3 10.8,5.3 11.8,5.3 11,5.9 11.3,6.9 10.5,6.3 9.6,6.9 9.9,5.9 9.1,5.3 10.1,5.3 	"/>
	<polygon class="st4" points="15.8,4.3 16.1,5.3 17.2,5.3 16.3,5.9 16.6,6.9 15.8,6.3 14.9,6.9 15.3,5.9 14.4,5.3 15.5,5.3 	"/>
	<polygon class="st4" points="21.2,4.3 21.5,5.3 22.5,5.3 21.7,5.9 22,6.9 21.2,6.3 20.3,6.9 20.6,5.9 19.8,5.3 20.8,5.3 	"/>
	<polygon class="st4" points="26.5,4.3 26.8,5.3 27.8,5.3 27,5.9 27.3,6.9 26.5,6.3 25.6,6.9 25.9,5.9 25.1,5.3 26.1,5.3 	"/>
	<polygon class="st4" points="5.1,8.9 5.5,9.9 6.5,9.9 5.7,10.5 6,11.5 5.1,10.9 4.3,11.5 4.6,10.5 3.8,9.9 4.8,9.9 	"/>
	<polygon class="st4" points="10.5,8.9 10.8,9.9 11.8,9.9 11,10.5 11.3,11.5 10.5,10.9 9.6,11.5 9.9,10.5 9.1,9.9 10.1,9.9 	"/>
	<polygon class="st4" points="15.8,8.9 16.1,9.9 17.2,9.9 16.3,10.5 16.6,11.5 15.8,10.9 14.9,11.5 15.3,10.5 14.4,9.9 15.5,9.9 	
		"/>
	<polygon class="st4" points="21.2,8.9 21.5,9.9 22.5,9.9 21.7,10.5 22,11.5 21.2,10.9 20.3,11.5 20.6,10.5 19.8,9.9 20.8,9.9 	"/>
	<polygon class="st4" points="26.5,8.9 26.8,9.9 27.8,9.9 27,10.5 27.3,11.5 26.5,10.9 25.6,11.5 25.9,10.5 25.1,9.9 26.1,9.9 	"/>
	<polygon class="st4" points="5.1,13.4 5.5,14.4 6.5,14.4 5.7,15.1 6,16.1 5.1,15.4 4.3,16.1 4.6,15.1 3.8,14.4 4.8,14.4 	"/>
	<polygon class="st4" points="10.5,13.4 10.8,14.4 11.8,14.4 11,15.1 11.3,16.1 10.5,15.4 9.6,16.1 9.9,15.1 9.1,14.4 10.1,14.4 	
		"/>
	<polygon class="st4" points="15.8,13.4 16.1,14.4 17.2,14.4 16.3,15.1 16.6,16.1 15.8,15.4 14.9,16.1 15.3,15.1 14.4,14.4 
		15.5,14.4 	"/>
	<polygon class="st4" points="21.2,13.4 21.5,14.4 22.5,14.4 21.7,15.1 22,16.1 21.2,15.4 20.3,16.1 20.6,15.1 19.8,14.4 20.8,14.4 
			"/>
	<polygon class="st4" points="26.5,13.4 26.8,14.4 27.8,14.4 27,15.1 27.3,16.1 26.5,15.4 25.6,16.1 25.9,15.1 25.1,14.4 26.1,14.4 
			"/>
	<polygon class="st4" points="5.1,18 5.5,19 6.5,19 5.7,19.6 6,20.6 5.1,20 4.3,20.6 4.6,19.6 3.8,19 4.8,19 	"/>
	<polygon class="st4" points="10.5,18 10.8,19 11.8,19 11,19.6 11.3,20.6 10.5,20 9.6,20.6 9.9,19.6 9.1,19 10.1,19 	"/>
	<polygon class="st4" points="15.8,18 16.1,19 17.2,19 16.3,19.6 16.6,20.6 15.8,20 14.9,20.6 15.3,19.6 14.4,19 15.5,19 	"/>
	<polygon class="st4" points="21.2,18 21.5,19 22.5,19 21.7,19.6 22,20.6 21.2,20 20.3,20.6 20.6,19.6 19.8,19 20.8,19 	"/>
	<polygon class="st4" points="26.5,18 26.8,19 27.8,19 27,19.6 27.3,20.6 26.5,20 25.6,20.6 25.9,19.6 25.1,19 26.1,19 	"/>
	<polygon class="st4" points="2.5,6.6 2.8,7.6 3.8,7.6 3,8.2 3.3,9.2 2.5,8.6 1.6,9.2 1.9,8.2 1.1,7.6 2.1,7.6 	"/>
	<polygon class="st4" points="7.8,6.6 8.1,7.6 9.2,7.6 8.3,8.2 8.7,9.2 7.8,8.6 7,9.2 7.3,8.2 6.4,7.6 7.5,7.6 	"/>
	<polygon class="st4" points="13.1,6.6 13.4,7.6 14.5,7.6 13.6,8.2 14,9.2 13.1,8.6 12.3,9.2 12.6,8.2 11.7,7.6 12.8,7.6 	"/>
	<polygon class="st4" points="18.5,6.6 18.8,7.6 19.9,7.6 19,8.2 19.3,9.2 18.5,8.6 17.6,9.2 18,8.2 17.1,7.6 18.2,7.6 	"/>
	<polygon class="st4" points="23.8,6.6 24.1,7.6 25.2,7.6 24.3,8.2 24.6,9.2 23.8,8.6 22.9,9.2 23.3,8.2 22.4,7.6 23.5,7.6 	"/>
	<polygon class="st4" points="29.1,6.6 29.5,7.6 30.5,7.6 29.7,8.2 30,9.2 29.1,8.6 28.3,9.2 28.6,8.2 27.8,7.6 28.8,7.6 	"/>
	<polygon class="st4" points="2.5,2 2.8,3 3.8,3 3,3.6 3.3,4.6 2.5,4 1.6,4.6 1.9,3.6 1.1,3 2.1,3 	"/>
	<polygon class="st4" points="7.8,2 8.1,3 9.2,3 8.3,3.6 8.7,4.6 7.8,4 7,4.6 7.3,3.6 6.4,3 7.5,3 	"/>
	<polygon class="st4" points="13.1,2 13.4,3 14.5,3 13.6,3.6 14,4.6 13.1,4 12.3,4.6 12.6,3.6 11.7,3 12.8,3 	"/>
	<polygon class="st4" points="18.5,2 18.8,3 19.9,3 19,3.6 19.3,4.6 18.5,4 17.6,4.6 18,3.6 17.1,3 18.2,3 	"/>
	<polygon class="st4" points="23.8,2 24.1,3 25.2,3 24.3,3.6 24.6,4.6 23.8,4 22.9,4.6 23.3,3.6 22.4,3 23.5,3 	"/>
	<polygon class="st4" points="29.1,2 29.5,3 30.5,3 29.7,3.6 30,4.6 29.1,4 28.3,4.6 28.6,3.6 27.8,3 28.8,3 	"/>
	<polygon class="st4" points="2.5,11.2 2.8,12.2 3.8,12.2 3,12.8 3.3,13.8 2.5,13.2 1.6,13.8 1.9,12.8 1.1,12.2 2.1,12.2 	"/>
	<polygon class="st4" points="7.8,11.2 8.1,12.2 9.2,12.2 8.3,12.8 8.7,13.8 7.8,13.2 7,13.8 7.3,12.8 6.4,12.2 7.5,12.2 	"/>
	<polygon class="st4" points="13.1,11.2 13.4,12.2 14.5,12.2 13.6,12.8 14,13.8 13.1,13.2 12.3,13.8 12.6,12.8 11.7,12.2 12.8,12.2 
			"/>
	<polygon class="st4" points="18.5,11.2 18.8,12.2 19.9,12.2 19,12.8 19.3,13.8 18.5,13.2 17.6,13.8 18,12.8 17.1,12.2 18.2,12.2 	
		"/>
	<polygon class="st4" points="23.8,11.2 24.1,12.2 25.2,12.2 24.3,12.8 24.6,13.8 23.8,13.2 22.9,13.8 23.3,12.8 22.4,12.2 
		23.5,12.2 	"/>
	<polygon class="st4" points="29.1,11.2 29.5,12.2 30.5,12.2 29.7,12.8 30,13.8 29.1,13.2 28.3,13.8 28.6,12.8 27.8,12.2 28.8,12.2 
			"/>
	<polygon class="st4" points="2.5,15.8 2.8,16.8 3.8,16.8 3,17.4 3.3,18.4 2.5,17.8 1.6,18.4 1.9,17.4 1.1,16.8 2.1,16.8 	"/>
	<polygon class="st4" points="7.8,15.8 8.1,16.8 9.2,16.8 8.3,17.4 8.7,18.4 7.8,17.8 7,18.4 7.3,17.4 6.4,16.8 7.5,16.8 	"/>
	<polygon class="st4" points="13.1,15.8 13.4,16.8 14.5,16.8 13.6,17.4 14,18.4 13.1,17.8 12.3,18.4 12.6,17.4 11.7,16.8 12.8,16.8 
			"/>
	<polygon class="st4" points="18.5,15.8 18.8,16.8 19.9,16.8 19,17.4 19.3,18.4 18.5,17.8 17.6,18.4 18,17.4 17.1,16.8 18.2,16.8 	
		"/>
	<polygon class="st4" points="23.8,15.8 24.1,16.8 25.2,16.8 24.3,17.4 24.6,18.4 23.8,17.8 22.9,18.4 23.3,17.4 22.4,16.8 
		23.5,16.8 	"/>
	<polygon class="st4" points="29.1,15.8 29.5,16.8 30.5,16.8 29.7,17.4 30,18.4 29.1,17.8 28.3,18.4 28.6,17.4 27.8,16.8 28.8,16.8 
			"/>
	<polygon class="st4" points="2.5,20.3 2.8,21.3 3.8,21.3 3,21.9 3.3,22.9 2.5,22.3 1.6,22.9 1.9,21.9 1.1,21.3 2.1,21.3 	"/>
	<polygon class="st4" points="7.8,20.3 8.1,21.3 9.2,21.3 8.3,21.9 8.7,22.9 7.8,22.3 7,22.9 7.3,21.9 6.4,21.3 7.5,21.3 	"/>
	<polygon class="st4" points="13.1,20.3 13.4,21.3 14.5,21.3 13.6,21.9 14,22.9 13.1,22.3 12.3,22.9 12.6,21.9 11.7,21.3 12.8,21.3 
			"/>
	<polygon class="st4" points="18.5,20.3 18.8,21.3 19.9,21.3 19,21.9 19.3,22.9 18.5,22.3 17.6,22.9 18,21.9 17.1,21.3 18.2,21.3 	
		"/>
	<polygon class="st4" points="23.8,20.3 24.1,21.3 25.2,21.3 24.3,21.9 24.6,22.9 23.8,22.3 22.9,22.9 23.3,21.9 22.4,21.3 
		23.5,21.3 	"/>
	<polygon class="st4" points="29.1,20.3 29.5,21.3 30.5,21.3 29.7,21.9 30,22.9 29.1,22.3 28.3,22.9 28.6,21.9 27.8,21.3 28.8,21.3 
			"/>
</g>
</svg>
