<svg width="113" height="34" viewBox="0 0 113 34" fill="none" xmlns="http://www.w3.org/2000/svg">
<rect width="113" height="34" fill="white"/>
<path d="M11.302 21V11.48H13.612C16.79 11.48 18.764 13.356 18.764 16.24C18.764 19.124 16.804 21 13.612 21H11.302ZM12.31 20.09H13.542C16.356 20.09 17.7 18.508 17.7 16.24C17.7 13.972 16.356 12.39 13.542 12.39H12.31V20.09ZM21.0309 18.424C21.1569 19.53 21.9129 20.286 23.1869 20.286C24.0549 20.286 24.6429 19.936 25.0209 19.516L25.6229 20.104C25.0909 20.706 24.3209 21.112 23.1869 21.112C21.2829 21.112 20.0509 19.796 20.0509 18.102C20.0509 16.408 21.3529 15.078 23.0469 15.078C24.9089 15.078 26.0289 16.506 25.9589 18.424H21.0309ZM21.0449 17.682H24.9789C24.8949 16.688 24.2649 15.904 23.0469 15.904C21.9409 15.904 21.1989 16.618 21.0449 17.682ZM29.5797 21.112C28.3057 21.112 27.4797 20.496 27.1017 19.768L27.8577 19.334C28.1937 19.894 28.6977 20.314 29.5377 20.314C30.3217 20.314 30.7697 19.978 30.7697 19.446C30.7697 18.816 30.2657 18.676 29.2577 18.382C28.3477 18.116 27.5077 17.752 27.5077 16.66C27.5077 15.652 28.3477 15.078 29.4117 15.078C30.2937 15.078 30.9377 15.442 31.3437 16.016L30.6717 16.534C30.3777 16.128 29.9717 15.876 29.4117 15.876C28.7817 15.876 28.4037 16.17 28.4037 16.618C28.4037 17.164 28.7537 17.318 29.7757 17.612C30.7557 17.878 31.6937 18.27 31.6937 19.39C31.6937 20.37 31.0357 21.112 29.5797 21.112ZM36.0218 21.112C34.3138 21.112 33.0118 19.796 33.0118 18.102C33.0118 16.408 34.3138 15.078 36.0218 15.078C37.0578 15.078 37.7718 15.47 38.3038 16.114L37.6038 16.688C37.2538 16.226 36.7498 15.946 36.0218 15.946C34.7898 15.946 34.0198 16.87 34.0198 18.102C34.0198 19.334 34.7898 20.258 36.0218 20.258C36.8198 20.258 37.3238 19.936 37.6878 19.502L38.3598 20.076C37.8138 20.734 37.0998 21.112 36.0218 21.112ZM43.509 17.598V17.458C43.509 16.338 43.005 15.904 42.151 15.904C41.339 15.904 40.821 16.254 40.457 16.744L39.855 16.198C40.359 15.512 41.115 15.078 42.221 15.078C43.509 15.078 44.489 15.834 44.489 17.444V21H43.509L43.551 20.132C43.159 20.72 42.557 21.112 41.633 21.112C40.401 21.112 39.505 20.552 39.505 19.348C39.505 18.158 40.485 17.598 41.703 17.598H43.509ZM43.509 18.34H41.773C41.031 18.34 40.457 18.606 40.457 19.306C40.457 19.964 40.947 20.314 41.857 20.314C42.753 20.314 43.509 19.824 43.509 19.068V18.34ZM46.5008 21V15.204H47.4808L47.4528 16.338C47.8168 15.456 48.4608 15.092 49.1468 15.092C49.5808 15.092 49.8888 15.19 50.1548 15.372L49.7768 16.226C49.5948 16.1 49.3428 16.002 48.9788 16.002C48.1528 16.002 47.4808 16.59 47.4808 17.948V21H46.5008ZM54.2293 15.204H56.3293V15.946H55.1953C55.4893 16.254 55.6573 16.66 55.6573 17.136C55.6573 18.326 54.7473 19.208 53.4033 19.208C52.9553 19.208 52.5493 19.124 52.2133 18.942C51.9053 19.026 51.7373 19.25 51.7373 19.53C51.7373 19.908 52.0033 20.09 52.4933 20.118L53.9773 20.23C55.6293 20.356 56.4133 20.958 56.4133 22.064C56.4133 23.324 55.2513 24.122 53.3333 24.122C51.4713 24.122 50.3653 23.38 50.3653 22.218C50.3653 21.42 50.9253 20.958 51.7373 20.706C51.1913 20.524 50.9253 20.132 50.9253 19.628C50.9253 19.138 51.2333 18.76 51.7233 18.564C51.3173 18.214 51.0933 17.71 51.0933 17.136C51.0933 15.932 52.0593 15.078 53.4033 15.078C53.6973 15.078 53.9773 15.12 54.2293 15.204ZM53.3893 18.452C54.2573 18.452 54.7753 17.92 54.7753 17.136C54.7753 16.352 54.2573 15.834 53.3893 15.834C52.5073 15.834 51.9893 16.352 51.9893 17.136C51.9893 17.92 52.5073 18.452 53.3893 18.452ZM52.3533 21C51.7373 21.182 51.3313 21.546 51.3313 22.134C51.3313 22.904 51.9893 23.338 53.3333 23.338C54.6353 23.338 55.4193 22.89 55.4193 22.106C55.4193 21.462 55.0413 21.182 53.8093 21.098L52.3533 21ZM61.2688 17.598V17.458C61.2688 16.338 60.7648 15.904 59.9108 15.904C59.0988 15.904 58.5808 16.254 58.2168 16.744L57.6148 16.198C58.1188 15.512 58.8748 15.078 59.9808 15.078C61.2688 15.078 62.2488 15.834 62.2488 17.444V21H61.2688L61.3108 20.132C60.9188 20.72 60.3168 21.112 59.3928 21.112C58.1608 21.112 57.2648 20.552 57.2648 19.348C57.2648 18.158 58.2448 17.598 59.4628 17.598H61.2688ZM61.2688 18.34H59.5328C58.7908 18.34 58.2168 18.606 58.2168 19.306C58.2168 19.964 58.7068 20.314 59.6168 20.314C60.5128 20.314 61.2688 19.824 61.2688 19.068V18.34ZM64.2606 21V15.204H65.2406L65.2126 16.338C65.5766 15.456 66.2206 15.092 66.9066 15.092C67.3406 15.092 67.6486 15.19 67.9146 15.372L67.5366 16.226C67.3546 16.1 67.1026 16.002 66.7386 16.002C65.9126 16.002 65.2406 16.59 65.2406 17.948V21H64.2606Z" fill="#787878"/>
<mask id="mask0_1855_19226" style="mask-type:alpha" maskUnits="userSpaceOnUse" x="79" y="5" width="24" height="24">
<rect x="79" y="5" width="24" height="24" fill="#D9D9D9"/>
</mask>
<g mask="url(#mask0_1855_19226)">
<path d="M91 22L95 18L93.6 16.6L92 18.15V14H90V18.15L88.4 16.6L87 18L91 22ZM85 27C84.45 27 83.9792 26.8042 83.5875 26.4125C83.1958 26.0208 83 25.55 83 25V13L89 7H97C97.55 7 98.0208 7.19583 98.4125 7.5875C98.8042 7.97917 99 8.45 99 9V25C99 25.55 98.8042 26.0208 98.4125 26.4125C98.0208 26.8042 97.55 27 97 27H85ZM85 25H97V9H89.85L85 13.85V25Z" fill="#ED1B24"/>
</g>
</svg>
