<svg width="28" height="28" viewBox="0 0 28 28" fill="none" xmlns="http://www.w3.org/2000/svg">
<path d="M19.6875 8.3125L8.3125 19.6875M11.5625 9.53125C11.5625 10.6531 10.6531 11.5625 9.53125 11.5625C8.40942 11.5625 7.5 10.6531 7.5 9.53125C7.5 8.40942 8.40942 7.5 9.53125 7.5C10.6531 7.5 11.5625 8.40942 11.5625 9.53125ZM20.5 18.4688C20.5 19.5906 19.5906 20.5 18.4688 20.5C17.3469 20.5 16.4375 19.5906 16.4375 18.4688C16.4375 17.3469 17.3469 16.4375 18.4688 16.4375C19.5906 16.4375 20.5 17.3469 20.5 18.4688Z" stroke="white" stroke-width="2" stroke-linecap="round" stroke-linejoin="round"/>
<rect x="1" y="1" width="26" height="26" rx="13" stroke="white" stroke-width="2"/>
</svg>
