<?xml version="1.0" encoding="utf-8"?>
<!-- Generator: Adobe Illustrator 24.1.1, SVG Export Plug-In . SVG Version: 6.00 Build 0)  -->
<svg version="1.1" id="Capa_1" xmlns="http://www.w3.org/2000/svg" xmlns:xlink="http://www.w3.org/1999/xlink" x="0px" y="0px"
	 viewBox="0 0 300 59.9" style="enable-background:new 0 0 300 59.9;" xml:space="preserve">
<style type="text/css">
	.st0{fill:#FFFFFF;}
	.st1{fill:#292D84;}
	.st2{fill:#FFAB27;}
</style>
<g>
	<path class="st0" d="M300,33.6c-77.9,0-155.8,0-233.6,0c0,0.4,0,0.7,0,1c77.9,0,155.8,0,233.6,0C300,34.3,300,34,300,33.6z"/>
	<path class="st0" d="M232.7,26.7c0.1-0.3,0-0.4-0.3-0.5c-0.6-0.1-0.8-0.5-0.9-1.1c0-0.3-0.1-0.7-0.1-1c0-1.9,0-3.8,0-5.6
		c0-0.5,0.1-0.9,0.5-1.2c0.2-0.2,0.3-0.3,0.5-0.5c0.5-0.4,1-0.6,1.6-0.4c0.6,0.2,0.8,0.8,0.8,1.4c0,2,0.1,3.9,0.1,5.8
		c0,0.5,0,1-0.1,1.5c0,0.6-0.3,1.1-0.9,1.2c-0.3,0.1-0.3,0.2-0.2,0.5c2,0,4,0,5.9,0c0.1-0.3,0-0.4-0.3-0.5c-0.5-0.1-0.8-0.4-0.9-1
		c0-0.2-0.1-0.4-0.1-0.6c0-2.1,0-4.2,0-6.4c0-0.2,0-0.4,0.1-0.5c0.4-0.5,0.8-1,1.4-1.3c0.9-0.4,1.6-0.1,1.8,0.9
		c0,0.1,0.1,0.3,0.1,0.5c0,2.3,0,4.7,0,7c0,0.7-0.2,1.3-1,1.4c-0.3,0.1-0.3,0.2-0.2,0.5c2,0,4,0,5.9,0c0.1-0.4-0.1-0.4-0.3-0.5
		c-0.5-0.1-0.8-0.5-0.8-1c0-0.4,0-0.8,0-1.1c0-1.6,0-3.2,0-4.8c0-0.8-0.1-1.6-0.2-2.4c-0.3-1.3-1.3-2.1-2.6-2.2
		c-1.4-0.1-2.5,0.5-3.5,1.4c-0.2,0.2-0.4,0.4-0.7,0.7c-0.1-0.3-0.3-0.5-0.4-0.7c-0.5-0.9-1.3-1.3-2.3-1.4c-1.2-0.1-2.2,0.2-3.1,1
		c-0.3,0.2-0.5,0.4-0.8,0.7c0-0.5-0.1-0.9-0.1-1.4c-1.6,0-3.2,0-4.7,0c-0.1,0.4,0.1,0.4,0.3,0.5c0.6,0.1,0.8,0.5,0.9,1.1
		c0,0.1,0,0.2,0,0.3c0,2.6,0,5.3,0,7.9c0,0.7-0.2,1.3-1,1.4c-0.3,0-0.3,0.2-0.2,0.5C228.7,26.7,230.7,26.7,232.7,26.7z"/>
	<path class="st0" d="M211.2,22.9c-0.6,0.5-1,1-1.5,1.4c-1,0.9-2.2,1.5-3.6,1.6c-2.7,0.3-4.6-0.8-5.6-3.3c-0.1-0.1-0.1-0.3-0.1-0.4
		c-0.4-1.4-0.6-2.9-0.6-4.3c0-1.5,0.3-2.9,0.9-4.2c1-2.2,3.3-3.5,5.7-3.1c2,0.4,3.4,1.6,4.2,3.4c0.1,0.3,0.2,0.6,0.3,1
		c0.1,0.3,0.3,0.3,0.5,0.2c0-1.9,0-3.8,0-5.7c-0.4-0.2-0.4,0.1-0.5,0.3c-0.3,0.8-0.7,1-1.4,0.7c-0.4-0.1-0.9-0.3-1.3-0.5
		c-1.6-0.6-3.3-0.8-5-0.5c-5.8,1-8.4,6.3-7.7,10.4c0.5,2.8,1.9,4.9,4.4,6.2c1.8,0.9,3.7,1.2,5.7,1c2.1-0.2,3.8-1,5.3-2.5
		c0.1-0.1,0.3-0.3,0.3-0.5C211.3,23.8,211.2,23.4,211.2,22.9z"/>
	<path class="st0" d="M89.3,26.7c0.1-0.4-0.1-0.4-0.3-0.5c-0.6-0.1-0.8-0.5-0.9-1c0-0.3,0-0.6,0-0.9c0-1.5,0-3,0-4.6
		c0-0.8,0-1.5-0.1-2.3c-0.1-1.5-1.3-2.8-3.1-2.8c-1.1,0-2,0.5-2.8,1.3c-0.2,0.1-0.3,0.3-0.6,0.5c0-0.5-0.1-0.9-0.1-1.4
		c-1.6,0-3.1,0-4.7,0c-0.1,0.4,0.1,0.4,0.4,0.5c0.5,0.1,0.7,0.4,0.8,0.9c0,0.4,0.1,0.9,0.1,1.3c0,2.1,0,4.2,0,6.3c0,0.3,0,0.7,0,1
		c0,0.6-0.3,1.1-0.9,1.2c-0.3,0-0.3,0.2-0.2,0.5c1.9,0,3.9,0,5.8,0c0-0.4,0-0.4-0.3-0.5c-0.5-0.2-0.7-0.5-0.8-0.9
		c0-0.3-0.1-0.7-0.1-1c0-1.9,0-3.8,0-5.7c0-0.9,0.7-1.9,1.6-2.1c0.7-0.2,1.2,0.1,1.4,0.8c0.1,0.2,0.1,0.4,0.1,0.6c0,2.4,0,4.8,0,7.2
		c0,0.6-0.2,1.1-0.9,1.3c-0.3,0.1-0.3,0.2-0.2,0.5C85.4,26.7,87.4,26.7,89.3,26.7z"/>
	<path class="st0" d="M105.2,15.1c0.1,0.4,0.1,0.4,0.4,0.5c0.5,0.1,0.8,0.5,0.8,1c0,0.3,0.1,0.7,0.1,1c0,1.5,0,3.1,0,4.6
		c0,0.8,0.1,1.7,0.2,2.5c0.2,1.2,1.1,2.1,2.3,2.3c1.3,0.2,2.4-0.2,3.3-1c0.2-0.2,0.5-0.4,0.8-0.7c0,0.5,0.1,1,0.1,1.4
		c1.6,0,3.2,0,4.7,0c0.1-0.3,0-0.4-0.3-0.5c-0.6-0.1-0.8-0.5-0.9-1.1c0-0.4,0-0.7,0-1.1c0-2.8,0-5.5,0-8.3c0-0.2,0-0.5,0-0.7
		c-1.6,0-3.2,0-4.7,0c0.1,0.4,0.1,0.4,0.4,0.5c0.5,0.1,0.7,0.5,0.8,1c0,0.3,0,0.5,0,0.8c0,2,0,4.1,0,6.1c0,0.2,0,0.4-0.1,0.5
		c-0.4,0.6-0.8,1.1-1.4,1.4c-0.8,0.3-1.4,0-1.6-0.8c-0.1-0.5-0.1-1-0.1-1.5c0-2.4,0-4.8,0-7.2c0-0.2,0-0.5,0-0.7
		C108.4,15.1,106.8,15.1,105.2,15.1z"/>
	<path class="st0" d="M75.2,26.7c0.1-0.3,0-0.4-0.3-0.4c-0.3,0-0.5,0-0.8,0c-0.8-0.1-1.2-0.6-1.3-1.4c0-0.4,0-0.7,0-1.1
		c0-2.4,0-4.9,0-7.3c0-1.5,0-3.1,0-4.6c0-1.1,0.5-1.6,1.6-1.6c0.2,0,0.5,0,0.8,0C75.2,10,75.1,9.8,75,9.8c-0.1,0-0.3,0-0.4,0
		c-2.5,0-5.1,0-7.6,0c-0.2,0-0.3,0-0.4,0c-0.1,0-0.2,0.2-0.3,0.3c0.5,0.1,1,0.1,1.4,0.2c0.6,0.1,1,0.5,1.1,1.2c0,0.3,0.1,0.6,0.1,1
		c0,3.8,0,7.7,0,11.6c0,0.3,0,0.7-0.1,1c-0.1,0.8-0.5,1.1-1.3,1.2c-0.3,0-0.5,0-0.8,0c-0.3,0-0.3,0.2-0.3,0.4
		C69.3,26.7,72.2,26.7,75.2,26.7z"/>
	<path class="st0" d="M183.1,22.6c-0.1-0.2-0.2-0.2-0.2-0.3c-0.7-1.7-1.5-3.4-2.2-5.1c-0.1-0.3-0.2-0.5-0.3-0.8
		c-0.1-0.5,0.1-0.8,0.6-1c0.1,0,0.2,0,0.3-0.1c0.1-0.1,0.1-0.2,0.2-0.4c-2.1,0-4.2,0-6.2,0c-0.1,0.3,0,0.4,0.2,0.5
		c0.5,0.2,0.9,0.6,1.1,1.1c0.4,0.7,0.7,1.4,1,2.1c1.1,2.6,2.3,5.3,3.4,7.9c0.1,0.2,0.2,0.5,0.1,0.7c-0.4,1-0.8,1.9-1.2,2.8
		c-0.1,0.2-0.3,0.4-0.5,0.6c-0.4,0.3-0.7,0.2-0.8-0.3c0-0.3-0.1-0.6-0.1-0.9c-0.2-0.7-0.8-1.1-1.5-1c-0.7,0.1-1.2,0.6-1.3,1.3
		c-0.2,1.2,0.6,2.2,1.9,2.4c1.2,0.1,2.2-0.3,2.8-1.4c0.4-0.7,0.8-1.4,1.1-2.2c1.1-2.6,2.1-5.3,3.1-7.9c0.5-1.4,1.1-2.7,1.6-4.1
		c0.2-0.5,0.5-0.9,1.1-1.1c0.2-0.1,0.3-0.2,0.2-0.5c-1.3,0-2.5,0-3.7,0c-0.1,0.4,0.2,0.4,0.4,0.4c0.8,0.2,1,0.5,0.9,1.3
		c0,0.2,0,0.3-0.1,0.5C184.4,19.1,183.8,20.8,183.1,22.6z"/>
	<path class="st0" d="M209.2,38.6c-0.7-0.1-1.4-0.1-1.9,0.1c0,2.4,0,4.9,0,7.3c0,0-0.1,0-0.1,0c-1.4-2.5-2.7-5-4.1-7.4
		c-0.7,0-1.3,0-2,0c0,3.8,0,7.7,0,11.5c0.6,0,1.2,0,1.9,0c0-0.3,0-0.5,0-0.7c0-2,0-3.9,0-5.8c0-0.2,0-0.4,0-0.7c0.1,0,0.1,0,0.1,0
		c0.1,0.3,0.3,0.5,0.5,0.8c1.1,2,2.2,4,3.3,6c0.1,0.2,0.3,0.4,0.4,0.4c0.6,0,1.3,0,1.9,0C209.2,46.2,209.2,42.4,209.2,38.6z"/>
	<path class="st0" d="M163.2,50.1c0-3.9,0-7.7,0-11.5c-0.6,0-1.2,0-1.9,0c-0.1,2.5,0,4.9-0.1,7.4c-0.2-0.1-0.3-0.3-0.4-0.5
		c-0.4-0.7-0.7-1.3-1.1-2c-0.8-1.5-1.6-3-2.4-4.5c-0.1-0.2-0.2-0.5-0.5-0.5c-0.6,0-1.1,0-1.8,0c0,3.9,0,7.7,0,11.5
		c0.6,0,1.2,0,1.9,0c0-2.4,0-4.8,0-7.2c0.1,0,0.1,0,0.1,0c1.3,2.4,2.7,4.9,4,7.3C161.8,50.1,162.4,50.1,163.2,50.1z"/>
	<path class="st0" d="M256.8,50.1c0.1-1.5,0.1-11.1-0.1-11.6c-0.6,0-1.2-0.1-1.8,0.1c0,1.2,0,2.5,0,3.7c0,1.2,0,2.5,0,3.7
		c-0.1,0-0.1,0-0.1,0c-0.1-0.3-0.3-0.5-0.4-0.8c-1.1-2.1-2.2-4.1-3.4-6.2c-0.1-0.2-0.3-0.4-0.4-0.4c-0.6-0.1-1.2-0.1-1.8,0
		c0,3.9,0,7.7,0,11.5c0.6,0,1.3,0.1,1.9,0c0-0.8,0-1.6,0-2.4c0-0.8,0-1.6,0-2.4c0-0.8-0.1-1.5,0.1-2.5c0.2,0.3,0.3,0.5,0.4,0.7
		c1.1,2,2.1,3.9,3.2,5.8c0.1,0.2,0.2,0.4,0.3,0.5c0.1,0.1,0.3,0.2,0.4,0.2C255.6,50.1,256.2,50.1,256.8,50.1z"/>
	<path class="st0" d="M280,23.8c-0.4,0.3-0.7,0.6-1,0.8c-1.1,0.8-2.5,0.7-3.4-0.3c-0.4-0.4-0.6-0.9-0.9-1.3
		c-0.4-0.8-0.6-1.7-0.7-2.6c-0.1-1.1-0.2-2.3,0.2-3.4c0.1-0.4,0.4-0.8,0.7-1.1c0.6-0.6,1.4-0.4,1.6,0.4c0.1,0.3,0.1,0.6,0.2,0.9
		c0.1,0.4,0.2,0.9,0.3,1.2c0.3,0.7,1.1,1,1.9,0.8c0.7-0.2,1.1-0.7,1.1-1.5c0-0.5-0.1-1-0.4-1.4c-0.4-0.6-1-1.1-1.7-1.3
		c-1.9-0.6-4.4-0.4-6,1.8c-0.9,1.3-1.3,2.7-1.4,4.2c0,1.6,0.4,3.1,1.4,4.4c1.1,1.4,2.6,2,4.4,1.7c1.8-0.2,3.1-1.3,4-2.8
		c0,0,0-0.1,0.1-0.2C280.2,23.9,280.1,23.9,280,23.8z"/>
	<path class="st0" d="M119.9,23c0.2,1.3,0.1,2.7,0.3,4.1c0.2-0.1,0.4-0.1,0.4-0.2c0.3-0.5,0.7-0.5,1.2-0.3c0.5,0.2,1.1,0.3,1.7,0.5
		c1.6,0.3,3.2-0.5,3.9-1.9c0.8-1.6,0.6-3.2-0.7-4.4c-0.5-0.5-1.2-1-1.7-1.4c-0.6-0.4-1.2-0.9-1.8-1.3c-0.2-0.1-0.4-0.3-0.6-0.5
		c-0.6-0.6-0.4-1.5,0.4-1.8c0.3-0.1,0.6-0.1,0.9-0.1c0.7,0.1,1.3,0.5,1.7,1.1c0.4,0.5,0.7,1,0.9,1.6c0.1,0.2,0.2,0.4,0.6,0.2
		c-0.1-1.3-0.1-2.6-0.2-3.8c-0.3-0.1-0.5,0-0.6,0.2c-0.4,0.4-0.5,0.5-1.1,0.2c-0.2-0.1-0.4-0.2-0.7-0.3c-1.4-0.4-2.8-0.4-3.9,0.8
		c-1.4,1.5-1.3,3.6,0.1,5.1c0.4,0.5,1,0.8,1.5,1.2c0.6,0.5,1.3,0.9,1.9,1.4c0.2,0.2,0.5,0.4,0.6,0.6c0.3,0.5,0.4,1,0.1,1.5
		c-0.3,0.5-0.8,0.7-1.3,0.6c-0.4-0.1-0.8-0.2-1.1-0.4c-0.8-0.4-1.3-1.1-1.8-1.9c-0.1-0.3-0.2-0.5-0.3-0.8
		C120.3,22.9,120.2,22.8,119.9,23z"/>
	<path class="st0" d="M115.9,45c1.7,0,3.4,0,5.1,0c0-0.7,0-1.3,0-1.9c-1.7,0-3.4,0-5.1,0c0-0.9,0-1.7,0-2.6c0.9,0,1.8,0,2.7,0
		c0.9,0,1.8,0,2.7,0c0-0.7,0-1.3,0-1.9c-2.5,0-5,0-7.6,0c0,3.8,0,7.7,0,11.5c2.6,0,5.1,0,7.7,0c0-0.6,0-1.2,0-1.9
		c-1.9,0-3.8,0-5.6,0C115.9,47.1,115.9,46.1,115.9,45z"/>
	<path class="st0" d="M66.5,46.4c0.1,2,1.2,3.4,2.8,3.8c0.9,0.2,1.9,0.2,2.8,0c1.6-0.4,2.5-1.5,2.6-3.2c0.1-1.7-0.6-2.9-2.1-3.5
		c-0.6-0.2-1.3-0.4-1.9-0.6c-0.5-0.2-0.9-0.3-1.4-0.5c-0.4-0.2-0.6-0.5-0.6-0.9c0-0.4,0.3-0.7,0.6-0.8c0.5-0.2,1-0.3,1.5-0.2
		c0.7,0.1,1.2,0.5,1.4,1.2c0,0.1,0.1,0.3,0.2,0.5c0.7,0,1.3-0.1,1.9-0.1c0.1-1.5-0.8-2.8-2.1-3.3c-0.9-0.3-1.9-0.3-2.9-0.1
		c-1.4,0.3-2.3,1.3-2.6,2.8c-0.2,1.3,0.5,2.6,1.7,3.2c0.6,0.3,1.2,0.5,1.7,0.7c0.5,0.2,1,0.3,1.5,0.5c0.5,0.2,0.9,0.5,0.9,1
		c0.1,0.6-0.2,1.1-0.7,1.4c-1.2,0.8-2.8,0.2-3.3-1.1c-0.1-0.3-0.2-0.5-0.3-0.8C67.7,46.2,67.1,46.3,66.5,46.4z"/>
	<path class="st0" d="M136.7,24.3c-0.2,0.3-0.5,0.6-0.7,0.8c-0.3,0.3-0.6,0.5-1.1,0.3c-0.4-0.2-0.6-0.5-0.6-0.9c0-0.2,0-0.4,0-0.6
		c0-2.3,0-4.7,0-7c0-0.2,0-0.4,0-0.6c0.9,0,1.8,0,2.7,0c0-0.4,0-0.8,0-1.2c-0.9,0-1.8,0-2.7,0c0-1.5,0-2.9,0-4.2
		c-0.4-0.2-0.5,0.1-0.6,0.3c-1,1.7-2.3,3.2-3.9,4.4c-0.1,0.1-0.2,0.1-0.3,0.2c-0.2,0.1-0.3,0.3-0.1,0.6c0.4,0,0.9,0,1.4,0
		c0,0.3,0,0.5,0,0.7c0,0.7,0,1.5,0,2.2c0,1.7,0,3.5,0,5.2c0,0.7,0.3,1.3,0.8,1.8c0.8,0.8,1.8,0.9,2.9,0.7c1.2-0.2,1.9-1,2.4-2
		C137,24.5,136.9,24.4,136.7,24.3z"/>
	<path class="st0" d="M264.3,15c-1.6,0-3.2,0-4.7,0c-0.1,0.3,0,0.4,0.3,0.5c0.7,0.1,0.9,0.6,1,1.2c0,0.2,0,0.4,0,0.6
		c0,2.3,0,4.5,0,6.8c0,0.3,0,0.7-0.1,1c0,0.6-0.3,1-1,1.1c-0.3,0-0.3,0.2-0.2,0.5c2.1,0,4.2,0,6.2,0c0.1-0.3,0-0.4-0.3-0.5
		c-0.9-0.2-1.2-0.4-1.2-1.4c0-1.4-0.1-2.7,0-4c0-0.8,0.2-1.6,0.4-2.3c0.1-0.5,0.4-0.9,0.8-1.2c0.4-0.3,0.7-0.3,1.1,0
		c0.2,0.2,0.4,0.3,0.6,0.5c1,0.6,2.1,0.1,2.3-1.1c0-0.3,0-0.6,0-0.8c-0.1-0.7-0.6-1.2-1.3-1.2c-0.9,0-1.6,0.3-2.1,0.8
		c-0.5,0.4-0.8,1-1.3,1.4c-0.1,0.1-0.3,0.3-0.4,0.5c0,0-0.1,0-0.1,0C264.3,16.7,264.3,15.9,264.3,15z"/>
	<path class="st0" d="M138.3,26.7c2.1,0,4.1,0,6.2,0c0-0.4,0-0.4-0.3-0.5c-0.9-0.2-1.2-0.4-1.2-1.4c0-1.3,0-2.6,0-4
		c0-0.8,0.1-1.7,0.5-2.4c0.2-0.4,0.4-0.8,0.7-1.1c0.4-0.4,0.8-0.4,1.2,0c0.2,0.1,0.4,0.3,0.6,0.4c1,0.6,2.1,0.1,2.3-1.1
		c0-0.3,0-0.5,0-0.8c-0.1-0.8-0.6-1.3-1.4-1.3c-0.9,0-1.6,0.4-2.2,1c-0.5,0.5-0.8,1-1.3,1.5c-0.1,0.1-0.2,0.2-0.4,0.4
		c0-0.9,0-1.7,0-2.4c-1.6,0-3.1,0-4.7,0c-0.1,0.4,0.1,0.4,0.3,0.5c0.6,0.1,0.8,0.5,0.9,1.1c0,0.3,0,0.5,0,0.8c0,2.2,0,4.4,0,6.7
		c0,0.4,0,0.7-0.1,1.1c-0.1,0.6-0.3,1-0.9,1.1C138.3,26.3,138.2,26.4,138.3,26.7z"/>
	<path class="st0" d="M185.8,38.6c-0.1,1.1-0.1,11.1,0,11.5c2.6,0,5.1,0,7.7,0c0-0.6,0-1.2,0-1.9c-1.9,0-3.8,0-5.7,0
		c0-1.1,0-2.1,0-3.2c1.7,0,3.4,0,5.1,0c0-0.7,0-1.3,0-1.9c-1.7,0-3.4,0-5.1,0c0-0.9,0-1.7,0-2.6c1.8,0,3.6,0,5.4,0
		c0-0.7,0-1.3,0-1.9C190.8,38.6,188.3,38.6,185.8,38.6z"/>
	<path class="st0" d="M233.4,38.6c0,3.9,0,7.7,0,11.5c2.6,0,5.1,0,7.7,0c0.1-0.7,0.1-1.3,0-1.9c-1.9,0-3.8,0-5.7,0
		c0-1.1,0-2.1,0-3.2c1.8,0,3.4,0,5.1,0c0.1-0.7,0.1-1.3,0-1.9c-1.7,0-3.4,0-5.1,0c0-0.9,0-1.7,0-2.6c1.9,0,3.7,0,5.5,0
		c0-0.7,0-1.3,0-1.9C238.4,38.6,235.9,38.6,233.4,38.6z"/>
	<path class="st0" d="M82.3,38.6c0,0.2,0,0.4,0,0.5c0,1.9,0,3.8,0,5.7c0,0.8,0.1,1.7,0.1,2.5c0.2,1.6,1.3,2.8,2.8,2.9
		c0.7,0.1,1.5,0.1,2.2,0c1.6-0.2,2.7-1.3,2.9-2.9c0.1-0.6,0.1-1.2,0.1-1.8c0-2.2,0-4.3,0-6.5c0-0.2,0-0.3-0.1-0.5
		c-0.7,0-1.3-0.1-2,0.1c0,0.3,0,0.5,0,0.7c0,1.8,0,3.6,0,5.5c0,0.7-0.1,1.4-0.1,2c0,0.4-0.2,0.8-0.5,1.1c-0.6,0.5-1.4,0.5-2.1,0.3
		c-0.7-0.2-1.1-0.7-1.2-1.4c-0.1-0.5-0.1-1.1-0.1-1.7c0-2,0-3.9,0-5.8c0-0.2,0-0.5,0-0.7C83.6,38.6,83,38.6,82.3,38.6z"/>
	<path class="st0" d="M273.4,41.7c-0.4-1.6-1.2-2.8-2.8-3.2c-0.9-0.3-1.8-0.2-2.7,0c-1.6,0.5-2.5,1.7-3,3.3
		c-0.5,1.6-0.5,3.2-0.1,4.8c0.5,2.1,2,3.5,4,3.7c2.4,0.3,4.4-1.3,4.6-3.7c-0.6-0.2-1.3-0.5-1.9-0.7c-0.2,0.5-0.3,1-0.6,1.3
		c-0.7,1.2-2.3,1.5-3.3,0.5c-0.4-0.4-0.6-0.8-0.8-1.4c-0.3-1.1-0.3-2.2-0.2-3.3c0.1-0.5,0.2-1.1,0.5-1.6c0.5-0.9,1.3-1.3,2.3-1.2
		c0.9,0.1,1.5,0.6,1.8,1.4c0.1,0.2,0.1,0.3,0.2,0.5C272.1,42.1,272.7,41.9,273.4,41.7z"/>
	<path class="st0" d="M149.3,26.7c2.1,0,4.1,0,6.2,0c0.1-0.4-0.1-0.4-0.4-0.5c-0.6-0.1-0.9-0.4-0.9-1c0-0.4-0.1-0.7-0.1-1.1
		c0-2.8,0-5.6,0-8.4c0-0.2,0-0.5,0-0.7c-0.9-0.1-4.4-0.1-4.8,0c0.1,0.3,0.1,0.3,0.2,0.4c0.9,0.3,1,0.4,1.1,1.4c0,1.3,0,2.7,0,4
		c0,1.3,0,2.6,0,4c0,0.9-0.2,1.1-1.1,1.3C149.3,26.3,149.2,26.4,149.3,26.7z"/>
	<path class="st0" d="M281.5,26.7c2.1,0,4.1,0,6.2,0c0.1-0.3,0-0.4-0.3-0.5c-0.8-0.2-1-0.4-1.1-1.2c0-0.3,0-0.6,0-0.9
		c0-2.8,0-5.6,0-8.4c0-0.2,0-0.5,0-0.7c-1.6,0-3.2,0-4.8,0c-0.1,0.4,0.1,0.4,0.3,0.5c0.7,0.1,0.9,0.5,1,1.1c0,0.3,0,0.7,0,1
		c0,1.9,0,3.7,0,5.6c0,0.6,0,1.1,0,1.7c0,0.8-0.3,1.2-1.1,1.3C281.5,26.3,281.5,26.5,281.5,26.7z"/>
	<path class="st0" d="M175.5,50.1c0-3.3,0-6.4,0-9.6c1.1,0,2,0,3,0c0-0.7,0-1.3,0-1.9c-2.7,0-5.4,0-8.1,0c0,0.6,0,1.3,0,1.9
		c1,0,2,0,3,0c0,1.7,0,3.2,0,4.8c0,1.6,0,3.2,0,4.8c0.3,0,0.5,0,0.7,0C174.6,50.1,175,50.1,175.5,50.1z"/>
	<path class="st0" d="M281,38.5c-0.1,1-0.1,11.1,0,11.6c0.5,0,1,0,1.6,0c0.1,0,0.2,0,0.3,0c0-3.8,0-7.7,0-11.5c-0.2,0-0.4,0-0.6,0
		C281.9,38.5,281.5,38.5,281,38.5z"/>
	<path class="st0" d="M147.2,50.1c0.1-0.9,0.1-11,0-11.5c-0.6,0-1.3,0-1.9,0c0,3.8,0,7.7,0,11.5C145.9,50.1,146.5,50.1,147.2,50.1z"
		/>
	<path class="st0" d="M286.5,11.3c0-1.1-0.9-2-1.9-2c-1,0-1.9,0.9-1.9,1.9c0,1.1,0.9,2,2,1.9C285.7,13.2,286.5,12.4,286.5,11.3z"/>
	<path class="st0" d="M154.3,11.3c0-1.1-0.9-2-1.9-1.9c-1.1,0-1.9,0.9-1.9,1.9c0,1.1,0.9,1.9,2,1.9
		C153.5,13.2,154.3,12.3,154.3,11.3z"/>
	<path class="st0" d="M51.7,10c-0.3-0.3-0.5-0.6-0.8-0.9c-1.4-1.6-3.1-2.9-4.6-4.3c-0.7-0.6-1.5-1.1-2.2-1.6C44,3.1,44,3,43.9,2.8
		c0.1,0,0.2,0.1,0.3,0.1C46,3.7,47.4,4.8,48.9,6c1.2,1,2.4,2.2,3.5,3.3c0.7,0.7,1.2,1.5,1.8,2.2c0.3,0.4,0.5,0.9,0.2,1.4
		c-0.2,0.4-0.5,0.6-0.9,0.6c-0.3,0-0.6,0-0.8,0c-2.6-0.4-5.1,0.1-7.6,1.1c-1.5,0.6-2.9,1.3-4.1,2.4c-3,2.6-5,5.7-5.7,9.6
		c-0.7,4.2,0.1,8,2.4,11.5c1.3,2.1,3,3.9,5.2,5.2c0.1,0.1,0.2,0.2,0.3,0.2c0,0,0,0.1,0,0.1c-0.1,0.2-0.3,0.2-0.5,0.1
		c-1-0.5-2-0.9-2.8-1.7c-0.2-0.2-0.4-0.4-0.6-0.5c0,0-0.1,0.1-0.1,0.1c0,0.1,0,0.2,0.1,0.3c0.9,0.8,1.8,1.7,3,2.3
		c2.3,1.2,4.6,2.1,7.2,2.2c1.1,0.1,2.2,0,3.3,0c0.5,0,0.8-0.2,1-0.7c0-0.1,0.1-0.1,0.1-0.2c0.3,0,0.4,0.2,0.5,0.5
		c0.2,0.5,0.2,0.9-0.1,1.3c-0.9,1.2-1.8,2.4-2.9,3.4c-1.4,1.3-2.9,2.6-4.5,3.8c-1.2,0.8-2.4,1.6-3.8,2.2c-1.1,0.5-2.3,1-3.4,1.5
		c-2,0.8-4,1.2-6.2,1.5c-1.3,0.2-2.7,0.3-4,0.2c-0.4-0.1-0.8-0.2-1-0.6c0.4-0.4,1-0.4,1.6-0.5c-0.3-0.1-0.5-0.1-0.7-0.1
		c0-11.5,0-23,0-34.6c-0.4,0.1-0.5,0.3-0.6,0.5c-0.3,0.4-0.7,0.6-1.2,0.6c-5.1,0-10.2,0-15.3,0c-0.1,0-0.2,0-0.3,0
		c-0.3,0-0.5,0.1-0.5,0.5c0,0.2,0,0.4,0,0.6c0,8.2,0,16.3,0,24.5c0,0.3,0,0.5,0,0.8c-0.1,0.5-0.3,0.9-0.8,1.1
		c-0.5,0.2-0.9,0-1.2-0.3c-1.9-1.7-3.6-3.5-5-5.6c-0.9-1.3-1.6-2.8-2.4-4.2c0-0.1,0-0.2-0.1-0.3c0.3,0,0.4,0.2,0.5,0.4
		c0.5,0.9,1,1.8,1.6,2.6c0.5,0.7,1.1,1.4,1.6,2.1c0.6,0.7,1.2,1.4,1.8,2.1C8,49.9,8.6,50.4,9.2,51c0.2,0.2,0.4,0.4,0.8,0.5
		c-0.3-0.3-0.5-0.6-0.8-0.8c-1.7-1.5-3.1-3.3-4.4-5.2c-2.2-3.4-3.6-7-4.3-11c-0.6-3.1-0.6-6.3-0.1-9.4c0.5-3.2,1.5-6.2,2.9-9.1
		c1.1-2.3,2.6-4.4,4.4-6.3C10,7,12.8,4.8,15.9,3.2c2.9-1.4,6-2.5,9.2-2.9c2.2-0.3,4.5-0.4,6.7-0.2c3.4,0.3,6.6,1.1,9.7,2.5
		c1.6,0.7,3.1,1.5,4.5,2.5C48,6.5,49.7,8,51.3,9.6C51.4,9.8,51.6,9.9,51.7,10c0.1,0.4,0.4,0.6,0.7,0.8c0.1,0.2,0.2,0.4,0.3,0.6
		c0,0,0.1-0.1,0.1-0.1c-0.2-0.1-0.3-0.3-0.5-0.5C52.1,10.6,51.9,10.3,51.7,10z M27.4,11c0,0-0.1,0-0.1,0.1c-0.1,0-0.1-0.1-0.2-0.2
		c-0.6-1.2-1.7-1.9-2.8-2.6c-1.7-1.1-3.6-1.6-5.6-1.3c-2,0.2-3.6,1-5,2.4c-2.3,2.2-2.8,5.4-1,8.3c0.6,1,1.4,2,2.5,2.6
		c0.1,0.1,0.2,0.2,0.3,0.3c0,0-0.1,0.1-0.1,0.1c-1.4-0.2-2.5-1-3.4-2.1c0,0.1,0,0.1,0,0.2c0.1,0.1,0.1,0.2,0.2,0.3
		c0.8,1,1.7,1.7,2.8,2.3c2.1,1.1,4.3,1.5,6.6,1c1.2-0.2,2.4-0.7,3.4-1.4c2.5-1.5,3.7-3.7,3.9-6.6c0.1-1.2-0.2-2.4-0.7-3.5
		c-0.6-1.5-1.8-2.5-3.1-3.4C26.2,8.5,27.4,9.4,27.4,11z M10.6,13.9C10.6,13.9,10.6,13.9,10.6,13.9c0,0.1,0,0.2,0,0.4c0,0,0,0,0,0
		C10.6,14.2,10.6,14,10.6,13.9z"/>
	<path class="st0" d="M300,33.6c0,0.4,0,0.7,0,1c-77.9,0-155.7,0-233.6,0c0-0.3,0-0.7,0-1C144.2,33.6,222.1,33.6,300,33.6z"/>
	<path class="st0" d="M232.7,26.7c-2,0-3.9,0-5.9,0c-0.1-0.2-0.1-0.4,0.2-0.5c0.8-0.1,1-0.7,1-1.4c0-2.6,0-5.3,0-7.9
		c0-0.1,0-0.2,0-0.3c-0.1-0.6-0.3-1-0.9-1.1c-0.2,0-0.4-0.1-0.3-0.5c1.5,0,3.1,0,4.7,0c0,0.4,0,0.9,0.1,1.4c0.3-0.3,0.6-0.5,0.8-0.7
		c0.9-0.8,1.9-1.1,3.1-1c1,0.1,1.8,0.5,2.3,1.4c0.1,0.2,0.2,0.4,0.4,0.7c0.3-0.3,0.5-0.5,0.7-0.7c1-0.9,2.1-1.5,3.5-1.4
		c1.3,0.1,2.4,0.9,2.6,2.2c0.2,0.8,0.2,1.6,0.2,2.4c0,1.6,0,3.2,0,4.8c0,0.4,0,0.8,0,1.1c0,0.5,0.3,0.9,0.8,1
		c0.3,0.1,0.5,0.1,0.3,0.5c-2,0-3.9,0-5.9,0c-0.1-0.2-0.1-0.4,0.2-0.5c0.8-0.2,1-0.7,1-1.4c0-2.3,0-4.7,0-7c0-0.1,0-0.3-0.1-0.5
		c-0.2-1-0.9-1.3-1.8-0.9c-0.6,0.3-1,0.7-1.4,1.3c-0.1,0.1-0.1,0.4-0.1,0.5c0,2.1,0,4.2,0,6.4c0,0.2,0,0.4,0.1,0.6
		c0.1,0.5,0.4,0.9,0.9,1c0.3,0.1,0.4,0.2,0.3,0.5c-2,0-3.9,0-5.9,0c-0.1-0.2-0.1-0.4,0.2-0.5c0.6-0.1,0.9-0.6,0.9-1.2
		c0-0.5,0.1-1,0.1-1.5c0-2,0-3.9-0.1-5.8c0-0.6-0.2-1.1-0.8-1.4c-0.6-0.2-1.1,0-1.6,0.4c-0.2,0.2-0.3,0.3-0.5,0.5
		c-0.3,0.3-0.5,0.7-0.5,1.2c0,1.9,0,3.8,0,5.6c0,0.3,0,0.7,0.1,1c0,0.5,0.3,1,0.9,1.1C232.7,26.3,232.8,26.4,232.7,26.7z"/>
	<path class="st0" d="M98.7,25.4c-0.2,0.2-0.3,0.4-0.5,0.6c-1.6,1.8-4,1.2-5.2,0.1c-0.7-0.6-1.2-1.4-1.5-2.3
		c-0.7-2.1-0.6-4.3,0.3-6.3c0.5-1.1,1.3-2,2.4-2.4c1.5-0.6,2.9-0.5,4.2,0.7c0.1,0.1,0.2,0.2,0.3,0.3c0.1-0.1,0.1-0.2,0.1-0.2
		c0-1.4,0-2.8,0-4.2c0-0.9-0.3-1.1-1.2-1.2c-0.1,0-0.2,0-0.3,0c-0.1,0-0.2-0.2-0.2-0.2s0.1-0.2,0.2-0.2c0.1,0,0.2,0,0.3,0
		c1.4,0,2.9,0,4.4,0c0.1,0,0.2,0,0.4,0.1c0,0.3,0,0.5,0,0.8c0,4.4,0,8.8,0,13.3c0,0.1,0,0.3,0,0.4c0,1,0.2,1.2,1.2,1.5
		c0.1,0,0.1,0,0.2,0.1c0.1,0.3,0,0.4-0.2,0.4c-0.4,0.1-0.8,0.1-1.1,0.2c-1,0.2-1.9,0.4-2.9,0.6c-0.2,0-0.4,0-0.6,0.1
		c0-0.5,0-1,0-1.5C98.8,25.5,98.8,25.4,98.7,25.4z M98.9,20.8c0-0.8,0-1.6,0-2.4c0-1-0.8-2-1.7-2.3c-0.8-0.3-1.4,0-1.8,0.7
		C95.2,17.1,95,17.6,95,18c-0.3,1.7-0.3,3.5,0,5.2c0.1,0.7,0.3,1.3,0.8,1.8c0.3,0.4,0.8,0.6,1.3,0.5c0.9-0.2,1.8-1.3,1.9-2.2
		C98.9,22.5,98.9,21.6,98.9,20.8z"/>
	<path class="st0" d="M211.2,22.9c0,0.5,0,0.9,0,1.2c0,0.2-0.2,0.4-0.3,0.5c-1.5,1.5-3.2,2.3-5.3,2.5c-2,0.1-3.9-0.1-5.7-1
		c-2.5-1.3-3.9-3.4-4.4-6.2c-0.7-4.1,1.9-9.4,7.7-10.4c1.7-0.3,3.4-0.1,5,0.5c0.4,0.2,0.9,0.3,1.3,0.5c0.8,0.2,1.2,0,1.4-0.7
		c0.1-0.2,0.1-0.5,0.5-0.3c0,1.9,0,3.8,0,5.7c-0.3,0.1-0.4,0.1-0.5-0.2c-0.1-0.3-0.2-0.7-0.3-1c-0.8-1.9-2.1-3.1-4.2-3.4
		c-2.4-0.4-4.7,0.9-5.7,3.1c-0.6,1.4-0.9,2.8-0.9,4.2c0,1.5,0.1,2.9,0.6,4.3c0.1,0.1,0.1,0.3,0.1,0.4c0.9,2.5,2.8,3.6,5.6,3.3
		c1.4-0.1,2.6-0.7,3.6-1.6C210.2,23.9,210.6,23.5,211.2,22.9z"/>
	<path class="st0" d="M89.3,26.7c-2,0-3.9,0-5.8,0c-0.1-0.2-0.1-0.4,0.2-0.5c0.7-0.2,0.9-0.7,0.9-1.3c0-2.4,0-4.8,0-7.2
		c0-0.2,0-0.4-0.1-0.6c-0.2-0.7-0.7-1-1.4-0.8c-0.9,0.3-1.6,1.2-1.6,2.1c0,1.9,0,3.8,0,5.7c0,0.3,0.1,0.7,0.1,1
		c0,0.5,0.3,0.8,0.8,0.9c0.3,0.1,0.3,0.1,0.3,0.5c-1.9,0-3.9,0-5.8,0c-0.1-0.2-0.1-0.4,0.2-0.5c0.7-0.1,0.9-0.6,0.9-1.2
		c0-0.3,0-0.7,0-1c0-2.1,0-4.2,0-6.3c0-0.4-0.1-0.9-0.1-1.3c0-0.5-0.3-0.8-0.8-0.9c-0.2-0.1-0.5-0.1-0.4-0.5c1.5,0,3.1,0,4.7,0
		c0,0.4,0,0.9,0.1,1.4c0.3-0.2,0.4-0.4,0.6-0.5c0.8-0.7,1.7-1.2,2.8-1.3c1.8-0.1,3,1.2,3.1,2.8c0.1,0.8,0.1,1.5,0.1,2.3
		c0,1.5,0,3,0,4.5c0,0.3,0,0.6,0,0.9c0,0.5,0.3,0.9,0.9,1C89.3,26.3,89.4,26.4,89.3,26.7z"/>
	<path class="st0" d="M105.2,15.1c1.6,0,3.1,0,4.7,0c0,0.3,0,0.5,0,0.7c0,2.4,0,4.8,0,7.2c0,0.5,0,1,0.1,1.5
		c0.1,0.8,0.8,1.2,1.6,0.8c0.6-0.3,1-0.8,1.4-1.4c0.1-0.1,0.1-0.3,0.1-0.5c0-2,0-4.1,0-6.1c0-0.3,0-0.5,0-0.8
		c-0.1-0.5-0.3-0.8-0.8-1c-0.3-0.1-0.3-0.1-0.4-0.5c1.6,0,3.1,0,4.7,0c0,0.3,0,0.5,0,0.7c0,2.8,0,5.5,0,8.3c0,0.4,0,0.7,0,1.1
		c0,0.6,0.3,1,0.9,1.1c0.3,0,0.4,0.2,0.3,0.5c-1.5,0-3.1,0-4.7,0c0-0.4,0-0.9-0.1-1.4c-0.3,0.3-0.5,0.5-0.8,0.7
		c-0.9,0.8-2,1.3-3.3,1c-1.2-0.2-2.2-1.2-2.3-2.3c-0.1-0.8-0.2-1.7-0.2-2.5c0-1.5,0-3.1,0-4.6c0-0.3-0.1-0.7-0.1-1
		c0-0.5-0.3-0.9-0.8-1C105.3,15.5,105.3,15.5,105.2,15.1z"/>
	<path class="st0" d="M168.2,25.1c-0.7,1.3-1.9,2-3.3,1.7c-0.8-0.1-1.3-0.5-1.5-1.3c-0.1-0.1-0.1-0.3-0.2-0.5
		c-0.2,0.1-0.3,0.2-0.4,0.3c-0.6,0.4-1.2,0.8-1.9,1.1c-0.4,0.2-1,0.3-1.5,0.3c-1.6,0.1-2.7-1.3-2.4-2.8c0.2-0.8,0.6-1.4,1.1-1.9
		c0.5-0.4,1.1-0.8,1.7-1.2c0.9-0.5,1.9-1,2.8-1.4c0.4-0.2,0.5-0.4,0.5-0.8c0-0.6,0-1.2,0-1.7c-0.1-0.8-0.5-1.3-1.3-1.4
		c-0.5-0.1-1,0-1.5,0.3c-0.5,0.3-0.6,0.6-0.2,1.1c0.1,0.2,0.3,0.3,0.4,0.5c0.5,0.8,0.2,1.7-0.7,2.1c-0.6,0.3-1.3,0.2-1.8-0.2
		c-0.7-0.4-0.9-1.1-0.6-1.9c0.3-0.8,0.8-1.4,1.5-1.8c0.9-0.6,2-0.9,3-0.9c0.7,0,1.3,0,2,0.1c0.9,0.1,1.6,0.6,2.2,1.3
		c0.4,0.5,0.6,1,0.6,1.6c0,2,0,3.9,0.1,5.9c0,0.3,0,0.7,0,1c0.1,0.7,0.4,0.8,1,0.5C167.9,24.9,167.9,24.9,168.2,25.1z M163.2,20.2
		c-1.1,0.7-1.9,1.3-2.5,2.3c-0.1,0.3-0.2,0.6-0.3,0.9c-0.1,0.7,0.3,1.2,0.9,1.4c0.5,0.2,1.5-0.2,1.8-0.6c0.1-0.1,0.1-0.2,0.1-0.3
		C163.2,22.7,163.2,21.5,163.2,20.2z"/>
	<path class="st0" d="M213.9,20.8c0-1.2,0.3-2.4,1-3.5c1.4-2.4,4.2-3.3,6.8-2.1c1.3,0.6,2.2,1.6,2.7,3c0.6,1.7,0.7,3.4,0.1,5.1
		c-1.3,3.8-4.7,4.3-7.3,3.4c-0.8-0.3-1.4-0.8-2-1.5C214.3,23.9,213.8,22.5,213.9,20.8z M221,17.6c0-0.5-0.2-1-0.5-1.4
		c-0.6-1-2-0.9-2.5,0.1c-0.1,0.2-0.2,0.5-0.3,0.7c-0.1,0.9-0.2,1.7-0.3,2.5c-0.1,1.6-0.1,3.1,0.1,4.7c0.1,0.5,0.2,1,0.5,1.4
		c0.7,0.8,1.8,0.8,2.4-0.1c0.2-0.3,0.3-0.6,0.3-0.9"/>
	<path class="st0" d="M75.2,26.7c-2.9,0-5.8,0-8.8,0c-0.1-0.3-0.1-0.4,0.3-0.4c0.3,0,0.5,0,0.8,0c0.8-0.1,1.2-0.5,1.3-1.2
		c0.1-0.3,0.1-0.7,0.1-1c0-3.9,0-7.7,0-11.5c0-0.3,0-0.6-0.1-1c0-0.7-0.4-1-1.1-1.2c-0.4-0.1-0.8-0.1-1.4-0.2
		c0.1-0.2,0.2-0.3,0.3-0.3c0.1,0,0.3,0,0.4,0c2.5,0,5.1,0,7.6,0c0.2,0,0.3,0,0.4,0c0.1,0,0.1,0.2,0.3,0.4c-0.4,0-0.6,0-0.8,0
		c-1.1,0.1-1.6,0.5-1.6,1.6c0,1.5,0,3.1,0,4.6c0,2.4,0,4.9,0,7.3c0,0.4,0,0.7,0,1.1c0.1,0.8,0.5,1.3,1.3,1.4c0.3,0,0.5,0,0.8,0
		C75.1,26.3,75.3,26.4,75.2,26.7z"/>
	<path class="st0" d="M300,20.9c0,1.1-0.2,2.1-0.6,3.1c-1,2.2-3,3.3-5.5,3.1c-1.9-0.2-3.3-1.1-4.1-2.8c-1.2-2.5-1.1-5,0.4-7.3
		c2-3.3,7.2-2.9,8.9,0.4C299.7,18.4,300,19.7,300,20.9z M296.3,20.7C296.3,20.7,296.3,20.7,296.3,20.7c-0.1-0.8-0.1-1.7-0.1-2.5
		c0-0.7-0.1-1.3-0.5-1.9c-0.3-0.5-0.7-0.7-1.3-0.7c-0.6,0-1,0.3-1.3,0.9c-0.1,0.3-0.2,0.6-0.3,0.9c-0.1,0.6-0.1,1.2-0.2,1.8
		c-0.1,1.7-0.1,3.4,0.1,5.1c0.1,0.5,0.2,1,0.4,1.4c0.6,1,2,1,2.5-0.1c0.2-0.4,0.3-0.8,0.3-1.2C296.2,23,296.3,21.9,296.3,20.7z"/>
	<path class="st0" d="M183.1,22.6c0.7-1.8,1.3-3.5,1.9-5.3c0.1-0.2,0.1-0.3,0.1-0.5c0.1-0.8-0.1-1.1-0.9-1.3c-0.2,0-0.5,0-0.4-0.4
		c1.2,0,2.5,0,3.7,0c0.1,0.2,0.1,0.4-0.2,0.5c-0.6,0.2-0.9,0.6-1.1,1.1c-0.6,1.4-1.1,2.7-1.6,4.1c-1,2.6-2.1,5.3-3.1,7.9
		c-0.3,0.8-0.6,1.5-1.1,2.2c-0.6,1.1-1.6,1.5-2.8,1.4c-1.2-0.1-2.1-1.2-1.9-2.4c0.1-0.7,0.6-1.2,1.3-1.3c0.7-0.1,1.3,0.3,1.5,1
		c0.1,0.3,0.1,0.6,0.1,0.9c0.1,0.5,0.4,0.7,0.8,0.3c0.2-0.2,0.4-0.3,0.5-0.6c0.4-0.9,0.8-1.9,1.2-2.8c0.1-0.2,0-0.5-0.1-0.7
		c-1.1-2.6-2.3-5.3-3.4-7.9c-0.3-0.7-0.7-1.4-1-2.1c-0.2-0.5-0.6-0.9-1.1-1.1c-0.2-0.1-0.3-0.2-0.2-0.5c2,0,4,0,6.2,0
		c-0.1,0.2-0.1,0.3-0.2,0.4c-0.1,0.1-0.2,0.1-0.3,0.1c-0.5,0.2-0.7,0.4-0.6,1c0.1,0.3,0.1,0.5,0.3,0.8c0.7,1.7,1.5,3.4,2.2,5.1
		C182.9,22.4,183,22.5,183.1,22.6z"/>
	<path class="st0" d="M209.2,38.6c0,3.8,0,7.6,0,11.5c-0.6,0-1.3,0-1.9,0c-0.1,0-0.3-0.3-0.4-0.4c-1.1-2-2.2-4-3.3-6
		c-0.1-0.3-0.3-0.5-0.5-0.8c-0.1,0-0.1,0-0.1,0c0,0.2,0,0.4,0,0.7c0,2,0,3.9,0,5.8c0,0.2,0,0.5,0,0.7c-0.7,0-1.3,0-1.9,0
		c0-3.8,0-7.7,0-11.5c0.7,0,1.3,0,2,0c1.3,2.5,2.7,5,4.1,7.4c0,0,0.1,0,0.1,0c0-2.4,0-4.9,0-7.3C207.8,38.5,208.5,38.5,209.2,38.6z"
		/>
	<path class="st0" d="M163.2,50.1c-0.7,0-1.4,0-2.1,0c-1.3-2.4-2.7-4.8-4-7.3c-0.1,0-0.1,0-0.1,0c0,2.4,0,4.8,0,7.2
		c-0.7,0-1.2,0-1.9,0c0-3.8,0-7.7,0-11.5c0.6,0,1.2,0,1.8,0c0.3,0,0.4,0.3,0.5,0.5c0.8,1.5,1.6,3,2.4,4.5c0.4,0.7,0.7,1.3,1.1,2
		c0.1,0.2,0.2,0.3,0.4,0.5c0.1-2.5,0-4.9,0.1-7.4c0.6,0,1.2,0,1.9,0C163.2,42.4,163.2,46.2,163.2,50.1z"/>
	<path class="st0" d="M134.9,45.1c1.1,0.8,1.7,1.9,2.3,3c0.4,0.7,0.7,1.3,1.1,2.1c-0.8,0-1.5,0-2.3,0c-0.3,0-0.3-0.2-0.4-0.4
		c-0.6-0.9-1.1-1.8-1.6-2.8c-0.2-0.3-0.3-0.5-0.5-0.8c-0.6-0.8-1.2-1-2.3-0.8c0,1.5,0,3.1,0,4.7c-0.7,0-1.4,0-2,0
		c0-3.8,0-7.7,0-11.5c0.1,0,0.3,0,0.4,0c1.5,0,3,0,4.6,0c0.1,0,0.3,0,0.4,0c2,0.1,3.2,1.5,3,3.5c-0.1,1.5-0.8,2.5-2.3,2.9
		C135.2,44.9,135.1,45,134.9,45.1z M131.2,43.4c1.1,0,2.1,0.1,3.2-0.1c0.4-0.1,0.6-0.3,0.8-0.6c0.6-1.1,0-2.2-1.3-2.3
		c-0.8,0-1.6,0-2.4,0c-0.1,0-0.2,0-0.4,0.1C131.2,41.5,131.2,42.4,131.2,43.4z"/>
	<path class="st0" d="M257.6,23.3c0.3,0.1,0.4,0.2,0.3,0.5c-0.7,1.4-1.6,2.6-3.2,3.1c-2.1,0.6-4.9,0.1-6-2.9c-0.7-1.9-0.7-3.9,0-5.8
		c0.5-1.3,1.3-2.2,2.5-2.9c2.2-1.3,4.9-0.5,6.1,1.8c0.5,1,0.7,2.1,0.8,3.4c-1.1,0-2.1,0-3.2,0c-1,0-2.1,0-3.1,0
		c-0.1,0.5,0,1,0.1,1.5c0.2,0.9,0.6,1.8,1.3,2.5c1.1,1.1,2.6,1.1,3.6,0C257,24.1,257.2,23.7,257.6,23.3z M254.9,19.6
		c0-1,0-1.9-0.2-2.8c-0.1-0.3-0.2-0.6-0.4-0.8c-0.5-0.7-1.4-0.7-1.9,0c-0.8,1.1-0.9,2.3-0.8,3.6C252.6,19.6,253.7,19.6,254.9,19.6z"
		/>
	<path class="st0" d="M256.8,50.1c-0.6,0-1.2,0-1.8,0c-0.1,0-0.3-0.1-0.4-0.2c-0.1-0.2-0.2-0.4-0.3-0.5c-1.1-2-2.1-3.9-3.2-5.8
		c-0.1-0.2-0.2-0.4-0.4-0.7c-0.1,0.9-0.1,1.7-0.1,2.5c0,0.8,0,1.6,0,2.4c0,0.8,0,1.6,0,2.4c-0.6,0.1-1.3,0.1-1.9,0
		c0-3.8,0-7.6,0-11.5c0.6-0.1,1.2-0.1,1.8,0c0.1,0,0.3,0.3,0.4,0.4c1.1,2.1,2.3,4.1,3.4,6.2c0.1,0.3,0.3,0.5,0.4,0.8
		c0.1,0,0.1,0,0.1,0c0-1.2,0-2.5,0-3.7c0-1.2,0-2.4,0-3.7c0.6-0.2,1.2,0,1.8-0.1C256.9,39,256.9,48.6,256.8,50.1z"/>
	<path class="st0" d="M217.3,38.5c0.3,0,0.5,0,0.8,0c1.3,0,2.5,0,3.8,0c1.4,0,2.4,0.7,3.1,1.9c0.4,0.7,0.7,1.5,0.8,2.3
		c0.2,1.5,0.2,3.1-0.4,4.6c-0.4,1.1-1,2-2.1,2.4c-0.4,0.2-0.9,0.3-1.3,0.3c-1.5,0-3.1,0-4.6,0C217.2,49.6,217.1,39.7,217.3,38.5z
		 M219.3,48.2c0.8,0,1.5,0,2.2,0c1.1-0.1,1.7-0.6,1.9-1.7c0.2-0.9,0.2-1.8,0.2-2.7c0-0.6-0.1-1.3-0.3-1.9c-0.2-0.7-0.7-1.2-1.4-1.3
		c-0.9-0.2-1.7-0.1-2.6-0.1C219.3,43.1,219.3,45.6,219.3,48.2z"/>
	<path class="st0" d="M280,23.8c0.1,0.1,0.2,0.2,0.3,0.3c0,0.1,0,0.1-0.1,0.2c-0.9,1.6-2.1,2.6-4,2.8c-1.8,0.2-3.3-0.3-4.4-1.7
		c-1-1.3-1.4-2.8-1.4-4.4c0-1.5,0.5-2.9,1.4-4.2c1.6-2.2,4.1-2.4,6-1.8c0.7,0.2,1.3,0.7,1.7,1.3c0.3,0.4,0.4,0.9,0.4,1.4
		c0,0.8-0.4,1.3-1.1,1.5c-0.8,0.2-1.6-0.1-1.9-0.8c-0.2-0.4-0.2-0.8-0.3-1.2c-0.1-0.3-0.1-0.6-0.2-0.9c-0.3-0.8-1.1-1-1.6-0.4
		c-0.3,0.3-0.5,0.7-0.7,1.1c-0.4,1.1-0.3,2.2-0.2,3.4c0.1,0.9,0.3,1.8,0.7,2.6c0.2,0.5,0.5,0.9,0.9,1.3c0.9,1,2.3,1.1,3.4,0.3
		C279.3,24.4,279.6,24.1,280,23.8z"/>
	<path class="st0" d="M119.9,23c0.3-0.2,0.4-0.1,0.5,0.1c0.1,0.3,0.2,0.5,0.3,0.8c0.4,0.8,1,1.5,1.8,1.9c0.3,0.2,0.8,0.3,1.1,0.4
		c0.6,0.1,1-0.2,1.3-0.6c0.3-0.5,0.2-1-0.1-1.5c-0.2-0.2-0.4-0.5-0.6-0.6c-0.6-0.5-1.3-0.9-1.9-1.4c-0.5-0.4-1-0.8-1.5-1.2
		c-1.4-1.4-1.5-3.6-0.1-5.1c1.1-1.1,2.5-1.2,3.9-0.8c0.2,0.1,0.4,0.2,0.7,0.3c0.5,0.2,0.7,0.2,1.1-0.2c0.2-0.2,0.3-0.3,0.6-0.2
		c0.1,1.2,0.1,2.5,0.2,3.8c-0.3,0.2-0.4,0-0.6-0.2c-0.3-0.5-0.6-1.1-0.9-1.6c-0.4-0.6-1-1-1.7-1.1c-0.3,0-0.6,0-0.9,0.1
		c-0.8,0.3-1,1.1-0.4,1.8c0.2,0.2,0.4,0.4,0.6,0.5c0.6,0.4,1.2,0.8,1.8,1.3c0.6,0.5,1.2,0.9,1.7,1.4c1.2,1.2,1.5,2.8,0.7,4.4
		c-0.7,1.4-2.3,2.2-3.9,1.9c-0.6-0.1-1.1-0.3-1.7-0.5c-0.5-0.2-0.9-0.2-1.2,0.3c-0.1,0.1-0.2,0.1-0.4,0.2
		C120,25.7,120,24.3,119.9,23z"/>
	<path class="st0" d="M115.9,45c0,1.1,0,2.1,0,3.2c1.9,0,3.7,0,5.6,0c0,0.7,0,1.3,0,1.9c-2.6,0-5.1,0-7.7,0c0-3.8,0-7.7,0-11.5
		c2.5,0,5,0,7.6,0c0,0.6,0,1.2,0,1.9c-0.9,0-1.8,0-2.7,0c-0.9,0-1.8,0-2.7,0c0,0.9,0,1.7,0,2.6c1.7,0,3.4,0,5.1,0c0,0.7,0,1.3,0,1.9
		C119.3,45,117.6,45,115.9,45z"/>
	<path class="st0" d="M66.5,46.4c0.6-0.1,1.3-0.2,1.9-0.2c0.1,0.3,0.2,0.5,0.3,0.8c0.5,1.3,2.1,1.9,3.3,1.1c0.5-0.3,0.8-0.8,0.7-1.4
		c0-0.6-0.4-0.9-0.9-1c-0.5-0.2-1-0.3-1.5-0.5c-0.6-0.2-1.2-0.4-1.7-0.7c-1.2-0.6-1.9-1.9-1.7-3.2c0.2-1.5,1.1-2.5,2.6-2.8
		c1-0.2,2-0.2,2.9,0.1c1.4,0.5,2.2,1.7,2.1,3.3c-0.6,0-1.3,0.1-1.9,0.1c-0.1-0.2-0.1-0.3-0.2-0.5c-0.2-0.7-0.7-1.1-1.4-1.2
		c-0.5-0.1-1,0-1.5,0.2c-0.3,0.2-0.6,0.4-0.6,0.8c0,0.4,0.2,0.8,0.6,0.9c0.4,0.2,0.9,0.4,1.4,0.5c0.7,0.2,1.3,0.4,1.9,0.6
		c1.5,0.6,2.2,1.8,2.1,3.5c-0.1,1.7-1.1,2.8-2.6,3.2c-0.9,0.2-1.9,0.2-2.8,0C67.6,49.8,66.5,48.4,66.5,46.4z"/>
	<path class="st0" d="M136.7,24.3c0.3,0,0.4,0.2,0.2,0.5c-0.5,1-1.2,1.8-2.4,2c-1.1,0.2-2.1,0.1-2.9-0.7c-0.5-0.5-0.8-1.1-0.8-1.8
		c0-1.7,0-3.5,0-5.2c0-0.7,0-1.5,0-2.2c0-0.2,0-0.4,0-0.7c-0.5,0-0.9,0-1.4,0c-0.2-0.3-0.1-0.4,0.1-0.6c0.1-0.1,0.2-0.1,0.3-0.2
		c1.6-1.2,2.9-2.6,3.9-4.4c0.1-0.2,0.2-0.5,0.6-0.3c0,1.4,0,2.8,0,4.2c0.9,0,1.8,0,2.7,0c0,0.4,0,0.8,0,1.2c-0.9,0-1.8,0-2.7,0
		c0,0.3,0,0.5,0,0.6c0,2.3,0,4.7,0,7c0,0.2,0,0.4,0,0.6c0.1,0.4,0.2,0.7,0.6,0.9c0.4,0.2,0.8,0,1.1-0.3
		C136.2,24.9,136.4,24.6,136.7,24.3z"/>
	<path class="st0" d="M264.3,15c0,0.9,0,1.6,0,2.4c0,0,0.1,0,0.1,0c0.1-0.2,0.2-0.3,0.4-0.5c0.4-0.5,0.8-1,1.3-1.4
		c0.6-0.5,1.3-0.9,2.1-0.8c0.7,0,1.3,0.5,1.3,1.2c0,0.3,0,0.6,0,0.8c-0.1,1.2-1.3,1.7-2.3,1.1c-0.2-0.1-0.4-0.3-0.6-0.5
		c-0.4-0.3-0.7-0.3-1.1,0c-0.4,0.3-0.7,0.7-0.8,1.2c-0.2,0.8-0.4,1.5-0.4,2.3c-0.1,1.3,0,2.7,0,4c0,0.9,0.3,1.2,1.2,1.4
		c0.3,0,0.4,0.1,0.3,0.5c-2,0-4.1,0-6.2,0c-0.1-0.2-0.1-0.4,0.2-0.5c0.6-0.1,0.9-0.5,1-1.1c0-0.3,0.1-0.7,0.1-1c0-2.3,0-4.5,0-6.8
		c0-0.2,0-0.4,0-0.6c0-0.6-0.3-1.1-1-1.2c-0.2,0-0.4-0.1-0.3-0.5C261.1,15,262.7,15,264.3,15z"/>
	<path class="st0" d="M138.3,26.7c-0.1-0.3,0-0.4,0.2-0.5c0.6-0.1,0.9-0.5,0.9-1.1c0-0.4,0.1-0.7,0.1-1.1c0-2.2,0-4.5,0-6.7
		c0-0.3,0-0.5,0-0.8c-0.1-0.6-0.3-1-0.9-1.1c-0.2,0-0.4-0.1-0.3-0.5c1.5,0,3.1,0,4.7,0c0,0.8,0,1.5,0,2.4c0.2-0.2,0.3-0.3,0.4-0.4
		c0.4-0.5,0.8-1.1,1.3-1.5c0.6-0.6,1.3-1,2.2-1c0.8,0,1.3,0.5,1.4,1.3c0,0.2,0,0.5,0,0.8c-0.1,1.2-1.3,1.7-2.3,1.1
		c-0.2-0.1-0.4-0.3-0.6-0.4c-0.4-0.3-0.8-0.4-1.2,0c-0.3,0.3-0.6,0.7-0.7,1.1c-0.3,0.8-0.4,1.6-0.5,2.4c0,1.3,0,2.6,0,4
		c0,0.9,0.2,1.2,1.2,1.4c0.3,0,0.3,0,0.3,0.5C142.4,26.7,140.4,26.7,138.3,26.7z"/>
	<path class="st0" d="M185.8,38.6c2.5,0,5,0,7.5,0c0,0.6,0,1.2,0,1.9c-1.8,0-3.6,0-5.4,0c0,0.9,0,1.7,0,2.6c1.7,0,3.4,0,5.1,0
		c0,0.7,0,1.3,0,1.9c-1.7,0-3.4,0-5.1,0c0,1.1,0,2.1,0,3.2c1.9,0,3.8,0,5.7,0c0,0.7,0,1.3,0,1.9c-2.6,0-5.1,0-7.7,0
		C185.7,49.6,185.6,39.7,185.8,38.6z"/>
	<path class="st0" d="M233.4,38.6c2.5,0,5,0,7.5,0c0,0.6,0,1.2,0,1.9c-1.8,0-3.6,0-5.5,0c0,0.9,0,1.7,0,2.6c1.7,0,3.3,0,5.1,0
		c0.1,0.7,0.1,1.3,0,1.9c-1.7,0-3.3,0-5.1,0c-0.1,1.1,0,2.1,0,3.2c1.9,0,3.8,0,5.7,0c0,0.6,0,1.2,0,1.9c-2.6,0-5.1,0-7.7,0
		C233.4,46.2,233.4,42.4,233.4,38.6z"/>
	<path class="st0" d="M296.9,47.5c-1.4,0-2.8,0-4.1,0c-0.3,0.9-0.6,1.7-0.9,2.6c-0.7,0-1.4,0-2.2,0c1.3-3.9,2.6-7.7,4-11.6
		c0.7,0,1.3,0,1.9,0c0.3,0,0.3,0.2,0.4,0.4c0.4,1,0.7,2,1,3c0.9,2.5,1.8,5,2.7,7.5c0.1,0.2,0.1,0.4,0.2,0.6c-0.8,0-1.5,0-2.2,0
		C297.5,49.3,297.2,48.4,296.9,47.5z M294.8,41.4c0,0-0.1,0-0.1,0c-0.4,1.3-0.9,2.7-1.3,4.1c1,0,1.8,0,2.8,0
		C295.7,44.1,295.3,42.8,294.8,41.4z"/>
	<path class="st0" d="M82.3,38.6c0.7,0,1.3,0,2,0c0,0.3,0,0.5,0,0.7c0,2,0,3.9,0,5.8c0,0.5,0,1.1,0.1,1.7c0.1,0.7,0.5,1.2,1.2,1.4
		c0.8,0.2,1.5,0.2,2.1-0.3c0.3-0.3,0.5-0.6,0.5-1.1c0-0.7,0.1-1.4,0.1-2c0-1.8,0-3.6,0-5.5c0-0.2,0-0.5,0-0.7c0.7-0.1,1.3,0,2-0.1
		c0,0.2,0.1,0.3,0.1,0.5c0,2.2,0,4.3,0,6.5c0,0.6-0.1,1.2-0.1,1.8c-0.2,1.6-1.3,2.8-2.9,2.9c-0.7,0.1-1.5,0.1-2.2,0
		c-1.5-0.2-2.6-1.4-2.8-2.9c-0.1-0.8-0.1-1.7-0.1-2.5c0-1.9,0-3.8,0-5.7C82.3,38.9,82.3,38.8,82.3,38.6z"/>
	<path class="st0" d="M100.5,45.7c0,1.5,0,2.9,0,4.3c-0.7,0-1.3,0-2,0c-0.1-0.4-0.2-9.9-0.1-11.5c0.1,0,0.3-0.1,0.4-0.1
		c1.5,0,2.9,0,4.4,0c1.5,0,2.5,0.8,2.9,2.3c0.2,0.8,0.2,1.6,0,2.4c-0.4,1.3-1.2,2.2-2.6,2.3c-0.8,0.1-1.6,0.1-2.4,0.1
		C101,45.8,100.8,45.7,100.5,45.7z M100.5,43.7c0.2,0,0.3,0,0.4,0c0.6,0,1.2,0,1.8-0.1c0.9-0.1,1.4-0.7,1.4-1.6
		c0-0.9-0.5-1.5-1.3-1.6c-0.6-0.1-1.3,0-1.9,0c-0.1,0-0.3,0-0.4,0.1C100.5,41.6,100.5,42.7,100.5,43.7z"/>
	<path class="st0" d="M273.4,41.7c-0.7,0.2-1.3,0.4-2,0.5c-0.1-0.2-0.1-0.3-0.2-0.5c-0.3-0.8-0.9-1.3-1.8-1.4
		c-1-0.1-1.8,0.3-2.3,1.2c-0.3,0.5-0.4,1-0.5,1.6c-0.2,1.1-0.1,2.2,0.2,3.3c0.1,0.5,0.4,1,0.8,1.4c1,1,2.6,0.7,3.3-0.5
		c0.2-0.4,0.4-0.9,0.6-1.3c0.6,0.2,1.3,0.5,1.9,0.7c-0.3,2.4-2.3,4-4.6,3.7c-2-0.2-3.5-1.6-4-3.7c-0.4-1.6-0.4-3.2,0.1-4.8
		c0.5-1.6,1.4-2.7,3-3.3c0.9-0.3,1.8-0.3,2.7,0C272.1,38.9,273,40.1,273.4,41.7z"/>
	<path class="st0" d="M149.3,26.7c-0.1-0.3,0-0.4,0.2-0.4c0.9-0.3,1-0.4,1.1-1.3c0-1.3,0-2.6,0-4c0-1.4,0-2.7,0-4
		c0-1-0.1-1.1-1.1-1.4c-0.2-0.1-0.2-0.1-0.2-0.4c0.4-0.1,4-0.2,4.8,0c0,0.2,0,0.4,0,0.7c0,2.8,0,5.6,0,8.4c0,0.4,0,0.7,0.1,1.1
		c0.1,0.5,0.4,0.9,0.9,1c0.3,0,0.5,0.1,0.4,0.5C153.4,26.7,151.4,26.7,149.3,26.7z"/>
	<path class="st0" d="M281.5,26.7c-0.1-0.2-0.1-0.4,0.2-0.5c0.8-0.1,1.1-0.6,1.1-1.3c0-0.6,0-1.1,0-1.7c0-1.9,0-3.7,0-5.6
		c0-0.3,0-0.7,0-1c0-0.6-0.3-1-1-1.1c-0.2,0-0.4-0.1-0.3-0.5c1.6,0,3.1,0,4.8,0c0,0.2,0,0.5,0,0.7c0,2.8,0,5.6,0,8.4
		c0,0.3,0,0.6,0,0.9c0.1,0.8,0.3,1,1.1,1.2c0.3,0.1,0.4,0.2,0.3,0.5C285.7,26.7,283.6,26.7,281.5,26.7z"/>
	<path class="st0" d="M175.5,50.1c-0.5,0-0.9,0-1.4,0c-0.2,0-0.4,0-0.7,0c0-1.6,0-3.2,0-4.8c0-1.6,0-3.2,0-4.8c-1,0-2,0-3,0
		c0-0.7,0-1.3,0-1.9c2.7,0,5.4,0,8.1,0c0,0.6,0,1.2,0,1.9c-1,0-1.9,0-3,0C175.5,43.7,175.6,46.9,175.5,50.1z"/>
	<path class="st0" d="M281,38.5c0.5,0,0.9,0,1.4,0c0.2,0,0.4,0,0.6,0c0,3.8,0,7.7,0,11.5c-0.1,0-0.2,0-0.3,0c-0.5,0-1.1,0-1.6,0
		C280.9,49.6,280.8,39.5,281,38.5z"/>
	<path class="st0" d="M147.2,50.1c-0.7,0-1.3,0-2,0c0-3.8,0-7.7,0-11.5c0.7,0,1.3,0,1.9,0C147.3,39.1,147.3,49.2,147.2,50.1z"/>
	<path class="st0" d="M286.5,11.3c0,1.1-0.8,1.9-1.9,1.9c-1.1,0-2-0.9-2-1.9c0-1.1,0.9-1.9,1.9-1.9C285.7,9.3,286.6,10.2,286.5,11.3
		z"/>
	<path class="st0" d="M154.3,11.3c0,1.1-0.8,1.9-1.9,1.9c-1.1,0-2-0.8-2-1.9c0-1.1,0.9-1.9,1.9-1.9C153.4,9.3,154.3,10.2,154.3,11.3
		z"/>
</g>
<g>
	<path class="st0" d="M300,33.6c-77.9,0-155.8,0-233.6,0c0,0.4,0,0.7,0,1c77.9,0,155.8,0,233.6,0C300,34.3,300,34,300,33.6z"/>
	<path class="st1" d="M232.7,26.7c0.1-0.3,0-0.4-0.3-0.5c-0.6-0.1-0.8-0.5-0.9-1.1c0-0.3-0.1-0.7-0.1-1c0-1.9,0-3.8,0-5.6
		c0-0.5,0.1-0.9,0.5-1.2c0.2-0.2,0.3-0.3,0.5-0.5c0.5-0.4,1-0.6,1.6-0.4c0.6,0.2,0.8,0.8,0.8,1.4c0,2,0.1,3.9,0.1,5.8
		c0,0.5,0,1-0.1,1.5c0,0.6-0.3,1.1-0.9,1.2c-0.3,0.1-0.3,0.2-0.2,0.5c2,0,4,0,5.9,0c0.1-0.3,0-0.4-0.3-0.5c-0.5-0.1-0.8-0.4-0.9-1
		c0-0.2-0.1-0.4-0.1-0.6c0-2.1,0-4.2,0-6.4c0-0.2,0-0.4,0.1-0.5c0.4-0.5,0.8-1,1.4-1.3c0.9-0.4,1.6-0.1,1.8,0.9
		c0,0.1,0.1,0.3,0.1,0.5c0,2.3,0,4.7,0,7c0,0.7-0.2,1.3-1,1.4c-0.3,0.1-0.3,0.2-0.2,0.5c2,0,4,0,5.9,0c0.1-0.4-0.1-0.4-0.3-0.5
		c-0.5-0.1-0.8-0.5-0.8-1c0-0.4,0-0.8,0-1.1c0-1.6,0-3.2,0-4.8c0-0.8-0.1-1.6-0.2-2.4c-0.3-1.3-1.3-2.1-2.6-2.2
		c-1.4-0.1-2.5,0.5-3.5,1.4c-0.2,0.2-0.4,0.4-0.7,0.7c-0.1-0.3-0.3-0.5-0.4-0.7c-0.5-0.9-1.3-1.3-2.3-1.4c-1.2-0.1-2.2,0.2-3.1,1
		c-0.3,0.2-0.5,0.4-0.8,0.7c0-0.5-0.1-0.9-0.1-1.4c-1.6,0-3.2,0-4.7,0c-0.1,0.4,0.1,0.4,0.3,0.5c0.6,0.1,0.8,0.5,0.9,1.1
		c0,0.1,0,0.2,0,0.3c0,2.6,0,5.3,0,7.9c0,0.7-0.2,1.3-1,1.4c-0.3,0-0.3,0.2-0.2,0.5C228.7,26.7,230.7,26.7,232.7,26.7z"/>
	<path class="st1" d="M211.2,22.9c-0.6,0.5-1,1-1.5,1.4c-1,0.9-2.2,1.5-3.6,1.6c-2.7,0.3-4.6-0.8-5.6-3.3c-0.1-0.1-0.1-0.3-0.1-0.4
		c-0.4-1.4-0.6-2.9-0.6-4.3c0-1.5,0.3-2.9,0.9-4.3c1-2.2,3.3-3.5,5.7-3.1c2,0.4,3.4,1.6,4.2,3.4c0.1,0.3,0.2,0.6,0.3,1
		c0.1,0.3,0.3,0.3,0.5,0.2c0-1.9,0-3.8,0-5.7c-0.4-0.2-0.4,0.1-0.5,0.3c-0.3,0.8-0.7,1-1.4,0.7c-0.4-0.1-0.9-0.3-1.3-0.5
		c-1.6-0.6-3.3-0.8-5-0.5c-5.8,1-8.4,6.3-7.7,10.4c0.5,2.8,1.9,4.9,4.4,6.2c1.8,0.9,3.7,1.2,5.7,1c2.1-0.2,3.8-1,5.3-2.5
		c0.1-0.1,0.3-0.3,0.3-0.5C211.2,23.8,211.2,23.4,211.2,22.9z"/>
	<path class="st1" d="M89.3,26.7c0.1-0.4-0.1-0.4-0.3-0.5c-0.6-0.1-0.8-0.5-0.9-1c0-0.3,0-0.6,0-0.9c0-1.5,0-3,0-4.6
		c0-0.8,0-1.5-0.1-2.3c-0.1-1.5-1.3-2.8-3.1-2.8c-1.1,0-2,0.5-2.8,1.3c-0.2,0.2-0.3,0.3-0.6,0.5c0-0.5-0.1-1-0.1-1.4
		c-1.6,0-3.1,0-4.7,0c-0.1,0.4,0.1,0.4,0.4,0.5c0.5,0.1,0.7,0.4,0.8,0.9c0,0.4,0.1,0.9,0.1,1.3c0,2.1,0,4.2,0,6.3c0,0.3,0,0.7,0,1
		c0,0.6-0.3,1.1-0.9,1.2c-0.3,0-0.3,0.2-0.2,0.5c1.9,0,3.9,0,5.8,0c0-0.4,0-0.4-0.3-0.5c-0.5-0.2-0.7-0.5-0.8-0.9
		c0-0.3-0.1-0.7-0.1-1c0-1.9,0-3.8,0-5.7c0-0.9,0.7-1.9,1.6-2.1c0.7-0.2,1.2,0.1,1.4,0.8c0.1,0.2,0.1,0.4,0.1,0.6c0,2.4,0,4.8,0,7.2
		c0,0.6-0.2,1.1-0.9,1.3c-0.3,0.1-0.3,0.2-0.2,0.5C85.4,26.7,87.3,26.7,89.3,26.7z"/>
	<path class="st1" d="M105.2,15.1c0.1,0.4,0.1,0.4,0.4,0.5c0.5,0.1,0.8,0.5,0.8,1c0,0.3,0.1,0.7,0.1,1c0,1.5,0,3.1,0,4.6
		c0,0.8,0.1,1.7,0.2,2.5c0.2,1.2,1.1,2.1,2.3,2.3c1.3,0.2,2.4-0.2,3.3-1c0.2-0.2,0.5-0.4,0.8-0.7c0,0.5,0.1,1,0.1,1.4
		c1.6,0,3.2,0,4.7,0c0.1-0.3,0-0.4-0.3-0.5c-0.6-0.1-0.8-0.5-0.9-1.1c0-0.4,0-0.7,0-1.1c0-2.8,0-5.5,0-8.3c0-0.2,0-0.5,0-0.7
		c-1.6,0-3.2,0-4.7,0c0.1,0.4,0.1,0.4,0.4,0.5c0.5,0.1,0.7,0.5,0.8,1c0,0.3,0,0.5,0,0.8c0,2,0,4.1,0,6.1c0,0.2,0,0.4-0.1,0.5
		c-0.4,0.6-0.8,1.1-1.4,1.4c-0.8,0.3-1.4,0-1.6-0.8c-0.1-0.5-0.1-1-0.1-1.5c0-2.4,0-4.8,0-7.2c0-0.2,0-0.5,0-0.7
		C108.3,15.1,106.8,15.1,105.2,15.1z"/>
	<path class="st1" d="M75.2,26.7c0.1-0.3,0-0.4-0.3-0.4c-0.3,0-0.5,0-0.8,0c-0.8-0.1-1.2-0.6-1.3-1.4c0-0.4,0-0.7,0-1.1
		c0-2.4,0-4.9,0-7.3c0-1.5,0-3.1,0-4.6c0-1.1,0.5-1.6,1.6-1.6c0.2,0,0.5,0,0.8,0C75.2,10,75.1,9.8,75,9.8c-0.1,0-0.3,0-0.4,0
		c-2.5,0-5.1,0-7.6,0c-0.2,0-0.3,0-0.4,0c-0.1,0-0.2,0.2-0.3,0.3c0.5,0.1,1,0.1,1.4,0.2c0.6,0.1,1,0.5,1.1,1.2c0,0.3,0.1,0.6,0.1,1
		c0,3.9,0,7.7,0,11.6c0,0.3,0,0.7-0.1,1c-0.1,0.8-0.5,1.1-1.3,1.2c-0.3,0-0.5,0-0.8,0c-0.3,0-0.3,0.2-0.3,0.4
		C69.3,26.7,72.2,26.7,75.2,26.7z"/>
	<path class="st1" d="M183.1,22.7c-0.1-0.2-0.2-0.2-0.2-0.3c-0.7-1.7-1.5-3.4-2.2-5.1c-0.1-0.3-0.2-0.5-0.3-0.8
		c-0.1-0.5,0.1-0.8,0.6-1c0.1,0,0.2,0,0.3-0.1c0.1-0.1,0.1-0.2,0.2-0.4c-2.1,0-4.2,0-6.2,0c-0.1,0.3,0,0.4,0.2,0.5
		c0.5,0.2,0.9,0.6,1.1,1.1c0.4,0.7,0.7,1.4,1,2.1c1.1,2.6,2.3,5.3,3.4,7.9c0.1,0.2,0.2,0.5,0.1,0.7c-0.4,1-0.8,1.9-1.2,2.8
		c-0.1,0.2-0.3,0.4-0.5,0.6c-0.4,0.3-0.7,0.2-0.8-0.3c0-0.3-0.1-0.6-0.1-0.9c-0.2-0.7-0.8-1.1-1.5-1c-0.7,0.1-1.2,0.6-1.3,1.3
		c-0.2,1.2,0.6,2.2,1.9,2.3c1.2,0.1,2.2-0.3,2.8-1.4c0.4-0.7,0.8-1.4,1.1-2.2c1.1-2.6,2.1-5.3,3.1-7.9c0.5-1.4,1.1-2.7,1.6-4.1
		c0.2-0.5,0.5-0.9,1.1-1.1c0.2-0.1,0.3-0.2,0.2-0.5c-1.3,0-2.5,0-3.7,0c-0.1,0.4,0.2,0.4,0.4,0.4c0.8,0.2,1,0.6,0.9,1.4
		c0,0.2,0,0.3-0.1,0.5C184.4,19.1,183.8,20.8,183.1,22.7z"/>
	<path class="st1" d="M209.2,38.6c-0.7-0.1-1.4-0.1-1.9,0.1c0,2.4,0,4.9,0,7.3c0,0-0.1,0-0.1,0c-1.4-2.5-2.7-5-4.1-7.4
		c-0.7,0-1.3,0-2,0c0,3.8,0,7.7,0,11.5c0.6,0,1.2,0,1.9,0c0-0.3,0-0.5,0-0.7c0-2,0-3.9,0-5.8c0-0.2,0-0.4,0-0.7c0.1,0,0.1,0,0.1,0
		c0.1,0.3,0.3,0.5,0.5,0.8c1.1,2,2.2,4,3.3,6c0.1,0.2,0.3,0.4,0.4,0.4c0.6,0,1.3,0,1.9,0C209.2,46.2,209.2,42.4,209.2,38.6z"/>
	<path class="st1" d="M163.1,50.1c0-3.9,0-7.7,0-11.5c-0.6,0-1.2,0-1.9,0c-0.1,2.5,0,4.9-0.1,7.4c-0.2-0.1-0.3-0.3-0.4-0.5
		c-0.4-0.7-0.7-1.3-1.1-2c-0.8-1.5-1.6-3-2.4-4.5c-0.1-0.2-0.2-0.5-0.5-0.5c-0.6,0-1.1,0-1.8,0c0,3.9,0,7.7,0,11.5
		c0.6,0,1.2,0,1.9,0c0-2.4,0-4.8,0-7.2c0.1,0,0.1,0,0.1,0c1.3,2.4,2.7,4.9,4,7.3C161.8,50.1,162.4,50.1,163.1,50.1z"/>
	<path class="st1" d="M256.8,50.1c0.1-1.5,0.1-11.1-0.1-11.6c-0.6,0-1.2-0.1-1.8,0.1c0,1.2,0,2.5,0,3.7c0,1.2,0,2.5,0,3.7
		c-0.1,0-0.1,0-0.1,0c-0.1-0.3-0.3-0.5-0.4-0.8c-1.1-2.1-2.2-4.1-3.4-6.2c-0.1-0.2-0.3-0.4-0.4-0.4c-0.6-0.1-1.2-0.1-1.8,0
		c0,3.9,0,7.7,0,11.5c0.6,0,1.3,0.1,1.9,0c0-0.8,0-1.6,0-2.4c0-0.8,0-1.6,0-2.4c0-0.8-0.1-1.5,0.1-2.5c0.2,0.3,0.3,0.5,0.4,0.7
		c1.1,2,2.1,3.9,3.2,5.8c0.1,0.2,0.2,0.4,0.3,0.5c0.1,0.1,0.3,0.2,0.4,0.2C255.6,50.1,256.2,50.1,256.8,50.1z"/>
	<path class="st1" d="M280,23.8c-0.4,0.3-0.7,0.6-1,0.8c-1.1,0.8-2.5,0.7-3.4-0.3c-0.4-0.4-0.6-0.9-0.9-1.3
		c-0.4-0.8-0.6-1.7-0.7-2.6c-0.1-1.1-0.2-2.3,0.2-3.4c0.1-0.4,0.4-0.8,0.7-1.2c0.6-0.6,1.4-0.4,1.6,0.4c0.1,0.3,0.1,0.6,0.2,0.9
		c0.1,0.4,0.2,0.9,0.3,1.2c0.3,0.7,1.1,1,1.9,0.8c0.7-0.2,1.1-0.7,1.1-1.5c0-0.5-0.1-1-0.4-1.4c-0.4-0.6-1-1.1-1.7-1.3
		c-1.9-0.6-4.4-0.4-6,1.8c-0.9,1.3-1.3,2.7-1.4,4.2c0,1.6,0.4,3.1,1.4,4.4c1.1,1.4,2.6,2,4.4,1.7c1.8-0.2,3.1-1.3,4-2.8
		c0,0,0-0.1,0.1-0.2C280.2,24,280.1,23.9,280,23.8z"/>
	<path class="st1" d="M119.9,23c0.2,1.3,0.1,2.7,0.3,4.1c0.2-0.1,0.4-0.1,0.4-0.2c0.3-0.5,0.7-0.5,1.2-0.3c0.5,0.2,1.1,0.3,1.7,0.5
		c1.6,0.3,3.2-0.5,3.9-1.9c0.8-1.6,0.6-3.2-0.7-4.4c-0.5-0.5-1.2-1-1.7-1.4c-0.6-0.4-1.2-0.9-1.8-1.3c-0.2-0.1-0.4-0.3-0.6-0.5
		c-0.6-0.6-0.4-1.5,0.4-1.8c0.3-0.1,0.6-0.1,0.9-0.1c0.7,0.1,1.3,0.5,1.7,1.1c0.4,0.5,0.7,1,0.9,1.6c0.1,0.2,0.2,0.4,0.6,0.2
		c-0.1-1.3-0.1-2.6-0.2-3.8c-0.3-0.1-0.5,0-0.6,0.2c-0.4,0.4-0.5,0.5-1.1,0.2c-0.2-0.1-0.4-0.2-0.7-0.3c-1.4-0.4-2.8-0.4-3.9,0.8
		c-1.4,1.5-1.3,3.7,0.1,5.1c0.4,0.5,1,0.8,1.5,1.2c0.6,0.5,1.3,0.9,1.9,1.4c0.2,0.2,0.5,0.4,0.6,0.6c0.3,0.5,0.4,1,0.1,1.5
		c-0.3,0.5-0.8,0.7-1.3,0.6c-0.4-0.1-0.8-0.2-1.1-0.4c-0.8-0.4-1.3-1.1-1.8-1.9c-0.1-0.3-0.2-0.5-0.3-0.8
		C120.3,22.9,120.2,22.8,119.9,23z"/>
	<path class="st1" d="M115.9,45c1.7,0,3.4,0,5.1,0c0-0.7,0-1.3,0-1.9c-1.7,0-3.4,0-5.1,0c0-0.9,0-1.7,0-2.6c0.9,0,1.8,0,2.7,0
		c0.9,0,1.8,0,2.7,0c0-0.7,0-1.3,0-1.9c-2.5,0-5,0-7.6,0c0,3.8,0,7.7,0,11.5c2.6,0,5.1,0,7.7,0c0-0.6,0-1.2,0-1.9
		c-1.9,0-3.8,0-5.6,0C115.9,47.1,115.9,46.1,115.9,45z"/>
	<path class="st1" d="M66.4,46.4c0.1,2,1.2,3.4,2.8,3.8c0.9,0.2,1.9,0.2,2.8,0c1.6-0.4,2.5-1.5,2.6-3.2c0.1-1.7-0.6-2.9-2.1-3.5
		c-0.6-0.2-1.3-0.4-1.9-0.6c-0.5-0.2-0.9-0.3-1.4-0.5c-0.4-0.2-0.6-0.5-0.6-0.9c0-0.4,0.3-0.7,0.6-0.8c0.5-0.2,1-0.3,1.5-0.2
		c0.7,0.1,1.2,0.5,1.4,1.2c0,0.1,0.1,0.3,0.2,0.5c0.7,0,1.3-0.1,1.9-0.1c0.1-1.5-0.8-2.8-2.1-3.3c-0.9-0.3-1.9-0.3-2.9-0.1
		c-1.4,0.3-2.3,1.3-2.6,2.8c-0.2,1.3,0.5,2.6,1.7,3.2c0.6,0.3,1.2,0.5,1.7,0.7c0.5,0.2,1,0.3,1.5,0.5c0.5,0.2,0.9,0.5,0.9,1
		c0.1,0.6-0.2,1.1-0.7,1.4c-1.2,0.8-2.8,0.2-3.3-1.1c-0.1-0.3-0.2-0.5-0.3-0.8C67.7,46.2,67.1,46.3,66.4,46.4z"/>
	<path class="st1" d="M136.6,24.3c-0.2,0.3-0.5,0.6-0.7,0.8c-0.3,0.3-0.6,0.5-1.1,0.3c-0.4-0.2-0.6-0.5-0.6-0.9c0-0.2,0-0.4,0-0.6
		c0-2.3,0-4.7,0-7c0-0.2,0-0.4,0-0.6c0.9,0,1.8,0,2.7,0c0-0.4,0-0.8,0-1.2c-0.9,0-1.8,0-2.7,0c0-1.5,0-2.9,0-4.2
		c-0.4-0.2-0.5,0.1-0.6,0.3c-1,1.7-2.3,3.2-3.9,4.4c-0.1,0.1-0.2,0.1-0.3,0.2c-0.2,0.1-0.3,0.3-0.1,0.6c0.4,0,0.9,0,1.4,0
		c0,0.3,0,0.5,0,0.7c0,0.7,0,1.5,0,2.2c0,1.7,0,3.5,0,5.2c0,0.7,0.3,1.3,0.8,1.8c0.8,0.8,1.8,0.9,2.9,0.7c1.2-0.2,1.9-1,2.4-2
		C137,24.5,136.9,24.4,136.6,24.3z"/>
	<path class="st1" d="M264.3,15.1c-1.6,0-3.2,0-4.7,0c-0.1,0.3,0,0.4,0.3,0.5c0.7,0.1,0.9,0.6,1,1.2c0,0.2,0,0.4,0,0.6
		c0,2.3,0,4.5,0,6.8c0,0.3,0,0.7-0.1,1c0,0.6-0.3,1-1,1.1c-0.3,0-0.3,0.2-0.2,0.5c2.1,0,4.2,0,6.2,0c0.1-0.3,0-0.4-0.3-0.5
		c-0.9-0.2-1.2-0.4-1.2-1.4c0-1.4-0.1-2.7,0-4c0-0.8,0.2-1.6,0.4-2.3c0.1-0.5,0.4-0.9,0.8-1.2c0.4-0.3,0.7-0.3,1.1,0
		c0.2,0.2,0.4,0.3,0.6,0.5c1,0.6,2.1,0.1,2.3-1.1c0-0.3,0-0.6,0-0.8c-0.1-0.7-0.6-1.2-1.3-1.2c-0.9,0-1.6,0.3-2.1,0.8
		c-0.5,0.4-0.8,1-1.3,1.5c-0.1,0.1-0.3,0.3-0.4,0.5c0,0-0.1,0-0.1,0C264.3,16.7,264.3,15.9,264.3,15.1z"/>
	<path class="st1" d="M138.3,26.7c2.1,0,4.1,0,6.2,0c0-0.4,0-0.4-0.3-0.5c-0.9-0.2-1.2-0.4-1.2-1.4c0-1.3,0-2.6,0-4
		c0-0.8,0.1-1.7,0.5-2.4c0.2-0.4,0.4-0.8,0.7-1.1c0.4-0.4,0.8-0.4,1.2,0c0.2,0.1,0.4,0.3,0.6,0.4c1,0.6,2.1,0.1,2.3-1.1
		c0-0.3,0-0.5,0-0.8c-0.1-0.8-0.6-1.3-1.4-1.3c-0.9,0-1.6,0.4-2.2,1c-0.5,0.5-0.8,1-1.3,1.5c-0.1,0.1-0.2,0.2-0.4,0.4
		c0-0.9,0-1.7,0-2.5c-1.6,0-3.1,0-4.7,0c-0.1,0.4,0.1,0.4,0.3,0.5c0.6,0.1,0.8,0.5,0.9,1.1c0,0.3,0,0.5,0,0.8c0,2.2,0,4.4,0,6.7
		c0,0.4,0,0.7-0.1,1.1c-0.1,0.6-0.3,1-0.9,1.1C138.2,26.3,138.2,26.4,138.3,26.7z"/>
	<path class="st1" d="M185.8,38.6c-0.1,1.1-0.1,11.1,0,11.5c2.6,0,5.1,0,7.7,0c0-0.6,0-1.2,0-1.9c-1.9,0-3.8,0-5.7,0
		c0-1.1,0-2.1,0-3.2c1.7,0,3.4,0,5.1,0c0-0.7,0-1.3,0-1.9c-1.7,0-3.4,0-5.1,0c0-0.9,0-1.7,0-2.6c1.8,0,3.6,0,5.4,0
		c0-0.7,0-1.3,0-1.9C190.7,38.6,188.3,38.6,185.8,38.6z"/>
	<path class="st1" d="M233.4,38.6c0,3.9,0,7.7,0,11.5c2.6,0,5.1,0,7.7,0c0.1-0.7,0.1-1.3,0-1.9c-1.9,0-3.8,0-5.7,0
		c0-1.1,0-2.1,0-3.2c1.8,0,3.4,0,5.1,0c0.1-0.7,0.1-1.3,0-1.9c-1.7,0-3.4,0-5.1,0c0-0.9,0-1.7,0-2.6c1.9,0,3.7,0,5.5,0
		c0-0.7,0-1.3,0-1.9C238.4,38.6,235.9,38.6,233.4,38.6z"/>
	<path class="st1" d="M82.3,38.6c0,0.2,0,0.4,0,0.5c0,1.9,0,3.8,0,5.7c0,0.8,0.1,1.7,0.1,2.5c0.2,1.6,1.3,2.8,2.8,2.9
		c0.7,0.1,1.5,0.1,2.2,0c1.6-0.2,2.7-1.3,2.9-2.9c0.1-0.6,0.1-1.2,0.1-1.8c0-2.2,0-4.3,0-6.5c0-0.2,0-0.3-0.1-0.5
		c-0.7,0-1.3-0.1-2,0.1c0,0.3,0,0.5,0,0.7c0,1.8,0,3.6,0,5.5c0,0.7-0.1,1.4-0.1,2c0,0.4-0.2,0.8-0.5,1.1c-0.6,0.5-1.4,0.5-2.1,0.3
		c-0.7-0.2-1.1-0.7-1.2-1.4c-0.1-0.5-0.1-1.1-0.1-1.7c0-2,0-3.9,0-5.8c0-0.2,0-0.5,0-0.7C83.6,38.6,83,38.6,82.3,38.6z"/>
	<path class="st1" d="M273.4,41.7c-0.4-1.6-1.2-2.8-2.8-3.2c-0.9-0.3-1.8-0.2-2.7,0c-1.6,0.5-2.5,1.7-3,3.3
		c-0.5,1.6-0.5,3.2-0.1,4.8c0.5,2.1,2,3.5,4,3.7c2.4,0.3,4.4-1.3,4.6-3.7c-0.6-0.2-1.3-0.5-1.9-0.7c-0.2,0.5-0.3,1-0.6,1.3
		c-0.7,1.2-2.3,1.5-3.3,0.5c-0.4-0.4-0.6-0.8-0.8-1.4c-0.3-1.1-0.3-2.2-0.2-3.3c0.1-0.5,0.2-1.1,0.5-1.6c0.5-0.9,1.3-1.3,2.3-1.2
		c0.9,0.1,1.5,0.6,1.8,1.4c0.1,0.2,0.1,0.3,0.2,0.5C272.1,42.1,272.7,41.9,273.4,41.7z"/>
	<path class="st1" d="M149.3,26.7c2.1,0,4.1,0,6.2,0c0.1-0.4-0.1-0.4-0.4-0.5c-0.6-0.1-0.9-0.4-0.9-1c0-0.4-0.1-0.7-0.1-1.1
		c0-2.8,0-5.6,0-8.4c0-0.2,0-0.5,0-0.7c-0.9-0.1-4.4-0.1-4.8,0c0.1,0.3,0.1,0.3,0.2,0.4c0.9,0.3,1,0.4,1.1,1.4c0,1.3,0,2.7,0,4
		c0,1.3,0,2.6,0,4c0,0.9-0.2,1.1-1.1,1.3C149.3,26.3,149.2,26.4,149.3,26.7z"/>
	<path class="st1" d="M281.5,26.7c2.1,0,4.1,0,6.2,0c0.1-0.3,0-0.4-0.3-0.5c-0.8-0.2-1-0.4-1.1-1.2c0-0.3,0-0.6,0-0.9
		c0-2.8,0-5.6,0-8.4c0-0.2,0-0.5,0-0.7c-1.6,0-3.2,0-4.8,0c-0.1,0.4,0.1,0.4,0.3,0.5c0.7,0.1,0.9,0.5,1,1.2c0,0.3,0,0.7,0,1
		c0,1.9,0,3.7,0,5.6c0,0.6,0,1.1,0,1.7c0,0.8-0.3,1.2-1.1,1.3C281.5,26.3,281.4,26.5,281.5,26.7z"/>
	<path class="st1" d="M175.5,50.1c0-3.3,0-6.4,0-9.6c1.1,0,2,0,3,0c0-0.7,0-1.3,0-1.9c-2.7,0-5.4,0-8.1,0c0,0.6,0,1.3,0,1.9
		c1,0,2,0,3,0c0,1.7,0,3.2,0,4.8c0,1.6,0,3.2,0,4.8c0.3,0,0.5,0,0.7,0C174.6,50.1,175,50.1,175.5,50.1z"/>
	<path class="st1" d="M281,38.5c-0.1,1-0.1,11.1,0,11.6c0.5,0,1,0,1.6,0c0.1,0,0.2,0,0.3,0c0-3.8,0-7.7,0-11.5c-0.2,0-0.4,0-0.6,0
		C281.9,38.5,281.5,38.5,281,38.5z"/>
	<path class="st1" d="M147.2,50.1c0.1-0.9,0.1-11,0-11.5c-0.6,0-1.3,0-1.9,0c0,3.8,0,7.7,0,11.5C145.9,50.1,146.5,50.1,147.2,50.1z"
		/>
	<path class="st1" d="M286.5,11.3c0-1.1-0.9-2-1.9-2c-1,0-1.9,0.9-1.9,1.9c0,1.1,0.9,2,2,1.9C285.7,13.2,286.5,12.4,286.5,11.3z"/>
	<path class="st1" d="M154.3,11.3c0-1.1-0.9-2-1.9-1.9c-1.1,0-1.9,0.9-1.9,1.9c0,1.1,0.9,1.9,2,1.9
		C153.5,13.2,154.3,12.4,154.3,11.3z"/>
	<path class="st2" d="M51.7,10c-0.3-0.3-0.5-0.6-0.8-0.9c-1.4-1.6-3.1-2.9-4.6-4.3c-0.7-0.6-1.5-1.1-2.2-1.6C44,3.1,43.9,3,43.9,2.8
		c0.1,0,0.2,0.1,0.3,0.1c1.7,0.8,3.2,1.9,4.6,3.1c1.2,1,2.4,2.2,3.5,3.3c0.7,0.7,1.2,1.5,1.8,2.2c0.3,0.4,0.5,0.9,0.2,1.4
		c-0.2,0.4-0.5,0.6-0.9,0.6c-0.3,0-0.6,0-0.8,0c-2.6-0.4-5.1,0.1-7.6,1.1c-1.5,0.6-2.9,1.3-4.1,2.4c-3,2.6-5,5.7-5.7,9.6
		c-0.7,4.2,0.1,8,2.4,11.5c1.3,2.1,3,3.9,5.2,5.2c0.1,0.1,0.2,0.2,0.3,0.2c0,0,0,0.1,0,0.1c-0.1,0.2-0.3,0.2-0.5,0.1
		c-1-0.5-2-0.9-2.8-1.7c-0.2-0.2-0.4-0.4-0.6-0.5c0,0-0.1,0.1-0.1,0.1c0,0.1,0,0.2,0.1,0.3c0.9,0.8,1.8,1.7,3,2.3
		c2.3,1.2,4.6,2.1,7.2,2.2c1.1,0.1,2.2,0,3.3,0c0.5,0,0.8-0.2,1-0.7c0-0.1,0.1-0.1,0.1-0.2c0.3,0,0.4,0.2,0.5,0.5
		c0.2,0.5,0.2,0.9-0.1,1.3c-0.9,1.2-1.8,2.4-2.9,3.4c-1.4,1.3-2.9,2.6-4.5,3.8c-1.2,0.8-2.4,1.6-3.8,2.2c-1.1,0.5-2.3,1-3.4,1.5
		c-2,0.8-4,1.2-6.2,1.5c-1.3,0.2-2.7,0.3-4,0.2c-0.4-0.1-0.8-0.2-1-0.6c0.4-0.4,1-0.4,1.6-0.5c-0.3-0.1-0.5-0.1-0.7-0.1
		c0-11.5,0-23,0-34.6c-0.4,0.1-0.5,0.3-0.6,0.5c-0.3,0.4-0.7,0.6-1.2,0.6c-5.1,0-10.2,0-15.3,0c-0.1,0-0.2,0-0.3,0
		c-0.3,0-0.5,0.1-0.5,0.5c0,0.2,0,0.4,0,0.6c0,8.2,0,16.3,0,24.5c0,0.3,0,0.5,0,0.8c-0.1,0.5-0.3,0.9-0.8,1.1
		c-0.5,0.2-0.9,0-1.2-0.3c-1.8-1.7-3.6-3.5-5-5.6c-0.9-1.3-1.6-2.8-2.4-4.2c0-0.1,0-0.2-0.1-0.3c0.3,0,0.4,0.2,0.5,0.4
		c0.5,0.9,1,1.8,1.6,2.6c0.5,0.7,1.1,1.4,1.6,2.1c0.6,0.7,1.2,1.4,1.8,2.1C8,49.9,8.6,50.5,9.2,51c0.2,0.2,0.4,0.4,0.8,0.5
		c-0.3-0.3-0.5-0.6-0.8-0.8c-1.7-1.5-3.1-3.3-4.3-5.2c-2.2-3.4-3.6-7-4.3-11c-0.6-3.1-0.6-6.3-0.1-9.4c0.5-3.2,1.5-6.2,2.9-9.1
		c1.2-2.3,2.6-4.4,4.4-6.3C10,7,12.7,4.8,15.9,3.2c2.9-1.4,6-2.5,9.2-2.9c2.2-0.3,4.5-0.4,6.7-0.2c3.4,0.3,6.6,1.1,9.7,2.5
		c1.6,0.7,3.1,1.5,4.5,2.5c1.9,1.3,3.6,2.8,5.2,4.5C51.4,9.8,51.6,9.9,51.7,10c0.1,0.4,0.4,0.6,0.7,0.8c0.1,0.2,0.2,0.4,0.3,0.6
		c0,0,0.1-0.1,0.1-0.1c-0.2-0.1-0.3-0.3-0.5-0.5C52.1,10.6,51.9,10.3,51.7,10z M27.4,11.1c0,0-0.1,0-0.1,0.1c-0.1,0-0.1-0.1-0.2-0.2
		c-0.6-1.2-1.7-1.9-2.8-2.6c-1.7-1.1-3.6-1.6-5.6-1.3c-2,0.2-3.6,1-5,2.4c-2.3,2.2-2.8,5.4-1,8.3c0.6,1,1.4,2,2.5,2.6
		c0.1,0.1,0.2,0.2,0.3,0.3c0,0-0.1,0.1-0.1,0.1c-1.4-0.2-2.5-1-3.4-2.1c0,0.1,0,0.1,0,0.2c0.1,0.1,0.1,0.2,0.2,0.3
		c0.8,1,1.7,1.7,2.8,2.3c2.1,1.1,4.3,1.5,6.6,1c1.2-0.2,2.4-0.7,3.4-1.4c2.5-1.5,3.7-3.7,3.9-6.6c0.1-1.2-0.2-2.4-0.7-3.5
		c-0.6-1.5-1.8-2.5-3.1-3.4C26.2,8.5,27.4,9.4,27.4,11.1z M10.6,13.9C10.5,13.9,10.5,13.9,10.6,13.9c0,0.1,0,0.2,0,0.4c0,0,0,0,0,0
		C10.6,14.2,10.6,14.1,10.6,13.9z"/>
	<path class="st2" d="M300,33.6c0,0.4,0,0.7,0,1c-77.9,0-155.7,0-233.6,0c0-0.3,0-0.7,0-1C144.2,33.6,222,33.6,300,33.6z"/>
	<path class="st1" d="M232.7,26.7c-2,0-3.9,0-5.9,0c-0.1-0.2-0.1-0.4,0.2-0.5c0.8-0.1,1-0.7,1-1.4c0-2.6,0-5.3,0-7.9
		c0-0.1,0-0.2,0-0.3c-0.1-0.6-0.3-1-0.9-1.1c-0.2,0-0.4-0.1-0.3-0.5c1.5,0,3.1,0,4.7,0c0,0.4,0,0.9,0.1,1.4c0.3-0.3,0.6-0.5,0.8-0.7
		c0.9-0.8,1.9-1.1,3.1-1c1,0.1,1.8,0.5,2.3,1.4c0.1,0.2,0.2,0.4,0.4,0.7c0.3-0.3,0.5-0.5,0.7-0.7c1-0.9,2.1-1.5,3.5-1.4
		c1.3,0.1,2.4,0.9,2.6,2.2c0.2,0.8,0.2,1.6,0.2,2.4c0,1.6,0,3.2,0,4.8c0,0.4,0,0.8,0,1.1c0,0.5,0.3,0.9,0.8,1
		c0.3,0.1,0.5,0.1,0.3,0.5c-2,0-3.9,0-5.9,0c-0.1-0.2-0.1-0.4,0.2-0.5c0.8-0.2,1-0.7,1-1.4c0-2.3,0-4.7,0-7c0-0.1,0-0.3-0.1-0.5
		c-0.2-1-0.9-1.3-1.8-0.9c-0.6,0.3-1,0.7-1.4,1.3c-0.1,0.1-0.1,0.4-0.1,0.5c0,2.1,0,4.2,0,6.4c0,0.2,0,0.4,0.1,0.6
		c0.1,0.5,0.4,0.9,0.9,1c0.3,0.1,0.4,0.2,0.3,0.5c-2,0-3.9,0-5.9,0c-0.1-0.2-0.1-0.4,0.2-0.5c0.6-0.1,0.9-0.6,0.9-1.2
		c0-0.5,0.1-1,0.1-1.5c0-2,0-3.9-0.1-5.8c0-0.6-0.2-1.1-0.8-1.4c-0.6-0.2-1.1,0-1.6,0.4c-0.2,0.2-0.3,0.3-0.5,0.5
		c-0.3,0.3-0.5,0.7-0.5,1.2c0,1.9,0,3.8,0,5.6c0,0.3,0,0.7,0.1,1c0,0.5,0.3,1,0.9,1.1C232.6,26.3,232.8,26.4,232.7,26.7z"/>
	<path class="st1" d="M98.7,25.4c-0.2,0.2-0.3,0.4-0.5,0.6c-1.6,1.8-4,1.2-5.2,0.1c-0.7-0.6-1.2-1.4-1.5-2.3
		c-0.7-2.1-0.6-4.3,0.3-6.3c0.5-1.1,1.3-2,2.4-2.5c1.5-0.6,2.9-0.5,4.2,0.7c0.1,0.1,0.2,0.2,0.3,0.3c0.1-0.1,0.1-0.2,0.1-0.2
		c0-1.4,0-2.8,0-4.2c0-0.9-0.3-1.1-1.2-1.2c-0.1,0-0.2,0-0.3,0c-0.1,0-0.2-0.2-0.2-0.2s0.1-0.2,0.2-0.2c0.1,0,0.2,0,0.3,0
		c1.4,0,2.9,0,4.4,0c0.1,0,0.2,0,0.4,0.1c0,0.3,0,0.5,0,0.8c0,4.4,0,8.9,0,13.3c0,0.1,0,0.3,0,0.4c0,1,0.2,1.2,1.2,1.5
		c0.1,0,0.1,0,0.2,0.1c0.1,0.3,0,0.4-0.2,0.4c-0.4,0.1-0.8,0.1-1.1,0.2c-1,0.2-1.9,0.4-2.9,0.6c-0.2,0-0.4,0-0.6,0.1
		c0-0.5,0-1,0-1.5C98.8,25.5,98.8,25.4,98.7,25.4z M98.9,20.8c0-0.8,0-1.6,0-2.4c0-1-0.8-2-1.7-2.3c-0.8-0.3-1.4,0-1.8,0.7
		C95.2,17.1,95,17.6,95,18c-0.3,1.7-0.3,3.5,0,5.2c0.1,0.7,0.3,1.3,0.8,1.8c0.3,0.4,0.8,0.6,1.3,0.5c0.9-0.2,1.8-1.3,1.9-2.2
		C98.9,22.5,98.9,21.6,98.9,20.8z"/>
	<path class="st1" d="M211.2,22.9c0,0.5,0,0.9,0,1.2c0,0.2-0.2,0.4-0.3,0.5c-1.5,1.5-3.2,2.3-5.3,2.5c-2,0.1-3.9-0.1-5.7-1
		c-2.5-1.3-3.9-3.4-4.4-6.2c-0.7-4.2,1.9-9.4,7.7-10.4c1.7-0.3,3.4-0.1,5,0.5c0.4,0.2,0.9,0.3,1.3,0.5c0.8,0.2,1.2,0,1.4-0.7
		c0.1-0.2,0.1-0.5,0.5-0.3c0,1.9,0,3.8,0,5.7c-0.3,0.1-0.4,0.1-0.5-0.2c-0.1-0.3-0.2-0.7-0.3-1c-0.8-1.9-2.1-3.1-4.2-3.4
		c-2.4-0.4-4.7,0.9-5.7,3.1c-0.6,1.4-0.9,2.8-0.9,4.3c0,1.5,0.1,2.9,0.6,4.3c0.1,0.1,0.1,0.3,0.1,0.4c0.9,2.5,2.8,3.6,5.6,3.3
		c1.4-0.1,2.6-0.7,3.6-1.6C210.2,23.9,210.6,23.5,211.2,22.9z"/>
	<path class="st1" d="M89.3,26.7c-2,0-3.9,0-5.8,0c-0.1-0.2-0.1-0.4,0.2-0.5c0.7-0.2,0.9-0.7,0.9-1.3c0-2.4,0-4.8,0-7.2
		c0-0.2,0-0.4-0.1-0.6c-0.2-0.7-0.7-1-1.4-0.8c-0.9,0.3-1.6,1.2-1.6,2.1c0,1.9,0,3.8,0,5.7c0,0.3,0.1,0.7,0.1,1
		c0,0.5,0.3,0.8,0.8,0.9c0.3,0.1,0.3,0.1,0.3,0.5c-1.9,0-3.9,0-5.8,0c-0.1-0.2-0.1-0.4,0.2-0.5c0.7-0.1,0.9-0.6,0.9-1.2
		c0-0.3,0-0.7,0-1c0-2.1,0-4.2,0-6.3c0-0.4-0.1-0.9-0.1-1.3c0-0.5-0.3-0.8-0.8-0.9c-0.2-0.1-0.5-0.1-0.4-0.5c1.5,0,3.1,0,4.7,0
		c0,0.4,0,0.9,0.1,1.4c0.3-0.2,0.4-0.4,0.6-0.5c0.8-0.7,1.7-1.2,2.8-1.3c1.8-0.1,3,1.2,3.1,2.8c0.1,0.8,0.1,1.5,0.1,2.3
		c0,1.5,0,3,0,4.5c0,0.3,0,0.6,0,0.9c0,0.5,0.3,0.9,0.9,1C89.2,26.3,89.4,26.4,89.3,26.7z"/>
	<path class="st1" d="M105.2,15.1c1.6,0,3.1,0,4.7,0c0,0.3,0,0.5,0,0.7c0,2.4,0,4.8,0,7.2c0,0.5,0,1,0.1,1.5
		c0.1,0.8,0.8,1.2,1.6,0.8c0.6-0.3,1-0.8,1.4-1.4c0.1-0.1,0.1-0.3,0.1-0.5c0-2,0-4.1,0-6.1c0-0.3,0-0.5,0-0.8
		c-0.1-0.5-0.3-0.8-0.8-1c-0.3-0.1-0.3-0.1-0.4-0.5c1.6,0,3.1,0,4.7,0c0,0.3,0,0.5,0,0.7c0,2.8,0,5.5,0,8.3c0,0.4,0,0.7,0,1.1
		c0,0.6,0.3,1,0.9,1.1c0.3,0,0.4,0.2,0.3,0.5c-1.5,0-3.1,0-4.7,0c0-0.4,0-0.9-0.1-1.4c-0.3,0.3-0.5,0.5-0.8,0.7
		c-0.9,0.8-2,1.3-3.3,1c-1.2-0.2-2.2-1.2-2.3-2.3c-0.1-0.8-0.2-1.7-0.2-2.5c0-1.5,0-3.1,0-4.6c0-0.3-0.1-0.7-0.1-1
		c0-0.5-0.3-0.9-0.8-1C105.3,15.5,105.3,15.5,105.2,15.1z"/>
	<path class="st1" d="M168.1,25.1c-0.7,1.3-1.9,2-3.3,1.7c-0.8-0.1-1.3-0.5-1.5-1.3c-0.1-0.1-0.1-0.3-0.2-0.5
		c-0.2,0.1-0.3,0.2-0.4,0.3c-0.6,0.4-1.2,0.8-1.9,1.1c-0.4,0.2-1,0.3-1.5,0.3c-1.6,0.1-2.7-1.3-2.4-2.8c0.2-0.8,0.6-1.4,1.1-1.9
		c0.5-0.4,1.1-0.8,1.7-1.2c0.9-0.5,1.9-1,2.8-1.4c0.4-0.2,0.5-0.4,0.5-0.8c0-0.6,0-1.2,0-1.7c-0.1-0.8-0.5-1.3-1.3-1.4
		c-0.5-0.1-1,0-1.5,0.3c-0.5,0.3-0.6,0.6-0.2,1.1c0.1,0.2,0.3,0.3,0.4,0.5c0.5,0.8,0.2,1.7-0.7,2.1c-0.6,0.3-1.3,0.2-1.8-0.2
		c-0.7-0.4-0.9-1.1-0.6-1.9c0.3-0.8,0.8-1.4,1.5-1.8c0.9-0.6,2-0.9,3-0.9c0.7,0,1.3,0,2,0.1c0.9,0.1,1.6,0.6,2.2,1.3
		c0.4,0.5,0.6,1,0.6,1.6c0,2,0,3.9,0.1,5.9c0,0.3,0,0.7,0,1c0.1,0.7,0.4,0.8,1,0.5C167.9,24.9,167.9,24.9,168.1,25.1z M163.1,20.2
		c-1.1,0.7-1.9,1.3-2.5,2.3c-0.1,0.3-0.2,0.6-0.3,0.9c-0.1,0.7,0.3,1.2,0.9,1.4c0.5,0.2,1.5-0.2,1.8-0.6c0.1-0.1,0.1-0.2,0.1-0.3
		C163.1,22.7,163.1,21.5,163.1,20.2z"/>
	<path class="st1" d="M213.8,20.8c0-1.2,0.3-2.4,1-3.5c1.4-2.4,4.2-3.3,6.8-2.1c1.3,0.6,2.2,1.6,2.7,3c0.6,1.7,0.7,3.4,0.1,5.1
		c-1.3,3.8-4.7,4.3-7.3,3.4c-0.8-0.3-1.4-0.8-2-1.5C214.3,24,213.8,22.5,213.8,20.8z M221,17.6c0-0.5-0.2-1-0.5-1.4
		c-0.6-1-2-0.9-2.5,0.1c-0.1,0.2-0.2,0.5-0.3,0.7c-0.1,0.9-0.2,1.7-0.3,2.5c-0.1,1.6-0.1,3.1,0.1,4.7c0.1,0.5,0.2,1,0.5,1.4
		c0.7,0.8,1.8,0.8,2.4-0.1c0.2-0.3,0.3-0.6,0.3-0.9"/>
	<path class="st1" d="M75.2,26.7c-2.9,0-5.8,0-8.8,0c-0.1-0.3-0.1-0.4,0.3-0.4c0.3,0,0.5,0,0.8,0c0.8-0.1,1.2-0.5,1.3-1.2
		c0.1-0.3,0.1-0.7,0.1-1c0-3.9,0-7.7,0-11.6c0-0.3,0-0.6-0.1-1c0-0.7-0.4-1-1.1-1.2c-0.4-0.1-0.8-0.1-1.4-0.2
		c0.1-0.2,0.2-0.3,0.3-0.3c0.1,0,0.3,0,0.4,0c2.5,0,5.1,0,7.6,0c0.2,0,0.3,0,0.4,0c0.1,0,0.1,0.2,0.3,0.4c-0.4,0-0.6,0-0.8,0
		c-1.1,0.1-1.6,0.5-1.6,1.6c0,1.5,0,3.1,0,4.6c0,2.4,0,4.9,0,7.3c0,0.4,0,0.7,0,1.1c0.1,0.8,0.5,1.3,1.3,1.4c0.3,0,0.5,0,0.8,0
		C75.1,26.3,75.2,26.4,75.2,26.7z"/>
	<path class="st1" d="M300,20.9c0,1.1-0.2,2.1-0.6,3.1c-1,2.2-3,3.3-5.5,3.1c-1.9-0.2-3.3-1.1-4.1-2.8c-1.2-2.5-1.1-5,0.4-7.3
		c2-3.3,7.2-2.9,8.9,0.4C299.7,18.5,300,19.7,300,20.9z M296.3,20.7C296.3,20.7,296.3,20.7,296.3,20.7c-0.1-0.8-0.1-1.7-0.1-2.5
		c0-0.7-0.1-1.3-0.5-1.9c-0.3-0.5-0.7-0.8-1.3-0.7c-0.6,0-1,0.3-1.3,0.9c-0.1,0.3-0.2,0.6-0.3,0.9c-0.1,0.6-0.1,1.2-0.2,1.8
		c-0.1,1.7-0.1,3.4,0.1,5.1c0.1,0.5,0.2,1,0.4,1.4c0.6,1,2,1,2.5-0.1c0.2-0.4,0.3-0.8,0.3-1.2C296.2,23,296.3,21.9,296.3,20.7z"/>
	<path class="st1" d="M183.1,22.7c0.7-1.8,1.3-3.5,1.9-5.3c0.1-0.2,0.1-0.3,0.1-0.5c0.1-0.8-0.1-1.1-0.9-1.4c-0.2,0-0.5,0-0.4-0.4
		c1.2,0,2.5,0,3.7,0c0.1,0.2,0.1,0.4-0.2,0.5c-0.6,0.2-0.9,0.6-1.1,1.1c-0.6,1.4-1.1,2.7-1.6,4.1c-1,2.6-2.1,5.3-3.1,7.9
		c-0.3,0.8-0.6,1.5-1.1,2.2c-0.6,1.1-1.6,1.5-2.8,1.4c-1.2-0.1-2.1-1.2-1.9-2.3c0.1-0.7,0.6-1.2,1.3-1.3c0.7-0.1,1.3,0.3,1.5,1
		c0.1,0.3,0.1,0.6,0.1,0.9c0.1,0.5,0.4,0.7,0.8,0.3c0.2-0.2,0.4-0.3,0.5-0.6c0.4-0.9,0.8-1.9,1.2-2.8c0.1-0.2,0-0.5-0.1-0.7
		c-1.1-2.6-2.3-5.3-3.4-7.9c-0.3-0.7-0.7-1.4-1-2.1c-0.2-0.5-0.6-0.9-1.1-1.1c-0.2-0.1-0.3-0.2-0.2-0.5c2,0,4,0,6.2,0
		c-0.1,0.2-0.1,0.3-0.2,0.4c-0.1,0.1-0.2,0.1-0.3,0.1c-0.5,0.2-0.7,0.4-0.6,1c0.1,0.3,0.1,0.5,0.3,0.8c0.7,1.7,1.5,3.4,2.2,5.1
		C182.9,22.4,183,22.5,183.1,22.7z"/>
	<path class="st1" d="M209.2,38.6c0,3.8,0,7.6,0,11.5c-0.6,0-1.3,0-1.9,0c-0.1,0-0.3-0.3-0.4-0.4c-1.1-2-2.2-4-3.3-6
		c-0.1-0.3-0.3-0.5-0.5-0.8c-0.1,0-0.1,0-0.1,0c0,0.2,0,0.4,0,0.7c0,2,0,3.9,0,5.8c0,0.2,0,0.5,0,0.7c-0.7,0-1.3,0-1.9,0
		c0-3.8,0-7.7,0-11.5c0.7,0,1.3,0,2,0c1.3,2.5,2.7,5,4.1,7.4c0,0,0.1,0,0.1,0c0-2.4,0-4.9,0-7.3C207.8,38.5,208.5,38.5,209.2,38.6z"
		/>
	<path class="st1" d="M163.1,50.1c-0.7,0-1.4,0-2.1,0c-1.3-2.4-2.7-4.8-4-7.3c-0.1,0-0.1,0-0.1,0c0,2.4,0,4.8,0,7.2
		c-0.7,0-1.2,0-1.9,0c0-3.8,0-7.7,0-11.5c0.6,0,1.2,0,1.8,0c0.3,0,0.4,0.3,0.5,0.5c0.8,1.5,1.6,3,2.4,4.5c0.4,0.7,0.7,1.3,1.1,2
		c0.1,0.2,0.2,0.3,0.4,0.5c0.1-2.5,0-4.9,0.1-7.4c0.6,0,1.2,0,1.9,0C163.1,42.4,163.1,46.2,163.1,50.1z"/>
	<path class="st1" d="M134.9,45.1c1.1,0.8,1.7,1.9,2.3,3c0.4,0.7,0.7,1.3,1.1,2.1c-0.8,0-1.5,0-2.3,0c-0.3,0-0.3-0.2-0.4-0.4
		c-0.6-0.9-1.1-1.8-1.6-2.8c-0.2-0.3-0.3-0.5-0.5-0.8c-0.6-0.8-1.2-1-2.3-0.8c0,1.5,0,3.1,0,4.7c-0.7,0-1.4,0-2,0
		c0-3.8,0-7.7,0-11.5c0.1,0,0.3,0,0.4,0c1.5,0,3,0,4.6,0c0.1,0,0.3,0,0.4,0c2,0.1,3.2,1.5,3,3.5c-0.1,1.5-0.8,2.5-2.3,2.9
		C135.1,44.9,135.1,45,134.9,45.1z M131.2,43.4c1.1,0,2.1,0.1,3.2-0.1c0.4-0.1,0.6-0.3,0.8-0.6c0.6-1.1,0-2.2-1.3-2.3
		c-0.8,0-1.6,0-2.4,0c-0.1,0-0.2,0-0.4,0.1C131.2,41.5,131.2,42.4,131.2,43.4z"/>
	<path class="st1" d="M257.5,23.3c0.3,0.1,0.4,0.2,0.3,0.5c-0.7,1.4-1.6,2.6-3.2,3.1c-2.1,0.6-4.9,0.1-6-2.9c-0.7-1.9-0.7-3.9,0-5.8
		c0.5-1.3,1.3-2.3,2.5-2.9c2.2-1.3,4.9-0.5,6.1,1.8c0.5,1,0.7,2.1,0.8,3.4c-1.1,0-2.1,0-3.2,0c-1,0-2.1,0-3.1,0
		c-0.1,0.5,0,1,0.1,1.5c0.2,0.9,0.6,1.8,1.3,2.5c1.1,1.1,2.6,1.1,3.6,0C257,24.1,257.2,23.7,257.5,23.3z M254.9,19.6
		c0-1,0-1.9-0.2-2.8c-0.1-0.3-0.2-0.6-0.4-0.8c-0.5-0.7-1.4-0.7-1.9,0c-0.8,1.1-0.9,2.3-0.8,3.6C252.6,19.6,253.7,19.6,254.9,19.6z"
		/>
	<path class="st1" d="M256.8,50.1c-0.6,0-1.2,0-1.8,0c-0.1,0-0.3-0.1-0.4-0.2c-0.1-0.2-0.2-0.4-0.3-0.5c-1.1-2-2.1-3.9-3.2-5.8
		c-0.1-0.2-0.2-0.4-0.4-0.7c-0.1,0.9-0.1,1.7-0.1,2.5c0,0.8,0,1.6,0,2.4c0,0.8,0,1.6,0,2.4c-0.6,0.1-1.3,0.1-1.9,0
		c0-3.8,0-7.6,0-11.5c0.6-0.1,1.2-0.1,1.8,0c0.1,0,0.3,0.3,0.4,0.4c1.1,2.1,2.3,4.1,3.4,6.2c0.1,0.3,0.3,0.5,0.4,0.8
		c0.1,0,0.1,0,0.1,0c0-1.2,0-2.5,0-3.7c0-1.2,0-2.4,0-3.7c0.6-0.2,1.2,0,1.8-0.1C256.9,39,256.9,48.6,256.8,50.1z"/>
	<path class="st1" d="M217.2,38.5c0.3,0,0.5,0,0.8,0c1.3,0,2.5,0,3.8,0c1.4,0,2.4,0.7,3.1,1.9c0.4,0.7,0.7,1.5,0.8,2.3
		c0.2,1.5,0.2,3.1-0.4,4.6c-0.4,1.1-1,2-2.1,2.4c-0.4,0.2-0.9,0.3-1.3,0.3c-1.5,0-3.1,0-4.6,0C217.2,49.6,217.1,39.7,217.2,38.5z
		 M219.3,48.2c0.8,0,1.5,0,2.2,0c1.1-0.1,1.7-0.6,1.9-1.7c0.2-0.9,0.2-1.8,0.2-2.7c0-0.6-0.1-1.3-0.3-1.9c-0.2-0.7-0.7-1.2-1.4-1.3
		c-0.9-0.2-1.7-0.1-2.6-0.1C219.3,43.1,219.3,45.6,219.3,48.2z"/>
	<path class="st1" d="M280,23.8c0.1,0.1,0.2,0.2,0.3,0.3c0,0.1,0,0.1-0.1,0.2c-0.9,1.6-2.1,2.6-4,2.8c-1.8,0.2-3.3-0.3-4.4-1.7
		c-1-1.3-1.4-2.8-1.4-4.4c0-1.5,0.5-2.9,1.4-4.2c1.6-2.2,4.1-2.4,6-1.8c0.7,0.2,1.3,0.7,1.7,1.3c0.3,0.4,0.4,0.9,0.4,1.4
		c0,0.8-0.4,1.3-1.1,1.5c-0.8,0.2-1.6-0.1-1.9-0.8c-0.2-0.4-0.2-0.8-0.3-1.2c-0.1-0.3-0.1-0.6-0.2-0.9c-0.3-0.8-1.1-1-1.6-0.4
		c-0.3,0.3-0.5,0.7-0.7,1.2c-0.4,1.1-0.3,2.2-0.2,3.4c0.1,0.9,0.3,1.8,0.7,2.6c0.2,0.5,0.5,0.9,0.9,1.3c0.9,1,2.3,1.1,3.4,0.3
		C279.3,24.4,279.6,24.1,280,23.8z"/>
	<path class="st1" d="M119.9,23c0.3-0.2,0.4-0.1,0.5,0.1c0.1,0.3,0.2,0.5,0.3,0.8c0.4,0.8,1,1.5,1.8,1.9c0.3,0.2,0.8,0.3,1.1,0.4
		c0.6,0.1,1-0.2,1.3-0.6c0.3-0.5,0.2-1-0.1-1.5c-0.2-0.2-0.4-0.5-0.6-0.6c-0.6-0.5-1.3-0.9-1.9-1.4c-0.5-0.4-1-0.8-1.5-1.2
		c-1.4-1.4-1.5-3.6-0.1-5.1c1.1-1.1,2.5-1.2,3.9-0.8c0.2,0.1,0.4,0.2,0.7,0.3c0.5,0.2,0.7,0.2,1.1-0.2c0.2-0.2,0.3-0.3,0.6-0.2
		c0.1,1.3,0.1,2.5,0.2,3.8c-0.3,0.2-0.4,0-0.6-0.2c-0.3-0.5-0.6-1.1-0.9-1.6c-0.4-0.6-1-1-1.7-1.1c-0.3,0-0.6,0-0.9,0.1
		c-0.8,0.3-1,1.1-0.4,1.8c0.2,0.2,0.4,0.4,0.6,0.5c0.6,0.4,1.2,0.8,1.8,1.3c0.6,0.5,1.2,0.9,1.7,1.4c1.2,1.2,1.4,2.8,0.7,4.4
		c-0.7,1.4-2.3,2.2-3.9,1.9c-0.6-0.1-1.1-0.3-1.7-0.5c-0.5-0.2-0.9-0.2-1.2,0.3c-0.1,0.1-0.2,0.1-0.4,0.2
		C119.9,25.7,120,24.3,119.9,23z"/>
	<path class="st1" d="M115.9,45c0,1.1,0,2.1,0,3.2c1.9,0,3.7,0,5.6,0c0,0.7,0,1.3,0,1.9c-2.6,0-5.1,0-7.7,0c0-3.8,0-7.7,0-11.5
		c2.5,0,5,0,7.6,0c0,0.6,0,1.2,0,1.9c-0.9,0-1.8,0-2.7,0c-0.9,0-1.8,0-2.7,0c0,0.9,0,1.7,0,2.6c1.7,0,3.4,0,5.1,0c0,0.7,0,1.3,0,1.9
		C119.3,45,117.6,45,115.9,45z"/>
	<path class="st1" d="M66.4,46.4c0.6-0.1,1.3-0.2,1.9-0.2c0.1,0.3,0.2,0.5,0.3,0.8c0.5,1.3,2.1,1.9,3.3,1.1c0.5-0.3,0.8-0.8,0.7-1.4
		c0-0.6-0.4-0.9-0.9-1c-0.5-0.2-1-0.3-1.5-0.5c-0.6-0.2-1.2-0.4-1.7-0.7c-1.2-0.6-1.9-1.9-1.7-3.2c0.2-1.5,1.1-2.5,2.6-2.8
		c1-0.2,2-0.2,2.9,0.1c1.4,0.5,2.2,1.7,2.1,3.3c-0.6,0-1.3,0.1-1.9,0.1c-0.1-0.2-0.1-0.3-0.2-0.5c-0.2-0.7-0.7-1.1-1.4-1.2
		c-0.5-0.1-1,0-1.5,0.2c-0.3,0.2-0.6,0.4-0.6,0.8c0,0.4,0.2,0.8,0.6,0.9c0.4,0.2,0.9,0.4,1.4,0.5c0.7,0.2,1.3,0.4,1.9,0.6
		c1.5,0.6,2.2,1.8,2.1,3.5c-0.1,1.7-1.1,2.8-2.6,3.2c-0.9,0.2-1.9,0.2-2.8,0C67.6,49.8,66.5,48.4,66.4,46.4z"/>
	<path class="st1" d="M136.6,24.3c0.3,0,0.4,0.2,0.2,0.5c-0.5,1-1.2,1.8-2.4,2c-1.1,0.2-2.1,0.1-2.9-0.7c-0.5-0.5-0.8-1.1-0.8-1.8
		c0-1.7,0-3.5,0-5.2c0-0.7,0-1.5,0-2.2c0-0.2,0-0.4,0-0.7c-0.5,0-0.9,0-1.4,0c-0.2-0.3-0.1-0.4,0.1-0.6c0.1-0.1,0.2-0.1,0.3-0.2
		c1.6-1.2,2.9-2.6,3.9-4.4c0.1-0.2,0.2-0.5,0.6-0.3c0,1.4,0,2.8,0,4.2c0.9,0,1.8,0,2.7,0c0,0.4,0,0.8,0,1.2c-0.9,0-1.8,0-2.7,0
		c0,0.3,0,0.5,0,0.6c0,2.3,0,4.7,0,7c0,0.2,0,0.4,0,0.6c0.1,0.4,0.2,0.7,0.6,0.9c0.4,0.2,0.8,0,1.1-0.3
		C136.2,24.9,136.4,24.6,136.6,24.3z"/>
	<path class="st1" d="M264.3,15.1c0,0.9,0,1.6,0,2.4c0,0,0.1,0,0.1,0c0.1-0.2,0.2-0.3,0.4-0.5c0.4-0.5,0.8-1,1.3-1.5
		c0.6-0.5,1.3-0.9,2.1-0.8c0.7,0,1.3,0.5,1.3,1.2c0,0.3,0,0.6,0,0.8c-0.1,1.2-1.3,1.7-2.3,1.1c-0.2-0.1-0.4-0.3-0.6-0.5
		c-0.4-0.3-0.7-0.3-1.1,0c-0.4,0.3-0.7,0.7-0.8,1.2c-0.2,0.8-0.4,1.5-0.4,2.3c-0.1,1.3,0,2.7,0,4c0,0.9,0.3,1.2,1.2,1.4
		c0.3,0,0.4,0.1,0.3,0.5c-2,0-4.1,0-6.2,0c-0.1-0.2-0.1-0.4,0.2-0.5c0.6-0.1,0.9-0.5,1-1.1c0-0.3,0.1-0.7,0.1-1c0-2.3,0-4.5,0-6.8
		c0-0.2,0-0.4,0-0.6c0-0.6-0.3-1.1-1-1.2c-0.2,0-0.4-0.1-0.3-0.5C261.1,15,262.7,15.1,264.3,15.1z"/>
	<path class="st1" d="M138.3,26.7c-0.1-0.3,0-0.4,0.2-0.5c0.6-0.1,0.9-0.5,0.9-1.1c0-0.4,0.1-0.7,0.1-1.1c0-2.2,0-4.5,0-6.7
		c0-0.3,0-0.5,0-0.8c-0.1-0.6-0.3-1-0.9-1.1c-0.2,0-0.4-0.1-0.3-0.5c1.5,0,3.1,0,4.7,0c0,0.8,0,1.5,0,2.5c0.2-0.2,0.3-0.3,0.4-0.4
		c0.4-0.5,0.8-1.1,1.3-1.5c0.6-0.6,1.3-1,2.2-1c0.8,0,1.3,0.5,1.4,1.3c0,0.3,0,0.5,0,0.8c-0.1,1.2-1.3,1.7-2.3,1.1
		c-0.2-0.1-0.4-0.3-0.6-0.4c-0.4-0.3-0.8-0.4-1.2,0c-0.3,0.3-0.6,0.7-0.7,1.1c-0.3,0.8-0.4,1.6-0.5,2.4c0,1.3,0,2.6,0,4
		c0,0.9,0.2,1.2,1.2,1.4c0.3,0,0.3,0,0.3,0.5C142.4,26.7,140.4,26.7,138.3,26.7z"/>
	<path class="st1" d="M185.8,38.6c2.5,0,5,0,7.5,0c0,0.6,0,1.2,0,1.9c-1.8,0-3.6,0-5.4,0c0,0.9,0,1.7,0,2.6c1.7,0,3.4,0,5.1,0
		c0,0.7,0,1.3,0,1.9c-1.7,0-3.4,0-5.1,0c0,1.1,0,2.1,0,3.2c1.9,0,3.8,0,5.7,0c0,0.7,0,1.3,0,1.9c-2.6,0-5.1,0-7.7,0
		C185.7,49.6,185.6,39.7,185.8,38.6z"/>
	<path class="st1" d="M233.4,38.6c2.5,0,5,0,7.5,0c0,0.6,0,1.2,0,1.9c-1.8,0-3.6,0-5.5,0c0,0.9,0,1.7,0,2.6c1.7,0,3.3,0,5.1,0
		c0.1,0.7,0.1,1.3,0,1.9c-1.7,0-3.3,0-5.1,0c-0.1,1.1,0,2.1,0,3.2c1.9,0,3.8,0,5.7,0c0,0.6,0,1.2,0,1.9c-2.6,0-5.1,0-7.7,0
		C233.4,46.3,233.4,42.4,233.4,38.6z"/>
	<path class="st1" d="M296.9,47.5c-1.4,0-2.8,0-4.1,0c-0.3,0.9-0.6,1.7-0.9,2.6c-0.7,0-1.4,0-2.2,0c1.3-3.9,2.6-7.7,4-11.6
		c0.7,0,1.3,0,1.9,0c0.3,0,0.3,0.2,0.4,0.4c0.4,1,0.7,2,1,3c0.9,2.5,1.8,5,2.7,7.5c0.1,0.2,0.1,0.4,0.2,0.6c-0.8,0-1.5,0-2.2,0
		C297.5,49.3,297.2,48.4,296.9,47.5z M294.8,41.4c0,0-0.1,0-0.1,0c-0.4,1.3-0.9,2.7-1.3,4.1c1,0,1.8,0,2.8,0
		C295.7,44.1,295.3,42.8,294.8,41.4z"/>
	<path class="st1" d="M82.3,38.6c0.7,0,1.3,0,2,0c0,0.3,0,0.5,0,0.7c0,2,0,3.9,0,5.8c0,0.5,0,1.1,0.1,1.7c0.1,0.7,0.5,1.2,1.2,1.4
		c0.8,0.2,1.5,0.2,2.1-0.3c0.3-0.3,0.5-0.6,0.5-1.1c0-0.7,0.1-1.4,0.1-2c0-1.8,0-3.6,0-5.5c0-0.2,0-0.5,0-0.7c0.7-0.1,1.3,0,2-0.1
		c0,0.2,0.1,0.3,0.1,0.5c0,2.2,0,4.3,0,6.5c0,0.6-0.1,1.2-0.1,1.8c-0.2,1.6-1.3,2.8-2.9,2.9c-0.7,0.1-1.5,0.1-2.2,0
		c-1.5-0.2-2.6-1.4-2.8-2.9c-0.1-0.8-0.1-1.7-0.1-2.5c0-1.9,0-3.8,0-5.7C82.2,38.9,82.3,38.8,82.3,38.6z"/>
	<path class="st1" d="M100.5,45.8c0,1.5,0,2.9,0,4.3c-0.7,0-1.3,0-2,0c-0.1-0.4-0.2-9.9-0.1-11.5c0.1,0,0.3-0.1,0.4-0.1
		c1.5,0,2.9,0,4.4,0c1.5,0,2.5,0.8,2.9,2.3c0.2,0.8,0.2,1.6,0,2.4c-0.4,1.3-1.2,2.2-2.6,2.3c-0.8,0.1-1.6,0.1-2.4,0.1
		C101,45.8,100.8,45.8,100.5,45.8z M100.5,43.8c0.2,0,0.3,0,0.4,0c0.6,0,1.2,0,1.8-0.1c0.9-0.1,1.4-0.7,1.4-1.6
		c0-0.9-0.5-1.5-1.3-1.6c-0.6-0.1-1.3,0-1.9,0c-0.1,0-0.3,0-0.4,0.1C100.5,41.6,100.5,42.7,100.5,43.8z"/>
	<path class="st1" d="M273.4,41.7c-0.7,0.2-1.3,0.4-2,0.5c-0.1-0.2-0.1-0.3-0.2-0.5c-0.3-0.8-0.9-1.3-1.8-1.4
		c-1-0.1-1.8,0.3-2.3,1.2c-0.3,0.5-0.4,1-0.5,1.6c-0.2,1.1-0.1,2.2,0.2,3.3c0.1,0.5,0.4,1,0.8,1.4c1,1,2.6,0.7,3.3-0.5
		c0.2-0.4,0.4-0.9,0.6-1.3c0.6,0.2,1.3,0.5,1.9,0.7c-0.3,2.4-2.3,4-4.6,3.7c-2-0.2-3.5-1.6-4-3.7c-0.4-1.6-0.4-3.2,0.1-4.8
		c0.5-1.6,1.4-2.7,3-3.3c0.9-0.3,1.8-0.3,2.7,0C272.1,39,273,40.1,273.4,41.7z"/>
	<path class="st1" d="M149.3,26.7c-0.1-0.3,0-0.4,0.2-0.4c0.9-0.3,1-0.4,1.1-1.3c0-1.3,0-2.6,0-4c0-1.4,0-2.7,0-4
		c0-1-0.1-1.1-1.1-1.4c-0.2-0.1-0.2-0.1-0.2-0.4c0.4-0.1,4-0.2,4.8,0c0,0.2,0,0.4,0,0.7c0,2.8,0,5.6,0,8.4c0,0.4,0,0.7,0.1,1.1
		c0.1,0.5,0.4,0.9,0.9,1c0.3,0,0.5,0.1,0.4,0.5C153.4,26.7,151.4,26.7,149.3,26.7z"/>
	<path class="st1" d="M281.5,26.7c-0.1-0.2-0.1-0.4,0.2-0.5c0.8-0.1,1.1-0.6,1.1-1.3c0-0.6,0-1.1,0-1.7c0-1.9,0-3.7,0-5.6
		c0-0.3,0-0.7,0-1c0-0.6-0.3-1.1-1-1.2c-0.2,0-0.4-0.1-0.3-0.5c1.6,0,3.1,0,4.8,0c0,0.2,0,0.5,0,0.7c0,2.8,0,5.6,0,8.4
		c0,0.3,0,0.6,0,0.9c0.1,0.8,0.3,1,1.1,1.2c0.3,0.1,0.4,0.2,0.3,0.5C285.7,26.7,283.6,26.7,281.5,26.7z"/>
	<path class="st1" d="M175.5,50.1c-0.5,0-0.9,0-1.4,0c-0.2,0-0.4,0-0.7,0c0-1.6,0-3.2,0-4.8c0-1.6,0-3.2,0-4.8c-1,0-2,0-3,0
		c0-0.7,0-1.3,0-1.9c2.7,0,5.4,0,8.1,0c0,0.6,0,1.2,0,1.9c-1,0-1.9,0-3,0C175.5,43.7,175.5,46.9,175.5,50.1z"/>
	<path class="st1" d="M281,38.5c0.5,0,0.9,0,1.4,0c0.2,0,0.4,0,0.6,0c0,3.8,0,7.7,0,11.5c-0.1,0-0.2,0-0.3,0c-0.5,0-1.1,0-1.6,0
		C280.9,49.6,280.8,39.5,281,38.5z"/>
	<path class="st1" d="M147.2,50.1c-0.7,0-1.3,0-2,0c0-3.8,0-7.7,0-11.5c0.7,0,1.3,0,1.9,0C147.3,39.1,147.3,49.2,147.2,50.1z"/>
	<path class="st1" d="M286.5,11.3c0,1.1-0.8,1.9-1.9,1.9c-1.1,0-2-0.9-2-1.9c0-1.1,0.9-1.9,1.9-1.9C285.7,9.3,286.5,10.2,286.5,11.3
		z"/>
	<path class="st1" d="M154.3,11.3c0,1.1-0.8,1.9-1.9,1.9c-1.1,0-2-0.8-2-1.9c0-1.1,0.9-1.9,1.9-1.9C153.4,9.3,154.3,10.2,154.3,11.3
		z"/>
</g>
</svg>
