<?xml version="1.0" encoding="UTF-8"?>
<svg id="Capa_2" data-name="Capa 2" xmlns="http://www.w3.org/2000/svg" viewBox="0 0 37.65 13.7">
  <defs>
    <style>
      .cls-1 {
        fill: #99989d;
      }
    </style>
  </defs>
  <g id="Diseño_propuesto" data-name="Diseño propuesto">
    <g>
      <path class="cls-1" d="M14.82,0H2.86c-.93,0-1.52,.99-1.09,1.81l1.2,2.27H.8c-.6,0-.99,.64-.71,1.17l3.85,7.28c.3,.57,1.11,.57,1.41,0l1.05-1.97,1.31,2.48c.46,.87,1.71,.87,2.17,0L15.88,1.76c.42-.8-.15-1.76-1.06-1.76m-5.37,4.82l-2.58,4.87c-.2,.38-.74,.38-.94,0L3.36,4.84c-.19-.35,.07-.78,.47-.78h5.16c.39,0,.64,.41,.46,.76"/>
      <path class="cls-1" d="M27.54,5.23h-1.31v4.48c0,.08-.07,.15-.15,.15h-1.01c-.08,0-.15-.07-.15-.15V5.23h-1.32c-.08,0-.15-.06-.15-.15v-.79c0-.08,.07-.15,.15-.15h3.94c.08,0,.16,.06,.16,.15v.79c0,.08-.08,.15-.16,.15"/>
      <path class="cls-1" d="M31.74,9.84c-.27,.04-.72,.1-1.55,.1-.99,0-1.87-.25-1.87-1.66v-2.56c0-1.4,.89-1.65,1.88-1.65,.83,0,1.28,.06,1.55,.1,.11,.02,.15,.05,.15,.15v.72c0,.08-.07,.15-.15,.15h-1.62c-.36,0-.49,.12-.49,.52v.7h2.06c.08,0,.15,.07,.15,.15v.73c0,.08-.07,.15-.15,.15h-2.06v.82c0,.4,.13,.52,.49,.52h1.62c.08,0,.15,.07,.15,.15v.72c0,.1-.05,.15-.15,.16"/>
      <path class="cls-1" d="M37.55,9.87h-1.22c-.1,0-.15-.03-.2-.12l-1.06-1.69-.96,1.65c-.05,.09-.11,.15-.19,.15h-1.14c-.08,0-.12-.05-.12-.1,0-.02,0-.04,.02-.05l1.67-2.78-1.69-2.64s-.02-.03-.02-.05c0-.05,.05-.1,.12-.1h1.24c.08,0,.15,.08,.19,.15l.99,1.56,.95-1.56c.04-.07,.11-.15,.19-.15h1.14c.06,0,.12,.05,.12,.1,0,.02,0,.03-.02,.05l-1.68,2.66,1.75,2.76s.02,.05,.02,.08c0,.05-.04,.08-.1,.08"/>
      <path class="cls-1" d="M21.6,4.16c-.06,0-.1,.04-.12,.09l-1.12,4.14c-.02,.08-.04,.12-.11,.12s-.09-.03-.11-.12l-1.12-4.14c-.01-.06-.06-.09-.12-.09h-1.1c-.08,0-.13,.07-.12,.15,0,0,1.37,4.75,1.38,4.79,.18,.57,.62,.84,1.19,.84s1-.28,1.19-.83c.02-.06,1.36-4.79,1.36-4.79,.02-.07-.04-.15-.12-.15h-1.09Z"/>
      <path class="cls-1" d="M14.82,0H2.86c-.93,0-1.52,.99-1.09,1.81l1.2,2.27H.8c-.6,0-.99,.64-.71,1.17l3.85,7.28c.3,.57,1.11,.57,1.41,0l1.05-1.97,1.31,2.48c.46,.87,1.71,.87,2.17,0L15.88,1.76c.42-.8-.15-1.76-1.06-1.76m-5.37,4.82l-2.58,4.87c-.2,.38-.74,.38-.94,0L3.36,4.84c-.19-.35,.07-.78,.47-.78h5.16c.39,0,.64,.41,.46,.76"/>
    </g>
  </g>
</svg>