<?xml version="1.0" encoding="UTF-8"?>
<svg id="Capa_2" data-name="Capa 2" xmlns="http://www.w3.org/2000/svg" viewBox="0 0 54.58 14.32">
  <defs>
    <style>
      .cls-1, .cls-2 {
        fill: #99989d;
      }

      .cls-2 {
        font-family: Poppins-Medium, 'Poppins Medium';
        font-size: 3.18px;
      }
    </style>
  </defs>
  <g id="Diseño_propuesto" data-name="Diseño propuesto">
    <g>
      <g>
        <g>
          <path class="cls-1" d="M10.45,.34l-1.45,1.31v1.1h-2.06l-3.48,3.49,3.48,3.83h2.09l-3.48-3.83,2.19-2.2h1.25v4.42c0,1.27,.71,1.73,1.73,1.73,.34,0,.73-.09,1.07-.2v-1.3c-.71,.25-1.34,.28-1.34-.43V4.05h1.34v-1.27h-1.34V.34Z"/>
          <path class="cls-1" d="M25.77,8.27V4.05h1.34v-1.27h-1.34V.34l-1.45,1.31v1.13h-.94v1.27h.94v4.42c0,1.27,.71,1.73,1.73,1.73,.34,0,.73-.09,1.07-.2v-1.3c-.71,.25-1.34,.28-1.34-.43Z"/>
          <path class="cls-1" d="M30.76,2.57c-1.9,0-3.83,1.5-3.83,3.86s1.7,3.86,4.06,3.86c1.56,0,2.87-.68,3.66-1.9l-1.27-.56c-.54,.77-1.42,1.19-2.36,1.19-1.36,0-2.29-.82-2.5-2.24h6.13c0-2.67-1.87-4.21-3.89-4.21Zm-2.19,3.16c.22-1.22,1.08-2.01,2.22-2.01s2.16,.85,2.39,2.01h-4.62Z"/>
          <path class="cls-1" d="M45.6,2.76l-4.62,.02v1.03c-.76-.77-1.61-1.16-2.58-1.16-2.04,0-3.61,1.68-3.61,3.88s1.5,3.75,3.55,3.75c1,0,2.04-.48,2.61-1.2h.03v1.1c0,1.61-1.45,2.07-2.35,2.07-.74,0-1.44-.25-2.07-.76l-.93,1.05c.97,.71,1.76,.97,2.87,.97,1.64,0,3.91-.77,3.91-3.38V4.05h1.31v-.02h.42v4.76h-1.16v1.27h3.77v-1.27h-1.16V2.76Zm-6.98,6.26c-.33,0-.63-.06-.9-.18l-1.02,.47,.18-1.12c-.34-.43-.54-1.01-.54-1.69,0-1.44,.99-2.5,2.32-2.5s2.35,1.08,2.35,2.5-1.02,2.52-2.38,2.52Z"/>
          <path class="cls-1" d="M44.84,1.73c.48,0,.86-.39,.86-.86s-.39-.86-.86-.86-.86,.39-.86,.86,.39,.86,.86,.86Z"/>
          <path class="cls-1" d="M22.99,4.81c0-1.17-.73-2.24-2.86-2.24-.95,0-1.72,.24-2.32,.7v-.61h-.94c-.91,0-1.84,.54-2.3,1.76h-.03v-1.64h-2.61v1.27h1.47v4.76h-1.44v1.27h4.46v-1.27h-1.57v-2.08c0-1.67,.51-2.61,2.19-2.61h.03c-.03,.05-.06,.1-.09,.15l1.37,.37c.32-.57,.86-.86,1.56-.86,.86,0,1.62,.37,1.62,1.4v.32c-.36-.03-.72-.04-1.07-.03-.3,0-.6,.02-.9,.06-.25,.03-.49,.08-.73,.14-.2,.05-.4,.12-.59,.21-.16,.07-.31,.16-.46,.25-.12,.08-.24,.18-.34,.28-.09,.09-.17,.19-.24,.3-.06,.09-.12,.19-.16,.3-.04,.09-.07,.18-.1,.28-.02,.08-.04,.16-.05,.24,0,.06-.01,.13-.01,.19,0,.09,0,.18,0,.27,0,.07,.01,.15,.02,.22,.02,.14,.05,.28,.1,.41,.09,.26,.23,.51,.42,.72,.18,.21,.41,.39,.65,.53,.26,.14,.54,.24,.83,.29,.15,.02,.29,.04,.44,.04,.8,0,1.44-.28,2.35-1.02v.9h2.53v-1.27h-1.25v-4Zm-1.45,3.41c-.59,.54-1.31,.86-1.96,.86-.24,0-.47-.05-.68-.15-.24-.12-.43-.32-.53-.56-.09-.21-.12-.45-.09-.67,.01-.09,.04-.17,.08-.25,.09-.17,.25-.29,.41-.39,.2-.12,.42-.2,.64-.27,.25-.07,.5-.13,.76-.17,.25-.04,.5-.07,.75-.09,.05,0,.63-.04,.63-.04v1.72Z"/>
          <polygon class="cls-1" points="46.24 2.76 46.24 4.03 47.56 4.03 47.56 10.07 49.01 10.07 49.01 2.76 46.24 2.76"/>
        </g>
        <polygon class="cls-1" points="3.48 6.25 5.58 6.25 2.1 10.09 0 10.09 3.48 6.25"/>
        <polygon class="cls-1" points="3.48 6.25 5.58 6.25 2.1 2.76 0 2.76 3.48 6.25"/>
        <polygon class="cls-1" points="51.1 6.25 49.01 6.25 52.49 10.09 54.58 10.09 51.1 6.25"/>
        <polygon class="cls-1" points="51.1 6.25 49.01 6.25 52.49 2.76 54.58 2.76 51.1 6.25"/>
      </g>
      <text class="cls-2" transform="translate(0 13.53)"><tspan x="0" y="0">ecommerce solutions</tspan></text>
    </g>
  </g>
</svg>