<svg width="34" height="34" viewBox="0 0 34 34" fill="none" xmlns="http://www.w3.org/2000/svg">
<path fill-rule="evenodd" clip-rule="evenodd" d="M17.0001 32.15C8.52011 32.15 1.66011 25.37 1.66011 17C1.66011 8.63 8.53011 1.8501 17.0001 1.8501C25.4701 1.8501 32.3401 8.63 32.3401 17C32.3401 25.37 25.4701 32.15 17.0001 32.15ZM17.0001 0.330078C7.68011 0.330078 0.120117 7.79 0.120117 17C0.120117 26.21 7.68011 33.67 17.0001 33.67C26.3201 33.67 33.8801 26.21 33.8801 17C33.8801 7.79 26.3201 0.330078 17.0001 0.330078ZM20.0701 8.66003C20.0701 8.24003 19.7301 7.90002 19.3001 7.90002C19.0901 7.90002 18.9001 7.98 18.7601 8.12L11.0901 16.4501C10.9501 16.5901 10.8601 16.7801 10.8601 16.9901C10.8601 17.2001 10.9501 17.39 11.0901 17.53L18.7601 25.8601C18.9001 26.0001 19.0901 26.0801 19.3001 26.0801C19.7201 26.0801 20.0701 25.7401 20.0701 25.3201C20.0701 25.1101 19.9801 24.92 19.8401 24.78L12.6601 16.9801L19.8401 9.18005C19.9801 9.04005 20.0701 8.85001 20.0701 8.64001" fill="#686868"/>
</svg>
