<svg width="105" height="17" viewBox="0 0 105 17" fill="none" xmlns="http://www.w3.org/2000/svg">
<path d="M7.088 9.54L5.728 6.148C5.65333 5.988 5.584 5.81733 5.52 5.636C5.46667 5.444 5.41333 5.268 5.36 5.108C5.30667 4.916 5.248 4.724 5.184 4.532C5.13067 4.724 5.07733 4.916 5.024 5.108C4.97067 5.268 4.912 5.444 4.848 5.636C4.784 5.81733 4.72 5.988 4.656 6.148L3.296 9.54H7.088ZM5.12 1.508H5.312L10.08 12.5H8.32L7.696 10.964H2.72L2.096 12.5H0.464L5.12 1.508ZM14.5064 11.22C15.1037 11.22 15.5784 11.0333 15.9304 10.66C16.2824 10.276 16.4584 9.764 16.4584 9.124C16.4584 8.516 16.2824 8.02533 15.9304 7.652C15.5784 7.268 15.1037 7.076 14.5064 7.076C13.9197 7.076 13.4557 7.268 13.1144 7.652C12.773 8.02533 12.6024 8.516 12.6024 9.124C12.6024 9.764 12.773 10.276 13.1144 10.66C13.4557 11.0333 13.9197 11.22 14.5064 11.22ZM14.0904 12.644C13.653 12.644 13.2424 12.5587 12.8584 12.388C12.4744 12.2067 12.1384 11.9613 11.8504 11.652C11.573 11.332 11.349 10.9587 11.1784 10.532C11.0184 10.1053 10.9384 9.636 10.9384 9.124C10.9384 8.612 11.0184 8.14267 11.1784 7.716C11.349 7.28933 11.573 6.92133 11.8504 6.612C12.1384 6.30267 12.469 6.06267 12.8424 5.892C13.2264 5.72133 13.6317 5.636 14.0584 5.636C14.6557 5.636 15.1357 5.75867 15.4984 6.004C15.8717 6.24933 16.1704 6.564 16.3944 6.948V0.947999H18.0264V12.5H16.3944L16.4424 11.284C16.229 11.6893 15.925 12.02 15.5304 12.276C15.1357 12.5213 14.6557 12.644 14.0904 12.644ZM19.6549 16.052C19.2709 16.052 18.9402 15.972 18.6629 15.812C18.3749 15.6627 18.1562 15.4973 18.0069 15.316L18.8229 14.292C18.9189 14.3773 19.0202 14.4467 19.1269 14.5C19.2335 14.564 19.3562 14.596 19.4949 14.596C19.6975 14.596 19.8522 14.5427 19.9589 14.436C20.0655 14.34 20.1189 14.1533 20.1189 13.876V5.78H21.7509V13.828C21.7509 14.5533 21.5642 15.1027 21.1909 15.476C20.8282 15.86 20.3162 16.052 19.6549 16.052ZM20.9349 4.244C20.6469 4.244 20.3962 4.148 20.1829 3.956C19.9695 3.75333 19.8629 3.492 19.8629 3.172C19.8629 2.86267 19.9695 2.612 20.1829 2.42C20.3962 2.21733 20.6469 2.116 20.9349 2.116C21.2229 2.116 21.4735 2.21733 21.6869 2.42C21.9002 2.612 22.0069 2.86267 22.0069 3.172C22.0069 3.492 21.9002 3.75333 21.6869 3.956C21.4735 4.148 21.2229 4.244 20.9349 4.244ZM26.2685 12.644C25.5325 12.644 24.9298 12.3987 24.4605 11.908C24.0018 11.4067 23.7725 10.6973 23.7725 9.78V5.78H25.3885V9.652C25.3885 10.132 25.5005 10.5053 25.7245 10.772C25.9485 11.0387 26.3005 11.172 26.7805 11.172C27.3138 11.172 27.7298 11.0173 28.0285 10.708C28.3378 10.3987 28.4925 9.972 28.4925 9.428V5.78H30.1085V12.5H28.4925L28.5245 11.268C28.3112 11.7053 28.0072 12.0467 27.6125 12.292C27.2285 12.5267 26.7805 12.644 26.2685 12.644ZM32.149 5.78H33.765L33.733 7.028C33.9463 6.58 34.2503 6.23867 34.645 6.004C35.0397 5.75867 35.493 5.636 36.005 5.636C36.7517 5.636 37.3543 5.88667 37.813 6.388C38.2823 6.88933 38.517 7.59867 38.517 8.516V12.5H36.901V8.644C36.901 8.164 36.789 7.79067 36.565 7.524C36.341 7.25733 35.989 7.124 35.509 7.124C34.9757 7.124 34.549 7.27867 34.229 7.588C33.9197 7.88667 33.765 8.308 33.765 8.852V12.5H32.149V5.78ZM43.0703 12.66C42.7503 12.66 42.4569 12.6173 42.1903 12.532C41.9343 12.4467 41.7103 12.308 41.5182 12.116C41.3369 11.924 41.1929 11.6733 41.0863 11.364C40.9903 11.0547 40.9423 10.676 40.9423 10.228V7.14H39.9342V5.78H40.9423V2.276H42.5583V5.78H44.3503V7.14H42.5583V10.26C42.5583 10.644 42.6169 10.9053 42.7343 11.044C42.8516 11.1827 43.0169 11.252 43.2303 11.252C43.4223 11.252 43.5823 11.22 43.7103 11.156C43.8383 11.0813 43.9449 11.0067 44.0303 10.932L44.7983 12.02C44.6276 12.18 44.4036 12.3293 44.1263 12.468C43.8596 12.596 43.5076 12.66 43.0703 12.66ZM48.5788 9.62C48.2268 9.62 47.9441 9.68933 47.7308 9.828C47.5174 9.956 47.4108 10.1693 47.4108 10.468C47.4108 11.0547 47.8374 11.348 48.6908 11.348C49.1708 11.348 49.5601 11.2413 49.8588 11.028C50.1574 10.8147 50.3068 10.5213 50.3068 10.148V9.62H48.5788ZM50.3068 8.5C50.3068 7.956 50.1894 7.56667 49.9548 7.332C49.7308 7.09733 49.4001 6.98 48.9628 6.98C48.5148 6.98 48.1521 7.06 47.8748 7.22C47.6081 7.38 47.3841 7.56667 47.2028 7.78L46.2747 6.836C46.5734 6.484 46.9361 6.196 47.3628 5.972C47.8001 5.748 48.3761 5.636 49.0908 5.636C49.4961 5.636 49.8694 5.69467 50.2108 5.812C50.5628 5.92933 50.8614 6.10533 51.1068 6.34C51.3628 6.57467 51.5601 6.87867 51.6988 7.252C51.8481 7.61467 51.9228 8.04133 51.9228 8.532V12.5H50.3068L50.3548 11.54C50.1094 11.9027 49.8214 12.18 49.4908 12.372C49.1601 12.5533 48.7441 12.644 48.2428 12.644C47.9121 12.644 47.5974 12.6013 47.2988 12.516C47.0108 12.4413 46.7548 12.3187 46.5308 12.148C46.3174 11.9773 46.1468 11.7587 46.0188 11.492C45.8908 11.2147 45.8268 10.8893 45.8268 10.516C45.8268 10.164 45.8908 9.86533 46.0188 9.62C46.1574 9.364 46.3441 9.156 46.5788 8.996C46.8134 8.82533 47.0908 8.70267 47.4108 8.628C47.7308 8.54267 48.0828 8.5 48.4668 8.5H50.3068ZM59.7421 12.66C59.4221 12.66 59.1288 12.6173 58.8621 12.532C58.6061 12.4467 58.3821 12.308 58.1901 12.116C58.0088 11.924 57.8648 11.6733 57.7581 11.364C57.6621 11.0547 57.6141 10.676 57.6141 10.228V7.14H56.6061V5.78H57.6141V2.276H59.2301V5.78H61.0221V7.14H59.2301V10.26C59.2301 10.644 59.2888 10.9053 59.4061 11.044C59.5235 11.1827 59.6888 11.252 59.9021 11.252C60.0941 11.252 60.2541 11.22 60.3821 11.156C60.5101 11.0813 60.6168 11.0067 60.7021 10.932L61.4701 12.02C61.2995 12.18 61.0755 12.3293 60.7981 12.468C60.5315 12.596 60.1795 12.66 59.7421 12.66ZM65.2685 12.644C64.5325 12.644 63.9298 12.3987 63.4605 11.908C63.0018 11.4067 62.7725 10.6973 62.7725 9.78V5.78H64.3885V9.652C64.3885 10.132 64.5005 10.5053 64.7245 10.772C64.9485 11.0387 65.3005 11.172 65.7805 11.172C66.3138 11.172 66.7298 11.0173 67.0285 10.708C67.3378 10.3987 67.4925 9.972 67.4925 9.428V5.78H69.1085V12.5H67.4925L67.5245 11.268C67.3112 11.7053 67.0072 12.0467 66.6125 12.292C66.2285 12.5267 65.7805 12.644 65.2685 12.644ZM74.6401 1.62H76.3361V7.476H81.5681V1.62H83.2641V12.5H81.5681V8.98H76.3361V12.5H74.6401V1.62ZM88.7701 11.012C89.4741 11.012 90.0875 10.916 90.6101 10.724C91.1328 10.532 91.5648 10.26 91.9061 9.908C92.2581 9.556 92.5141 9.14 92.6741 8.66C92.8448 8.16933 92.9301 7.636 92.9301 7.06C92.9301 6.484 92.8448 5.956 92.6741 5.476C92.5141 4.98533 92.2581 4.564 91.9061 4.212C91.5648 3.86 91.1328 3.588 90.6101 3.396C90.0875 3.204 89.4741 3.108 88.7701 3.108H87.5861V11.012H88.7701ZM85.8901 1.62H88.8821C89.7568 1.62 90.5515 1.75333 91.2661 2.02C91.9808 2.276 92.5888 2.644 93.0901 3.124C93.6021 3.59333 93.9968 4.164 94.2741 4.836C94.5515 5.508 94.6901 6.24933 94.6901 7.06C94.6901 7.88133 94.5515 8.628 94.2741 9.3C93.9968 9.96133 93.6021 10.532 93.0901 11.012C92.5888 11.4813 91.9808 11.8493 91.2661 12.116C90.5515 12.372 89.7568 12.5 88.8821 12.5H85.8901V1.62ZM95.0734 1.62H96.8814L99.3294 7.46C99.4147 7.64133 99.4947 7.844 99.5694 8.068C99.644 8.28133 99.7134 8.48933 99.7774 8.692C99.852 8.92667 99.9214 9.16133 99.9854 9.396C100.049 9.172 100.113 8.94267 100.177 8.708C100.231 8.516 100.295 8.308 100.369 8.084C100.455 7.84933 100.54 7.64133 100.625 7.46L103.041 1.62H104.689L100.049 12.612H99.8414L95.0734 1.62Z" fill="white"/>
</svg>
