<svg width="141" height="26" viewBox="0 0 141 26" fill="none" xmlns="http://www.w3.org/2000/svg">
<path d="M43.088 16.04L41.728 12.648C41.6533 12.488 41.584 12.3173 41.52 12.136C41.4667 11.944 41.4133 11.768 41.36 11.608C41.3067 11.416 41.248 11.224 41.184 11.032C41.1307 11.224 41.0773 11.416 41.024 11.608C40.9707 11.768 40.912 11.944 40.848 12.136C40.784 12.3173 40.72 12.488 40.656 12.648L39.296 16.04H43.088ZM41.12 8.008H41.312L46.08 19H44.32L43.696 17.464H38.72L38.096 19H36.464L41.12 8.008ZM50.5064 17.72C51.1037 17.72 51.5784 17.5333 51.9304 17.16C52.2824 16.776 52.4584 16.264 52.4584 15.624C52.4584 15.016 52.2824 14.5253 51.9304 14.152C51.5784 13.768 51.1037 13.576 50.5064 13.576C49.9197 13.576 49.4557 13.768 49.1144 14.152C48.773 14.5253 48.6024 15.016 48.6024 15.624C48.6024 16.264 48.773 16.776 49.1144 17.16C49.4557 17.5333 49.9197 17.72 50.5064 17.72ZM50.0904 19.144C49.653 19.144 49.2424 19.0587 48.8584 18.888C48.4744 18.7067 48.1384 18.4613 47.8504 18.152C47.573 17.832 47.349 17.4587 47.1784 17.032C47.0184 16.6053 46.9384 16.136 46.9384 15.624C46.9384 15.112 47.0184 14.6427 47.1784 14.216C47.349 13.7893 47.573 13.4213 47.8504 13.112C48.1384 12.8027 48.469 12.5627 48.8424 12.392C49.2264 12.2213 49.6317 12.136 50.0584 12.136C50.6557 12.136 51.1357 12.2587 51.4984 12.504C51.8717 12.7493 52.1704 13.064 52.3944 13.448V7.448H54.0264V19H52.3944L52.4424 17.784C52.229 18.1893 51.925 18.52 51.5304 18.776C51.1357 19.0213 50.6557 19.144 50.0904 19.144ZM55.6549 22.552C55.2709 22.552 54.9402 22.472 54.6629 22.312C54.3749 22.1627 54.1562 21.9973 54.0069 21.816L54.8229 20.792C54.9189 20.8773 55.0202 20.9467 55.1269 21C55.2335 21.064 55.3562 21.096 55.4949 21.096C55.6975 21.096 55.8522 21.0427 55.9589 20.936C56.0655 20.84 56.1189 20.6533 56.1189 20.376V12.28H57.7509V20.328C57.7509 21.0533 57.5642 21.6027 57.1909 21.976C56.8282 22.36 56.3162 22.552 55.6549 22.552ZM56.9349 10.744C56.6469 10.744 56.3962 10.648 56.1829 10.456C55.9695 10.2533 55.8629 9.992 55.8629 9.672C55.8629 9.36267 55.9695 9.112 56.1829 8.92C56.3962 8.71733 56.6469 8.616 56.9349 8.616C57.2229 8.616 57.4735 8.71733 57.6869 8.92C57.9002 9.112 58.0069 9.36267 58.0069 9.672C58.0069 9.992 57.9002 10.2533 57.6869 10.456C57.4735 10.648 57.2229 10.744 56.9349 10.744ZM62.2685 19.144C61.5325 19.144 60.9298 18.8987 60.4605 18.408C60.0018 17.9067 59.7725 17.1973 59.7725 16.28V12.28H61.3885V16.152C61.3885 16.632 61.5005 17.0053 61.7245 17.272C61.9485 17.5387 62.3005 17.672 62.7805 17.672C63.3138 17.672 63.7298 17.5173 64.0285 17.208C64.3378 16.8987 64.4925 16.472 64.4925 15.928V12.28H66.1085V19H64.4925L64.5245 17.768C64.3112 18.2053 64.0072 18.5467 63.6125 18.792C63.2285 19.0267 62.7805 19.144 62.2685 19.144ZM68.149 12.28H69.765L69.733 13.528C69.9463 13.08 70.2503 12.7387 70.645 12.504C71.0397 12.2587 71.493 12.136 72.005 12.136C72.7517 12.136 73.3543 12.3867 73.813 12.888C74.2823 13.3893 74.517 14.0987 74.517 15.016V19H72.901V15.144C72.901 14.664 72.789 14.2907 72.565 14.024C72.341 13.7573 71.989 13.624 71.509 13.624C70.9757 13.624 70.549 13.7787 70.229 14.088C69.9197 14.3867 69.765 14.808 69.765 15.352V19H68.149V12.28ZM79.0703 19.16C78.7503 19.16 78.4569 19.1173 78.1903 19.032C77.9343 18.9467 77.7103 18.808 77.5182 18.616C77.3369 18.424 77.1929 18.1733 77.0863 17.864C76.9903 17.5547 76.9423 17.176 76.9423 16.728V13.64H75.9342V12.28H76.9423V8.776H78.5583V12.28H80.3503V13.64H78.5583V16.76C78.5583 17.144 78.6169 17.4053 78.7343 17.544C78.8516 17.6827 79.0169 17.752 79.2303 17.752C79.4223 17.752 79.5823 17.72 79.7103 17.656C79.8383 17.5813 79.9449 17.5067 80.0303 17.432L80.7983 18.52C80.6276 18.68 80.4036 18.8293 80.1263 18.968C79.8596 19.096 79.5076 19.16 79.0703 19.16ZM84.5788 16.12C84.2268 16.12 83.9441 16.1893 83.7308 16.328C83.5174 16.456 83.4108 16.6693 83.4108 16.968C83.4108 17.5547 83.8374 17.848 84.6908 17.848C85.1708 17.848 85.5601 17.7413 85.8588 17.528C86.1574 17.3147 86.3068 17.0213 86.3068 16.648V16.12H84.5788ZM86.3068 15C86.3068 14.456 86.1894 14.0667 85.9548 13.832C85.7308 13.5973 85.4001 13.48 84.9628 13.48C84.5148 13.48 84.1521 13.56 83.8748 13.72C83.6081 13.88 83.3841 14.0667 83.2028 14.28L82.2747 13.336C82.5734 12.984 82.9361 12.696 83.3628 12.472C83.8001 12.248 84.3761 12.136 85.0908 12.136C85.4961 12.136 85.8694 12.1947 86.2108 12.312C86.5628 12.4293 86.8614 12.6053 87.1068 12.84C87.3628 13.0747 87.5601 13.3787 87.6988 13.752C87.8481 14.1147 87.9228 14.5413 87.9228 15.032V19H86.3068L86.3548 18.04C86.1094 18.4027 85.8214 18.68 85.4908 18.872C85.1601 19.0533 84.7441 19.144 84.2428 19.144C83.9121 19.144 83.5974 19.1013 83.2988 19.016C83.0108 18.9413 82.7548 18.8187 82.5308 18.648C82.3174 18.4773 82.1468 18.2587 82.0188 17.992C81.8908 17.7147 81.8268 17.3893 81.8268 17.016C81.8268 16.664 81.8908 16.3653 82.0188 16.12C82.1574 15.864 82.3441 15.656 82.5788 15.496C82.8134 15.3253 83.0908 15.2027 83.4108 15.128C83.7308 15.0427 84.0828 15 84.4668 15H86.3068ZM95.7421 19.16C95.4221 19.16 95.1288 19.1173 94.8621 19.032C94.6061 18.9467 94.3821 18.808 94.1901 18.616C94.0088 18.424 93.8648 18.1733 93.7581 17.864C93.6621 17.5547 93.6141 17.176 93.6141 16.728V13.64H92.6061V12.28H93.6141V8.776H95.2301V12.28H97.0221V13.64H95.2301V16.76C95.2301 17.144 95.2888 17.4053 95.4061 17.544C95.5235 17.6827 95.6888 17.752 95.9021 17.752C96.0941 17.752 96.2541 17.72 96.3821 17.656C96.5101 17.5813 96.6168 17.5067 96.7021 17.432L97.4701 18.52C97.2995 18.68 97.0755 18.8293 96.7981 18.968C96.5315 19.096 96.1795 19.16 95.7421 19.16ZM101.269 19.144C100.533 19.144 99.9298 18.8987 99.4605 18.408C99.0018 17.9067 98.7725 17.1973 98.7725 16.28V12.28H100.389V16.152C100.389 16.632 100.501 17.0053 100.725 17.272C100.949 17.5387 101.301 17.672 101.781 17.672C102.314 17.672 102.73 17.5173 103.029 17.208C103.338 16.8987 103.493 16.472 103.493 15.928V12.28H105.109V19H103.493L103.525 17.768C103.311 18.2053 103.007 18.5467 102.613 18.792C102.229 19.0267 101.781 19.144 101.269 19.144ZM110.64 8.12H112.336V13.976H117.568V8.12H119.264V19H117.568V15.48H112.336V19H110.64V8.12ZM124.77 17.512C125.474 17.512 126.087 17.416 126.61 17.224C127.133 17.032 127.565 16.76 127.906 16.408C128.258 16.056 128.514 15.64 128.674 15.16C128.845 14.6693 128.93 14.136 128.93 13.56C128.93 12.984 128.845 12.456 128.674 11.976C128.514 11.4853 128.258 11.064 127.906 10.712C127.565 10.36 127.133 10.088 126.61 9.896C126.087 9.704 125.474 9.608 124.77 9.608H123.586V17.512H124.77ZM121.89 8.12H124.882C125.757 8.12 126.551 8.25333 127.266 8.52C127.981 8.776 128.589 9.144 129.09 9.624C129.602 10.0933 129.997 10.664 130.274 11.336C130.551 12.008 130.69 12.7493 130.69 13.56C130.69 14.3813 130.551 15.128 130.274 15.8C129.997 16.4613 129.602 17.032 129.09 17.512C128.589 17.9813 127.981 18.3493 127.266 18.616C126.551 18.872 125.757 19 124.882 19H121.89V8.12ZM131.073 8.12H132.881L135.329 13.96C135.415 14.1413 135.495 14.344 135.569 14.568C135.644 14.7813 135.713 14.9893 135.777 15.192C135.852 15.4267 135.921 15.6613 135.985 15.896C136.049 15.672 136.113 15.4427 136.177 15.208C136.231 15.016 136.295 14.808 136.369 14.584C136.455 14.3493 136.54 14.1413 136.625 13.96L139.041 8.12H140.689L136.049 19.112H135.841L131.073 8.12Z" fill="#ED1B24"/>
<path fill-rule="evenodd" clip-rule="evenodd" d="M19.9754 14.0874L20.2171 11.9055H23.0456L22.5623 14.0874H19.9754ZM21.8374 17.3637H19.613L19.8546 15.1818H22.3207L21.8374 17.3637ZM20.6364 20.6399C20.0323 20.6399 19.549 20.1495 19.549 19.5455C19.549 18.9414 20.0394 18.4581 20.6364 18.4581C21.2333 18.4581 21.7237 18.9485 21.7237 19.5455C21.7237 20.1424 21.2333 20.6399 20.6364 20.6399ZM19.2363 10.8182H16.2727V8.63638H19.4779L19.2363 10.8182ZM18.8739 14.0945H16.2727V11.9127H19.1155L18.8739 14.0945ZM18.5114 17.3708H16.2727V15.1889H18.7531L18.5114 17.3708ZM15.1854 10.8182H12.2218L11.9802 8.63638H15.1854V10.8182ZM15.1854 14.0945H12.5842L12.3426 11.9127H15.1854V14.0945ZM15.1854 17.3708H12.9467L12.7051 15.1889H15.1854V17.3708ZM10.8217 20.6471C10.2176 20.6471 9.7344 20.1567 9.7344 19.5526C9.7344 18.9485 10.2248 18.4652 10.8217 18.4652C11.4187 18.4652 11.9091 18.9556 11.9091 19.5526C11.9091 20.1495 11.4187 20.6471 10.8217 20.6471ZM9.0166 15.1889H11.6035L11.8451 17.3708H9.59937L9.0166 15.1889ZM8.72519 14.0945L8.14242 11.9127H11.2411L11.4827 14.0945H8.72519ZM7.26117 8.63638H10.8786L11.1202 10.8182H7.85106L7.26829 8.63638H7.26117ZM20.5795 8.63638H23.7705L23.2873 10.8182H20.3379L20.5795 8.63638ZM22.7969 18.0459L24.9787 8.22421H24.9716C24.9787 8.18157 25 8.13889 25 8.08914C25 7.79065 24.7584 7.54189 24.4528 7.54189H6.96981L6.19514 4.65654H6.18803C6.11696 4.43623 5.91798 4.26562 5.66924 4.26562H1.54724C1.24876 4.26562 1 4.50727 1 4.81287C1 5.11847 1.24165 5.36011 1.54724 5.36011H5.24995L8.65414 18.0744C8.70389 18.2307 8.81049 18.3515 8.95973 18.4155C8.75363 18.7495 8.6328 19.1333 8.6328 19.5526C8.6328 20.7607 9.60645 21.7344 10.8146 21.7344C12.0228 21.7344 12.9964 20.7536 12.9964 19.5526C12.9964 19.1546 12.8827 18.785 12.6909 18.4652H18.7459C18.5612 18.785 18.4403 19.1546 18.4403 19.5526C18.4403 20.7607 19.414 21.7344 20.6222 21.7344C21.8303 21.7344 22.804 20.7536 22.804 19.5526C22.804 19.1333 22.6832 18.7495 22.4771 18.4155C22.6334 18.3444 22.7471 18.2094 22.7827 18.0459" fill="#ED1B24"/>
</svg>
