<svg width="16" height="16" viewBox="0 0 16 16" fill="none" xmlns="http://www.w3.org/2000/svg">
<rect width="16" height="16" fill="white"/>
<g clip-path="url(#clip0_414_2)">
<path fill-rule="evenodd" clip-rule="evenodd" d="M12.6503 8.54785L12.8114 7.09328H14.6971L14.3749 8.54785H12.6503ZM13.8916 10.7321H12.4087L12.5697 9.27745H14.2138L13.8916 10.7321ZM13.0909 12.9162C12.6882 12.9162 12.366 12.5893 12.366 12.1866C12.366 11.7839 12.6929 11.4617 13.0909 11.4617C13.4889 11.4617 13.8158 11.7886 13.8158 12.1866C13.8158 12.5845 13.4889 12.9162 13.0909 12.9162ZM12.1575 6.36836H10.1818V4.91384H12.3186L12.1575 6.36836ZM11.9159 8.55258H10.1818V7.09802H12.077L11.9159 8.55258ZM11.6743 10.7368H10.1818V9.28218H11.8354L11.6743 10.7368ZM9.45693 6.36836H7.4812L7.32013 4.91384H9.45693V6.36836ZM9.45693 8.55258H7.7228L7.56173 7.09802H9.45693V8.55258ZM9.45693 10.7368H7.96447L7.8034 9.28218H9.45693V10.7368ZM6.54782 12.921C6.1451 12.921 5.82293 12.5941 5.82293 12.1913C5.82293 11.7886 6.14984 11.4664 6.54782 11.4664C6.9458 11.4664 7.27273 11.7933 7.27273 12.1913C7.27273 12.5893 6.9458 12.921 6.54782 12.921ZM5.3444 9.28218H7.069L7.23007 10.7368H5.73291L5.3444 9.28218ZM5.15013 8.55258L4.76161 7.09802H6.8274L6.98847 8.55258H5.15013ZM4.17411 4.91384H6.58573L6.7468 6.36836H4.56737L4.17886 4.91384H4.17411ZM13.053 4.91384H15.1803L14.8582 6.36836H12.8919L13.053 4.91384ZM14.5313 11.1869L15.9858 4.63906H15.9811C15.9858 4.61063 16 4.58218 16 4.54901C16 4.35002 15.8389 4.18418 15.6352 4.18418H3.97987L3.46343 2.26061H3.45868C3.41131 2.11373 3.27865 2 3.11283 2H0.36483C0.165837 2 0 2.1611 0 2.36483C0 2.56856 0.161099 2.72966 0.36483 2.72966H2.8333L5.10276 11.2059C5.13593 11.3101 5.20699 11.3906 5.30649 11.4333C5.16909 11.6559 5.08853 11.9118 5.08853 12.1913C5.08853 12.9967 5.73763 13.6459 6.54308 13.6459C7.34853 13.6459 7.9976 12.992 7.9976 12.1913C7.9976 11.926 7.9218 11.6796 7.79393 11.4664H11.8306C11.7075 11.6796 11.6269 11.926 11.6269 12.1913C11.6269 12.9967 12.276 13.6459 13.0815 13.6459C13.8869 13.6459 14.5359 12.992 14.5359 12.1913C14.5359 11.9118 14.4555 11.6559 14.3181 11.4333C14.4223 11.3859 14.4981 11.2959 14.5218 11.1869" fill="#ED1B24"/>
</g>
<defs>
<clipPath id="clip0_414_2">
<rect width="16" height="12" fill="white" transform="translate(0 2)"/>
</clipPath>
</defs>
</svg>
