<?xml version="1.0" encoding="UTF-8" standalone="no"?>
<svg
   width="16"
   height="16"
   viewBox="0 0 16 16"
   fill="none"
   version="1.1"
   id="svg2"
   sodipodi:docname="cartShelf.svg"
   xmlns:inkscape="http://www.inkscape.org/namespaces/inkscape"
   xmlns:sodipodi="http://sodipodi.sourceforge.net/DTD/sodipodi-0.dtd"
   xmlns="http://www.w3.org/2000/svg"
   xmlns:svg="http://www.w3.org/2000/svg">
  <sodipodi:namedview
     id="namedview2"
     pagecolor="#ffffff"
     bordercolor="#000000"
     borderopacity="0.25"
     inkscape:showpageshadow="2"
     inkscape:pageopacity="0.0"
     inkscape:pagecheckerboard="0"
     inkscape:deskcolor="#d1d1d1"
     inkscape:export-bgcolor="#ffffff68" />
  <g
     clip-path="url(#clip0_414_2)"
     id="g1">
    <path
       fill-rule="evenodd"
       clip-rule="evenodd"
       d="m 12.6503,8.54785 0.1611,-1.45457 h 1.8857 l -0.3222,1.45457 z m 1.2413,2.18425 h -1.4829 l 0.161,-1.45465 h 1.6441 z m -0.8007,2.1841 c -0.4027,0 -0.7249,-0.3269 -0.7249,-0.7296 0,-0.4027 0.3269,-0.7249 0.7249,-0.7249 0.398,0 0.7249,0.3269 0.7249,0.7249 0,0.3979 -0.3269,0.7296 -0.7249,0.7296 z M 12.1575,6.36836 H 10.1818 V 4.91384 h 2.1368 z M 11.9159,8.55258 H 10.1818 V 7.09802 H 12.077 Z M 11.6743,10.7368 H 10.1818 V 9.28218 h 1.6536 z M 9.45693,6.36836 H 7.4812 L 7.32013,4.91384 h 2.1368 z m 0,2.18422 H 7.7228 L 7.56173,7.09802 h 1.8952 z m 0,2.18422 H 7.96447 L 7.8034,9.28218 H 9.45693 Z M 6.54782,12.921 c -0.40272,0 -0.72489,-0.3269 -0.72489,-0.7297 0,-0.4027 0.32691,-0.7249 0.72489,-0.7249 0.39798,0 0.72491,0.3269 0.72491,0.7249 0,0.398 -0.32693,0.7297 -0.72491,0.7297 z M 5.3444,9.28218 H 7.069 L 7.23007,10.7368 H 5.73291 Z M 5.15013,8.55258 4.76161,7.09802 H 6.8274 L 6.98847,8.55258 Z M 4.17411,4.91384 H 6.58573 L 6.7468,6.36836 H 4.56737 L 4.17886,4.91384 Z m 8.87889,0 h 2.1273 l -0.3221,1.45452 h -1.9663 z m 1.4783,6.27306 1.4545,-6.54784 H 15.9811 C 15.9858,4.61063 16,4.58218 16,4.54901 16,4.35002 15.8389,4.18418 15.6352,4.18418 H 3.97987 L 3.46343,2.26061 H 3.45868 C 3.41131,2.11373 3.27865,2 3.11283,2 h -2.748 C 0.165837,2 0,2.1611 0,2.36483 0,2.56856 0.161099,2.72966 0.36483,2.72966 H 2.8333 l 2.26946,8.47624 c 0.03317,0.1042 0.10423,0.1847 0.20373,0.2274 -0.1374,0.2226 -0.21796,0.4785 -0.21796,0.758 0,0.8054 0.6491,1.4546 1.45455,1.4546 0.80545,0 1.45452,-0.6539 1.45452,-1.4546 0,-0.2653 -0.0758,-0.5117 -0.20367,-0.7249 h 4.03667 c -0.1231,0.2132 -0.2037,0.4596 -0.2037,0.7249 0,0.8054 0.6491,1.4546 1.4546,1.4546 0.8054,0 1.4544,-0.6539 1.4544,-1.4546 0,-0.2795 -0.0804,-0.5354 -0.2178,-0.758 0.1042,-0.0474 0.18,-0.1374 0.2037,-0.2464"
       fill="#ed1b24"
       id="path1" />
  </g>
  <defs
     id="defs2">
    <clipPath
       id="clip0_414_2">
      <rect
         width="16"
         height="12"
         fill="#ffffff"
         transform="translate(0,2)"
         id="rect2"
         x="0"
         y="0" />
    </clipPath>
  </defs>
</svg>
