<svg width="14" height="14" viewBox="0 0 14 14" fill="none" xmlns="http://www.w3.org/2000/svg">
<path id="Union" d="M0.516303 12.8619C0.262008 13.1223 0.262008 13.5444 0.516303 13.8047C0.770597 14.0651 1.18289 14.0651 1.43719 13.8047L7 8.10948L12.5628 13.8047C12.8171 14.0651 13.2294 14.0651 13.4837 13.8047C13.738 13.5444 13.738 13.1223 13.4837 12.8619L7.92088 7.16667L13.8093 1.13807C14.0636 0.877721 14.0636 0.455612 13.8093 0.195262C13.555 -0.0650873 13.1427 -0.0650873 12.8884 0.195262L7 6.22386L1.1116 0.195262C0.857309 -0.0650871 0.445016 -0.0650871 0.190721 0.195262C-0.0635737 0.455612 -0.0635737 0.877722 0.190721 1.13807L6.07912 7.16667L0.516303 12.8619Z" fill="white"/>
</svg>
