<svg width="16" height="16" viewBox="0 0 16 16" fill="none" xmlns="http://www.w3.org/2000/svg">
<g clip-path="url(#clip0_447_2)">
<path d="M5.12 12L8 9.12L10.88 12L12 10.88L9.12 8L12 5.12L10.88 4L8 6.88L5.12 4L4 5.12L6.88 8L4 10.88L5.12 12ZM8 16C6.89334 16 5.85334 15.79 4.88 15.37C3.90666 14.95 3.06 14.38 2.34 13.66C1.62 12.94 1.05 12.0934 0.63 11.12C0.21 10.1466 0 9.10664 0 8C0 6.89334 0.21 5.85334 0.63 4.88C1.05 3.90666 1.62 3.06 2.34 2.34C3.06 1.62 3.90666 1.05 4.88 0.63C5.85334 0.21 6.89334 0 8 0C9.10664 0 10.1466 0.21 11.12 0.63C12.0934 1.05 12.94 1.62 13.66 2.34C14.38 3.06 14.95 3.90666 15.37 4.88C15.79 5.85334 16 6.89334 16 8C16 9.10664 15.79 10.1466 15.37 11.12C14.95 12.0934 14.38 12.94 13.66 13.66C12.94 14.38 12.0934 14.95 11.12 15.37C10.1466 15.79 9.10664 16 8 16ZM8 14.4C9.78664 14.4 11.3 13.78 12.54 12.54C13.78 11.3 14.4 9.78664 14.4 8C14.4 6.21334 13.78 4.7 12.54 3.46C11.3 2.22 9.78664 1.6 8 1.6C6.21334 1.6 4.7 2.22 3.46 3.46C2.22 4.7 1.6 6.21334 1.6 8C1.6 9.78664 2.22 11.3 3.46 12.54C4.7 13.78 6.21334 14.4 8 14.4Z" fill="#3D3C3C"/>
</g>
<defs>
<clipPath id="clip0_447_2">
<rect width="16" height="16" fill="white"/>
</clipPath>
</defs>
</svg>
