<svg width="18" height="23" viewBox="0 0 18 23" fill="none" xmlns="http://www.w3.org/2000/svg">
<path id="Vector" fill-rule="evenodd" clip-rule="evenodd" d="M6.01097 19.4985C6.28719 19.4853 6.5042 19.2544 6.49105 18.9773L5.75448 6.99775C5.74132 6.72069 5.51116 6.50959 5.23494 6.51619C4.95873 6.52938 4.74168 6.76027 4.75483 7.03733L5.4914 19.0169C5.50455 19.294 5.73476 19.5051 6.01097 19.4985ZM14.4947 20.4946C14.4289 21.0224 14.0475 21.4973 13.4951 21.4973H4.49179C3.93936 21.4973 3.56449 21.0289 3.49214 20.4946L2.4925 4.4976H15.4943L14.4947 20.4946ZM6.49105 1.50269H11.4892V3.50149H6.49105V1.50269ZM17.4936 3.50149H12.4954V1.50269C12.4954 0.948568 12.0482 0.5 11.4958 0.5H6.49763C5.9452 0.5 5.49798 0.948568 5.49798 1.50269V3.50149H0.499824C0.223609 3.50149 0 3.72579 0 4.00285C0 4.27991 0.223609 4.5042 0.499824 4.5042H1.49943L2.49908 20.5012C2.65692 21.5962 3.39351 22.5 4.49837 22.5H13.5016C14.6065 22.5 15.3102 21.583 15.5009 20.5012L16.5006 4.5042H17.5002C17.7764 4.5042 18 4.27991 18 4.00285C18 3.72579 17.7764 3.50149 17.5002 3.50149M11.9824 19.4985C12.2587 19.5117 12.4889 19.294 12.502 19.0169L13.2254 7.03733C13.2386 6.76027 13.0216 6.52938 12.7453 6.51619C12.4691 6.50959 12.239 6.72069 12.2258 6.99775L11.5024 18.9773C11.4892 19.2544 11.7062 19.4853 11.9824 19.4919M8.99671 19.4919C9.27292 19.4919 9.49653 19.2676 9.49653 18.9906V6.99775C9.49653 6.72069 9.27292 6.4964 8.99671 6.4964C8.72049 6.4964 8.49688 6.72069 8.49688 6.99775V18.9906C8.49688 19.2676 8.72049 19.4919 8.99671 19.4919Z" fill="#3D3C3C"/>
</svg>
