<svg width="25" height="25" viewBox="0 0 25 25" fill="none" xmlns="http://www.w3.org/2000/svg">
<path fill-rule="evenodd" clip-rule="evenodd" d="M12.5 23.5634C6.22038 23.5634 1.1404 18.5426 1.1404 12.3444C1.1404 6.14627 6.22779 1.12561 12.5 1.12561C18.7722 1.12561 23.8596 6.14627 23.8596 12.3444C23.8596 18.5426 18.7722 23.5634 12.5 23.5634ZM12.5 0C5.59835 0 0 5.52423 0 12.3444C0 19.1646 5.59835 24.689 12.5 24.689C19.4017 24.689 25 19.1646 25 12.3444C25 5.52423 19.4017 0 12.5 0ZM11.1967 5.77601C11.093 5.67234 10.9523 5.61312 10.7968 5.61312C10.4858 5.61312 10.2266 5.8649 10.2266 6.17592C10.2266 6.33143 10.2932 6.47216 10.3969 6.57583L15.7139 12.3518L10.3969 18.128C10.2932 18.2316 10.2266 18.3724 10.2266 18.5279C10.2266 18.8389 10.4784 19.0907 10.7968 19.0907C10.9523 19.0907 11.093 19.0314 11.1967 18.9277L16.8765 12.7592C16.9802 12.6555 17.0468 12.5148 17.0468 12.3593C17.0468 12.2037 16.9802 12.0631 16.8765 11.9594L11.1967 5.79084V5.77601Z" fill="#686868"/>
</svg>
