<svg width="26" height="26" viewBox="0 0 26 26" fill="none" xmlns="http://www.w3.org/2000/svg">
<path fill-rule="evenodd" clip-rule="evenodd" d="M13 24.2196C6.72037 24.2196 1.6404 19.1988 1.6404 13.0007C1.6404 6.80252 6.72778 1.78186 13 1.78186C19.2722 1.78186 24.3596 6.80252 24.3596 13.0007C24.3596 19.1988 19.2722 24.2196 13 24.2196ZM13 0.65625C6.09833 0.65625 0.5 6.18048 0.5 13.0007C0.5 19.8209 6.09833 25.3452 13 25.3452C19.9017 25.3452 25.5 19.8209 25.5 13.0007C25.5 6.18048 19.9017 0.65625 13 0.65625ZM15.2734 6.82476C15.2734 6.51374 15.0216 6.26196 14.7032 6.26196C14.5477 6.26196 14.407 6.32118 14.3033 6.42485L8.62352 12.5935C8.51985 12.6971 8.45319 12.8379 8.45319 12.9934C8.45319 13.1489 8.51985 13.2895 8.62352 13.3932L14.3033 19.5618C14.407 19.6655 14.5477 19.7247 14.7032 19.7247C15.0142 19.7247 15.2734 19.4729 15.2734 19.1619C15.2734 19.0064 15.2068 18.8656 15.1031 18.762L9.78613 12.9859L15.1031 7.20985C15.2068 7.10617 15.2734 6.96545 15.2734 6.80994" fill="#686868"/>
</svg>
