<svg xmlns="http://www.w3.org/2000/svg" xmlns:xlink="http://www.w3.org/1999/xlink" width="27" height="27" viewBox="0 0 27 27">
  <defs>
    <clipPath id="clip-path">
      <rect id="Rectángulo_1030" data-name="Rectángulo 1030" width="27" height="27" fill="#fff"/>
    </clipPath>
  </defs>
  <g id="Grupo_3084" data-name="Grupo 3084" transform="translate(0 0)">
    <g id="Grupo_3083" data-name="Grupo 3083" transform="translate(0 0)" clip-path="url(#clip-path)">
      <path id="Trazado_1136" data-name="Trazado 1136" d="M18.059,5.775a.659.659,0,0,0-.933,0L5.816,17.107a.66.66,0,0,0,0,.935.657.657,0,0,0,.933,0L18.059,6.71a.662.662,0,0,0,0-.935" transform="translate(1.797 1.798)" fill="#fff"/>
      <path id="Trazado_1137" data-name="Trazado 1137" d="M10.94,7.888a3.016,3.016,0,1,0-3.015,3.022A3.023,3.023,0,0,0,10.94,7.888m-4.712,0a1.7,1.7,0,1,1,1.7,1.7,1.7,1.7,0,0,1-1.7-1.7" transform="translate(1.568 1.568)" fill="#fff"/>
      <path id="Trazado_1138" data-name="Trazado 1138" d="M14.354,11.3a3.022,3.022,0,1,0,3.017,3.021A3.023,3.023,0,0,0,14.354,11.3m0,4.721a1.7,1.7,0,1,1,1.7-1.7,1.7,1.7,0,0,1-1.7,1.7" transform="translate(3.623 3.639)" fill="#fff"/>
      <path id="Trazado_1139" data-name="Trazado 1139" d="M26.3,11.186l-1.355-1.152a1.986,1.986,0,0,1-.691-1.674L24.4,6.584a3.3,3.3,0,0,0-3.559-3.566l-1.771.145A1.983,1.983,0,0,1,17.4,2.471L16.25,1.113h0a3.4,3.4,0,0,0-5.033,0L10.068,2.471A1.994,1.994,0,0,1,8.4,3.164L6.626,3.019A3.3,3.3,0,0,0,3.067,6.584L3.212,8.36a1.986,1.986,0,0,1-.691,1.674L1.164,11.186a3.312,3.312,0,0,0,0,5.043L2.52,17.38a1.985,1.985,0,0,1,.691,1.674l-.145,1.776A3.3,3.3,0,0,0,6.626,24.4L8.4,24.25a1.974,1.974,0,0,1,1.671.693L11.218,26.3a3.3,3.3,0,0,0,5.033,0L17.4,24.943a1.965,1.965,0,0,1,1.672-.693l1.771.145A3.3,3.3,0,0,0,24.4,20.829l-.145-1.776a1.985,1.985,0,0,1,.691-1.674L26.3,16.228a3.312,3.312,0,0,0,0-5.043m-.852,4.034L24.1,16.372a3.308,3.308,0,0,0-1.155,2.79l.145,1.776a1.98,1.98,0,0,1-2.135,2.139l-1.771-.145a3.322,3.322,0,0,0-2.786,1.157l-1.151,1.357a2.04,2.04,0,0,1-3.019,0l-1.151-1.358A3.3,3.3,0,0,0,8.557,22.92c-.09,0-.179,0-.268.012l-1.772.145a1.98,1.98,0,0,1-2.135-2.139l.146-1.776a3.315,3.315,0,0,0-1.155-2.79L2.019,15.219a1.987,1.987,0,0,1,0-3.025l1.357-1.153A3.316,3.316,0,0,0,4.529,8.25L4.382,6.476A1.98,1.98,0,0,1,6.517,4.337l1.772.145a3.306,3.306,0,0,0,2.784-1.157l1.151-1.357a2.04,2.04,0,0,1,3.019,0l1.151,1.358A3.318,3.318,0,0,0,19.18,4.482l1.771-.145a1.98,1.98,0,0,1,2.135,2.139L22.941,8.25A3.309,3.309,0,0,0,24.1,11.041l1.355,1.153a1.988,1.988,0,0,1,0,3.025" transform="translate(0 0)" fill="#fff"/>
    </g>
  </g>
</svg>
