<?xml version="1.0" encoding="utf-8"?>
<!-- Generator: Adobe Illustrator 24.1.1, SVG Export Plug-In . SVG Version: 6.00 Build 0)  -->
<svg version="1.1" id="Capa_1" xmlns="http://www.w3.org/2000/svg" xmlns:xlink="http://www.w3.org/1999/xlink" x="0px" y="0px"
	 viewBox="0 0 16 16" style="enable-background:new 0 0 16 16;" xml:space="preserve">
<style type="text/css">
	.st0{fill:#ED1C24;}
</style>
<g>
	<path class="st0" d="M15.4,8c0,0.6-0.2,1.1-0.6,1.5c-1,1-2,2-3,3.1c-0.8,0.8-1.5,1.5-2.3,2.3c-0.4,0.4-0.8,0.6-1.4,0.6
		c-0.6,0-1.1-0.2-1.5-0.6c-0.4-0.4-0.8-0.8-1.1-1.2C4,12.4,2.6,10.9,1.2,9.5C0.9,9.2,0.7,8.8,0.6,8.3C0.5,7.7,0.7,7.2,1,6.7
		c0.1-0.1,0.1-0.2,0.2-0.2C3,4.7,4.7,2.9,6.5,1.2c0.3-0.3,0.7-0.6,1.2-0.7c0.7-0.1,1.3,0.1,1.8,0.5c0.3,0.2,0.5,0.5,0.7,0.7
		c1.5,1.6,3.1,3.1,4.6,4.7c0.3,0.3,0.5,0.7,0.6,1.2C15.4,7.8,15.4,7.9,15.4,8L15.4,8z M8,14.9c0.4,0,0.8-0.2,1.1-0.5
		c1.3-1.3,2.7-2.7,4-4c0.4-0.5,0.9-0.9,1.3-1.4c0.3-0.3,0.5-0.8,0.4-1.2c0-0.4-0.2-0.7-0.5-1c-1.8-1.8-3.5-3.6-5.3-5.3
		c0,0-0.1-0.1-0.1-0.1C8.6,1.2,8.3,1,7.8,1.1c-0.4,0-0.7,0.2-0.9,0.5C5.3,3.1,3.8,4.7,2.2,6.3C2,6.5,1.8,6.7,1.6,6.9
		C1.2,7.4,1,7.9,1.2,8.4c0.1,0.3,0.2,0.5,0.4,0.7c1.7,1.7,3.4,3.4,5.1,5.2c0.1,0.1,0.2,0.2,0.2,0.2C7.3,14.8,7.6,14.9,8,14.9L8,14.9
		z"/>
	<path class="st0" d="M14.2,8c0,0.2-0.1,0.4-0.2,0.5c-0.5,0.5-1,1-1.5,1.6c-0.2,0.2-0.3,0.3-0.5,0.5c-0.3,0.3-0.7,0.3-1,0
		c-0.7-0.7-1.3-1.4-2-2c-0.3-0.3-0.3-0.7,0-1c0.7-0.7,1.3-1.4,2-2c0.3-0.3,0.7-0.3,1,0c0.7,0.7,1.4,1.4,2,2
		C14.1,7.6,14.2,7.8,14.2,8L14.2,8z"/>
	<path class="st0" d="M10.7,11.4c0,0.2-0.1,0.4-0.2,0.5c-0.3,0.3-0.6,0.6-0.9,0.9c-0.4,0.4-0.7,0.7-1.1,1.1
		c-0.1,0.1-0.2,0.2-0.4,0.2c-0.2,0-0.5,0-0.6-0.2c-0.5-0.5-1-1-1.4-1.5c-0.2-0.2-0.4-0.4-0.6-0.6c-0.3-0.3-0.3-0.7,0-1
		c0.7-0.7,1.3-1.4,2-2c0.3-0.3,0.7-0.3,1,0c0.7,0.7,1.3,1.3,2,2C10.6,11,10.7,11.2,10.7,11.4z"/>
	<path class="st0" d="M4.5,10.8c-0.2,0-0.4-0.1-0.5-0.2C3.7,10.3,3.5,10,3.2,9.8C2.8,9.3,2.4,8.9,1.9,8.5C1.7,8.3,1.7,8.1,1.8,7.8
		c0-0.1,0.1-0.2,0.2-0.3c0.7-0.7,1.4-1.4,2-2.1c0.3-0.3,0.7-0.3,1,0c0.7,0.7,1.4,1.4,2,2.1c0.3,0.3,0.3,0.7,0,1
		C6.3,9.2,5.6,9.9,5,10.6C4.8,10.7,4.7,10.8,4.5,10.8L4.5,10.8z"/>
	<path class="st0" d="M7.9,1.9c0.4,0.2,0.6,0.6,0.5,1c0,0.2-0.1,0.3-0.2,0.5C8.2,3.6,8.1,3.7,8,3.9c-0.2,0.5-0.1,1,0.2,1.4
		c0.2,0.2,0.4,0.4,0.7,0.6C8.9,6,9,6.1,9.1,6.2c0,0.2,0,0.3-0.1,0.3C8.5,6.8,8.1,6.8,7.7,6.7c-0.4-0.1-0.7-0.3-1-0.6
		C6.3,5.8,6.2,5.4,6.3,5c0.1-0.4,0.3-0.7,0.5-1c0.3-0.4,0.6-0.7,0.9-1.1C8,2.6,8,2.4,7.9,2.1C7.9,2.1,7.9,2,7.9,1.9L7.9,1.9z"/>
	<path class="st0" d="M8.4,4.4c0-0.2,0.1-0.4,0.1-0.7c0.1-0.2,0.2-0.3,0.4-0.1C9,3.6,9,3.7,9,3.7c0.2,0.4,0.4,0.7,0.5,1.1
		c0,0.2,0,0.4-0.1,0.5C9.3,5.6,9.1,5.7,8.9,5.5C8.8,5.4,8.7,5.3,8.6,5.2C8.5,5,8.4,4.7,8.4,4.4L8.4,4.4z"/>
</g>
</svg>
