<svg width="29" height="34" viewBox="0 0 29 34" fill="none" xmlns="http://www.w3.org/2000/svg">
<g id="Iconos">
<g id="Vector">
<path d="M27.6818 14.0909C27.6818 24.2727 14.5909 33 14.5909 33C14.5909 33 1.5 24.2727 1.5 14.0909C1.5 10.619 2.87922 7.28926 5.33424 4.83424C7.78926 2.37922 11.119 1 14.5909 1C18.0628 1 21.3926 2.37922 23.8476 4.83424C26.3026 7.28926 27.6818 10.619 27.6818 14.0909Z" stroke="black" stroke-width="2" stroke-linecap="round" stroke-linejoin="round"/>
<path d="M14.5909 18.4545C17.0009 18.4545 18.9545 16.5009 18.9545 14.0909C18.9545 11.6809 17.0009 9.72727 14.5909 9.72727C12.1809 9.72727 10.2273 11.6809 10.2273 14.0909C10.2273 16.5009 12.1809 18.4545 14.5909 18.4545Z" stroke="black" stroke-width="2" stroke-linecap="round" stroke-linejoin="round"/>
</g>
</g>
</svg>
