<svg width="48" height="48" viewBox="0 0 48 48" fill="none" xmlns="http://www.w3.org/2000/svg">
<rect width="48" height="48" rx="24" fill="white"/>
<path d="M37.0029 21.2518C37.0029 29.5038 23.9999 36.5054 23.9999 36.5054C23.9999 36.5054 10.9968 29.5038 10.9968 21.2518C10.9968 19.4612 11.7081 17.7439 12.9743 16.4777C14.2405 15.2116 15.9578 14.5002 17.7484 14.5002C20.5728 14.5002 22.9921 16.0393 23.9999 18.5012C25.0076 16.0393 27.4269 14.5002 30.2514 14.5002C32.042 14.5002 33.7593 15.2116 35.0255 16.4777C36.2916 17.7439 37.0029 19.4612 37.0029 21.2518Z" fill="#ED1B24"/>
<path d="M30.2514 13.5C27.6695 13.5 25.409 14.6103 23.9999 16.487C22.5908 14.6103 20.3303 13.5 17.7484 13.5C15.6932 13.5023 13.7228 14.3198 12.2696 15.773C10.8164 17.2263 9.9989 19.1966 9.99658 21.2518C9.99658 30.0039 22.9734 37.0881 23.526 37.3806C23.6717 37.459 23.8345 37.5 23.9999 37.5C24.1653 37.5 24.3281 37.459 24.4737 37.3806C25.0264 37.0881 38.0032 30.0039 38.0032 21.2518C38.0009 19.1966 37.1834 17.2263 35.7302 15.773C34.2769 14.3198 32.3066 13.5023 30.2514 13.5ZM23.9999 35.3552C21.7168 34.0248 11.9971 27.9647 11.9971 21.2518C11.999 19.7271 12.6056 18.2654 13.6838 17.1872C14.7619 16.109 16.2237 15.5025 17.7484 15.5005C20.1802 15.5005 22.222 16.7958 23.0747 18.8763C23.15 19.0597 23.2782 19.2166 23.443 19.3271C23.6077 19.4375 23.8016 19.4964 23.9999 19.4964C24.1982 19.4964 24.3921 19.4375 24.5568 19.3271C24.7215 19.2166 24.8497 19.0597 24.9251 18.8763C25.7778 16.792 27.8195 15.5005 30.2514 15.5005C31.7761 15.5025 33.2378 16.109 34.316 17.1872C35.3941 18.2654 36.0007 19.7271 36.0027 21.2518C36.0027 27.9547 26.2804 34.0236 23.9999 35.3552Z" fill="#ED1B24"/>
</svg>
