<svg width="34" height="31" viewBox="0 0 34 31" fill="none" xmlns="http://www.w3.org/2000/svg">
<path d="M4.63636 31V16.4688L1.85455 18.6L0 16.12L4.63636 12.555V7.75H7.72727V10.1912L17 3.1L34 16.12L32.1455 18.5613L29.3636 16.4688V31H4.63636ZM7.72727 27.9H15.4545V21.7H18.5455V27.9H26.2727V14.105L17 7.01375L7.72727 14.105V27.9ZM4.63636 6.2C4.63636 4.90833 5.08712 3.81042 5.98864 2.90625C6.89015 2.00208 7.98485 1.55 9.27273 1.55C9.71061 1.55 10.0777 1.40146 10.3739 1.10438C10.6701 0.807292 10.8182 0.439167 10.8182 0H13.9091C13.9091 1.29167 13.4583 2.38958 12.5568 3.29375C11.6553 4.19792 10.5606 4.65 9.27273 4.65C8.83485 4.65 8.4678 4.79854 8.17159 5.09562C7.87538 5.39271 7.72727 5.76083 7.72727 6.2H4.63636Z" fill="#3D3C3C"/>
</svg>
