<svg width="18" height="22" viewBox="0 0 18 22" fill="none" xmlns="http://www.w3.org/2000/svg">
<g id="Iconos">
<g id="Vector">
<path d="M17 9.22266C17 15.4449 9 20.7782 9 20.7782C9 20.7782 1 15.4449 1 9.22266C1 7.10092 1.84285 5.06609 3.34315 3.5658C4.84344 2.06551 6.87827 1.22266 9 1.22266C11.1217 1.22266 13.1566 2.06551 14.6569 3.5658C16.1571 5.06609 17 7.10092 17 9.22266Z" stroke="#3D3C3C" stroke-width="2" stroke-linecap="round" stroke-linejoin="round"/>
<path d="M9 11.8893C10.4728 11.8893 11.6667 10.6954 11.6667 9.22266C11.6667 7.7499 10.4728 6.55599 9 6.55599C7.52724 6.55599 6.33333 7.7499 6.33333 9.22266C6.33333 10.6954 7.52724 11.8893 9 11.8893Z" stroke="#3D3C3C" stroke-width="2" stroke-linecap="round" stroke-linejoin="round"/>
</g>
</g>
</svg>
