<svg width="98" height="34" viewBox="0 0 98 34" fill="none" xmlns="http://www.w3.org/2000/svg">
<g id="logo xtrategik 1" clip-path="url(#clip0_1781_607)">
<g id="Group">
<g id="Group_2">
<g id="Group_3">
<path id="Vector" d="M19.9964 5.60938L17.4744 7.92197V9.89013H13.8854L7.77441 16.0898L13.8369 22.88H17.4744L11.4119 16.0898L15.2434 12.2027H17.4744V20.0262C17.4744 22.2896 18.7354 23.0768 20.4814 23.0768C21.0634 23.0768 21.7424 22.9292 22.3244 22.7324V20.4198C21.0634 20.8626 19.9964 20.9118 19.9964 19.6325V12.1535H22.3244V9.89013H19.9964V5.60938Z" fill="white"/>
<path id="Vector_2" d="M46.7687 19.6324V12.1534H49.0967V9.89002H46.7687V5.56006L44.2467 7.87265V9.89002H42.5977V12.1534H44.2467V19.9768C44.2467 22.2402 45.5077 23.0275 47.2537 23.0275C47.8357 23.0275 48.5147 22.8799 49.0967 22.6831V20.3705C47.8357 20.8625 46.7687 20.9117 46.7687 19.6324Z" fill="white"/>
<path id="Vector_3" d="M55.4498 9.5459C52.1518 9.5459 48.7568 12.2029 48.7568 16.3853C48.7568 20.3708 51.7153 23.2246 55.8378 23.2246C58.5538 23.2246 60.8333 22.0437 62.2398 19.8788L60.0088 18.8947C59.0873 20.2724 57.5353 21.0104 55.8863 21.0104C53.5098 21.0104 51.9093 19.5835 51.5213 17.0249H62.2398C62.2398 12.3013 58.9903 9.5459 55.4498 9.5459ZM51.6183 15.1552C52.0063 12.9902 53.5098 11.6125 55.4983 11.6125C57.4868 11.6125 59.2813 13.1378 59.6693 15.1552H51.6183Z" fill="white"/>
<path id="Vector_4" d="M81.3978 9.89018L73.3467 9.93938V11.7599C72.0372 10.3822 70.5337 9.69336 68.8362 9.69336C65.2957 9.69336 62.5312 12.6948 62.5312 16.5819C62.5312 20.4198 65.1502 23.2245 68.7392 23.2245C70.4852 23.2245 72.2798 22.388 73.2983 21.1087H73.3467V23.0277C73.3467 25.8815 70.8247 26.6688 69.2242 26.6688C67.9147 26.6688 66.7023 26.2259 65.6353 25.3402L64.0347 27.21C65.7322 28.4893 67.0903 28.9321 69.0303 28.9321C71.8918 28.9321 75.8687 27.5544 75.8687 22.9292V12.1536H78.1483V12.1044H78.8758V20.5183H76.8387V22.7816H83.4347V20.5183H81.3978V9.89018ZM69.1758 20.9611C68.5938 20.9611 68.0603 20.8627 67.5753 20.6659L65.7808 21.5023L66.0717 19.5342C65.4897 18.7469 65.1503 17.7136 65.1503 16.5327C65.1503 13.9741 66.8963 12.1044 69.1758 12.1044C71.5038 12.1044 73.2983 14.0233 73.2983 16.5327C73.3468 19.0421 71.5523 20.9611 69.1758 20.9611Z" fill="white"/>
<path id="Vector_5" d="M80.0396 8.06969C80.8641 8.06969 81.5431 7.38084 81.5431 6.54437C81.5431 5.7079 80.8641 5.01904 80.0396 5.01904C79.2151 5.01904 78.5361 5.7079 78.5361 6.54437C78.5361 7.38084 79.2151 8.06969 80.0396 8.06969Z" fill="white"/>
<path id="Vector_6" d="M41.8704 13.5314C41.8704 11.4649 40.6094 9.5459 36.8749 9.5459C35.2259 9.5459 33.8679 9.93953 32.8494 10.776V9.69351H31.2004C29.5999 9.69351 27.9994 10.6284 27.1749 12.7934H27.1264V9.89033H22.5674V12.1537H25.1379V20.5676H22.6159V22.831H30.4244V20.5676H27.6599V16.8773C27.6599 13.9251 28.5329 12.2521 31.4914 12.2521H31.5399C31.4914 12.3505 31.4429 12.4489 31.3944 12.5473L33.7709 13.187C34.3529 12.1537 35.2744 11.6617 36.4869 11.6617C37.9904 11.6617 39.2999 12.3013 39.2999 14.1711V14.7615C38.6694 14.7123 38.0389 14.7123 37.4084 14.7123C36.8749 14.7123 36.3414 14.7615 35.8564 14.8107C35.4199 14.8599 34.9834 14.9583 34.5954 15.0568C34.2559 15.1552 33.9164 15.2536 33.5769 15.4012C33.2859 15.5488 33.0434 15.6964 32.8009 15.844C32.6069 15.9916 32.3644 16.1392 32.2189 16.3361C32.0734 16.4837 31.9279 16.6805 31.7824 16.8773C31.6854 17.0249 31.5884 17.2217 31.4914 17.4185C31.4429 17.5662 31.3459 17.763 31.3459 17.9106C31.2974 18.0582 31.2974 18.2058 31.2489 18.3534C31.2489 18.4518 31.2489 18.5994 31.2004 18.6979C31.2004 18.8455 31.2004 19.0423 31.2004 19.1899C31.2004 19.3375 31.2004 19.4359 31.2489 19.5835C31.2974 19.8295 31.3459 20.0756 31.4429 20.3216C31.5884 20.7644 31.8309 21.2073 32.1704 21.6009C32.5099 21.9945 32.8979 22.2897 33.2859 22.5358C33.7224 22.7818 34.2559 22.9786 34.7409 23.0278C34.9834 23.077 35.2744 23.077 35.5169 23.077C36.9234 23.077 38.0389 22.585 39.6394 21.2565V22.831H44.0529V20.5676H41.8704V13.5314ZM39.3484 19.5343C38.3299 20.4692 37.0689 21.0596 35.9049 21.0596C35.5169 21.0596 35.0804 20.9612 34.6924 20.7644C34.3044 20.5676 33.9649 20.2232 33.7709 19.7803C33.6254 19.4359 33.5769 18.9931 33.6254 18.5994C33.6254 18.4518 33.6739 18.3042 33.7709 18.1566C33.9164 17.8614 34.2074 17.6154 34.4984 17.4678C34.8379 17.2709 35.2259 17.1233 35.6139 16.9757C36.0504 16.8281 36.4869 16.7297 36.9234 16.6805C37.3599 16.6313 37.7964 16.5821 38.2329 16.5329C38.3299 16.5329 39.3484 16.4837 39.3484 16.4837V19.5343Z" fill="white"/>
<path id="Vector_7" d="M82.5127 9.89014V12.1043H84.7922V22.8308H87.3142V9.89014H82.5127Z" fill="white"/>
</g>
<path id="Vector_8" d="M7.82324 16.0898H11.5092L5.39824 22.88H1.76074L7.82324 16.0898Z" fill="white"/>
<path id="Vector_9" d="M7.82324 16.0898H11.5092L5.39824 9.89014H1.76074L7.82324 16.0898Z" fill="white"/>
<path id="Vector_10" d="M91.0005 16.0898H87.3145L93.4255 22.88H97.063L91.0005 16.0898Z" fill="white"/>
<path id="Vector_11" d="M91.0005 16.0898H87.3145L93.4255 9.89014H97.063L91.0005 16.0898Z" fill="white"/>
</g>
<g id="Group_4">
<path id="Vector_12" d="M4.96143 27.5543H2.58493C2.58493 27.8495 2.68193 28.0955 2.82743 28.2431C2.97293 28.3908 3.21543 28.4892 3.40943 28.4892C3.60343 28.4892 3.79743 28.44 3.94293 28.3416C4.08843 28.2431 4.18543 28.0955 4.23393 27.8987H4.91293C4.86443 28.0955 4.76743 28.2923 4.67043 28.4892C4.52493 28.6368 4.37943 28.7844 4.18543 28.8828C3.99143 28.9812 3.74893 29.0304 3.50643 29.0304C3.21543 29.0304 2.92443 28.9812 2.73043 28.8336C2.48793 28.686 2.34243 28.5384 2.19693 28.2923C2.05143 28.0463 2.00293 27.7511 2.00293 27.4559C2.00293 27.1114 2.05143 26.8654 2.19693 26.6194C2.34243 26.3734 2.48793 26.1766 2.73043 26.0782C2.97293 25.9306 3.21543 25.8813 3.50643 25.8813C3.79743 25.8813 4.08843 25.9306 4.28243 26.0782C4.52493 26.2258 4.67043 26.3734 4.81593 26.6194C4.96143 26.8162 5.00993 27.0622 5.00993 27.3575C4.96143 27.3575 4.96143 27.4559 4.96143 27.5543ZM4.23393 26.7178C4.13693 26.5702 4.03993 26.4718 3.94293 26.4226C3.79743 26.3734 3.65193 26.3242 3.50643 26.3242C3.26393 26.3242 3.06993 26.4226 2.87593 26.5702C2.73043 26.7178 2.63343 26.9638 2.58493 27.2591H4.33093C4.33093 27.013 4.33093 26.8654 4.23393 26.7178Z" fill="white"/>
<path id="Vector_13" d="M7.91979 26.1274C8.16229 26.3242 8.35629 26.6194 8.40479 27.0131H7.72579C7.67729 26.8162 7.58029 26.6686 7.43479 26.5702C7.28929 26.4718 7.09529 26.4226 6.90129 26.4226C6.65879 26.4226 6.46479 26.521 6.27079 26.6686C6.12529 26.8654 6.02829 27.1115 6.02829 27.4559C6.02829 27.8003 6.12529 28.0463 6.27079 28.2432C6.41629 28.44 6.65879 28.4892 6.90129 28.4892C7.09529 28.4892 7.28929 28.44 7.43479 28.3416C7.58029 28.2431 7.67729 28.0955 7.72579 27.8987H8.40479C8.35629 28.2432 8.16229 28.5384 7.91979 28.7844C7.67729 28.9812 7.33779 29.1288 6.94979 29.1288C6.65879 29.1288 6.36779 29.0796 6.17379 28.932C5.93129 28.7844 5.78579 28.6368 5.64029 28.3908C5.49479 28.1447 5.44629 27.8495 5.44629 27.5543C5.44629 27.2099 5.49479 26.9638 5.64029 26.7178C5.78579 26.4718 5.93129 26.275 6.17379 26.1766C6.41629 26.029 6.65879 25.9798 6.94979 25.9798C7.33779 25.8322 7.67729 25.9306 7.91979 26.1274Z" fill="white"/>
<path id="Vector_14" d="M11.2176 26.0288C11.4601 26.1765 11.6541 26.3241 11.7511 26.5701C11.8966 26.8161 11.9451 27.1113 11.9451 27.4066C11.9451 27.751 11.8966 27.997 11.7511 28.243C11.6056 28.4891 11.4116 28.6859 11.2176 28.7843C10.9751 28.9319 10.7326 28.9811 10.3931 28.9811C10.0536 28.9811 9.81115 28.9319 9.61715 28.7843C9.37465 28.6367 9.18065 28.4891 9.08365 28.243C8.93815 27.997 8.88965 27.7018 8.88965 27.4066C8.88965 27.0621 8.93815 26.8161 9.08365 26.5701C9.22915 26.3241 9.42315 26.1273 9.61715 26.0288C9.85965 25.8812 10.1021 25.832 10.3931 25.832C10.6841 25.832 10.9751 25.8812 11.2176 26.0288ZM9.95665 26.4717C9.81115 26.5701 9.71415 26.6685 9.61715 26.8161C9.52015 26.9637 9.47165 27.1605 9.47165 27.4066C9.47165 27.6526 9.52015 27.8494 9.61715 27.997C9.71415 28.1446 9.81115 28.243 9.95665 28.3414C10.1021 28.4398 10.2476 28.4398 10.3931 28.4398C10.5386 28.4398 10.6841 28.3906 10.8296 28.3414C10.9751 28.243 11.0721 28.1446 11.1691 27.997C11.2661 27.8494 11.3146 27.6526 11.3146 27.4066C11.3146 27.1605 11.2661 27.0129 11.1691 26.8161C11.0721 26.6685 10.9751 26.5209 10.8296 26.4717C10.6841 26.3733 10.5386 26.3733 10.3931 26.3733C10.2476 26.3733 10.1021 26.4225 9.95665 26.4717Z" fill="white"/>
<path id="Vector_15" d="M17.28 26.1763C17.474 26.4224 17.6195 26.7176 17.6195 27.1604V28.981H16.989V27.2588C16.989 26.9636 16.9405 26.7668 16.795 26.6192C16.6495 26.4716 16.4555 26.3732 16.2615 26.3732C16.019 26.3732 15.825 26.4716 15.6795 26.6192C15.534 26.7668 15.437 27.0128 15.437 27.308V28.981H14.8065V27.2588C14.8065 26.9636 14.758 26.7668 14.6125 26.6192C14.467 26.4716 14.273 26.3732 14.079 26.3732C13.8365 26.3732 13.6425 26.4716 13.497 26.6192C13.3515 26.7668 13.2545 27.0128 13.2545 27.308V28.981H12.624V25.8811H13.2545V26.5208C13.3515 26.2748 13.4485 26.1271 13.6425 25.9795C13.8365 25.8319 14.0305 25.7827 14.273 25.7827C14.5155 25.7827 14.758 25.8319 14.952 25.9795C15.146 26.1271 15.2915 26.2748 15.34 26.5208C15.437 26.2748 15.5825 26.1271 15.7765 25.9795C15.9705 25.8319 16.213 25.7827 16.4555 25.7827C16.795 25.7827 17.086 25.9303 17.28 26.1763Z" fill="white"/>
<path id="Vector_16" d="M23.0515 26.1763C23.2455 26.4224 23.391 26.7176 23.391 27.1604V28.981H22.7605V27.2588C22.7605 26.9636 22.712 26.7668 22.5665 26.6192C22.421 26.4716 22.227 26.3732 22.033 26.3732C21.7905 26.3732 21.5965 26.4716 21.451 26.6192C21.3055 26.7668 21.2085 27.0128 21.2085 27.308V28.981H20.578V27.2588C20.578 26.9636 20.5295 26.7668 20.384 26.6192C20.2385 26.4716 20.0445 26.3732 19.8505 26.3732C19.608 26.3732 19.414 26.4716 19.2685 26.6192C19.123 26.7668 19.026 27.0128 19.026 27.308V28.981H18.3955V25.8811H19.026V26.5208C19.123 26.2748 19.22 26.1271 19.414 25.9795C19.608 25.8811 19.802 25.7827 20.0445 25.7827C20.287 25.7827 20.5295 25.8319 20.7235 25.9795C20.9175 26.1271 21.063 26.2748 21.1115 26.5208C21.2085 26.2748 21.354 26.1271 21.548 25.9795C21.742 25.8319 21.9845 25.7827 22.227 25.7827C22.5665 25.7827 22.8575 25.9303 23.0515 26.1763Z" fill="white"/>
<path id="Vector_17" d="M26.9321 27.5543H24.5556C24.5556 27.8495 24.6526 28.0955 24.7981 28.2431C24.9436 28.3908 25.1861 28.4892 25.3801 28.4892C25.5741 28.4892 25.7681 28.44 25.9136 28.3416C26.0591 28.2431 26.1561 28.0955 26.2046 27.8987H26.8836C26.8351 28.0955 26.7381 28.2923 26.6411 28.4892C26.4956 28.6368 26.3501 28.7844 26.1561 28.8828C25.9621 28.9812 25.7196 29.0304 25.4771 29.0304C25.1861 29.0304 24.8951 28.9812 24.7011 28.8336C24.4586 28.686 24.3131 28.5384 24.1676 28.2923C24.0221 28.0463 23.9736 27.7511 23.9736 27.4559C23.9736 27.1114 24.0221 26.8654 24.1676 26.6194C24.3131 26.3734 24.4586 26.1766 24.7011 26.0782C24.9436 25.9306 25.1861 25.8813 25.4771 25.8813C25.7681 25.8813 26.0591 25.9306 26.2531 26.0782C26.4956 26.2258 26.6411 26.3734 26.7866 26.6194C26.8836 26.8162 26.9806 27.0622 26.9806 27.3575C26.9806 27.3575 26.9806 27.4559 26.9321 27.5543ZM26.2046 26.7178C26.1076 26.5702 26.0106 26.4718 25.9136 26.4226C25.7681 26.3734 25.6226 26.3242 25.4771 26.3242C25.2346 26.3242 25.0406 26.4226 24.8466 26.5702C24.7011 26.7178 24.6041 26.9638 24.5556 27.2591H26.3016C26.3501 27.013 26.3016 26.8654 26.2046 26.7178Z" fill="white"/>
<path id="Vector_18" d="M28.6295 25.9795C28.8235 25.8811 29.066 25.7827 29.3085 25.7827V26.4716H29.1145C28.8235 26.4716 28.6295 26.5208 28.4355 26.6684C28.29 26.816 28.193 27.0128 28.193 27.3572V28.9318H27.5625V25.8319H28.193V26.4224C28.29 26.2748 28.484 26.0779 28.6295 25.9795Z" fill="white"/>
<path id="Vector_19" d="M32.121 26.1274C32.3635 26.3242 32.5575 26.6194 32.606 27.0131H31.927C31.8785 26.8162 31.7815 26.6686 31.636 26.5702C31.4905 26.4718 31.2965 26.4226 31.1025 26.4226C30.86 26.4226 30.666 26.521 30.472 26.6686C30.3265 26.8654 30.2295 27.1115 30.2295 27.4559C30.2295 27.8003 30.3265 28.0463 30.472 28.2432C30.6175 28.44 30.86 28.4892 31.1025 28.4892C31.2965 28.4892 31.4905 28.44 31.636 28.3416C31.7815 28.2431 31.8785 28.0955 31.927 27.8987H32.606C32.5575 28.2432 32.3635 28.5384 32.121 28.7844C31.8785 28.9812 31.539 29.1288 31.151 29.1288C30.86 29.1288 30.569 29.0796 30.375 28.932C30.1325 28.7844 29.987 28.6368 29.8415 28.3908C29.696 28.1447 29.6475 27.8495 29.6475 27.5543C29.6475 27.2099 29.696 26.9638 29.8415 26.7178C29.987 26.4718 30.1325 26.275 30.375 26.1766C30.6175 26.029 30.86 25.9798 31.151 25.9798C31.539 25.8322 31.8785 25.9306 32.121 26.1274Z" fill="white"/>
<path id="Vector_20" d="M36.0496 27.5543H33.6731C33.6731 27.8495 33.7701 28.0955 33.9156 28.2431C34.0611 28.3908 34.3036 28.4892 34.5461 28.4892C34.7401 28.4892 34.9341 28.44 35.0796 28.3416C35.2251 28.2431 35.3221 28.0955 35.3706 27.8987H36.0496C36.0011 28.0955 35.9041 28.2923 35.8071 28.4892C35.6616 28.6368 35.5161 28.7844 35.3221 28.8828C35.1281 28.9812 34.8856 29.0304 34.6431 29.0304C34.3521 29.0304 34.0611 28.9812 33.8671 28.8336C33.6246 28.686 33.4791 28.5384 33.3336 28.2923C33.1881 28.0463 33.1396 27.7511 33.1396 27.4559C33.1396 27.1114 33.1881 26.8654 33.3336 26.6194C33.4791 26.3734 33.6246 26.1766 33.8671 26.0782C34.1096 25.9306 34.3521 25.8813 34.6431 25.8813C34.9341 25.8813 35.2251 25.9306 35.4191 26.0782C35.6616 26.2258 35.8071 26.3734 35.9526 26.6194C36.0496 26.8162 36.1466 27.0622 36.1466 27.3575C36.0981 27.3575 36.0496 27.4559 36.0496 27.5543ZM35.3221 26.7178C35.2251 26.5702 35.1281 26.4718 35.0311 26.4226C34.8856 26.3734 34.7401 26.3242 34.5946 26.3242C34.3521 26.3242 34.1581 26.4226 33.9641 26.5702C33.8186 26.7178 33.7216 26.9638 33.6731 27.2591H35.4191C35.4191 27.013 35.4191 26.8654 35.3221 26.7178Z" fill="white"/>
<path id="Vector_21" d="M39.8329 26.0779C40.0269 26.2748 40.1724 26.5208 40.2209 26.816H39.6389C39.5904 26.6684 39.5419 26.5208 39.4449 26.4224C39.3479 26.324 39.1539 26.2748 38.9599 26.2748C38.8144 26.2748 38.6689 26.324 38.5719 26.3732C38.4749 26.4716 38.4264 26.57 38.4264 26.6684C38.4264 26.7668 38.4749 26.8652 38.5234 26.9144C38.5719 26.9636 38.6689 27.0128 38.7659 27.062C38.8629 27.1112 39.0084 27.1112 39.1539 27.1604C39.3964 27.2096 39.5904 27.2588 39.6874 27.308C39.8329 27.3572 39.9299 27.4557 40.0754 27.5541C40.1724 27.6525 40.2209 27.8493 40.2209 28.0461C40.2209 28.2921 40.1239 28.5381 39.9299 28.6858C39.7359 28.8334 39.4934 28.9318 39.1539 28.9318C38.7659 28.9318 38.4749 28.8334 38.2324 28.6365C37.9899 28.4397 37.8444 28.1937 37.7959 27.8985H38.4264C38.4264 28.0461 38.5234 28.1937 38.6689 28.2921C38.8144 28.3905 38.9599 28.4397 39.2024 28.4397C39.3479 28.4397 39.4934 28.3905 39.5419 28.3413C39.6389 28.2429 39.6874 28.1445 39.6874 28.0461C39.6874 27.9477 39.6389 27.8493 39.5904 27.8001C39.5419 27.7509 39.4449 27.7017 39.3479 27.6525C39.2509 27.6033 39.1054 27.6033 38.9599 27.5541C38.7174 27.5049 38.5719 27.4557 38.4264 27.4064C38.2809 27.3572 38.1839 27.2588 38.0869 27.1604C37.9899 27.062 37.9414 26.8652 37.9414 26.6684C37.9414 26.4224 38.0384 26.1763 38.2324 26.0287C38.4264 25.8811 38.7174 25.7827 39.0569 25.7827C39.3479 25.8319 39.6389 25.9303 39.8329 26.0779Z" fill="white"/>
<path id="Vector_22" d="M43.1307 26.0288C43.3732 26.1765 43.5672 26.3241 43.6642 26.5701C43.7612 26.8161 43.8582 27.1113 43.8582 27.4066C43.8582 27.751 43.8097 27.997 43.6642 28.243C43.5187 28.4891 43.3247 28.6859 43.1307 28.7843C42.8882 28.9319 42.6457 28.9811 42.3062 28.9811C41.9667 28.9811 41.7242 28.9319 41.5302 28.7843C41.2877 28.6367 41.0937 28.4891 40.9967 28.243C40.8512 27.997 40.8027 27.7018 40.8027 27.4066C40.8027 27.0621 40.8512 26.8161 40.9967 26.5701C41.1422 26.3241 41.3362 26.1273 41.5302 26.0288C41.7727 25.8812 42.0152 25.832 42.3062 25.832C42.5972 25.832 42.8882 25.8812 43.1307 26.0288ZM41.8697 26.4717C41.7242 26.5701 41.6272 26.6685 41.5302 26.8161C41.4332 26.9637 41.3847 27.1605 41.3847 27.4066C41.3847 27.6526 41.4332 27.8494 41.5302 27.997C41.6272 28.1446 41.7242 28.243 41.8697 28.3414C42.0152 28.4398 42.1607 28.4398 42.3062 28.4398C42.4517 28.4398 42.5972 28.3906 42.7427 28.3414C42.8882 28.243 42.9852 28.1446 43.0822 27.997C43.1792 27.8494 43.2277 27.6526 43.2277 27.4066C43.2277 27.1605 43.1792 27.0129 43.0822 26.8161C42.9852 26.6685 42.8882 26.5209 42.7427 26.4717C42.5972 26.3733 42.4517 26.3733 42.3062 26.3733C42.1607 26.3733 42.0152 26.4225 41.8697 26.4717Z" fill="white"/>
<path id="Vector_23" d="M45.1198 24.7988V28.9812H44.4893V24.7988H45.1198Z" fill="white"/>
<path id="Vector_24" d="M48.7088 25.832V28.9319H48.0783V28.243C47.9813 28.4891 47.8843 28.6367 47.6903 28.7843C47.4963 28.9319 47.2538 28.9811 47.0113 28.9811C46.6718 28.9811 46.3808 28.8827 46.1383 28.6367C45.9443 28.3906 45.7988 28.0954 45.7988 27.6526V25.832H46.4293V27.5542C46.4293 27.8494 46.4778 28.0462 46.6233 28.1938C46.7688 28.3414 46.9628 28.4398 47.2053 28.4398C47.4478 28.4398 47.6418 28.3414 47.7873 28.1938C47.9328 28.0462 48.0298 27.8002 48.0298 27.4558V25.832H48.7088Z" fill="white"/>
<path id="Vector_25" d="M50.9879 28.3909V28.9322H50.5999C50.2604 28.9322 50.0179 28.8337 49.8724 28.6861C49.7269 28.5385 49.6299 28.2433 49.6299 27.8989V26.3735H49.1934V25.8323H49.6299V25.0942H50.2604V25.8815H50.9879V26.4227H50.2604V27.9481C50.2604 28.1449 50.3089 28.2433 50.3574 28.2925C50.4059 28.3417 50.5514 28.3909 50.6969 28.3909H50.9879Z" fill="white"/>
<path id="Vector_26" d="M51.6185 24.7005C51.7155 24.6513 51.8125 24.6021 51.9095 24.6021C52.0065 24.6021 52.152 24.6513 52.2005 24.7005C52.2975 24.7497 52.2975 24.8481 52.2975 24.9957C52.2975 25.0941 52.249 25.1925 52.2005 25.2417C52.1035 25.2909 52.0065 25.3401 51.9095 25.3401C51.8125 25.3401 51.667 25.2909 51.6185 25.2417C51.5215 25.1925 51.5215 25.0941 51.5215 24.9957C51.5215 24.8481 51.57 24.7497 51.6185 24.7005ZM52.249 25.8322V28.932H51.6185V25.8322H52.249Z" fill="white"/>
<path id="Vector_27" d="M55.2079 26.0288C55.4504 26.1765 55.6444 26.3241 55.7414 26.5701C55.8869 26.8161 55.9354 27.1113 55.9354 27.4066C55.9354 27.751 55.8869 27.997 55.7414 28.243C55.5959 28.4891 55.4019 28.6859 55.2079 28.7843C54.9654 28.9319 54.7229 28.9811 54.3834 28.9811C54.0924 28.9811 53.8014 28.9319 53.6074 28.7843C53.3649 28.6367 53.1709 28.4891 53.0739 28.243C52.9284 27.997 52.8799 27.7018 52.8799 27.4066C52.8799 27.0621 52.9284 26.8161 53.0739 26.5701C53.2194 26.3241 53.4134 26.1273 53.6074 26.0288C53.8499 25.8812 54.0924 25.832 54.3834 25.832C54.7229 25.832 54.9654 25.8812 55.2079 26.0288ZM53.9469 26.4717C53.8014 26.5701 53.7044 26.6685 53.6074 26.8161C53.5104 26.9637 53.4619 27.1605 53.4619 27.4066C53.4619 27.6526 53.5104 27.8494 53.6074 27.997C53.7044 28.1446 53.8014 28.243 53.9469 28.3414C54.0924 28.4398 54.2379 28.4398 54.3834 28.4398C54.5289 28.4398 54.6744 28.3906 54.8199 28.3414C54.9654 28.243 55.0624 28.1446 55.1594 27.997C55.2564 27.8494 55.3049 27.6526 55.3049 27.4066C55.3049 27.1605 55.2564 27.0129 55.1594 26.8161C55.0624 26.6685 54.9654 26.5209 54.8199 26.4717C54.6744 26.3733 54.5289 26.3733 54.3834 26.3733C54.2379 26.3733 54.0924 26.4225 53.9469 26.4717Z" fill="white"/>
<path id="Vector_28" d="M59.1363 26.1766C59.3303 26.4227 59.4758 26.7179 59.4758 27.1607V28.9813H58.8453V27.2591C58.8453 26.9639 58.7968 26.7671 58.6513 26.6195C58.5058 26.4719 58.3118 26.3735 58.0693 26.3735C57.8268 26.3735 57.6328 26.4719 57.4873 26.6195C57.3418 26.7671 57.2448 27.0131 57.2448 27.3575V29.0305H56.6143V25.9306H57.2448V26.6195C57.3418 26.3735 57.4388 26.2258 57.6328 26.0782C57.8268 25.9306 58.0693 25.8814 58.3118 25.8814C58.6513 25.783 58.9423 25.9306 59.1363 26.1766Z" fill="white"/>
<path id="Vector_29" d="M62.0458 26.0779C62.2398 26.2748 62.3853 26.5208 62.4338 26.816H61.8518C61.8033 26.6684 61.7548 26.5208 61.6578 26.4224C61.5608 26.324 61.3668 26.2748 61.1728 26.2748C61.0273 26.2748 60.8818 26.324 60.7848 26.3732C60.6878 26.4716 60.6393 26.57 60.6393 26.6684C60.6393 26.7668 60.6878 26.8652 60.7363 26.9144C60.7848 26.9636 60.8818 27.0128 60.9788 27.062C61.0758 27.1112 61.2213 27.1112 61.3668 27.1604C61.6093 27.2096 61.8033 27.2588 61.9003 27.308C62.0458 27.3572 62.1428 27.4557 62.2883 27.5541C62.3853 27.6525 62.4338 27.8493 62.4338 28.0461C62.4338 28.2921 62.3368 28.5381 62.1428 28.6858C61.9488 28.8334 61.7063 28.9318 61.3668 28.9318C60.9788 28.9318 60.6878 28.8334 60.4453 28.6365C60.2028 28.4397 60.0573 28.1937 60.0088 27.8985H60.6393C60.6393 28.0461 60.7363 28.1937 60.8818 28.2921C61.0273 28.3905 61.1728 28.4397 61.4153 28.4397C61.5608 28.4397 61.7063 28.3905 61.7548 28.3413C61.8518 28.2429 61.9003 28.1445 61.9003 28.0461C61.9003 27.9477 61.8518 27.8493 61.8033 27.8001C61.7548 27.7509 61.6578 27.7017 61.5608 27.6525C61.4638 27.6033 61.3183 27.6033 61.1728 27.5541C60.9303 27.5049 60.7848 27.4557 60.6393 27.4064C60.4938 27.3572 60.3968 27.2588 60.2998 27.1604C60.2028 27.062 60.1543 26.8652 60.1543 26.6684C60.1543 26.4224 60.2513 26.1763 60.4453 26.0287C60.6393 25.8811 60.9303 25.7827 61.2698 25.7827C61.5608 25.8319 61.8518 25.9303 62.0458 26.0779Z" fill="white"/>
</g>
</g>
</g>
<defs>
<clipPath id="clip0_1781_607">
<rect width="97" height="34" fill="white" transform="translate(0.5)"/>
</clipPath>
</defs>
</svg>
