<svg width="65" height="35" viewBox="0 0 65 35" fill="none" xmlns="http://www.w3.org/2000/svg">
<path d="M63.6195 24.6751H60.207C60.2026 24.5753 60.1951 24.4831 60.1951 24.3915C60.1944 22.7933 60.1951 21.1951 60.1951 19.5963C60.1951 19.2162 60.1793 18.838 60.083 18.4666C59.8638 17.6211 59.319 17.1494 58.4454 17.0415C58.1575 17.0058 57.8728 17.0039 57.5932 17.0748C56.8519 17.2642 56.4166 17.7629 56.2201 18.4792C56.0967 18.9289 56.0973 19.3862 56.2044 19.8415C56.4173 20.7479 57.1176 21.3262 58.0536 21.377C58.4573 21.399 58.8434 21.3206 59.227 21.2127C59.3473 21.1788 59.4676 21.1437 59.5879 21.1092C59.6395 21.2986 59.6597 24.1319 59.6137 24.6518C59.5174 24.6738 59.4128 24.7014 59.307 24.7202C58.1235 24.9303 56.9558 24.8845 55.8485 24.3915C54.1756 23.647 53.1402 22.3549 52.7528 20.5767C52.4776 19.3128 52.528 18.0458 53.0476 16.849C53.8771 14.9378 55.339 13.8219 57.4357 13.5848C58.9625 13.4123 60.362 13.7554 61.5751 14.7132C62.7825 15.6666 63.4558 16.9192 63.5622 18.4566C63.5994 18.9929 63.6145 19.5311 63.617 20.0686C63.6246 21.5244 63.6195 22.9802 63.6202 24.4361C63.6202 24.5063 63.6202 24.5766 63.6202 24.6744L63.6195 24.6751Z" fill="white"/>
<path d="M43.2372 24.923H39.8222C39.8184 24.8289 39.8121 24.7379 39.8121 24.6464C39.8115 23.04 39.8121 21.4343 39.8115 19.8279C39.8115 19.4553 39.7869 19.0852 39.6918 18.7221C39.4581 17.8326 38.8837 17.3447 37.9673 17.2857C37.7241 17.27 37.4703 17.2706 37.2341 17.3214C36.5256 17.4732 36.0853 17.9368 35.8655 18.6073C35.6967 19.1229 35.6973 19.6535 35.8359 20.176C36.062 21.0266 36.7491 21.5654 37.6341 21.6205C38.0624 21.6475 38.4711 21.5672 38.8774 21.4493C38.9826 21.4186 39.0884 21.391 39.1936 21.3628C39.2522 21.5553 39.2748 24.27 39.2257 24.9079C39.0506 24.9399 38.8673 24.9782 38.6828 25.0051C37.6927 25.1525 36.7101 25.1162 35.7704 24.7611C33.8897 24.0511 32.7477 22.685 32.3478 20.733C32.094 19.4929 32.1506 18.2491 32.6684 17.0762C33.5269 15.1311 35.0259 14.0253 37.1648 13.8221C38.5618 13.6891 39.8537 13.9927 40.9949 14.8194C42.2704 15.7433 43.0117 16.9921 43.1584 18.5634C43.2145 19.1611 43.2296 19.7639 43.234 20.3648C43.2447 21.805 43.2378 23.2451 43.2378 24.6846C43.2378 24.7549 43.2378 24.8251 43.2378 24.9236L43.2372 24.923Z" fill="white"/>
<path d="M32.4572 17.0851H29.7854C29.7766 17.161 29.7634 17.2206 29.7634 17.2808C29.7621 18.4199 29.759 19.5589 29.7671 20.698C29.7684 20.8768 29.8068 21.0593 29.8547 21.233C29.9158 21.4526 30.0707 21.6062 30.2931 21.6633C30.4757 21.7104 30.6666 21.7461 30.8543 21.7511C31.3065 21.7637 31.76 21.7555 32.2128 21.7562C32.2909 21.7562 32.3684 21.7562 32.4629 21.7562V25.0536C32.4333 25.0611 32.3967 25.0786 32.3608 25.0774C31.6309 25.0617 30.8996 25.0592 30.1709 25.0222C29.7023 24.9984 29.2456 24.8817 28.8028 24.7249C27.5784 24.2908 26.8478 23.419 26.5316 22.1814C26.4 21.6658 26.3326 21.1402 26.3326 20.6083C26.3301 17.4834 26.3301 14.3585 26.3301 11.2336C26.3301 11.1715 26.3357 11.11 26.3402 11.0322H29.7539C29.7785 11.9336 29.7514 12.8393 29.7697 13.7783C30.2244 13.7783 30.6653 13.7795 31.1068 13.7795C31.5509 13.7795 31.9955 13.7795 32.4358 13.7795C32.4893 13.9533 32.5089 16.6692 32.4585 17.0845L32.4572 17.0851Z" fill="white"/>
<path d="M43.8379 11.0781C44.1427 11.0781 44.4274 11.0731 44.7121 11.0793C45.1171 11.0881 45.5215 11.0975 45.9258 11.1214C46.23 11.1389 46.5191 11.228 46.7868 11.3748C47.2561 11.6326 47.5011 12.0334 47.5376 12.5627C47.5433 12.6493 47.5414 12.7365 47.5414 12.8237C47.5414 16.801 47.5414 20.7783 47.5414 24.7557C47.5414 24.8498 47.5414 24.9445 47.5414 25.0348C47.3663 25.09 44.241 25.1088 43.8385 25.0586V11.0781H43.8379Z" fill="white"/>
<path d="M21.9635 15.7229C21.983 15.7072 21.9893 15.6984 21.9956 15.6984C22.6305 15.6984 23.266 15.6903 23.9003 15.7059C24.0609 15.7097 24.2291 15.7699 24.3777 15.8383C24.8444 16.0534 25.2079 16.3884 25.4655 16.8331C25.599 17.0633 25.6714 17.3092 25.6708 17.5782C25.6689 20.0069 25.6695 22.4356 25.6689 24.8649C25.6689 24.927 25.6613 24.9885 25.6569 25.0644H21.9629V15.7222L21.9635 15.7229Z" fill="white"/>
<path d="M48.4706 15.7009C48.5619 15.6972 48.64 15.6909 48.7175 15.6903C49.1943 15.6896 49.6705 15.6959 50.1473 15.6878C50.527 15.6815 50.8653 15.7925 51.1777 15.9995C51.4655 16.1902 51.708 16.4266 51.8982 16.7152C52.0809 16.9924 52.1772 17.2922 52.1766 17.6303C52.1716 20.027 52.1741 22.4231 52.1741 24.8197V25.0656H48.492C48.4435 24.8956 48.4221 16.2084 48.4712 15.7009H48.4706Z" fill="white"/>
<path d="M48.11 13.0664C48.1087 11.8464 49.0737 10.8886 50.3056 10.8867C51.5212 10.8842 52.4855 11.8408 52.4899 13.0526C52.495 14.2832 51.5382 15.2442 50.3088 15.2435C49.0787 15.2435 48.1106 14.2851 48.1094 13.0664H48.11Z" fill="white"/>
<path d="M21.3711 13.0614C21.3736 11.842 22.3429 10.8848 23.5749 10.8867C24.8031 10.888 25.758 11.8514 25.7523 13.0821C25.7466 14.3002 24.7893 15.2467 23.5667 15.2435C22.3348 15.2404 21.3692 14.2801 21.3711 13.0614Z" fill="white"/>
<path d="M21.0033 17.4597C20.9913 18.2895 20.7142 18.9606 20.1605 19.5132C18.7805 20.8913 17.3987 22.2668 16.0161 23.6424C14.9656 24.688 13.9125 25.7311 12.8606 26.7761C12.3385 27.2954 11.7099 27.5908 10.9736 27.6285C10.1655 27.6699 9.45254 27.4177 8.86678 26.857C8.33456 26.347 7.81746 25.8214 7.29532 25.3008C5.37366 23.3883 3.45389 21.474 1.53097 19.5634C1.07245 19.108 0.770751 18.5755 0.675015 17.9326C0.554714 17.1228 0.750596 16.3952 1.25384 15.7504C1.3458 15.6325 1.45161 15.5234 1.55806 15.4174C3.93887 13.0445 6.32158 10.6742 8.7005 8.29944C9.16281 7.83779 9.69314 7.51539 10.3463 7.41252C11.2696 7.26763 12.0784 7.51225 12.763 8.142C13.1132 8.46378 13.4445 8.80562 13.7821 9.14057C15.8952 11.2431 18.0065 13.3468 20.1208 15.4475C20.58 15.9041 20.8729 16.4429 20.9705 17.0827C20.9919 17.2232 20.9957 17.3656 21.0033 17.459V17.4597ZM10.801 26.8664C11.3937 26.8576 11.8932 26.6412 12.3133 26.2216C14.1361 24.4013 15.9632 22.5855 17.7885 20.7677C18.4007 20.158 19.0167 19.5521 19.6233 18.9368C20.0793 18.4745 20.2657 17.9138 20.1977 17.2683C20.1435 16.7571 19.9073 16.3432 19.5458 15.9838C17.1341 13.5864 14.7256 11.1866 12.3158 8.78743C12.2654 8.73725 12.2144 8.68645 12.1602 8.64066C11.7068 8.2593 11.1859 8.09433 10.5932 8.15329C10.0805 8.2041 9.65975 8.43116 9.29822 8.7912C7.16557 10.9182 5.03039 13.042 2.89585 15.1671C2.59226 15.4688 2.28175 15.7642 1.98824 16.0747C1.44909 16.6442 1.28785 17.3166 1.48751 18.0718C1.58703 18.4488 1.80685 18.7536 2.08272 19.0278C4.42133 21.3523 6.75743 23.6794 9.09415 26.0058C9.2006 26.1118 9.30515 26.2209 9.416 26.3226C9.80714 26.682 10.2739 26.8526 10.8023 26.8645L10.801 26.8664Z" fill="white"/>
<path d="M19.3213 17.4918C19.3289 17.7715 19.2035 17.9986 19.0026 18.1974C18.2934 18.8999 17.5867 19.6056 16.8794 20.3099C16.6716 20.5169 16.4574 20.7177 16.2578 20.9322C15.878 21.3399 15.2412 21.3217 14.8576 20.9322C13.9513 20.012 13.0285 19.1082 12.1153 18.1943C11.6807 17.7596 11.6769 17.2208 12.109 16.788C13.0273 15.8685 13.9481 14.9514 14.8727 14.0382C15.2897 13.6261 15.8307 13.6267 16.2483 14.0394C17.1786 14.9583 18.1026 15.8835 19.0291 16.8056C19.2174 16.9925 19.3257 17.2133 19.3213 17.4911V17.4918Z" fill="white"/>
<path d="M14.5633 22.05C14.5683 22.3285 14.4556 22.5543 14.2603 22.7475C13.849 23.1546 13.4403 23.5636 13.0302 23.9719C12.5251 24.475 12.0187 24.978 11.5142 25.4817C11.3592 25.636 11.1873 25.7558 10.9637 25.7884C10.6242 25.8379 10.3414 25.7376 10.0996 25.4948C9.43948 24.8325 8.775 24.1745 8.1124 23.5147C7.85983 23.2631 7.60474 23.0135 7.3547 22.7595C6.92325 22.3216 6.91947 21.7866 7.35155 21.3538C8.26419 20.4399 9.17999 19.5285 10.0977 18.6197C10.5335 18.1881 11.0702 18.1894 11.5079 18.6228C12.4256 19.5317 13.3389 20.4456 14.2553 21.3557C14.4499 21.5489 14.5658 21.7728 14.5633 22.05Z" fill="white"/>
<path d="M5.98933 21.2341C5.70527 21.2392 5.48608 21.1263 5.29839 20.9387C4.94505 20.5862 4.59044 20.2343 4.23647 19.8824C3.66394 19.3123 3.09015 18.7427 2.51888 18.1707C2.2512 17.9022 2.14413 17.5811 2.26821 17.2167C2.31733 17.0724 2.40614 16.9275 2.51384 16.819C3.44035 15.885 4.37252 14.9567 5.30847 14.0322C5.71472 13.6307 6.26016 13.6295 6.66641 14.0309C7.60236 14.9555 8.53453 15.8838 9.46355 16.8152C9.85532 17.2085 9.86162 17.7605 9.473 18.1519C8.5402 19.0909 7.59921 20.0217 6.66137 20.955C6.47305 21.1426 6.2482 21.2448 5.98996 21.2341H5.98933Z" fill="white"/>
<path d="M10.673 9.31899C11.2096 9.54918 11.5214 10.1099 11.4011 10.6218C11.3513 10.8344 11.2587 11.0395 11.1699 11.2409C11.0584 11.4936 10.9249 11.737 10.8115 11.9898C10.5016 12.6804 10.61 13.3133 11.0855 13.8934C11.3437 14.2083 11.6492 14.4718 11.9786 14.7076C12.1191 14.8086 12.2211 14.9328 12.2696 15.0996C12.3326 15.3179 12.2835 15.4409 12.0775 15.5462C11.5358 15.8247 10.9658 15.8523 10.387 15.7043C9.84723 15.5663 9.37548 15.2966 8.96986 14.9127C8.53212 14.4981 8.40552 13.9944 8.53401 13.418C8.65179 12.8899 8.91066 12.4251 9.2388 12.0067C9.62931 11.5093 10.0381 11.0238 10.4733 10.5641C10.77 10.2511 10.8657 9.92992 10.7183 9.53037C10.6975 9.47329 10.6919 9.40994 10.673 9.31836V9.31899Z" fill="white"/>
<path d="M11.377 12.5894C11.4317 12.2877 11.4708 11.9828 11.5451 11.6861C11.6276 11.3562 11.8575 11.3067 12.1006 11.55C12.1561 11.6058 12.2077 11.6667 12.2518 11.7325C12.5674 12.2055 12.7645 12.7267 12.8716 13.2825C12.9176 13.5233 12.8672 13.7554 12.7721 13.9756C12.6234 14.3199 12.3161 14.4071 12.0225 14.1694C11.8789 14.0533 11.7555 13.8978 11.6635 13.7366C11.4639 13.386 11.3996 12.9971 11.377 12.59V12.5894Z" fill="white"/>
<path d="M61.2145 25.5936C61.3241 25.5986 61.4091 25.694 61.3978 25.7987C61.3877 25.8947 61.3014 25.9725 61.2044 25.9725C61.0967 25.9725 61.0047 25.8815 61.0079 25.7768C61.011 25.6701 61.1036 25.588 61.2145 25.593V25.5936Z" fill="white"/>
<path d="M22.0547 25.6754H22.4112V26.8772C22.4112 26.9807 22.42 27.0541 22.4383 27.0968C22.4565 27.1394 22.4868 27.1739 22.5283 27.1996C22.5699 27.2253 22.6209 27.2379 22.6801 27.2379C22.7425 27.2379 22.7966 27.2235 22.842 27.1952C22.8873 27.1664 22.9182 27.13 22.9358 27.0861C22.9535 27.0416 22.9617 26.9575 22.9617 26.8327V25.6748H23.3182V26.7831C23.3182 26.9701 23.3074 27.0999 23.2867 27.172C23.2652 27.2448 23.2249 27.3144 23.1657 27.3815C23.1059 27.4486 23.0372 27.4988 22.9598 27.5314C22.8823 27.5641 22.7916 27.5804 22.6883 27.5804C22.5529 27.5804 22.4351 27.5496 22.335 27.4875C22.2348 27.4254 22.163 27.3483 22.1202 27.2548C22.0774 27.162 22.0553 27.0046 22.0553 26.7831V25.6748L22.0547 25.6754Z" fill="white"/>
<path d="M23.6914 26.1601H24.0378V26.3013C24.1166 26.2354 24.1877 26.1896 24.2513 26.1639C24.315 26.1382 24.3805 26.125 24.4472 26.125C24.5839 26.125 24.7004 26.1727 24.7955 26.268C24.8755 26.3489 24.9158 26.4687 24.9158 26.6268V27.535H24.5732V26.9329C24.5732 26.7685 24.5656 26.66 24.5511 26.6061C24.5367 26.5521 24.5108 26.5114 24.4737 26.4832C24.4371 26.4549 24.3918 26.4411 24.3376 26.4411C24.2677 26.4411 24.2072 26.4643 24.1575 26.5114C24.1077 26.5584 24.0725 26.6224 24.0529 26.7052C24.0429 26.7478 24.0378 26.8413 24.0378 26.9843V27.5357H23.6914V26.1614V26.1601Z" fill="white"/>
<path d="M26.3218 26.1598V26.3116C26.3841 26.2495 26.4522 26.2024 26.5246 26.1711C26.597 26.1397 26.6751 26.124 26.7583 26.124C26.9384 26.124 27.0915 26.1918 27.2174 26.3272C27.3434 26.4627 27.4064 26.6365 27.4064 26.8491C27.4064 27.0617 27.3409 27.2248 27.2111 27.3628C27.0814 27.5008 26.9264 27.5692 26.7482 27.5692C26.6688 27.5692 26.5945 27.5548 26.5265 27.5272C26.4578 27.4989 26.3898 27.4525 26.3224 27.3885V28.0365H25.9785V26.1591H26.3224L26.3218 26.1598ZM26.6858 26.4427C26.5769 26.4427 26.4862 26.4797 26.4144 26.5537C26.3426 26.6277 26.3067 26.7249 26.3067 26.8441C26.3067 26.9633 26.3426 27.0649 26.4144 27.1402C26.4862 27.2154 26.5769 27.2531 26.6858 27.2531C26.7948 27.2531 26.8805 27.2148 26.9529 27.1383C27.0253 27.0617 27.0612 26.9639 27.0612 26.8453C27.0612 26.7268 27.0259 26.6308 26.9548 26.5556C26.8836 26.4803 26.7942 26.4427 26.6858 26.4427Z" fill="white"/>
<path d="M28.7129 26.1598H29.0593V27.5341H28.7129V27.3885C28.6455 27.4525 28.5775 27.4989 28.5095 27.5272C28.4415 27.5554 28.3678 27.5692 28.2884 27.5692C28.1102 27.5692 27.9559 27.5002 27.8261 27.3628C27.6957 27.2248 27.6309 27.0542 27.6309 26.8491C27.6309 26.644 27.6938 26.4627 27.8198 26.3272C27.9458 26.1918 28.0988 26.124 28.2783 26.124C28.3608 26.124 28.439 26.1397 28.5114 26.1711C28.5838 26.2024 28.6512 26.2488 28.7129 26.3116V26.1598ZM28.3489 26.4427C28.2418 26.4427 28.153 26.4803 28.0818 26.5556C28.0113 26.6308 27.9754 26.7274 27.9754 26.8453C27.9754 26.9633 28.0113 27.0617 28.0837 27.1383C28.1555 27.2148 28.2443 27.2531 28.3501 27.2531C28.456 27.2531 28.5492 27.2154 28.621 27.1402C28.6928 27.0649 28.7287 26.9658 28.7287 26.8441C28.7287 26.7224 28.6928 26.6277 28.621 26.5537C28.5492 26.4797 28.4585 26.4427 28.3489 26.4427Z" fill="white"/>
<path d="M30.2544 26.3517L30.0402 26.565C29.9533 26.479 29.8739 26.4364 29.8028 26.4364C29.7637 26.4364 29.7335 26.4445 29.7114 26.4609C29.6894 26.4772 29.6787 26.4979 29.6787 26.5223C29.6787 26.5411 29.6856 26.5581 29.6995 26.5738C29.7133 26.5894 29.748 26.6108 29.8028 26.6377L29.9294 26.7011C30.0629 26.7669 30.1549 26.8341 30.2046 26.9018C30.2544 26.9702 30.2796 27.0498 30.2796 27.142C30.2796 27.2643 30.2348 27.366 30.1448 27.4475C30.0547 27.529 29.9338 27.5698 29.7826 27.5698C29.5811 27.5698 29.4205 27.4914 29.3008 27.3346L29.5137 27.1031C29.554 27.1502 29.6018 27.1884 29.6566 27.2173C29.7114 27.2462 29.7593 27.2612 29.8021 27.2612C29.8475 27.2612 29.8846 27.2505 29.9124 27.2286C29.9401 27.2066 29.9546 27.1815 29.9546 27.1527C29.9546 27.0994 29.9042 27.0479 29.8034 26.9971L29.6869 26.9388C29.4639 26.8265 29.3518 26.6867 29.3518 26.5179C29.3518 26.4094 29.394 26.3166 29.4778 26.2394C29.5622 26.1623 29.6692 26.124 29.8009 26.124C29.8903 26.124 29.9747 26.1435 30.0541 26.183C30.1328 26.2219 30.2002 26.2783 30.255 26.3517H30.2544Z" fill="white"/>
<path d="M31.1999 26.124C31.3303 26.124 31.4524 26.1566 31.5671 26.2212C31.6817 26.2859 31.7711 26.3743 31.8354 26.4853C31.8996 26.5963 31.9318 26.7168 31.9318 26.8453C31.9318 26.9739 31.8996 27.0962 31.8348 27.2091C31.7699 27.3221 31.6817 27.4105 31.5702 27.4738C31.4587 27.5372 31.3353 27.5692 31.2011 27.5692C31.0034 27.5692 30.8346 27.4989 30.6941 27.3591C30.5543 27.2186 30.4844 27.0486 30.4844 26.8479C30.4844 26.6333 30.5637 26.454 30.7218 26.3109C30.8604 26.1861 31.0197 26.124 31.1999 26.124ZM31.2055 26.4489C31.0978 26.4489 31.0084 26.4859 30.9366 26.5606C30.8648 26.6352 30.8289 26.7306 30.8289 26.8466C30.8289 26.9626 30.8642 27.063 30.9347 27.137C31.0053 27.211 31.0953 27.248 31.2037 27.248C31.312 27.248 31.4021 27.2104 31.4745 27.1358C31.5463 27.0605 31.5822 26.9645 31.5822 26.8466C31.5822 26.7287 31.5469 26.6327 31.4764 26.5593C31.4058 26.4859 31.3151 26.4489 31.2049 26.4489H31.2055Z" fill="white"/>
<path d="M33.961 26.1598H34.3074V27.5341H33.961V27.3885C33.8936 27.4525 33.8256 27.4989 33.7575 27.5272C33.6895 27.5554 33.6158 27.5692 33.5365 27.5692C33.3582 27.5692 33.2039 27.5002 33.0742 27.3628C32.9438 27.2248 32.8789 27.0542 32.8789 26.8491C32.8789 26.644 32.9419 26.4627 33.0679 26.3272C33.1938 26.1918 33.3469 26.124 33.5264 26.124C33.6089 26.124 33.687 26.1397 33.7594 26.1711C33.8319 26.2024 33.8993 26.2488 33.961 26.3116V26.1598ZM33.5969 26.4427C33.4899 26.4427 33.401 26.4803 33.3299 26.5556C33.2593 26.6308 33.2234 26.7274 33.2234 26.8453C33.2234 26.9633 33.2593 27.0617 33.3318 27.1383C33.4036 27.2148 33.4924 27.2531 33.5982 27.2531C33.704 27.2531 33.7972 27.2154 33.869 27.1402C33.9408 27.0649 33.9767 26.9658 33.9767 26.8441C33.9767 26.7224 33.9408 26.6277 33.869 26.5537C33.7972 26.4797 33.7065 26.4427 33.5969 26.4427Z" fill="white"/>
<path d="M35.6758 25.6299H36.0222V27.5348H35.6758V27.3893C35.6084 27.4533 35.5404 27.4997 35.4724 27.5279C35.4044 27.5561 35.3307 27.5699 35.2513 27.5699C35.0731 27.5699 34.9188 27.5009 34.789 27.3636C34.6586 27.2256 34.5938 27.055 34.5938 26.8499C34.5938 26.6448 34.6567 26.4635 34.7827 26.328C34.9087 26.1925 35.0617 26.1248 35.2412 26.1248C35.3237 26.1248 35.4018 26.1405 35.4743 26.1718C35.5467 26.2032 35.6141 26.2496 35.6758 26.3123V25.6299ZM35.3118 26.4434C35.2047 26.4434 35.1159 26.481 35.0447 26.5563C34.9742 26.6316 34.9383 26.7282 34.9383 26.8461C34.9383 26.964 34.9742 27.0625 35.0466 27.139C35.1184 27.2155 35.2072 27.2538 35.313 27.2538C35.4188 27.2538 35.5121 27.2162 35.5839 27.1409C35.6557 27.0656 35.6916 26.9665 35.6916 26.8448C35.6916 26.7232 35.6557 26.6285 35.5839 26.5544C35.5121 26.4804 35.4214 26.4434 35.3118 26.4434Z" fill="white"/>
<path d="M37.7547 26.9477H36.6417C36.6581 27.0455 36.7009 27.1233 36.7702 27.181C36.8395 27.2387 36.9289 27.2676 37.0373 27.2676C37.1664 27.2676 37.2779 27.2224 37.3711 27.1327L37.6627 27.2688C37.5896 27.3717 37.5027 27.4476 37.4013 27.4971C37.2999 27.5467 37.1796 27.5711 37.0398 27.5711C36.8231 27.5711 36.6468 27.5034 36.5107 27.3673C36.3747 27.2312 36.3066 27.0612 36.3066 26.8561C36.3066 26.651 36.3747 26.4722 36.5101 26.3336C36.6455 26.195 36.8162 26.126 37.0209 26.126C37.2382 26.126 37.4152 26.195 37.5512 26.3336C37.6873 26.4722 37.7553 26.6554 37.7553 26.8824L37.754 26.9483L37.7547 26.9477ZM37.4082 26.6761C37.3856 26.5995 37.3402 26.5368 37.2728 26.4891C37.2054 26.4415 37.1273 26.417 37.0385 26.417C36.9422 26.417 36.8571 26.444 36.7841 26.4979C36.7381 26.5318 36.6959 26.5908 36.6568 26.6761H37.4076H37.4082Z" fill="white"/>
<path d="M37.998 25.6299H38.3445V27.5348H37.998V25.6299Z" fill="white"/>
<path d="M39.6778 26.1598H40.0242V27.5341H39.6778V27.3885C39.6104 27.4525 39.5424 27.4989 39.4743 27.5272C39.4063 27.5554 39.3326 27.5692 39.2533 27.5692C39.075 27.5692 38.9207 27.5002 38.791 27.3628C38.6606 27.2248 38.5957 27.0542 38.5957 26.8491C38.5957 26.644 38.6587 26.4627 38.7847 26.3272C38.9106 26.1918 39.0637 26.124 39.2432 26.124C39.3257 26.124 39.4038 26.1397 39.4762 26.1711C39.5487 26.2024 39.6161 26.2488 39.6778 26.3116V26.1598ZM39.3137 26.4427C39.2067 26.4427 39.1178 26.4803 39.0467 26.5556C38.9761 26.6308 38.9402 26.7274 38.9402 26.8453C38.9402 26.9633 38.9761 27.0617 39.0486 27.1383C39.1204 27.2148 39.2092 27.2531 39.315 27.2531C39.4208 27.2531 39.514 27.2154 39.5858 27.1402C39.6576 27.0649 39.6935 26.9658 39.6935 26.8441C39.6935 26.7224 39.6576 26.6277 39.5858 26.5537C39.514 26.4797 39.4233 26.4427 39.3137 26.4427Z" fill="white"/>
<path d="M40.373 26.1601H40.7195V26.3013C40.7982 26.2354 40.8694 26.1896 40.933 26.1639C40.9966 26.1382 41.0621 26.125 41.1289 26.125C41.2655 26.125 41.3821 26.1727 41.4772 26.268C41.5572 26.3489 41.5975 26.4687 41.5975 26.6268V27.535H41.2548V26.9329C41.2548 26.7685 41.2473 26.66 41.2328 26.6061C41.2183 26.5521 41.1925 26.5114 41.1553 26.4832C41.1188 26.4549 41.0734 26.4411 41.0193 26.4411C40.9494 26.4411 40.8889 26.4643 40.8391 26.5114C40.7887 26.5578 40.7541 26.6224 40.7346 26.7052C40.7245 26.7478 40.7195 26.8413 40.7195 26.9843V27.5357H40.373V26.1614V26.1601Z" fill="white"/>
<path d="M41.9745 25.6533H42.3209V26.1601H42.5262V26.4568H42.3209V27.5344H41.9745V26.4568H41.7969V26.1601H41.9745V25.6533Z" fill="white"/>
<path d="M44.0945 26.9477H42.9816C42.9979 27.0455 43.0408 27.1233 43.11 27.181C43.18 27.2387 43.2688 27.2676 43.3771 27.2676C43.5062 27.2676 43.6177 27.2224 43.7109 27.1327L44.0025 27.2688C43.9295 27.3717 43.8426 27.4476 43.7412 27.4971C43.6397 27.5467 43.5194 27.5711 43.3796 27.5711C43.163 27.5711 42.9866 27.5034 42.8506 27.3673C42.7145 27.2312 42.6465 27.0612 42.6465 26.8561C42.6465 26.651 42.7145 26.4722 42.8499 26.3336C42.9853 26.195 43.156 26.126 43.3607 26.126C43.578 26.126 43.755 26.195 43.8911 26.3336C44.0271 26.4722 44.0951 26.6554 44.0951 26.8824L44.0939 26.9483L44.0945 26.9477ZM43.7481 26.6761C43.7254 26.5995 43.6801 26.5368 43.6127 26.4891C43.5453 26.4415 43.4672 26.417 43.3784 26.417C43.282 26.417 43.197 26.444 43.1239 26.4979C43.0779 26.5318 43.0357 26.5908 42.9967 26.6761H43.7475H43.7481Z" fill="white"/>
<path d="M46.4851 26.9477H45.3722C45.3886 27.0455 45.4314 27.1233 45.5007 27.181C45.57 27.2387 45.6594 27.2676 45.7677 27.2676C45.8968 27.2676 46.0083 27.2224 46.1015 27.1327L46.3932 27.2688C46.3201 27.3717 46.2332 27.4476 46.1318 27.4971C46.0304 27.5467 45.9101 27.5711 45.7702 27.5711C45.5536 27.5711 45.3772 27.5034 45.2412 27.3673C45.1051 27.2312 45.0371 27.0612 45.0371 26.8561C45.0371 26.651 45.1051 26.4722 45.2405 26.3336C45.376 26.195 45.5467 26.126 45.7514 26.126C45.9686 26.126 46.1456 26.195 46.2817 26.3336C46.4177 26.4722 46.4858 26.6554 46.4858 26.8824L46.4845 26.9483L46.4851 26.9477ZM46.1387 26.6761C46.116 26.5995 46.0707 26.5368 46.0033 26.4891C45.9359 26.4415 45.8578 26.417 45.769 26.417C45.6726 26.417 45.5876 26.444 45.5145 26.4979C45.4686 26.5318 45.4264 26.5908 45.3873 26.6761H46.1381H46.1387Z" fill="white"/>
<path d="M46.7656 26.1601H47.112V26.3013C47.1908 26.2354 47.2619 26.1896 47.3256 26.1639C47.3892 26.1382 47.4547 26.125 47.5214 26.125C47.6581 26.125 47.7746 26.1727 47.8697 26.268C47.9497 26.3489 47.99 26.4687 47.99 26.6268V27.535H47.6474V26.9329C47.6474 26.7685 47.6399 26.66 47.6254 26.6061C47.6109 26.5521 47.5851 26.5114 47.5479 26.4832C47.5114 26.4549 47.466 26.4411 47.4118 26.4411C47.3419 26.4411 47.2815 26.4643 47.2317 26.5114C47.1813 26.5578 47.1467 26.6224 47.1272 26.7052C47.1171 26.7478 47.112 26.8413 47.112 26.9843V27.5357H46.7656V26.1614V26.1601Z" fill="white"/>
<path d="M50.0704 25.6299H50.4168V27.5348H50.0704V27.3893C50.003 27.4533 49.9349 27.4997 49.8669 27.5279C49.7989 27.5561 49.7252 27.5699 49.6458 27.5699C49.4676 27.5699 49.3133 27.5009 49.1835 27.3636C49.0532 27.2256 48.9883 27.055 48.9883 26.8499C48.9883 26.6448 49.0513 26.4635 49.1772 26.328C49.3032 26.1925 49.4563 26.1248 49.6358 26.1248C49.7183 26.1248 49.7964 26.1405 49.8688 26.1718C49.9412 26.2032 50.0086 26.2496 50.0704 26.3123V25.6299ZM49.7063 26.4434C49.5992 26.4434 49.5104 26.481 49.4392 26.5563C49.3687 26.6316 49.3328 26.7282 49.3328 26.8461C49.3328 26.964 49.3687 27.0625 49.4411 27.139C49.5129 27.2155 49.6017 27.2538 49.7076 27.2538C49.8134 27.2538 49.9066 27.2162 49.9784 27.1409C50.0502 27.0656 50.0861 26.9665 50.0861 26.8448C50.0861 26.7232 50.0502 26.6285 49.9784 26.5544C49.9066 26.4804 49.8159 26.4434 49.7063 26.4434Z" fill="white"/>
<path d="M52.1492 26.9477H51.0362C51.0526 27.0455 51.0955 27.1233 51.1647 27.181C51.234 27.2387 51.3235 27.2676 51.4318 27.2676C51.5609 27.2676 51.6724 27.2224 51.7656 27.1327L52.0572 27.2688C51.9842 27.3717 51.8972 27.4476 51.7958 27.4971C51.6944 27.5467 51.5741 27.5711 51.4343 27.5711C51.2176 27.5711 51.0413 27.5034 50.9052 27.3673C50.7692 27.2312 50.7012 27.0612 50.7012 26.8561C50.7012 26.651 50.7692 26.4722 50.9046 26.3336C51.04 26.195 51.2107 26.126 51.4154 26.126C51.6327 26.126 51.8097 26.195 51.9457 26.3336C52.0818 26.4722 52.1498 26.6554 52.1498 26.8824L52.1486 26.9483L52.1492 26.9477ZM51.8028 26.6761C51.7801 26.5995 51.7347 26.5368 51.6674 26.4891C51.6 26.4415 51.5219 26.417 51.4331 26.417C51.3367 26.417 51.2517 26.444 51.1786 26.4979C51.1326 26.5318 51.0904 26.5908 51.0514 26.6761H51.8021H51.8028Z" fill="white"/>
<path d="M53.7797 26.4383L53.4913 26.5964C53.4371 26.54 53.3836 26.5011 53.3307 26.4791C53.2777 26.4572 53.2154 26.4465 53.1442 26.4465C53.0145 26.4465 52.9099 26.4848 52.8299 26.5619C52.7499 26.6391 52.7096 26.7375 52.7096 26.858C52.7096 26.9784 52.7481 27.0706 52.8249 27.1446C52.9017 27.2186 53.0031 27.2556 53.1285 27.2556C53.2834 27.2556 53.4044 27.2029 53.4906 27.0976L53.764 27.2839C53.616 27.4758 53.4069 27.5711 53.1373 27.5711C52.8948 27.5711 52.7046 27.4996 52.5673 27.3566C52.43 27.2136 52.3613 27.0455 52.3613 26.8536C52.3613 26.7206 52.3947 26.5977 52.4615 26.486C52.5282 26.3737 52.6215 26.2859 52.7411 26.2219C52.8608 26.158 52.995 26.126 53.143 26.126C53.2803 26.126 53.4031 26.1529 53.5121 26.2075C53.621 26.2621 53.7105 26.3392 53.7797 26.4396V26.4383Z" fill="white"/>
<path d="M54.7409 26.124C54.8713 26.124 54.9935 26.1566 55.1081 26.2212C55.2227 26.2859 55.3122 26.3743 55.3764 26.4853C55.4407 26.5963 55.4728 26.7168 55.4728 26.8453C55.4728 26.9739 55.4407 27.0962 55.3758 27.2091C55.3109 27.3221 55.2227 27.4105 55.1112 27.4738C54.9998 27.5372 54.8763 27.5692 54.7422 27.5692C54.5444 27.5692 54.3756 27.4989 54.2351 27.3591C54.0953 27.2186 54.0254 27.0486 54.0254 26.8479C54.0254 26.6333 54.1048 26.454 54.2628 26.3109C54.4014 26.1861 54.5608 26.124 54.7409 26.124ZM54.7466 26.4489C54.6389 26.4489 54.5494 26.4859 54.4776 26.5606C54.4058 26.6352 54.3699 26.7306 54.3699 26.8466C54.3699 26.9626 54.4052 27.063 54.4757 27.137C54.5463 27.211 54.6363 27.248 54.7447 27.248C54.853 27.248 54.9431 27.2104 55.0155 27.1358C55.0873 27.0605 55.1232 26.9645 55.1232 26.8466C55.1232 26.7287 55.0879 26.6327 55.0174 26.5593C54.9469 26.4859 54.8562 26.4489 54.7459 26.4489H54.7466Z" fill="white"/>
<path d="M55.6745 26.1598H55.9711V26.3329C56.0032 26.2645 56.0461 26.2131 56.099 26.1773C56.1525 26.1422 56.2105 26.124 56.2741 26.124C56.3188 26.124 56.366 26.1359 56.4152 26.1591L56.3075 26.4558C56.2671 26.4358 56.2338 26.4257 56.2073 26.4257C56.1538 26.4257 56.1091 26.4583 56.0719 26.5242C56.0354 26.5901 56.0165 26.7186 56.0165 26.9106L56.0177 26.9777V27.5334H55.6738V26.1591L55.6745 26.1598Z" fill="white"/>
<path d="M57.6055 26.1598H57.9519V27.5341H57.6055V27.3885C57.5381 27.4525 57.4701 27.4989 57.4021 27.5272C57.334 27.5554 57.2604 27.5692 57.181 27.5692C57.0027 27.5692 56.8484 27.5002 56.7187 27.3628C56.5883 27.2248 56.5234 27.0542 56.5234 26.8491C56.5234 26.644 56.5864 26.4627 56.7124 26.3272C56.8384 26.1918 56.9914 26.124 57.1709 26.124C57.2534 26.124 57.3315 26.1397 57.404 26.1711C57.4764 26.2024 57.5438 26.2488 57.6055 26.3116V26.1598ZM57.2415 26.4427C57.1344 26.4427 57.0456 26.4803 56.9744 26.5556C56.9039 26.6308 56.868 26.7274 56.868 26.8453C56.868 26.9633 56.9039 27.0617 56.9763 27.1383C57.0481 27.2148 57.1369 27.2531 57.2427 27.2531C57.3485 27.2531 57.4418 27.2154 57.5136 27.1402C57.5854 27.0649 57.6213 26.9658 57.6213 26.8441C57.6213 26.7224 57.5854 26.6277 57.5136 26.5537C57.4418 26.4797 57.3511 26.4427 57.2415 26.4427Z" fill="white"/>
<path d="M59.6528 26.4383L59.3643 26.5964C59.3102 26.54 59.2566 26.5011 59.2037 26.4791C59.1508 26.4572 59.0884 26.4465 59.0173 26.4465C58.8875 26.4465 58.783 26.4848 58.703 26.5619C58.623 26.6391 58.5827 26.7375 58.5827 26.858C58.5827 26.9784 58.6211 27.0706 58.6979 27.1446C58.7748 27.2186 58.8762 27.2556 59.0015 27.2556C59.1565 27.2556 59.2774 27.2029 59.3637 27.0976L59.637 27.2839C59.489 27.4758 59.2799 27.5711 59.0103 27.5711C58.7679 27.5711 58.5776 27.4996 58.4403 27.3566C58.303 27.2136 58.2344 27.0455 58.2344 26.8536C58.2344 26.7206 58.2678 26.5977 58.3345 26.486C58.4013 26.3737 58.4945 26.2859 58.6142 26.2219C58.7338 26.158 58.868 26.126 59.016 26.126C59.1533 26.126 59.2761 26.1529 59.3851 26.2075C59.4941 26.2621 59.5835 26.3392 59.6528 26.4396V26.4383Z" fill="white"/>
<path d="M60.1007 25.5938C60.1611 25.5938 60.2134 25.6157 60.2569 25.6596C60.3003 25.7035 60.3218 25.7562 60.3218 25.8189C60.3218 25.8817 60.3003 25.9331 60.2575 25.9764C60.2147 26.0196 60.163 26.0416 60.1032 26.0416C60.0434 26.0416 59.9892 26.0196 59.9457 25.9751C59.9023 25.9306 59.8809 25.8773 59.8809 25.8139C59.8809 25.7506 59.9023 25.7016 59.9451 25.6584C59.9879 25.6157 60.0402 25.5938 60.1007 25.5938ZM59.9275 26.1595H60.2739V27.5338H59.9275V26.1595Z" fill="white"/>
<path d="M61.237 26.124C61.3674 26.124 61.4896 26.1566 61.6042 26.2212C61.7188 26.2859 61.8083 26.3743 61.8725 26.4853C61.9367 26.5963 61.9689 26.7168 61.9689 26.8453C61.9689 26.9739 61.9367 27.0962 61.8719 27.2091C61.807 27.3221 61.7188 27.4105 61.6073 27.4738C61.4959 27.5372 61.3724 27.5692 61.2382 27.5692C61.0405 27.5692 60.8717 27.4989 60.7312 27.3591C60.5914 27.2186 60.5215 27.0486 60.5215 26.8479C60.5215 26.6333 60.6008 26.454 60.7589 26.3109C60.8975 26.1861 61.0569 26.124 61.237 26.124ZM61.2427 26.4489C61.135 26.4489 61.0455 26.4859 60.9737 26.5606C60.9019 26.6352 60.866 26.7306 60.866 26.8466C60.866 26.9626 60.9013 27.063 60.9718 27.137C61.0424 27.211 61.1324 27.248 61.2408 27.248C61.3491 27.248 61.4392 27.2104 61.5116 27.1358C61.5834 27.0605 61.6193 26.9645 61.6193 26.8466C61.6193 26.7287 61.584 26.6327 61.5135 26.5593C61.4429 26.4859 61.3522 26.4489 61.242 26.4489H61.2427Z" fill="white"/>
<path d="M62.252 26.1601H62.5984V26.3013C62.6771 26.2354 62.7483 26.1896 62.8119 26.1639C62.8755 26.1382 62.941 26.125 63.0078 26.125C63.1444 26.125 63.261 26.1727 63.3561 26.268C63.4361 26.3489 63.4764 26.4687 63.4764 26.6268V27.535H63.1337V26.9329C63.1337 26.7685 63.1262 26.66 63.1117 26.6061C63.0972 26.5521 63.0714 26.5114 63.0342 26.4832C62.9977 26.4549 62.9523 26.4411 62.8982 26.4411C62.8283 26.4411 62.7678 26.4643 62.718 26.5114C62.6677 26.5578 62.633 26.6224 62.6135 26.7052C62.6034 26.7478 62.5984 26.8413 62.5984 26.9843V27.5357H62.252V26.1614V26.1601Z" fill="white"/>
<path d="M31.7328 6.3083C31.7473 6.11322 31.9274 5.95453 32.1189 5.96645C32.3255 5.97962 32.4861 6.16717 32.4647 6.37039C32.4439 6.56672 32.2676 6.71224 32.0691 6.69656C31.8733 6.68088 31.7183 6.50211 31.7334 6.30892L31.7328 6.3083Z" fill="white"/>
<path d="M24.5479 7.81789L23.913 8.16538C23.7939 8.04119 23.6755 7.95526 23.559 7.90696C23.4425 7.85866 23.3058 7.83483 23.1496 7.83483C22.8643 7.83483 22.6338 7.91951 22.4574 8.08886C22.281 8.25822 22.1929 8.47524 22.1929 8.73994C22.1929 9.00463 22.2779 9.20723 22.4473 9.37031C22.6168 9.5334 22.8397 9.61494 23.1156 9.61494C23.457 9.61494 23.7228 9.4989 23.9123 9.26745L24.5138 9.67766C24.1882 10.0998 23.7278 10.3105 23.1339 10.3105C22.5991 10.3105 22.1809 10.1531 21.8779 9.83761C21.575 9.52211 21.4238 9.15329 21.4238 8.73053C21.4238 8.43761 21.4975 8.16789 21.6443 7.92076C21.791 7.67426 21.9964 7.48044 22.2603 7.33931C22.5235 7.19818 22.8183 7.12793 23.1446 7.12793C23.4463 7.12793 23.7171 7.18752 23.9577 7.30732C24.1977 7.42712 24.3942 7.59711 24.5472 7.81789H24.5479Z" fill="white"/>
<path d="M28.1831 8.93842H25.7336C25.7689 9.15357 25.8634 9.3248 26.0171 9.45151C26.1708 9.57884 26.3666 9.64219 26.6053 9.64219C26.89 9.64219 27.135 9.54308 27.3397 9.34425L27.9822 9.6447C27.8222 9.87113 27.6301 10.0386 27.4065 10.1471C27.1829 10.2556 26.9178 10.3096 26.6104 10.3096C26.1336 10.3096 25.7456 10.1597 25.4458 9.86047C25.146 9.56127 24.9961 9.18618 24.9961 8.7352C24.9961 8.28421 25.1454 7.8903 25.4445 7.58484C25.7437 7.28 26.1178 7.12695 26.5688 7.12695C27.0475 7.12695 27.4367 7.27937 27.7365 7.58484C28.0364 7.88968 28.1863 8.29299 28.1863 8.79353L28.1837 8.93842H28.1831ZM27.4204 8.34004C27.37 8.17131 27.2705 8.03394 27.1225 7.92857C26.9744 7.82319 26.8019 7.76987 26.606 7.76987C26.3931 7.76987 26.2067 7.82946 26.0467 7.94801C25.9459 8.02203 25.8527 8.15312 25.767 8.34004H27.4204Z" fill="white"/>
<path d="M28.5234 7.20571H29.1772V7.58707C29.2478 7.43716 29.3422 7.323 29.4594 7.2446C29.5765 7.16682 29.705 7.12793 29.8449 7.12793C29.9437 7.12793 30.047 7.15365 30.1547 7.20571L29.9173 7.85929C29.8278 7.81476 29.7542 7.7928 29.6968 7.7928C29.5797 7.7928 29.4802 7.86494 29.3996 8.00983C29.3189 8.15472 29.278 8.43823 29.278 8.86099L29.2805 9.0084V10.2321H28.5234V7.20571Z" fill="white"/>
<path d="M32.6776 7.20571H33.4404V10.2321H32.6776V9.91225C32.529 10.0534 32.3797 10.155 32.2298 10.2171C32.0799 10.2792 31.918 10.3105 31.7429 10.3105C31.3505 10.3105 31.0111 10.1588 30.7245 9.8558C30.4379 9.55284 30.2949 9.17587 30.2949 8.72488C30.2949 8.2739 30.4335 7.87435 30.7106 7.57578C30.9877 7.27721 31.3247 7.12793 31.7209 7.12793C31.9029 7.12793 32.0742 7.16243 32.2342 7.2308C32.3942 7.29917 32.5422 7.40266 32.6776 7.5394V7.20571ZM31.8758 7.82856C31.6403 7.82856 31.4444 7.91135 31.2882 8.07757C31.132 8.24379 31.0545 8.45642 31.0545 8.7161C31.0545 8.97578 31.1339 9.1928 31.2926 9.36153C31.4513 9.53026 31.6466 9.61494 31.8784 9.61494C32.1101 9.61494 32.3161 9.53214 32.4742 9.36592C32.6316 9.1997 32.711 8.98268 32.711 8.71359C32.711 8.44451 32.6323 8.23689 32.4742 8.07381C32.3167 7.91073 32.1171 7.82918 31.8758 7.82918V7.82856Z" fill="white"/>
<path d="M34.1081 7.20536H34.8708V7.55285C35.0012 7.40984 35.146 7.30321 35.3054 7.23296C35.4647 7.16271 35.6386 7.12695 35.8269 7.12695C36.0152 7.12695 36.1884 7.17337 36.3415 7.2662C36.4945 7.35903 36.6174 7.49452 36.7106 7.67265C36.8315 7.49452 36.9801 7.35903 37.1565 7.2662C37.3329 7.17337 37.525 7.12695 37.7341 7.12695C37.9432 7.12695 38.1403 7.17713 38.3041 7.27686C38.4678 7.37722 38.5856 7.50769 38.6574 7.66889C38.7292 7.83009 38.7651 8.0929 38.7651 8.45608V10.2305H37.9967V8.69505C37.9967 8.35195 37.9539 8.11987 37.8682 7.99819C37.7826 7.87651 37.6541 7.81629 37.4828 7.81629C37.3524 7.81629 37.2359 7.8533 37.1319 7.92731C37.0286 8.00133 36.9518 8.10419 36.9014 8.23466C36.851 8.36512 36.8258 8.57525 36.8258 8.86504V10.2312H36.0574V8.7653C36.0574 8.49434 36.0373 8.29864 35.997 8.17695C35.9566 8.05527 35.8968 7.96495 35.8162 7.90599C35.7362 7.8464 35.6386 7.81692 35.5252 7.81692C35.398 7.81692 35.2827 7.85455 35.1794 7.92982C35.0755 8.00509 34.998 8.11047 34.947 8.24532C34.8954 8.38081 34.8702 8.59407 34.8702 8.88511V10.2312H34.1074V7.20473L34.1081 7.20536Z" fill="white"/>
<path d="M39.692 5.95898C39.8255 5.95898 39.9402 6.00728 40.0359 6.10388C40.1316 6.20047 40.1795 6.31714 40.1795 6.4545C40.1795 6.59187 40.1323 6.7054 40.0378 6.80074C39.9433 6.89608 39.83 6.94375 39.6977 6.94375C39.5654 6.94375 39.4464 6.89483 39.3506 6.7976C39.2549 6.70038 39.207 6.58183 39.207 6.44321C39.207 6.30459 39.2543 6.19545 39.3487 6.10074C39.4432 6.00603 39.5579 5.95898 39.6914 5.95898H39.692ZM39.311 7.20531H40.0737V10.2317H39.311V7.20531Z" fill="white"/>
<path d="M43.6443 7.81789L43.0094 8.16538C42.8903 8.04119 42.7719 7.95526 42.6554 7.90696C42.5389 7.85866 42.4022 7.83483 42.246 7.83483C41.9607 7.83483 41.7302 7.91951 41.5538 8.08886C41.3774 8.25822 41.2893 8.47524 41.2893 8.73994C41.2893 9.00463 41.3743 9.20723 41.5437 9.37031C41.7131 9.5334 41.9361 9.61494 42.212 9.61494C42.5534 9.61494 42.8192 9.4989 43.0094 9.26745L43.6109 9.67766C43.2852 10.0998 42.8248 10.3105 42.2309 10.3105C41.6961 10.3105 41.2779 10.1531 40.9756 9.83761C40.6733 9.52211 40.5215 9.15329 40.5215 8.73053C40.5215 8.43761 40.5952 8.16789 40.7419 7.92076C40.8887 7.67426 41.094 7.48044 41.3579 7.33931C41.6212 7.19818 41.916 7.12793 42.2422 7.12793C42.5439 7.12793 42.8147 7.18752 43.0553 7.30732C43.296 7.42712 43.4918 7.59711 43.6449 7.81789H43.6443Z" fill="white"/>
<path d="M46.4765 7.20571H47.2392V10.2321H46.4765V9.91225C46.3278 10.0534 46.1785 10.155 46.0286 10.2171C45.8787 10.2792 45.7169 10.3105 45.5418 10.3105C45.1494 10.3105 44.8099 10.1588 44.5233 9.8558C44.2367 9.55284 44.0938 9.17587 44.0938 8.72488C44.0938 8.2739 44.2323 7.87435 44.5094 7.57578C44.7866 7.27721 45.1235 7.12793 45.5197 7.12793C45.7017 7.12793 45.8731 7.16243 46.033 7.2308C46.193 7.29917 46.341 7.40266 46.4765 7.5394V7.20571ZM45.6747 7.82856C45.4391 7.82856 45.2432 7.91135 45.087 8.07757C44.9308 8.24379 44.8533 8.45642 44.8533 8.7161C44.8533 8.97578 44.9327 9.1928 45.0914 9.36153C45.2501 9.53026 45.4454 9.61494 45.6772 9.61494C45.909 9.61494 46.1149 9.53214 46.273 9.36592C46.4305 9.1997 46.5098 8.98268 46.5098 8.71359C46.5098 8.44451 46.4311 8.23689 46.273 8.07381C46.1156 7.91073 45.9159 7.82918 45.6747 7.82918V7.82856Z" fill="white"/>
<path d="M63.5841 13.6423C63.1696 13.6423 62.844 13.3168 62.8497 12.9072C62.8554 12.5102 63.1829 12.1872 63.5803 12.1865C63.9872 12.1859 64.3216 12.5227 64.316 12.9273C64.3103 13.3262 63.9872 13.6417 63.5841 13.6423ZM64.1982 12.9216C64.2001 12.5767 63.9311 12.3044 63.586 12.3026C63.2414 12.3007 62.9656 12.5717 62.9631 12.9135C62.9605 13.2522 63.2389 13.5345 63.5772 13.5363C63.9173 13.5389 64.1957 13.2629 64.1976 12.9216H64.1982Z" fill="white"/>
<path d="M63.3262 12.5762H63.5227C63.6304 12.5762 63.7066 12.5831 63.7526 12.5969C63.7986 12.6107 63.8351 12.6339 63.8628 12.6659C63.8905 12.6979 63.9044 12.7361 63.9044 12.78C63.9044 12.8264 63.8893 12.8647 63.8584 12.8961C63.8275 12.9274 63.7815 12.9506 63.7198 12.9669L63.9504 13.2799H63.7475L63.5284 12.982H63.5113V13.2799H63.3262V12.5762ZM63.5113 12.8515H63.5693C63.6285 12.8515 63.6688 12.8459 63.6909 12.8346C63.7129 12.8233 63.7242 12.8051 63.7242 12.7788C63.7242 12.7631 63.7186 12.7499 63.7079 12.7386C63.6972 12.7273 63.682 12.7192 63.6638 12.7142C63.6455 12.7091 63.6115 12.7066 63.5624 12.7066H63.5113V12.8509V12.8515Z" fill="white"/>
</svg>
