<svg width="40" height="16" viewBox="0 0 40 16" fill="none" xmlns="http://www.w3.org/2000/svg">
<path d="M13.7739 7.09866C13.7739 7.11866 13.7839 7.14866 13.7839 7.16866C13.7839 8.38866 13.7839 9.25866 13.7839 10.1287C13.7839 10.9587 14.0739 11.7687 13.9739 12.6087C13.9439 12.8587 13.9339 13.0087 13.6339 12.9687C13.0239 12.8887 12.3839 13.1287 11.7939 12.7987C11.6739 12.7287 11.4939 12.7887 11.3439 12.7887C9.42395 12.7887 7.51395 12.7787 5.59395 12.7987C5.22395 12.8087 4.85395 12.9387 4.48395 12.9587C4.13395 12.9887 3.76395 12.9387 3.39395 12.9687C3.04395 12.9987 2.97395 12.8687 3.01395 12.5587C3.07395 11.9487 2.89395 11.3187 3.19395 10.7187C3.26395 10.5687 3.20395 10.3587 3.20395 10.1787C3.20395 8.62866 3.22395 7.07866 3.19395 5.52866C3.15395 4.57866 3.06395 3.62866 3.00395 2.68866C2.99395 2.56866 3.01395 2.44866 3.00395 2.32866C2.98395 2.10866 3.03395 1.97866 3.29395 2.00866C3.93395 2.08866 4.61395 1.84866 5.22395 2.18866C5.32395 2.23866 5.46395 2.19866 5.58395 2.19866C7.53395 2.19866 9.47395 2.20866 11.4239 2.18866C11.7639 2.18866 12.0939 2.04866 12.4439 2.02866C12.8039 1.99866 13.1739 2.01866 13.5339 2.01866C13.9539 2.02866 13.9639 2.02866 13.9639 2.46866C13.9339 4.11866 13.6339 5.76866 13.7739 7.09866ZM12.6839 7.54866C12.6839 6.57866 12.6939 5.59866 12.6739 4.63866C12.6639 4.29866 12.5739 3.95866 12.4939 3.61866C12.4839 3.55866 12.3739 3.47866 12.3139 3.47866C11.9539 3.48866 11.6639 3.26866 11.2939 3.26866C9.41395 3.30866 7.53395 3.28866 5.64395 3.28866C5.46395 3.28866 5.14395 3.23866 5.12395 3.29866C5.00395 3.64866 4.54395 3.27866 4.46395 3.62866C4.40395 3.90866 4.29395 4.18866 4.29395 4.46866C4.28395 6.47866 4.27395 8.47866 4.29395 10.4887C4.30395 10.8187 4.35395 11.2287 4.55395 11.4587C4.72395 11.6487 5.13395 11.6287 5.44395 11.6887C5.56395 11.7087 5.68395 11.6987 5.80395 11.6987C7.59395 11.6987 9.38395 11.6987 11.1839 11.6987C12.4039 11.6987 12.6939 11.4287 12.6939 10.1987C12.6839 9.30866 12.6839 8.42866 12.6839 7.54866ZM8.48395 2.55866C7.54395 2.55866 6.60395 2.55866 5.65395 2.55866C5.53395 2.55866 5.40395 2.54866 5.29395 2.56866C5.26395 2.56866 5.19395 2.65866 5.20395 2.69866C5.21395 2.77866 5.25395 2.89866 5.30395 2.90866C5.41395 2.93866 5.54395 2.91866 5.66395 2.91866C6.90395 2.91866 8.15395 2.91866 9.39395 2.91866C10.1239 2.91866 10.8539 2.92866 11.5839 2.90866C11.6439 2.90866 11.7039 2.81866 11.7739 2.76866C11.7139 2.68866 11.6439 2.55866 11.5839 2.55866C10.5439 2.54866 9.51395 2.55866 8.48395 2.55866ZM3.91395 7.47866C3.91395 6.53866 3.91395 5.59866 3.91395 4.64866C3.91395 4.52866 3.92395 4.39866 3.90395 4.28866C3.90395 4.25866 3.81395 4.19866 3.77395 4.20866C3.69395 4.21866 3.57395 4.25866 3.56395 4.30866C3.53395 4.41866 3.55395 4.54866 3.55395 4.66866C3.55395 5.90866 3.55395 7.15866 3.55395 8.39866C3.55395 9.12866 3.54395 9.85866 3.56395 10.5887C3.56395 10.6487 3.65395 10.7087 3.70395 10.7787C3.78395 10.7187 3.91395 10.6487 3.91395 10.5887C3.92395 9.54866 3.91395 8.50866 3.91395 7.47866ZM13.4139 7.58866C13.4139 6.51866 13.4239 5.46866 13.4039 4.39866C13.4039 4.32866 13.2639 4.26866 13.1939 4.19866C13.1439 4.25866 13.0539 4.31866 13.0539 4.38866C13.0439 5.02866 13.0439 5.66866 13.0439 6.29866C13.0439 7.72866 13.0439 9.14866 13.0539 10.5787C13.0539 10.6487 13.1939 10.7087 13.2639 10.7787C13.3139 10.7187 13.4039 10.6587 13.4039 10.5887C13.4139 9.58866 13.4139 8.58866 13.4139 7.58866ZM8.43395 12.4187C9.40395 12.4187 10.3839 12.4187 11.3439 12.4187C11.4639 12.4187 11.5839 12.4087 11.6939 12.3887C11.7239 12.3787 11.7539 12.2887 11.7539 12.2387C11.7539 12.1787 11.7239 12.0987 11.6939 12.0887C11.5539 12.0687 11.3939 12.0587 11.2539 12.0587C9.40395 12.0587 7.54395 12.0587 5.70395 12.0587C5.55395 12.0587 5.40395 12.0687 5.26395 12.0887C5.23395 12.0987 5.20395 12.1887 5.20395 12.2387C5.20395 12.2887 5.23395 12.3787 5.26395 12.3887C5.38395 12.4187 5.49395 12.4187 5.61395 12.4187C6.55395 12.4187 7.49395 12.4187 8.43395 12.4187ZM3.37395 3.05866C3.37395 3.20866 3.38395 3.35866 3.37395 3.50866C3.36395 3.70866 3.37395 3.86866 3.64395 3.82866C3.86395 3.79866 4.16395 3.91866 4.09395 3.49866C4.05395 3.21866 4.09395 3.00866 4.46395 3.08866C4.71395 3.13866 4.83395 3.05866 4.83395 2.76866C4.83395 2.47866 4.81395 2.31866 4.45395 2.36866C4.19395 2.39866 3.90395 2.37866 3.64395 2.37866C3.46395 2.35866 3.35395 2.39866 3.36395 2.60866C3.37395 2.75866 3.37395 2.90866 3.37395 3.05866ZM12.9039 2.37866C12.7539 2.37866 12.6039 2.38866 12.4539 2.37866C12.2539 2.36866 12.0939 2.38866 12.1339 2.65866C12.1639 2.87866 12.0439 3.17866 12.4639 3.10866C12.7439 3.06866 12.9539 3.10866 12.8739 3.47866C12.8139 3.72866 12.9039 3.84866 13.1939 3.84866C13.4939 3.84866 13.6539 3.81866 13.6039 3.46866C13.5639 3.19866 13.5939 2.92866 13.5939 2.65866C13.6039 2.47866 13.5639 2.36866 13.3539 2.38866C13.2139 2.37866 13.0539 2.37866 12.9039 2.37866ZM4.05395 12.6087C4.20395 12.6087 4.35395 12.5987 4.50395 12.6087C4.69395 12.6187 4.86395 12.6187 4.83395 12.3387C4.80395 12.1287 4.93395 11.7987 4.51395 11.8887C4.10395 11.9687 4.06395 11.7387 4.10395 11.4287C4.14395 11.1587 3.98395 11.1587 3.78395 11.1587C3.38395 11.1587 3.38395 11.1487 3.37395 11.5287C3.36395 11.7987 3.38395 12.0687 3.37395 12.3487C3.36395 12.5187 3.39395 12.6487 3.60395 12.6287C3.75395 12.5987 3.90395 12.6087 4.05395 12.6087ZM12.8139 12.6087C13.5939 12.6087 13.5939 12.6087 13.5939 11.7987C13.5939 11.6487 13.6039 11.4987 13.5939 11.3487C13.5939 11.2987 13.5639 11.1987 13.5439 11.1987C13.3739 11.1687 13.1839 11.1487 13.0239 11.1687C12.9639 11.1787 12.8839 11.3287 12.8839 11.4187C12.8939 11.7187 12.8939 11.9687 12.4739 11.8887C12.0639 11.8087 12.1739 12.1187 12.1439 12.3387C12.1139 12.6087 12.2639 12.6287 12.4639 12.6187C12.5739 12.5987 12.7039 12.6087 12.8139 12.6087Z" fill="black"/>
<path d="M5.08388 4.77881H4.72388V3.77881H5.72388V4.13881H5.08388V4.77881Z" fill="black"/>
<path d="M5.72388 11.0789H4.72388V10.0789H5.08388V10.7089H5.72388V11.0789Z" fill="black"/>
<path d="M12.0239 4.77881H11.6639V4.13881H11.0239V3.77881H12.0239V4.77881Z" fill="black"/>
<path d="M12.0239 11.0789H11.0239V10.7089H11.6639V10.0789H12.0239V11.0789Z" fill="black"/>
<path d="M36.7739 7.09866C36.7739 7.11866 36.7839 7.14866 36.7839 7.16866C36.7839 8.38866 36.7839 9.25866 36.7839 10.1287C36.7839 10.9587 37.0739 11.7687 36.9739 12.6087C36.9439 12.8587 36.9339 13.0087 36.6339 12.9687C36.0239 12.8887 35.3839 13.1287 34.7939 12.7987C34.6739 12.7287 34.4939 12.7887 34.3439 12.7887C32.4239 12.7887 30.5139 12.7787 28.5939 12.7987C28.2239 12.8087 27.8539 12.9387 27.4839 12.9587C27.1339 12.9887 26.7639 12.9387 26.3939 12.9687C26.0439 12.9987 25.9739 12.8687 26.0139 12.5587C26.0739 11.9487 25.8939 11.3187 26.1939 10.7187C26.2639 10.5687 26.2039 10.3587 26.2039 10.1787C26.2039 8.62866 26.2239 7.07866 26.1939 5.52866C26.1539 4.57866 26.0639 3.62866 26.0039 2.68866C25.9939 2.56866 26.0139 2.44866 26.0039 2.32866C25.9839 2.10866 26.0339 1.97866 26.2939 2.00866C26.9339 2.08866 27.6139 1.84866 28.2239 2.18866C28.3239 2.23866 28.4639 2.19866 28.5839 2.19866C30.5339 2.19866 32.4739 2.20866 34.4239 2.18866C34.7639 2.18866 35.0939 2.04866 35.4439 2.02866C35.8039 1.99866 36.1739 2.01866 36.5339 2.01866C36.9539 2.02866 36.9639 2.02866 36.9639 2.46866C36.9339 4.11866 36.6339 5.76866 36.7739 7.09866ZM35.6839 7.54866C35.6839 6.57866 35.6939 5.59866 35.6739 4.63866C35.6639 4.29866 35.5739 3.95866 35.4939 3.61866C35.4839 3.55866 35.3739 3.47866 35.3139 3.47866C34.9539 3.48866 34.6639 3.26866 34.2939 3.26866C32.4139 3.30866 30.5339 3.28866 28.6439 3.28866C28.4639 3.28866 28.1439 3.23866 28.1239 3.29866C28.0039 3.64866 27.5439 3.27866 27.4639 3.62866C27.4039 3.90866 27.2939 4.18866 27.2939 4.46866C27.2839 6.47866 27.2739 8.47866 27.2939 10.4887C27.3039 10.8187 27.3539 11.2287 27.5539 11.4587C27.7239 11.6487 28.1339 11.6287 28.4439 11.6887C28.5639 11.7087 28.6839 11.6987 28.8039 11.6987C30.5939 11.6987 32.3839 11.6987 34.1839 11.6987C35.4039 11.6987 35.6939 11.4287 35.6939 10.1987C35.6839 9.30866 35.6839 8.42866 35.6839 7.54866ZM31.4839 2.55866C30.5439 2.55866 29.6039 2.55866 28.6539 2.55866C28.5339 2.55866 28.4039 2.54866 28.2939 2.56866C28.2639 2.56866 28.1939 2.65866 28.2039 2.69866C28.2139 2.77866 28.2539 2.89866 28.3039 2.90866C28.4139 2.93866 28.5439 2.91866 28.6639 2.91866C29.9039 2.91866 31.1539 2.91866 32.3939 2.91866C33.1239 2.91866 33.8539 2.92866 34.5839 2.90866C34.6439 2.90866 34.7039 2.81866 34.7739 2.76866C34.7139 2.68866 34.6439 2.55866 34.5839 2.55866C33.5439 2.54866 32.5139 2.55866 31.4839 2.55866ZM26.9139 7.47866C26.9139 6.53866 26.9139 5.59866 26.9139 4.64866C26.9139 4.52866 26.9239 4.39866 26.9039 4.28866C26.9039 4.25866 26.8139 4.19866 26.7739 4.20866C26.6939 4.21866 26.5739 4.25866 26.5639 4.30866C26.5339 4.41866 26.5539 4.54866 26.5539 4.66866C26.5539 5.90866 26.5539 7.15866 26.5539 8.39866C26.5539 9.12866 26.5439 9.85866 26.5639 10.5887C26.5639 10.6487 26.6539 10.7087 26.7039 10.7787C26.7839 10.7187 26.9139 10.6487 26.9139 10.5887C26.9239 9.54866 26.9139 8.50866 26.9139 7.47866ZM36.4139 7.58866C36.4139 6.51866 36.4239 5.46866 36.4039 4.39866C36.4039 4.32866 36.2639 4.26866 36.1939 4.19866C36.1439 4.25866 36.0539 4.31866 36.0539 4.38866C36.0439 5.02866 36.0439 5.66866 36.0439 6.29866C36.0439 7.72866 36.0439 9.14866 36.0539 10.5787C36.0539 10.6487 36.1939 10.7087 36.2639 10.7787C36.3139 10.7187 36.4039 10.6587 36.4039 10.5887C36.4139 9.58866 36.4139 8.58866 36.4139 7.58866ZM31.4339 12.4187C32.4039 12.4187 33.3839 12.4187 34.3439 12.4187C34.4639 12.4187 34.5839 12.4087 34.6939 12.3887C34.7239 12.3787 34.7539 12.2887 34.7539 12.2387C34.7539 12.1787 34.7239 12.0987 34.6939 12.0887C34.5539 12.0687 34.3939 12.0587 34.2539 12.0587C32.4039 12.0587 30.5439 12.0587 28.7039 12.0587C28.5539 12.0587 28.4039 12.0687 28.2639 12.0887C28.2339 12.0987 28.2039 12.1887 28.2039 12.2387C28.2039 12.2887 28.2339 12.3787 28.2639 12.3887C28.3839 12.4187 28.4939 12.4187 28.6139 12.4187C29.5539 12.4187 30.4939 12.4187 31.4339 12.4187ZM26.3739 3.05866C26.3739 3.20866 26.3839 3.35866 26.3739 3.50866C26.3639 3.70866 26.3739 3.86866 26.6439 3.82866C26.8639 3.79866 27.1639 3.91866 27.0939 3.49866C27.0539 3.21866 27.0939 3.00866 27.4639 3.08866C27.7139 3.13866 27.8339 3.05866 27.8339 2.76866C27.8339 2.47866 27.8139 2.31866 27.4539 2.36866C27.1939 2.39866 26.9039 2.37866 26.6439 2.37866C26.4639 2.35866 26.3539 2.39866 26.3639 2.60866C26.3739 2.75866 26.3739 2.90866 26.3739 3.05866ZM35.9039 2.37866C35.7539 2.37866 35.6039 2.38866 35.4539 2.37866C35.2539 2.36866 35.0939 2.38866 35.1339 2.65866C35.1639 2.87866 35.0439 3.17866 35.4639 3.10866C35.7439 3.06866 35.9539 3.10866 35.8739 3.47866C35.8139 3.72866 35.9039 3.84866 36.1939 3.84866C36.4939 3.84866 36.6539 3.81866 36.6039 3.46866C36.5639 3.19866 36.5939 2.92866 36.5939 2.65866C36.6039 2.47866 36.5639 2.36866 36.3539 2.38866C36.2139 2.37866 36.0539 2.37866 35.9039 2.37866ZM27.0539 12.6087C27.2039 12.6087 27.3539 12.5987 27.5039 12.6087C27.6939 12.6187 27.8639 12.6187 27.8339 12.3387C27.8039 12.1287 27.9339 11.7987 27.5139 11.8887C27.1039 11.9687 27.0639 11.7387 27.1039 11.4287C27.1439 11.1587 26.9839 11.1587 26.7839 11.1587C26.3839 11.1587 26.3839 11.1487 26.3739 11.5287C26.3639 11.7987 26.3839 12.0687 26.3739 12.3487C26.3639 12.5187 26.3939 12.6487 26.6039 12.6287C26.7539 12.5987 26.9039 12.6087 27.0539 12.6087ZM35.8139 12.6087C36.5939 12.6087 36.5939 12.6087 36.5939 11.7987C36.5939 11.6487 36.6039 11.4987 36.5939 11.3487C36.5939 11.2987 36.5639 11.1987 36.5439 11.1987C36.3739 11.1687 36.1839 11.1487 36.0239 11.1687C35.9639 11.1787 35.8839 11.3287 35.8839 11.4187C35.8939 11.7187 35.8939 11.9687 35.4739 11.8887C35.0639 11.8087 35.1739 12.1187 35.1439 12.3387C35.1139 12.6087 35.2639 12.6287 35.4639 12.6187C35.5739 12.5987 35.7039 12.6087 35.8139 12.6087Z" fill="white"/>
<path d="M28.0839 4.77881H27.7239V3.77881H28.7239V4.13881H28.0839V4.77881Z" fill="white"/>
<path d="M28.7239 11.0789H27.7239V10.0789H28.0839V10.7089H28.7239V11.0789Z" fill="white"/>
<path d="M35.0239 4.77881H34.6639V4.13881H34.0239V3.77881H35.0239V4.77881Z" fill="white"/>
<path d="M35.0239 11.0789H34.0239V10.7089H34.6639V10.0789H35.0239V11.0789Z" fill="white"/>
</svg>
