<?xml version="1.0" encoding="utf-8"?>
<!-- Generator: Adobe Illustrator 24.1.1, SVG Export Plug-In . SVG Version: 6.00 Build 0)  -->
<svg version="1.1" id="Capa_1" xmlns="http://www.w3.org/2000/svg" xmlns:xlink="http://www.w3.org/1999/xlink" x="0px" y="0px"
	 viewBox="0 0 1656 145" style="enable-background:new 0 0 1656 145;" xml:space="preserve">
<style type="text/css">
	.st0{fill:#FFFFFF;}
	.st1{fill-rule:evenodd;clip-rule:evenodd;fill:#FFFFFF;}
</style>
<g transform="translate(-440.06 -398.08)">
	<path class="st0" d="M627.6,442.3l-9.9,0c-1.1,0-2,0.9-2,2l0,1.4h0.7c4.5,0,6.1,0.7,6.1,4.8v5.8l5,0c1.1,0,2-0.9,2-2l0-10
		C629.6,443.1,628.7,442.3,627.6,442.3 M573.5,457.8c-0.5-0.6-1.3-0.7-2.2-0.7h-0.7c-2.2,0-3,0.7-3.5,2.7l-6,24.9
		c-0.7,3.1-1.8,3.6-3.6,3.6c-2.2,0-3.1-0.5-4-3.6l-6.8-24.9c-0.6-2.1-1.4-2.7-3.6-2.7h-0.6c-0.9,0-1.7,0.1-2.2,0.7
		c-0.4,0.6-0.3,1.5-0.1,2.3l6.9,25.2c1.3,4.8,2.8,8.8,8.5,8.8c1.1,0,2.1-0.1,2.9-0.4c-1.7,5.5-3.5,7.9-8.7,8.4
		c-1.1,0.1-1.7,0.2-2.1,0.8c-0.4,0.5-0.3,1.3-0.2,2l0.1,0.6c0.3,1.5,0.8,2.4,2.5,2.4c0.2,0,0.4,0,0.6,0c7.8-0.5,11.9-4.7,14.4-14.4
		l8.3-33.3C573.9,459.3,574,458.4,573.5,457.8 M531.7,477v5c0,4.1-1.5,6.5-9.3,6.5c-5.1,0-7.6-1.9-7.6-5.7c0-4.2,2.5-5.8,8.9-5.8
		L531.7,477z M522.4,456.1c-4.2,0-6.9,0.5-7.9,0.7c-1.8,0.4-2.5,0.9-2.5,2.9v0.6c0,0.8,0.1,1.3,0.4,1.7c0.3,0.5,0.8,0.7,1.4,0.7
		c0.3,0,0.7-0.1,1.1-0.2c1-0.3,4.3-0.8,7.8-0.8c6.4,0,9,1.8,9,6.1v3.9h-8.1c-10.4,0-15.2,3.5-15.2,11c0,7.3,5,11.3,14.1,11.3
		c10.8,0,15.6-3.7,15.6-11.9v-14.3C538,460,532.9,456.1,522.4,456.1 M502,460.9c0,6-1.5,9.2-9.6,9.2H480v-15.5
		c0-2.1,0.8-2.9,2.9-2.9h9.5C498.5,451.8,502,453.3,502,460.9L502,460.9z M492.4,445.6h-10.7c-5.7,0-8.3,2.6-8.3,8.3v36.7
		c0,2.2,0.7,2.9,2.9,2.9h0.7c2.2,0,2.9-0.7,2.9-2.9v-14.3h12.4c11,0,16.2-4.9,16.2-15.4C508.6,450.5,503.5,445.6,492.4,445.6
		 M628.6,431.9l-5,0c-0.5,0-1-0.4-1-1l0-5.1c0-0.5,0.4-1,1-1l5,0c0.5,0,1,0.4,1,1l0,5.1C629.6,431.5,629.1,431.9,628.6,431.9
		 M638.4,442.3l-7.4,0c-0.8,0-1.5-0.7-1.5-1.5l0-7.5c0-0.8,0.7-1.5,1.5-1.5l7.4,0c0.8,0,1.5,0.7,1.5,1.5l0,7.5
		C639.8,441.6,639.2,442.3,638.4,442.3 M617.7,456.2c-1.1,0-2-0.9-2-2l0-8.6H615c-4.5,0-6.1,0.7-6.1,4.8v9.5c0,0,0,0,0,0.1v2.1
		c0,0.1,0,0.1,0,0.2v13.3c0,1.6-0.3,2.9-1,3.9c-1.2,1.9-3.6,2.7-7.5,2.7c-3.9,0-6.3-0.9-7.5-2.7c-0.6-1-1-2.3-1-3.9v-13.3
		c0-0.1,0-0.1,0-0.2V460c0,0,0,0,0-0.1v-9.5c0-4.1-1.7-4.8-6.1-4.8h-1.4c-4.5,0-6.1,0.7-6.1,4.8v25.2c0,4.1,0.9,7.5,2.7,10.3
		c3.4,5.4,10,8.2,19.4,8.2c0,0,0,0,0,0c0,0,0,0,0,0c9.4,0,16-2.9,19.4-8.2c1.8-2.8,2.7-6.2,2.7-10.3v-19.4L617.7,456.2"/>
</g>
<g>
	<polygon class="st0" points="299.1,95.2 306.5,46.3 318.3,46.3 310.9,95.2 	"/>
	<path class="st0" d="M353.7,47.6c-2.2-0.9-6.1-2.2-10.5-2.2c-11.8,0-20.1,6.6-20.1,16.2c0,7,5.7,10.9,10.5,13.1
		c4.8,2.2,6.1,3.9,6.1,6.1c0,3.1-3.5,4.8-7,4.8c-4.8,0-7.4-0.9-10.9-2.6l-1.3-0.9L318.8,93c2.6,1.3,7.9,2.6,13.1,2.6
		c12.2,0,20.5-6.6,20.5-16.6c0-5.7-3.1-9.6-10-13.1c-3.9-2.2-6.6-3.9-6.6-6.1s2.2-4.4,6.6-4.4c3.9,0,6.6,0.9,8.7,1.7l0.9,0.4
		L353.7,47.6"/>
	<path class="st0" d="M383.8,46.3h-9.2c-2.6,0-4.8,0.9-6.1,3.9L351,94.8h12.2c0,0,2.2-6.1,2.6-7.4c1.3,0,13.5,0,15.3,0
		c0.4,1.7,1.3,7.4,1.3,7.4h10.9L383.8,46.3 M369.4,77.8c0.9-2.6,4.8-13.5,4.8-13.5s0.9-2.6,1.7-4.8l0.9,4.4c0,0,2.2,11.8,2.6,14
		C379,77.8,369.4,77.8,369.4,77.8z"/>
	<path class="st0" d="M289,46.3l-11.3,33.2l-1.3-6.6c-2.2-7.9-8.7-16.2-16.2-20.5l10.5,42.8h12.7l18.8-48.9H289"/>
	<path class="st0" d="M266.8,46.3h-19.3v0.9c14.9,3.9,24.5,14,28.9,25.3L272,50.7C271.6,47.2,269.4,46.3,266.8,46.3"/>
</g>
<g>
	<g>
		<g>
			<g>
				<path class="st1" d="M643.1,113.1L643.1,113.1C643.1,113.1,642.7,112.7,643.1,113.1c-0.4-0.4-0.4-0.4-0.4-0.4h-0.4v0.4l0,0v-1.3
					h0.4c0.4,0,0.4,0,0.4,0.4s0,0.4,0,0.4S643.1,112.7,643.1,113.1L643.1,113.1L643.1,113.1L643.1,113.1z M643.1,112.2
					C643.1,111.8,642.7,111.8,643.1,112.2h-0.9v0.4L643.1,112.2C642.7,112.2,643.1,112.2,643.1,112.2 M644,112.2
					c0-0.9-0.9-1.7-1.7-1.7c-0.9,0-1.7,0.9-1.7,1.7s0.9,1.7,1.7,1.7C643.6,114,644,113.1,644,112.2 M644,112.2
					c0,0.9-0.4,1.3-1.3,1.3c-0.9,0-1.3-0.4-1.3-1.3s0.4-1.3,1.3-1.3C643.6,110.9,644,111.8,644,112.2"/>
				<path class="st1" d="M733.1,83c0,2.2-1.3,3.1-3.9,3.1h-4.8v-2.2h4.8c0.4,0,0.9,0,0.9-0.4s0.4-0.4,0.4-0.4c0-0.4,0-0.4-0.4-0.9
					c0,0-0.4-0.4-0.9-0.4c-2.2,0-5.2,0-5.2-3.1c0-1.3,0.9-3.1,3.5-3.1h4.8v2.2h-4.4c-0.4,0-0.9,0-0.9,0c-0.4,0.4-0.4,0.4-0.4,0.9
					s0.4,0.4,0.4,0.9c0.4,0,0.4,0,0.9,0h1.3c1.3,0,2.2,0.4,2.6,0.9C732.7,81.2,733.1,82.1,733.1,83 M722.6,80.8
					c-0.4-0.4-1.3-0.9-2.6-0.9h-1.3c-0.4,0-0.4,0-0.9,0s-0.4-0.4-0.4-0.9s0-0.4,0.4-0.9c0,0,0.4,0,0.9,0h4.4V76h-4.8
					c-2.6,0-3.5,1.7-3.5,3.1c0,3.1,2.6,3.1,5.2,3.1c0.4,0,0.9,0,0.9,0.4c0,0,0.4,0.4,0.4,0.9c0,0.4,0,0.4-0.4,0.4
					c-0.4,0-0.4,0.4-0.9,0.4h-4.8v2.2h4.8c2.6,0,3.9-0.9,3.9-3.1C723.5,82.1,723.1,81.2,722.6,80.8 M713.4,84.3h-5.7v-2.2h5.7v-2.2
					h-5.7v-1.7h5.7V76h-7.9v10.5h7.9V84.3z M703,76.4c-0.9-0.4-1.7-0.4-3.1-0.4h-5.7v10.5h2.6V83h2.6c0.9,0,1.3,0,1.7,0.4
					s0.4,1.3,0.4,2.2v0.9h2.6v-2.2c0-0.9,0-1.3-0.4-1.7c-0.4-0.4-0.4-0.9-1.3-0.9c0.9-0.4,1.7-1.3,1.7-2.6
					C703.8,77.7,703.8,77.3,703,76.4 M689,76h-7.9l-3.1,3.5l-3.1-3.5h-9.6v10.5h9.6L678,83l3.1,3.5h4.8V83h3.1
					c2.2,0,4.4-0.4,4.4-3.5C693.3,76.9,691.2,76,689,76 M700.8,80.4c-0.4,0-0.9,0-1.3,0h-3.1v-2.2h3.1c0.4,0,0.9,0,1.3,0
					c0.4,0,0.4,0.4,0.4,0.9C701.2,79.9,701.2,79.9,700.8,80.4 M689,80.8h-3.1v-2.6h3.1c0.9,0,1.3,0.4,1.3,1.3
					C690.7,80.4,689.9,80.8,689,80.8 M679.8,81.2l3.9-3.9v8.3L679.8,81.2z M674.1,84.3H668v-2.2h5.2v-2.2H668v-1.7h6.1l2.6,3.1
					L674.1,84.3z M726.1,69h-3.5l-4.4-7.4V69h-4.8l-0.9-2.2h-5.2l-0.9,2.2h-2.6c-1.3,0-2.6-0.4-3.5-1.3c-0.9-0.9-1.3-2.2-1.3-3.9
					c0-1.3,0.4-3.1,1.3-3.9c0.9-0.9,2.2-1.3,3.5-1.3h2.2v2.2h-2.2c-0.9,0-1.3,0-1.7,0.4c-0.4,0.4-0.4,1.3-0.4,2.2
					c0,1.3,0,1.7,0.4,2.6c0.4,0.4,0.9,0.4,1.7,0.4h1.3l3.5-7.9h3.5l3.9,9.6v-9.6h3.9l4.4,7v-7h2.6L726.1,69L726.1,69z M697.7,58.5
					h-2.6V69h2.6V58.5z M692.5,59c-0.9-0.4-1.7-0.4-3.1-0.4h-5.7V69h2.2v-3.5h2.6c0.9,0,1.3,0,1.7,0.4s0.4,1.3,0.4,2.2V69h2.6v-2.2
					c0-0.9,0-1.3-0.4-1.7c-0.4-0.4-0.4-0.4-1.3-0.9c0.9-0.4,1.7-1.3,1.7-2.6C693.8,60.3,693.3,59.8,692.5,59 M682.4,66.8h-5.7v-2.2
					h5.7v-2.2h-5.7v-1.7h5.7v-2.2h-8.3V69h8.3V66.8z M672.4,58.5h-3.9l-3.1,7l-3.1-7h-3.9v9.6l-3.9-9.6H651l-4.4,10h2.6l0.9-2.2h5.2
					l0.9,2.2h4.8v-7.9l3.5,7.9h2.2l3.5-7.9V69h2.6L672.4,58.5L672.4,58.5z M711.7,64.6l-1.7-4.4l-1.7,3.9h3.5L711.7,64.6L711.7,64.6
					z M690.7,62.9c-0.4,0.4-0.9,0.4-1.3,0.4h-3.1v-2.6h3.1c0.4,0,0.9,0,1.3,0c0.4,0,0.4,0.4,0.4,0.9
					C691.2,62.4,690.7,62.9,690.7,62.9 M650.5,64.6l1.7-3.9l1.7,3.9H650.5z M732.2,27.1h-86v36.7l3.1-6.6h6.1l0.9,1.7v-2.2h7.4
					l1.7,3.5l1.7-3.5h23.6c1.3,0,2.2,0,2.6,0.9v-0.9h6.6v0.9c0.9-0.4,2.6-0.9,3.9-0.9h9.2l0.9,1.7v-1.7h7l0.9,1.7v-1.7h6.6v14h-7
					l-1.3-2.2v2.2h-8.4l-0.9-2.2h-2.2l-0.9,2.2h-4.4c-1.7,0-3.1-0.4-3.9-0.9v0.9h-10.5v-3.1c0-0.4,0-0.4-0.4-0.4h-0.4v3.9H668V69
					l-0.9,1.7h-4.4l-0.9-1.7v1.7h-8.3l-0.9-2.2h-2.2l-0.9,2.2h-4.4v42.8h86V87.8c-0.9,0.4-2.2,0.4-3.5,0.4h-5.2v-0.9
					c-0.9,0.4-2.2,0.9-3.1,0.9h-19.7v-3.1c0-0.4,0-0.4-0.4-0.4h-0.4v3.5h-7v-3.9c-1.3,0.4-2.2,0.4-3.5,0.4h-0.6v3.5h-7.9l-1.7-2.2
					l-2.2,2.2h-12.7V73.8h13.1L678,76l2.2-2.2h8.7c0.9,0,2.6,0,3.5,0.9v-0.9h7.9c0.9,0,2.2,0,3.5,0.9v-0.9h11.8v0.9
					c0.9-0.4,1.7-0.9,3.1-0.9h6.6v0.9c0.9-0.4,1.7-0.9,3.1-0.9h4.4L732.2,27.1L732.2,27.1z"/>
			</g>
		</g>
	</g>
</g>
<g>
	<path class="st0" d="M553.4,108.3v0.2h0.2h0.1c0,0,0,0,0-0.1v-0.1h-0.1H553.4L553.4,108.3z M553.6,108.2c0.1,0,0.2,0,0.2,0.1
		c0.1,0,0.1,0.1,0.1,0.2s0,0.1-0.1,0.2c-0.1,0-0.1,0.1-0.2,0.1l0.2,0.3h-0.2l-0.2-0.3h-0.1v0.3h-0.2v-0.8L553.6,108.2L553.6,108.2z
		 M553.6,109.2c0.1,0,0.2,0,0.2,0c0.1,0,0.1-0.1,0.2-0.1c0.1-0.1,0.1-0.1,0.1-0.2c0.1-0.2,0.1-0.3,0-0.5c0-0.1-0.1-0.1-0.1-0.2
		c-0.1-0.1-0.1-0.1-0.2-0.1c-0.1,0-0.2,0-0.2,0c-0.1,0-0.2,0-0.2,0c-0.1,0-0.1,0.1-0.2,0.1c-0.2,0.2-0.2,0.5-0.1,0.7
		c0,0.1,0.1,0.1,0.1,0.2c0.1,0.1,0.1,0.1,0.2,0.1C553.4,109.2,553.5,109.2,553.6,109.2 M553.6,107.8c0.2,0,0.4,0.1,0.6,0.2
		c0.1,0.1,0.1,0.2,0.2,0.3c0.1,0.2,0.1,0.4,0,0.6c0,0.1-0.1,0.2-0.2,0.3c-0.1,0.1-0.2,0.1-0.3,0.2c-0.1,0-0.2,0.1-0.3,0.1
		s-0.2,0-0.3-0.1c-0.1,0-0.2-0.1-0.3-0.2s-0.1-0.2-0.2-0.3c-0.1-0.2-0.1-0.4,0-0.6c0-0.1,0.1-0.2,0.2-0.3c0.1-0.1,0.2-0.1,0.3-0.2
		C553.4,107.8,553.5,107.7,553.6,107.8 M477,104.8c0-1.4,0.9-2.6,2.5-2.6c1.5,0,2.5,1.1,2.5,2.6s-1,2.6-2.5,2.6
		C478,107.5,477,106.3,477,104.8 M483.7,104.8v-4.1h-1.8v1c-0.6-0.7-1.4-1.2-2.6-1.2c-2.3,0-4.1,1.8-4.1,4.3s1.8,4.3,4.1,4.3
		c1.2,0,2-0.5,2.6-1.2v1h1.8V104.8L483.7,104.8z M544,104.8c0-1.4,0.9-2.6,2.5-2.6c1.5,0,2.5,1.1,2.5,2.6s-1,2.6-2.5,2.6
		C544.9,107.5,544,106.3,544,104.8 M550.6,104.8v-7.4h-1.8v4.3c-0.6-0.7-1.4-1.2-2.6-1.2c-2.3,0-4.1,1.8-4.1,4.3s1.8,4.3,4.1,4.3
		c1.2,0,2-0.5,2.6-1.2v1h1.8V104.8z M505.8,102.1c1.1,0,1.9,0.7,2.1,2h-4.3C503.8,102.9,504.5,102.1,505.8,102.1 M505.8,100.5
		c-2.4,0-4.1,1.7-4.1,4.3c0,2.6,1.7,4.3,4.2,4.3c1.2,0,2.4-0.3,3.4-1.1l-0.9-1.3c-0.7,0.5-1.6,0.9-2.4,0.9c-1.1,0-2.2-0.5-2.5-2h6.1
		c0-0.2,0-0.4,0-0.7C509.7,102.3,508.1,100.5,505.8,100.5 M527.4,104.8c0-1.4,0.9-2.6,2.5-2.6c1.5,0,2.5,1.1,2.5,2.6s-1,2.6-2.5,2.6
		C528.3,107.5,527.4,106.3,527.4,104.8 M534,104.8v-4.1h-1.8v1c-0.6-0.7-1.4-1.2-2.6-1.2c-2.3,0-4.1,1.8-4.1,4.3s1.8,4.3,4.1,4.3
		c1.2,0,2-0.5,2.6-1.2v1h1.8V104.8L534,104.8z M517.3,104.8c0,2.5,1.7,4.3,4.4,4.3c1.2,0,2.1-0.3,2.9-1l-0.9-1.4
		c-0.7,0.5-1.4,0.7-2.1,0.7c-1.4,0-2.5-1-2.5-2.6s1-2.6,2.5-2.6c0.8,0,1.5,0.3,2.1,0.7l0.9-1.4c-0.9-0.7-1.7-1-2.9-1
		C519,100.5,517.3,102.3,517.3,104.8 M540.3,100.5c-1,0-1.7,0.5-2.2,1.2v-1h-1.8v8.2h1.8v-4.6c0-1.4,0.6-2.1,1.7-2.1
		c0.4,0,0.8,0.1,1.1,0.2l0.5-1.7C541.2,100.6,540.7,100.5,540.3,100.5 M492.5,101.4c-0.9-0.6-2-0.9-3.3-0.9c-2.1,0-3.4,1-3.4,2.6
		c0,1.3,1,2.2,2.8,2.4l0.8,0.1c1,0.1,1.4,0.4,1.4,0.9c0,0.6-0.6,1-1.9,1c-1.2,0-2.1-0.4-2.7-0.9l-0.8,1.4c1,0.7,2.2,1.1,3.6,1.1
		c2.4,0,3.7-1.1,3.7-2.7c0-1.4-1.1-2.2-2.9-2.5l-0.8-0.1c-0.8-0.1-1.4-0.3-1.4-0.8c0-0.6,0.6-1,1.6-1s2.1,0.4,2.6,0.7L492.5,101.4
		L492.5,101.4z M515.5,100.5c-1,0-1.7,0.5-2.2,1.2v-1h-1.8v8.2h1.8v-4.6c0-1.4,0.6-2.1,1.7-2.1c0.4,0,0.8,0.1,1.1,0.2l0.5-1.7
		C516.4,100.6,515.9,100.5,515.5,100.5 M500.3,100.7h-2.9v-2.5h-1.8v2.5h-1.7v1.6h1.7v3.7c0,1.9,0.7,3,2.8,3c0.8,0,1.7-0.2,2.2-0.6
		l-0.5-1.5c-0.5,0.3-1.1,0.5-1.6,0.5c-0.9,0-1.2-0.5-1.2-1.4v-3.7h2.9L500.3,100.7z M473.6,108.9v-5.1c0-1.9-1.2-3.2-3.2-3.3
		c-1,0-2.1,0.3-2.9,1.5c-0.6-0.9-1.5-1.5-2.7-1.5c-0.9,0-1.7,0.3-2.4,1.2v-1h-1.8v8.2h1.8v-4.5c0-1.4,0.8-2.2,2-2.2
		c1.2,0,1.8,0.8,1.8,2.2v4.6h1.8v-4.5c0-1.4,0.8-2.2,2-2.2c1.2,0,1.8,0.8,1.8,2.2v4.6L473.6,108.9z"/>
	<path class="st0" d="M554.5,81.6v-1.2h-0.3l-0.4,0.8l-0.4-0.8h-0.3v1.2h0.2v-0.9l0.3,0.8h0.2l0.3-0.8v0.9H554.5L554.5,81.6z
		 M552.5,81.6v-1h0.4v-0.2h-1v0.2h0.4v1H552.5L552.5,81.6z"/>
	<path class="st0" d="M518.9,86.8h-27V38.2h27V86.8z"/>
	<path class="st0" d="M493.6,62.5c0-9.9,4.6-18.6,11.8-24.3c-5.4-4.3-12.2-6.6-19.1-6.6c-17.1,0-30.9,13.8-30.9,30.9
		s13.8,30.9,30.9,30.9c6.9,0,13.7-2.3,19.1-6.6C498.2,81.1,493.6,72.4,493.6,62.5"/>
	<path class="st0" d="M555.4,62.5c0,17.1-13.8,30.9-30.9,30.9c-6.9,0-13.7-2.3-19.1-6.6c7.2-5.7,11.8-14.4,11.8-24.3
		s-4.6-18.6-11.8-24.3c5.4-4.3,12.2-6.6,19.1-6.6C541.6,31.6,555.4,45.4,555.4,62.5"/>
</g>
<g id="PSE_1_">
	<path class="st0" d="M1164.1,61.4h-18.5h-0.2c-2.9,0.7-8.4,3.6-8.4,10.3c-0.2,2.6,1,6.5,6.2,8.2h13.2c0.5,0,4.1,0.9,3.9,7
		c-0.2,6.3-5.6,7.2-6.3,8h-20.5c-0.7,0-1.2,0.7-1.2,1.2c0,0.5,0.5,1.2,1.2,1.2h20.5l0.2-0.3c2.7-0.5,8.2-3.4,8.4-10.3
		c0.3-8.9-6.2-9.4-6.2-9.4h-13c-4.4-0.9-4.1-5.5-4.1-5.6l0,0c0-6,5.6-7.7,6.5-7.7h18.3c0.7,0,1.2-0.7,1.2-1.2
		C1165.2,62.1,1164.6,61.4,1164.1,61.4z"/>
	<path class="st0" d="M1192.2,61.4c-0.2,0-0.2,0.2-0.3,0.2h-13.7c-6.2,0-9.1,7.2-9.2,7.5l0,0c-0.2,0.7-3.4,15.9-3.4,20.9
		c0.2,4.8,5,6.5,7.4,6.7c0,0,0,0,0.2,0h19.2c0.7,0,1.2-0.7,1.2-1.2c0-0.5-0.5-1.2-1.2-1.2H1173c-0.7,0-5.1-0.7-5.3-4.3
		c0-1.9,0.5-5.6,1.2-9.6l26.7-0.2c0.5,0,1-0.3,1.2-1c0-0.3,1.2-7.2,1.2-11.1C1198,62.9,1192.4,61.4,1192.2,61.4z M1194.6,77.6
		l-25.2,0.2c0.9-4.1,1.5-7.5,1.7-8c0.3-0.7,2.6-5.8,7-5.8h13.5c0.7,0,4.1,1.4,4.1,4.1C1195.6,71,1194.9,75.6,1194.6,77.6z"/>
	<path class="st0" d="M1133.5,68.6c0.7-4.6-5.3-7-6.3-7l0,0c-4.8,0-12.1,0.2-12.8,0.2c-0.2,0-0.2,0-0.3,0c-2.9,0.5-7,4.3-8.4,7.9
		l0,0c-0.2,0.3-0.2,1-0.3,1.9c-0.2,1-0.5,2.7-0.9,4.6c-0.7,3.8-1.5,8.9-2.6,13.9c-1.9,10.1-3.6,20.2-3.6,20.2
		c-0.2,0.7,0.3,1.2,0.9,1.4h0.2c0.5,0,1-0.3,1.2-1c0.9-4.3,2.1-11.3,3.3-18.3c2.9,3.8,6.7,4.1,6.8,4.1h0.2l11.8-0.3
		c0.2,0,0.2,0,0.3,0c5.6-1.7,7.2-7.4,7.4-7.7c0,0,0,0,0-0.2L1133.5,68.6C1133.5,68.6,1133.5,68.6,1133.5,68.6z M1131.1,68.4
		l-3.1,19.5c-0.2,0.5-1.5,4.8-5.6,6l-11.5,0.3c-0.5,0-4.1-0.7-6.5-5.1c1.7-9.2,3.3-17.8,3.4-18.6c1-2.9,4.4-6,6.5-6.3
		c0.5,0,1,0,1.9,0c1.2,0,2.9,0,4.4,0c2.7,0,5.3,0,6.2,0C1128.2,63.9,1131.4,66.3,1131.1,68.4z"/>
</g>
<g id="Figures">
	<ellipse class="st0" cx="1080.5" cy="57.3" rx="3.3" ry="3.4"/>
	<path class="st0" d="M1077,46.3c0-1.5-0.9-2.9-2.2-3.3c-1,2.1-2.1,3.9-3.1,6.2c0.5,0.5,1.2,0.7,2.1,0.7
		C1075.7,49.7,1077,48.2,1077,46.3z"/>
	<path class="st0" d="M1070.4,57.3c0-1-0.3-1.9-0.9-2.4c-0.7,1.9-1.2,3.9-1.9,5.8C1069.3,60.5,1070.4,59,1070.4,57.3z"/>
	<ellipse class="st0" cx="1080.8" cy="99.9" rx="3.3" ry="3.4"/>
	<path class="st0" d="M1069.2,99.9c0-1.5-1-2.7-2.4-2.9c0.3,1.7,0.9,3.4,1.4,5.1C1068.8,101.6,1069.2,100.9,1069.2,99.9z"/>
	<path class="st0" d="M1077,111.3c0-1.9-1.5-3.4-3.3-3.4c-1.4,0-2.4,0.9-2.9,1.9c0.7,1.7,1.4,3.3,2.2,5c0.2,0,0.5,0.2,0.7,0.2
		C1075.7,114.7,1077,113.2,1077,111.3z"/>
	<path class="st0" d="M1082.7,89.1h-6.5c-0.3-0.9-1.7-2.2-3.1-2.2c-1.9,0-3.3,1.7-3.3,3.6c0,1.9,1.5,3.6,3.3,3.6
		c1.5,0,2.7-0.7,3.1-2.4h5.3h1.9h0.2l6.8-12.5h10.6v-1.7h-17.5l-7.2-12.5h-0.5h-1.9h-7.2c-0.2,0.9-0.3,1.7-0.5,2.6h9.1l5.8,10.1
		h-15.9c0,0.5,0,1.2,0,1.7h23.1L1082.7,89.1z"/>
</g>
<g id="ach_1_">
	<g>
		<path class="st0" d="M1113.7,57.6h-4.3c0,0-0.9-0.3-1.2-1.2c-0.2-0.5-0.2-1.2,0.2-1.9l0,0c0.2-0.2,0.9-1,1.7-1l3.1,0.2l0.2-1
			c0.2-0.7-0.3-1-0.5-1h-3.4v-0.9h3.6c0.5,0.2,1.4,0.7,1.2,2.1L1113.7,57.6z M1109.5,56.7h3.3l0.3-2.4l-3.1-0.2
			c-0.3,0-0.9,0.5-1,0.7c-0.2,0.3-0.2,0.9-0.2,1C1109,56.4,1109.5,56.7,1109.5,56.7z"/>
	</g>
	<g>
		<path class="st0" d="M1119,57.6h-3.4l-0.5-0.2l-0.2-0.2c-1-1.9-0.2-4.3-0.2-4.3c0.3-1.7,1.7-2.4,1.7-2.4h0.2h3.6v0.9h-3.4
			c-0.2,0.2-1,0.7-1.2,1.9c0,0-0.7,2.1,0,3.6h0.2h3.3V57.6z"/>
	</g>
	<g>
		
			<rect x="1116.8" y="52.3" transform="matrix(0.1777 -0.9841 0.9841 0.1777 870.1791 1146.9355)" class="st0" width="9.2" height="0.9"/>
	</g>
	<g>
		<path class="st0" d="M1125.8,57.3l-0.7-0.2l0.9-4.8c0-0.3-0.2-0.5-0.3-0.5l-0.2-0.2c-0.2-0.2-1.4-0.3-2.7-0.2
			c-0.5,0.3-0.9,1-0.9,1l-0.7-0.3c0,0,0.5-1,1.4-1.4h0.2c0.9,0,2.7-0.2,3.4,0.5c0.3,0.2,0.7,0.7,0.7,1.4L1125.8,57.3z"/>
	</g>
</g>
<g>
	<path class="st0" d="M1372.7,70.3c0,3.1-0.9,5.8-2.9,8.1c-0.6,0.7-0.5,1.1,0.1,1.6c0.8,0.7,1.5,1.5,2.2,2.3
		c0.6,0.7,0.4,1.2-0.6,1.2c-1.6,0-3.4,0.3-4.5-1.4c-0.5-0.8-1-0.5-1.6-0.1c-6.2,3.1-13.1,1.3-17-4.4c-3.6-5.3-2.8-13.2,2-17.8
		c4.5-4.4,11.4-5,16.5-1.3C1370.8,61.4,1372.6,65.5,1372.7,70.3L1372.7,70.3z M1364,78.4c-1.6-1.4-3-2.7-4.4-3.9
		c-0.4-0.3-0.7-0.7-0.4-1.3c0.2-0.5,0.7-0.5,1.2-0.6c1.5-0.2,2.7,0.2,3.7,1.5c0.7,0.8,1.5,1.5,2.3,2.3c3.3-3.4,3.3-9.5,0-13.3
		c-3.2-3.6-8.6-4.2-12.4-1.4c-4,2.9-5.2,9.5-2.4,13.8C1354.2,79.6,1359.2,80.9,1364,78.4z M1308.4,75.1c0-6.1,0.1-11.7,0-17.3
		c0-1.5,0.6-1.8,1.9-1.7c1.3,0,2.1,0,2.1,1.7c-0.1,8,0,16,0,24c0,0.6,0.2,1.4-0.6,1.7c-0.8,0.3-1.3-0.3-1.8-0.8
		c-4.9-5.5-9.9-11.1-14.8-16.6c-0.5-0.5-1-1.1-1.5-1.7c-0.5,0.6-0.3,1.2-0.3,1.7c0,5.2,0,10.3,0,15.5c0,1.5-0.4,2.1-2,2
		c-1.5,0-2.1-0.4-2.1-2c0.1-7.9,0-15.8,0-23.7c0-0.6-0.3-1.5,0.6-1.8s1.6,0.1,2.3,0.8c4.7,5.3,9.4,10.6,14.1,15.9
		C1307,73.5,1307.6,74.1,1308.4,75.1L1308.4,75.1z"/>
	<path class="st0" d="M1381.5,66.1c0-2.8,0.1-5.7,0-8.5c-0.1-1.8,1.1-1.4,2.1-1.5c1.1-0.1,2,0,1.9,1.5c-0.1,5.5-0.1,11.1,0,16.6
		c0.1,4.3,4.4,6.8,8.2,4.8c1.6-0.9,2.6-2.2,2.8-4.1c0.4-3.5,0.1-7.1,0.2-10.6c0-2.3,0.1-4.5,0-6.8c0-1.1,0.3-1.5,1.4-1.5
		c2.5,0,2.5,0,2.5,2.5c0,5,0,10,0,15c-0.1,5.1-3.1,8.8-7.9,9.8c-5.2,1.1-10.7-2.8-11.1-8.1c-0.2-3,0-6.1,0-9.2
		C1381.6,66.1,1381.5,66.1,1381.5,66.1L1381.5,66.1z"/>
	<path class="st0" d="M1322.9,69.9c0-4,0-8.1,0-12.1c0-1.2,0.2-1.7,1.6-1.7c3.8,0.1,7.6,0.1,11.4,0c1.6,0,1.6,0.8,1.6,1.9
		c0,1.2,0,2.1-1.6,2.1c-2.6-0.1-5.2,0-7.7,0c-0.9,0-1.3,0.2-1.3,1.2c0.1,1.6,0.1,3.2,0,4.8c0,1,0.3,1.1,1.2,1.1
		c2.5-0.1,5.1,0.1,7.6,0c1.5-0.1,1.9,0.5,1.9,2c0,1.3-0.1,2.1-1.8,2c-2.6-0.1-5.2,0-7.7-0.1c-0.8,0-1.1,0.2-1.1,1.1
		c0.1,2.1,0.1,4.3,0,6.4c0,1,0.4,1.1,1.2,1.1c2.6,0,5.3,0.1,7.9,0c1.5-0.1,1.6,0.7,1.5,1.8c0,1.1,0.2,2.2-1.5,2.2
		c-3.9-0.1-7.7-0.1-11.6,0c-1.2,0-1.5-0.4-1.5-1.5C1322.9,78,1322.9,74,1322.9,69.9L1322.9,69.9z"/>
	<path class="st0" d="M1411.2,69.8c0-4,0.1-8.1,0-12.1c-0.1-1.9,1.1-1.5,2.2-1.6c1.2-0.1,1.9,0.1,1.9,1.6c-0.1,8.1-0.1,16.2,0,24.3
		c0,1.6-0.7,1.6-1.9,1.6c-1.2,0-2.2,0.2-2.2-1.6C1411.2,77.9,1411.2,73.8,1411.2,69.8L1411.2,69.8z"/>
	<g>
		<path class="st0" d="M1237,66.3c0-0.1,0.1-0.1,0.1-0.2c0,0-0.1,0-0.1,0c-0.4,0.5-0.7,0.9-1,1.5c-1.2,2.2-0.9,5.4,1,6.9
			c2.8,2.2,6,3.7,9.3,5.1c-0.1-0.3-0.4-0.6-0.6-0.9C1242.9,74.5,1239.7,70.6,1237,66.3z"/>
		<path class="st0" d="M1260.2,87.4c-4.2-2.1-8.3-4.4-12.5-6.5c1.8,3.1,4,5.9,6.1,8.6c1.3,1.6,3.7,1.6,5.2,0.2c0.7-0.6,1.3-1.3,2-2
			c0.6,0.3,1.2,0.6,2,0.8c2.1,0.8,4.2-0.1,4.9-2.2c0.9-2.9,1.8-5.9,2.3-8.9c-3.1,3.4-6.1,6.7-9.2,10.1c0,0-0.1,0-0.1,0
			c0,0-0.1,0.1-0.1,0.1C1260.6,87.5,1260.4,87.5,1260.2,87.4z"/>
		<path class="st0" d="M1237.1,66.1c0.4-0.6,0.9-1.3,1.3-1.9c0.2-0.4,0.5-0.8,0.7-1.2c1.4-2.2,3.3-4.2,4.4-6.6
			c-1.1,0.6-2.2,1.1-3.3,1.7c-3.5,1.9-4.4,4.1-3.3,8c0,0,0,0,0,0C1237,66,1237,66,1237.1,66.1C1237.1,66,1237.1,66,1237.1,66.1z"/>
		<path class="st0" d="M1253.7,51.1c4,1.9,8.1,3.6,12.2,5.1c0,0,0,0,0,0c-1.8-2.1-3.6-4.3-5.4-6.4c-0.9-1-2-1.3-3.2-0.7
			C1256.1,49.7,1254.8,50.2,1253.7,51.1L1253.7,51.1C1253.7,51.1,1253.7,51.1,1253.7,51.1z"/>
		<path class="st0" d="M1275.7,67.7c-0.6-0.9-1.2-1.8-2.1-2.4c-1.3,3.8-2.2,7.7-3.2,11.6c1.8-1.9,3.5-3.8,5.2-5.7
			C1276.5,70.1,1276.5,68.9,1275.7,67.7z"/>
		<path class="st0" d="M1237.1,66.1C1237.1,66.1,1237.1,66.1,1237.1,66.1C1237.1,66.1,1237.1,66.1,1237.1,66.1
			C1237.1,66.1,1237.1,66.1,1237.1,66.1z"/>
		<path class="st0" d="M1253.3,51.1c-0.8-0.4-1.6-0.7-2.4-1.2c-1.1-0.4-2.1-0.2-2.8,0.6c-1.3,1.6-2.6,3.2-3.5,5.1c0,0,0,0,0,0
			C1247.6,54.4,1250.4,52.7,1253.3,51.1C1253.3,51.1,1253.3,51.1,1253.3,51.1z"/>
		<path class="st0" d="M1274.3,62.9c0.4-1.9-0.2-3.1-2-3.9c-1.9-0.9-3.9-1.6-5.8-2.4c2.2,2.9,4.6,5.7,7.1,8.4
			C1273.8,64.3,1274,63.5,1274.3,62.9z"/>
		<path class="st0" d="M1246.5,79.9C1246.6,79.9,1246.6,80,1246.5,79.9C1246.6,80,1246.6,79.9,1246.5,79.9z"/>
		<path class="st0" d="M1244.6,55.6c-0.2,0-0.3,0.1-0.2,0.3C1244.5,55.8,1244.6,55.8,1244.6,55.6z"/>
	</g>
</g>
<g>
	<path class="st0" d="M1544.8,73.8c0-1.7,0-3.4,0-4.7h2.2v2.6l0,0c0.9-1.7,2.6-2.6,5.2-2.6c3.4,0,6,3,6,7.3c0,5.2-3,7.7-6.5,7.7
		c-1.7,0-3.4-0.9-4.3-2.2l0,0v7.7h-2.6V73.8L1544.8,73.8z M1547.3,77.2c0,0.4,0,0.9,0,0.9c0.4,1.7,2.2,3,3.9,3
		c2.6,0,4.3-2.2,4.3-5.6c0-3-1.3-5.2-4.3-5.2c-1.7,0-3.4,1.3-3.9,3c0,0.4,0,0.9,0,0.9V77.2L1547.3,77.2z M1561.1,62.2h2.6v20.6h-2.6
		C1561.1,83.2,1561.1,62.2,1561.1,62.2z M1576.2,83.2v-1.7l0,0c-0.9,1.3-2.2,2.2-4.3,2.2c-3,0-4.3-2.2-4.3-4.3c0-3.4,3-5.2,8.6-5.2
		v-0.4c0-1.3-0.4-3.4-3.4-3.4c-1.3,0-2.6,0.4-3.9,0.9l-0.4-1.7c1.3-0.9,3-1.3,4.7-1.3c4.3,0,5.6,3,5.6,5.6v5.2c0,1.3,0,2.6,0.4,3.4
		h-3V83.2z M1575.7,75.9c-3,0-6,0.4-6,3c0,1.7,1.3,2.6,2.6,2.6c1.7,0,3-1.3,3.4-2.6c0-0.4,0-0.4,0-0.9V75.9z M1585.2,64.8v4.3h3.9
		v2.2h-3.9v7.7c0,1.7,0.4,2.6,1.7,2.6c0.9,0,1.3,0,1.3,0v1.7c-0.4,0-1.3,0.4-2.2,0.4c-1.3,0-2.2-0.4-3-1.3c-0.9-0.9-0.9-2.2-0.9-3.9
		v-7.7h-2.2v-2.2h2.2v-3.4C1582.6,65.6,1585.2,64.8,1585.2,64.8z M1599.8,83.2v-1.7l0,0c-0.9,1.3-2.2,2.2-4.3,2.2
		c-3,0-4.3-2.2-4.3-4.3c0-3.4,3-5.2,8.6-5.2v-0.4c0-1.3-0.4-3.4-3.4-3.4c-1.3,0-2.6,0.4-3.9,0.9l-0.4-1.7c1.3-0.9,3-1.3,4.7-1.3
		c4.3,0,5.6,3,5.6,5.6v5.2c0,1.3,0,2.6,0.4,3.4h-3V83.2z M1599.4,75.9c-3,0-6,0.4-6,3c0,1.7,1.3,2.6,2.6,2.6c1.7,0,3-1.3,3.4-2.6
		c0-0.4,0-0.4,0-0.9V75.9L1599.4,75.9z"/>
	<path class="st0" d="M1498.3,63.9c-5.2,0-11.6,13.3-13.3,17.6c-0.9,2.6,2.2,4.3,3,1.7c1.7-4.3,7.3-15.5,10.3-15.5
		c3.4,0,8.6,11.6,10.3,15.9c0.9,2.6,3.9,0.9,3-1.7C1509.9,77.2,1503.5,63.5,1498.3,63.9L1498.3,63.9z M1484.6,73.4v-0.4
		c0-0.9-0.4-1.7-0.9-2.6l0,0l-0.4-0.4c0,0,0-0.4-0.4-0.4c0,0,0,0,0-0.4l-0.4-0.4l-0.4-0.4l0,0c-5.6-5.2-17.2-4.7-20.6-3.4
		c-2.2,0.9-1.3,3.9,0.9,2.6c3.9-0.9,8.2-0.9,12,0c3.4,0.9,6.9,3.9,6.9,6.9c-0.4,7.7-10.3,8.2-14.6,6.9v-9.5c0-2.2-3-2.2-3,0v9.5
		c0,1.7,0.9,2.6,2.2,3c3,0.9,15.9,1.3,18.5-7.7v-0.4v-0.4C1484.6,74.6,1484.6,74.2,1484.6,73.4L1484.6,73.4L1484.6,73.4z
		 M1538.7,65.6c0-2.6-3.4-2.6-3.4,0v16.8c0,2.6,3.4,2.6,3.4,0V65.6z M1530.6,64.8c-1.3,4.3-6.5,15.9-9.5,15.9
		c-3,0-8.2-11.6-9.9-15.5c-0.9-2.6-3.9-0.9-3,1.7c1.7,4.3,7.7,17.6,12.5,17.6c4.7,0,10.8-13.3,12-17.6
		C1534.4,63.9,1531.4,62.2,1530.6,64.8z"/>
	<path class="st0" d="M1616.1,55.7c-2.6-2.2-6.9-5.6-8.2-6.5c0-2.2,0.4-4.3,0.9-6c0.4-2.2,0.9-3.9,0-5.2c-0.9-0.9-1.7-1.3-3.9-1.3
		h-6.9c-1.7,0-2.6,0.4-3.4,1.3c-0.4,0.4-0.9,1.7-0.4,2.6c-7.3-3.9-13.8-6.5-17.2-6.5c-3.9,0-10.8,2.6-18.9,7.3
		c-1.3,0.4-8.2,4.7-11.6,7.3c0,0-5.6,3.9-8.6,6.5c-1.3,1.3-2.6,2.6-3.4,3.4v0.4c0,0.4,0.4,0.9,0.9,0.9c0.4,0,0.4,0,0.4-0.4l0.4-0.4
		c0.9-0.9,1.7-1.7,2.6-2.6c3-2.6,8.6-6.5,8.6-6.5c3.4-2.6,10.3-6.5,11.2-7.3c7.7-4.3,14.6-6.9,18.1-7.3c3.4,0,10.3,2.6,18.1,7.3
		c0.4,0,0.4,0,0.9,0s0.4-0.4,0.4-0.9v-0.4v-0.4c0-0.4-0.4-1.3,0-2.2c0.4-0.4,1.3-0.9,2.2-0.9h6.9c1.3,0,2.2,0.4,2.6,0.4
		c0.4,0.4,0,2.2-0.4,3.9c-0.4,2.2-0.9,4.7-0.9,6.9c0,0.4,0,0.4,0.4,0.9c0,0,5.6,4.3,8.6,6.9c3.4,3,5.2,6,4.3,8.2
		c-0.9,2.2-4.7,3.9-9.5,3.4c-0.4,0-1.3,0-1.7,0h-0.9c-0.4,0-0.4,0-0.4,0.4l-0.4,0.4c0,2.6,0.9,8.2,5.2,14.2
		c3.9,4.7,4.7,10.3,1.7,15.5c-3.4,6-12.5,10.8-24.5,7.7h-0.4c-3.4,1.3-8.6,1.7-11.2,1.7s-8.2-0.4-11.2-1.7c0,0,0,0-0.4,0l0,0
		c-12,2.6-21.1-2.2-24.5-7.7c-1.7-3-2.2-6.9-1.3-9.9c0,0,0,0,0-0.4l0,0c0-0.4-0.4-0.4-0.4-0.9c-0.4,0-0.9,0-0.9,0.4v0.4
		c-0.9,3.9-0.4,7.7,1.7,11.2c3,5.2,9.9,9.5,19.4,9.5c2.2,0,4.3-0.4,6.9-0.9c3.4,1.3,9,1.7,11.6,1.7s8.2-0.4,11.6-1.7
		c12.5,2.6,22.4-2.2,26.2-8.6c3.4-5.6,2.6-12-1.7-17.2c-3.9-5.2-4.7-9.5-4.7-12l0,0c0.4,0,1.3,0,1.7,0c5.6,0.4,9.9-1.7,11.2-4.7
		C1621.7,63.9,1621.3,60.5,1616.1,55.7L1616.1,55.7z"/>
</g>
<g>
	<path class="st0" d="M869.1,48.8c0-3.1-1.6-2.9-3.2-3V45c1.4,0.1,2.8,0.1,4.1,0.1c1.5,0,3.5-0.1,6-0.1c9,0,13.9,6,13.9,12.2
		c0,3.5-2,12.1-14.4,12.1c-1.8,0-3.4-0.1-5.1-0.1c-1.6,0-3.1,0-4.7,0.1v-0.9c2.1-0.2,3.1-0.3,3.2-2.7L869.1,48.8L869.1,48.8z
		 M872.5,65.2L872.5,65.2c0,2.7,1.9,3,3.6,3c7.5,0,10-5.7,10-10.9c0-6.5-4.2-11.2-10.9-11.2c-1.4,0-2.1,0.1-2.7,0.1L872.5,65.2
		L872.5,65.2z"/>
	<path class="st0" d="M891.2,68.4h0.7c1,0,1.7,0,1.7-1.2v-9.4c0-1.5-0.5-1.7-1.8-2.4v-0.6c1.6-0.5,3.6-1.1,3.7-1.3
		c0.2-0.1,0.5-0.2,0.6-0.2c0.2,0,0.2,0.2,0.2,0.5v13.4c0,1.2,0.8,1.2,1.7,1.2h0.6v0.9c-1.2,0-2.4-0.1-3.7-0.1c-1.3,0-2.5,0-3.8,0.1
		L891.2,68.4L891.2,68.4z M894.9,48L894.9,48c-0.9,0-1.7-0.8-1.7-1.7c0-0.9,0.8-1.7,1.7-1.7c0.9,0,1.7,0.7,1.7,1.7
		C896.6,47.2,895.8,48,894.9,48z"/>
	<path class="st0" d="M901.9,58c0-1.3-0.4-1.6-2-2.3v-0.7c1.5-0.5,2.9-0.9,4.6-1.7c0.1,0,0.2,0.1,0.2,0.3V56c2-1.4,3.7-2.6,6-2.6
		c3,0,4,2.2,4,4.9v9c0,1.2,0.8,1.2,1.7,1.2h0.6v0.9c-1.2,0-2.4-0.1-3.7-0.1c-1.3,0-2.5,0-3.8,0.1v-0.9h0.6c1,0,1.7,0,1.7-1.2v-9
		c0-2-1.2-3-3.2-3c-1.1,0-2.9,0.9-4,1.7v10.3c0,1.2,0.8,1.2,1.7,1.2h0.6v0.9c-1.2,0-2.4-0.1-3.7-0.1c-1.3,0-2.5,0-3.8,0.1v-0.9h0.6
		c1,0,1.7,0,1.7-1.2L901.9,58L901.9,58z"/>
	<path class="st0" d="M919.8,59.7c-0.1,0.3-0.1,0.8,0,2c0.2,3.3,2.3,6,5.1,6c1.9,0,3.4-1,4.7-2.3l0.5,0.5c-1.6,2.1-3.6,3.9-6.4,3.9
		c-5.5,0-6.7-5.4-6.7-7.6c0-6.8,4.6-8.9,7-8.9c2.8,0,5.9,1.8,5.9,5.5c0,0.2,0,0.4,0,0.6l-0.3,0.2H919.8L919.8,59.7z M926,58.6
		L926,58.6c0.9,0,1-0.5,1-0.9c0-1.8-1.1-3.2-3-3.2c-2.1,0-3.6,1.6-4,4.1H926L926,58.6z"/>
	<path class="st0" d="M930.7,68.4h0.9c1,0,1.7,0,1.7-1.2v-9.8c0-1.1-1.3-1.3-1.8-1.6v-0.5c2.5-1.1,3.9-2,4.3-2
		c0.2,0,0.3,0.1,0.3,0.5V57h0.1c0.9-1.4,2.3-3.6,4.5-3.6c0.9,0,2,0.6,2,1.8c0,0.9-0.7,1.8-1.6,1.8c-1.1,0-1.1-0.8-2.3-0.8
		c-0.6,0-2.5,0.8-2.5,2.9v8.2c0,1.2,0.7,1.2,1.7,1.2h2v0.9c-1.9,0-3.4-0.1-4.9-0.1c-1.4,0-2.9,0-4.1,0.1L930.7,68.4L930.7,68.4z"/>
	<path class="st0" d="M944.2,64.5c0.5,2.3,1.8,4.3,4.4,4.3c2.1,0,2.8-1.3,2.8-2.5c0-4.1-7.6-2.8-7.6-8.4c0-2,1.6-4.5,5.4-4.5
		c1.1,0,2.6,0.3,4,1l0.2,3.6h-0.8c-0.3-2.2-1.6-3.5-3.8-3.5c-1.4,0-2.7,0.8-2.7,2.3c0,4.1,8.1,2.8,8.1,8.3c0,2.3-1.8,4.7-6,4.7
		c-1.4,0-3-0.5-4.3-1.2l-0.4-4L944.2,64.5L944.2,64.5z"/>
	<path class="st0" d="M985.6,51.3h-0.9c-0.7-4.1-3.6-5.7-7.5-5.7c-4,0-9.8,2.7-9.8,11.1c0,7,5,12.1,10.4,12.1c3.5,0,6.3-2.4,7-6
		l0.8,0.2l-0.8,5.1c-1.5,0.9-5.4,1.8-7.7,1.8c-8.2,0-13.3-5.3-13.3-13.1c0-7.1,6.4-12.3,13.2-12.3c2.8,0,5.5,0.9,8.2,1.9L985.6,51.3
		L985.6,51.3z"/>
	<path class="st0" d="M986.9,68.4h0.7c1,0,1.7,0,1.7-1.2V47.8c0-2.3-0.5-2.3-1.8-2.7v-0.6c1.4-0.5,2.9-1.1,3.6-1.5
		c0.4-0.2,0.7-0.4,0.8-0.4c0.2,0,0.3,0.2,0.3,0.5v24.1c0,1.2,0.8,1.2,1.7,1.2h0.6v0.9c-1.2,0-2.4-0.1-3.7-0.1c-1.3,0-2.5,0-3.8,0.1
		L986.9,68.4L986.9,68.4z"/>
	<path class="st0" d="M1009.3,67.4c0,0.6,0.4,0.7,1,0.7c0.4,0,0.9,0,1.4,0v0.7c-1.5,0.1-4.4,0.9-5,1.1l-0.2-0.1v-2.8
		c-2.1,1.7-3.7,2.9-6.2,2.9c-1.9,0-3.8-1.2-3.8-4.1v-8.9c0-0.9-0.1-1.8-2.1-2v-0.7c1.3,0,4-0.2,4.5-0.2c0.4,0,0.4,0.2,0.4,1v9
		c0,1,0,4,3,4c1.2,0,2.8-0.9,4.2-2.1v-9.4c0-0.7-1.7-1.1-2.9-1.4v-0.6c3.1-0.2,5.1-0.5,5.4-0.5c0.3,0,0.3,0.2,0.3,0.6L1009.3,67.4
		L1009.3,67.4z"/>
	<path class="st0" d="M1016.2,55.9c1.4-1.2,3.3-2.5,5.2-2.5c4,0,6.5,3.5,6.5,7.3c0,4.6-3.3,9.1-8.3,9.1c-2.6,0-3.9-0.8-4.8-1.2
		l-1,0.8l-0.7-0.4c0.3-2.1,0.5-4.1,0.5-6.2v-15c0-2.3-0.5-2.3-1.8-2.7v-0.6c1.4-0.5,2.9-1.1,3.6-1.5c0.4-0.2,0.7-0.4,0.8-0.4
		c0.2,0,0.3,0.2,0.3,0.5L1016.2,55.9L1016.2,55.9L1016.2,55.9z M1016.2,65.4L1016.2,65.4c0,1.3,1.3,3.6,3.6,3.6
		c3.7,0,5.3-3.7,5.3-6.8c0-3.8-2.9-6.9-5.6-6.9c-1.3,0-2.4,0.8-3.3,1.6L1016.2,65.4L1016.2,65.4z"/>
	<path class="st0" d="M865.8,89.6h0.3c0.7,0,1.4-0.1,1.4-1.1v-9.9c0-1-0.7-1.1-1.4-1.1h-0.3v-0.6c0.7,0,1.9,0.1,2.8,0.1
		c0.9,0,2.1-0.1,3-0.1v0.6h-0.3c-0.7,0-1.4,0.1-1.4,1.1v9.9c0,1,0.7,1.1,1.4,1.1h0.3v0.6c-0.9,0-2.1-0.1-3-0.1c-0.9,0-2,0.1-2.8,0.1
		V89.6L865.8,89.6z"/>
	<path class="st0" d="M871.6,90.2c-0.9,0-2.1-0.1-3-0.1c-0.9,0-2,0.1-2.8,0.1h-0.1v-0.1v-0.6v-0.1h0.1h0.3c0.7,0,1.3-0.1,1.3-1v-9.9
		c0-0.9-0.6-1-1.3-1h-0.3v-0.1v-0.7h0.1c0.7,0,1.9,0.1,2.8,0.1c0.9,0,2.1-0.1,3-0.1h0.1v0.1v0.6h-0.1h-0.3c-0.7,0-1.3,0.1-1.3,1v9.9
		c0,0.9,0.6,1,1.3,1h0.3v0.1L871.6,90.2L871.6,90.2L871.6,90.2z M871.5,90.1L871.5,90.1v-0.4h-0.2c-0.7,0-1.5-0.1-1.5-1.2v-9.9
		c0-1,0.8-1.2,1.5-1.2h0.2V77c-0.9,0-2,0.1-2.9,0.1c-0.9,0-2-0.1-2.7-0.1v0.4h0.2c0.7,0,1.5,0.1,1.5,1.2v9.9c0,1-0.8,1.2-1.5,1.2
		h-0.2v0.4c0.7,0,1.8-0.1,2.7-0.1C869.5,90,870.6,90.1,871.5,90.1L871.5,90.1z"/>
	<path class="st0" d="M884.6,86.4L884.6,86.4l0-7.2c0-1.6-1.1-1.8-1.7-1.8h-0.4v-0.6c0.9,0,1.8,0.1,2.7,0.1c0.8,0,1.6-0.1,2.3-0.1
		v0.6h-0.3c-0.8,0-1.7,0.2-1.7,2.4v8.6c0,0.7,0,1.3,0.1,1.9H885l-9.8-10.9v7.8c0,1.7,0.3,2.2,1.8,2.2h0.3v0.6
		c-0.8,0-1.6-0.1-2.4-0.1c-0.9,0-1.7,0.1-2.6,0.1v-0.6h0.3c1.3,0,1.7-0.9,1.7-2.4v-8c0-1.1-0.9-1.7-1.7-1.7h-0.2v-0.6
		c0.7,0,1.5,0.1,2.2,0.1c0.6,0,1.1-0.1,1.7-0.1L884.6,86.4L884.6,86.4z"/>
	<path class="st0" d="M885.7,90.5l-0.8,0l-9.6-10.7v7.6c0,1.6,0.3,2.1,1.7,2.1h0.4v0.1v0.7h-0.1c-0.8,0-1.6-0.1-2.4-0.1
		c-0.8,0-1.7,0.1-2.6,0.1h-0.1v-0.1v-0.7h0.1h0.3c1.3,0,1.6-0.8,1.6-2.3v-8c0-1-0.8-1.6-1.6-1.6h-0.3v-0.1v-0.6h0.1
		c0.7,0,1.5,0.1,2.2,0.1c0.6,0,1.1-0.1,1.8,0l8.3,9.4v-7c0-1.5-1-1.7-1.6-1.7h-0.5v-0.1v-0.6h0.1c0.9,0,1.8,0.1,2.7,0.1
		c0.8,0,1.5-0.1,2.3-0.1h0.1v0.1v0.6h-0.1h-0.3c-0.8,0-1.6,0.1-1.6,2.3v8.6C885.7,89.2,885.7,89.8,885.7,90.5L885.7,90.5L885.7,90.5
		L885.7,90.5z M885,90.4L885,90.4h0.6c-0.1-0.6-0.1-1.2-0.1-1.8v-8.6c0-2.3,1-2.5,1.8-2.5h0.2V77c-0.7,0-1.5,0.1-2.3,0.1
		c-0.9,0-1.7-0.1-2.6-0.1l0,0.4h0.3c0.6,0,1.7,0.3,1.7,1.9l0,7.2l0,0l-0.1,0.1l-8.4-9.5c-0.6,0-1.1,0.1-1.7,0.1
		c-0.7,0-1.4-0.1-2.1-0.1l0,0.4h0.2c0.9,0,1.8,0.7,1.8,1.8v8c0,1.5-0.4,2.5-1.8,2.5l-0.2,0v0.4c0.8,0,1.7-0.1,2.5-0.1
		c0.8,0,1.6,0.1,2.4,0.1v-0.4H877c-1.5,0-1.9-0.7-1.9-2.3v-8L885,90.4L885,90.4z M884.6,86.4L884.6,86.4L884.6,86.4L884.6,86.4z
		 M884.6,86.4L884.6,86.4L884.6,86.4L884.6,86.4L884.6,86.4z"/>
	<path class="st0" d="M890.4,77.9c-1.4,0-1.5,0.3-1.8,1.7h-0.6c0.1-0.5,0.2-1.1,0.2-1.6c0.1-0.5,0.1-1.1,0.1-1.6h0.5
		c0.2,0.6,0.6,0.5,1.1,0.5h9.8c0.5,0,1,0,1-0.6l0.5,0.1c-0.1,0.5-0.1,1-0.2,1.5c0,0.5,0,1,0,1.5l-0.6,0.2c0-0.7-0.1-1.8-1.4-1.8H896
		V88c0,1.5,0.7,1.6,1.6,1.6h0.4v0.6c-0.7,0-2.1-0.1-3.1-0.1c-1.1,0-2.5,0.1-3.2,0.1v-0.6h0.4c1,0,1.6-0.1,1.6-1.6V77.9L890.4,77.9
		L890.4,77.9z"/>
	<path class="st0" d="M897.9,90.2c-0.7,0-2.1-0.1-3.1-0.1c-1.1,0-2.5,0.1-3.2,0.1h-0.1v-0.1v-0.7h0.1h0.4c1,0,1.5,0,1.5-1.5V77.9h-3
		v-0.1v-0.1h3.2V88c0,1.5-0.6,1.7-1.7,1.7h-0.3v0.4c0.7,0,2-0.1,3.1-0.1c1,0,2.3,0.1,3,0.1v-0.4h-0.3c-0.9,0-1.7-0.2-1.7-1.7V77.8
		h3.2c1.3,0,1.4,1.1,1.5,1.8l0.4-0.2c0-0.5,0-1,0-1.5c0.1-0.5,0.1-1,0.2-1.5l-0.3,0c-0.1,0.6-0.6,0.6-1.1,0.6H890h-0.1
		c-0.4,0-0.9,0-1.1-0.6h-0.3c0,0.5,0,1-0.1,1.5c-0.1,0.5-0.1,1-0.2,1.5h0.4c0.2-1.3,0.4-1.8,1.8-1.7v0.1v0.1c-1.4,0-1.4,0.3-1.7,1.7
		l0,0.1h-0.1H888l0-0.1c0.1-0.5,0.2-1.1,0.2-1.6c0.1-0.5,0.1-1.1,0.1-1.6v-0.1h0.1h0.5l0,0.1c0.1,0.5,0.5,0.5,1,0.5h0.1h9.8
		c0.5,0,0.9,0,0.9-0.5l0-0.1l0.1,0l0.5,0.1l0,0.1c-0.1,0.5-0.2,1-0.2,1.5c0,0.5,0,1,0,1.5v0.1l-0.1,0l-0.7,0.2l0-0.1
		c-0.1-0.7-0.1-1.7-1.3-1.7h-3v10c0,1.4,0.6,1.5,1.5,1.5h0.4v0.1L897.9,90.2L897.9,90.2L897.9,90.2z"/>
	<path class="st0" d="M901.9,89.6h0.3c0.7,0,1.4-0.1,1.4-1.1v-9.9c0-1-0.7-1.1-1.4-1.1h-0.3v-0.6c1.2,0,3.1,0.1,4.7,0.1
		c1.6,0,3.6-0.1,4.9-0.1c0,0.8,0,2.1,0,2.9L911,80c-0.1-1.2-0.3-2.2-2.3-2.2H906v5h2.3c1.1,0,1.4-0.6,1.5-1.7h0.6
		c0,0.7-0.1,1.5-0.1,2.2c0,0.7,0,1.4,0.1,2.2l-0.6,0.1c-0.1-1.1-0.2-1.9-1.5-1.9H906v4.4c0,1.2,1.1,1.2,2.3,1.2
		c2.3,0,3.3-0.2,3.9-2.3l0.5,0.1c-0.2,1-0.5,2-0.6,3c-1.2,0-3.4-0.1-5.1-0.1c-1.7,0-4,0.1-5,0.1V89.6L901.9,89.6z"/>
	<path class="st0" d="M912.1,90.2c-1.2,0-3.4-0.1-5.1-0.1c-1.7,0-4,0.1-5,0.1h-0.1v-0.1v-0.6v-0.1h0.1h0.3c0.7,0,1.3-0.1,1.3-1v-9.9
		c0-0.9-0.6-1-1.3-1h-0.3v-0.1v-0.7h0.1c1.2,0,3.1,0.1,4.7,0.1c1.6,0,3.6-0.1,4.9-0.1h0.1l0,0.1c0,0.3,0,0.6,0,1
		c0,0.7,0,1.4,0.1,1.9l0,0.1l-0.1,0l-0.7,0.2l0-0.1c-0.1-1.2-0.3-2.1-2.2-2.1h-2.6l0,4.8h2.2c1.1,0,1.3-0.6,1.4-1.6l0-0.1h0.1h0.7
		l0,0.1c0,0.7-0.1,1.5-0.1,2.2c0,0.7,0,1.4,0.1,2.2l0,0.1l-0.1,0l-0.7,0.1l0-0.1c-0.1-1.2-0.1-1.8-1.4-1.8l-2.2,0v4.3
		c0,1.2,1,1.1,2.2,1.2c2.3,0,3.2-0.1,3.8-2.3l0-0.1l0.1,0l0.6,0.2l0,0.1C912.5,88.2,912.3,89.2,912.1,90.2L912.1,90.2L912.1,90.2
		L912.1,90.2z M912,90.1L912,90.1c0.2-1,0.4-1.9,0.6-2.9l-0.4-0.1c-0.6,2.1-1.7,2.3-3.9,2.3c-1.2,0-2.4,0-2.4-1.3v-4.5h2.4
		c1.3,0,1.5,0.8,1.6,1.9l0.4-0.1c0-0.7-0.1-1.4-0.1-2.1c0-0.7,0-1.4,0.1-2.1h-0.4c-0.1,1-0.4,1.7-1.6,1.7h-2.3v-5.1h2.7
		c2,0,2.3,1,2.4,2.2l0.4-0.1c0-0.5-0.1-1.2-0.1-1.9c0-0.3,0-0.6,0-0.9c-1.3,0-3.2,0.1-4.8,0.1c-1.6,0-3.5-0.1-4.6-0.1v0.4h0.2
		c0.7,0,1.5,0.1,1.5,1.2v9.9c0,1-0.8,1.2-1.5,1.2H902v0.4c1.1,0,3.3-0.1,5-0.1C908.6,90,910.8,90.1,912,90.1L912,90.1z"/>
	<path class="st0" d="M915.3,78.9c0-1.4-0.8-1.4-1.3-1.4h-0.3v-0.6c0.6,0,1.8,0.1,2.9,0.1c1.1,0,2-0.1,3.1-0.1
		c2.4,0,4.5,0.6,4.5,3.3c0,1.7-1.1,2.7-2.6,3.3l3.2,4.9c0.5,0.8,0.9,1,1.8,1.1v0.6c-0.6,0-1.2-0.1-1.9-0.1c-0.6,0-1.2,0.1-1.8,0.1
		c-1.5-1.9-2.7-4-3.9-6.1h-1.2v4.1c0,1.5,0.7,1.5,1.6,1.5h0.3v0.6c-1.1,0-2.2-0.1-3.3-0.1c-0.9,0-1.8,0.1-2.8,0.1v-0.6h0.3
		c0.7,0,1.3-0.3,1.3-1V78.9L915.3,78.9z M917.7,83.3L917.7,83.3h0.9c1.9,0,2.9-0.7,2.9-3c0-1.7-1.1-2.8-2.8-2.8
		c-0.6,0-0.8,0.1-1.1,0.1L917.7,83.3L917.7,83.3z"/>
	<path class="st0" d="M926.5,90.2c-0.6,0-1.2-0.1-1.9-0.1c-0.6,0-1.2,0.1-1.8,0c-1.5-1.9-2.7-3.9-3.9-6.1h-1.1v4
		c0,1.4,0.6,1.4,1.5,1.4h0.4v0.1v0.7h-0.1c-1.1,0-2.2-0.1-3.3-0.1c-0.9,0-1.8,0.1-2.7,0.1h-0.1v-0.1v-0.7h0.1h0.3
		c0.7,0,1.3-0.3,1.3-0.9v-9.6c0-1.3-0.7-1.3-1.3-1.4h-0.4v-0.1v-0.7h0.1c0.6,0,1.8,0.1,2.9,0.1c1.1,0,2-0.1,3.1-0.1
		c2.4,0,4.6,0.7,4.6,3.4c0,1.7-1.1,2.8-2.6,3.4l3.2,4.8c0.5,0.8,0.9,1,1.8,1.1l0.1,0v0.1L926.5,90.2L926.5,90.2L926.5,90.2z
		 M917.7,83.9L917.7,83.9h1.3l0,0c1.2,2.2,2.5,4.2,3.9,6.1c0.6,0,1.2-0.1,1.8-0.1c0.6,0,1.2,0.1,1.8,0.1v-0.4
		c-0.9-0.1-1.3-0.4-1.8-1.2l-3.3-4.9l0.1,0c1.5-0.6,2.6-1.6,2.6-3.3c0-2.6-2-3.2-4.4-3.3c-1,0-1.9,0.1-3.1,0.1
		c-1.1,0-2.2-0.1-2.9-0.1v0.4h0.3c0.6,0,1.4,0.1,1.4,1.5v9.6c0,0.8-0.7,1.1-1.4,1.1h-0.3v0.4c0.9,0,1.8-0.1,2.7-0.1
		c1.1,0,2.1,0.1,3.2,0.1v-0.4h-0.3c-0.9,0-1.6-0.1-1.6-1.6L917.7,83.9L917.7,83.9L917.7,83.9z M917.7,83.4L917.7,83.4L917.7,83.4
		l-0.1-5.8l0.1,0c0.3,0,0.5-0.1,1.1-0.1c1.7,0,2.9,1.1,2.9,2.9c0,2.3-1.1,3-3,3L917.7,83.4L917.7,83.4z M918.6,83.2L918.6,83.2
		c1.9,0,2.8-0.7,2.8-2.9c0-1.7-1-2.7-2.7-2.7c-0.5,0-0.8,0-1,0.1v5.5H918.6L918.6,83.2z"/>
	<path class="st0" d="M939.4,86.4L939.4,86.4l0-7.2c0-1.6-1.1-1.8-1.6-1.8h-0.4v-0.6c0.9,0,1.8,0.1,2.7,0.1c0.8,0,1.6-0.1,2.3-0.1
		v0.6h-0.3c-0.8,0-1.7,0.2-1.7,2.4v8.6c0,0.7,0,1.3,0.1,1.9h-0.7L930,79.5v7.8c0,1.7,0.3,2.2,1.8,2.2h0.3v0.6
		c-0.8,0-1.6-0.1-2.4-0.1c-0.9,0-1.7,0.1-2.6,0.1v-0.6h0.3c1.3,0,1.7-0.9,1.7-2.4v-8c0-1.1-0.9-1.7-1.7-1.7h-0.2v-0.6
		c0.7,0,1.5,0.1,2.2,0.1c0.6,0,1.1-0.1,1.7-0.1L939.4,86.4L939.4,86.4z"/>
	<path class="st0" d="M940.5,90.5l-0.8,0l-9.6-10.7v7.6c0,1.7,0.3,2.1,1.7,2.1h0.4v0.1v0.7h-0.1c-0.8,0-1.6-0.1-2.4-0.1
		c-0.8,0-1.7,0.1-2.6,0.1H927v-0.1v-0.7h0.1h0.3c1.3,0,1.6-0.8,1.6-2.3v-8c0-1-0.8-1.6-1.6-1.6H927v-0.1v-0.7h0.1
		c0.7,0,1.5,0.1,2.2,0.1c0.6,0,1.1-0.1,1.7,0l8.3,9.4v-7c0-1.5-1-1.7-1.6-1.7h-0.5v-0.1v-0.7h0.1c0.9,0,1.8,0.1,2.7,0.1
		c0.8,0,1.6-0.1,2.3-0.1h0.1v0.1v0.6h-0.1h-0.3c-0.8,0-1.6,0.1-1.6,2.3v8.6C940.5,89.2,940.5,89.8,940.5,90.5L940.5,90.5L940.5,90.5
		L940.5,90.5z M939.8,90.4L939.8,90.4h0.6c-0.1-0.6-0.1-1.2-0.1-1.8v-8.6c0-2.3,1-2.5,1.8-2.5h0.2V77c-0.7,0-1.5,0.1-2.2,0.1
		c-0.9,0-1.7-0.1-2.6-0.1v0.4h0.3c0.6,0,1.7,0.3,1.7,1.9l0,7.2l0,0l-0.1,0.1L931,77c-0.6,0-1.1,0.1-1.7,0.1c-0.7,0-1.4-0.1-2.1-0.1
		v0.4h0.2c0.9,0,1.8,0.7,1.8,1.8v8c0,1.5-0.4,2.5-1.8,2.5l-0.2,0v0.4c0.8,0,1.7-0.1,2.5-0.1c0.8,0,1.6,0.1,2.4,0.1v-0.4h-0.2
		c-1.5,0-1.9-0.7-1.9-2.3v-8L939.8,90.4L939.8,90.4z M939.4,86.4L939.4,86.4L939.4,86.4L939.4,86.4z M939.4,86.4L939.4,86.4
		L939.4,86.4L939.4,86.4L939.4,86.4z"/>
	<path class="st0" d="M945.4,87.4c-0.2,0.6-0.4,1.1-0.4,1.5c0,0.6,0.8,0.7,1.4,0.7h0.2v0.6c-0.8,0-1.5-0.1-2.3-0.1
		c-0.7,0-1.4,0-2,0.1v-0.6h0.1c0.7,0,1.4-0.4,1.6-1.2l3-8.7c0.2-0.7,0.6-1.7,0.7-2.4c0.6-0.2,1.4-0.6,1.7-0.8c0.1,0,0.1,0,0.2,0
		c0.1,0,0.1,0,0.1,0.1c0.1,0.1,0.1,0.3,0.2,0.5l3.5,9.9c0.2,0.7,0.5,1.4,0.7,1.9c0.2,0.5,0.6,0.8,1.3,0.8h0.1v0.6
		c-0.9,0-1.7-0.1-2.6-0.1c-0.9,0-1.9,0-2.8,0.1v-0.6h0.2c0.4,0,1.2-0.1,1.2-0.5c0-0.2-0.2-0.8-0.4-1.4l-0.7-2.2H946L945.4,87.4
		L945.4,87.4z M948.2,79L948.2,79L948.2,79l-1.8,5.4h3.5L948.2,79z"/>
	<path class="st0" d="M955.5,90.2c-0.9,0-1.7-0.1-2.6-0.1c-0.9,0-1.9,0-2.8,0.1l-0.1,0v-0.1v-0.7h0.1h0.2c0.4,0,1.1-0.1,1.1-0.5
		c0-0.2-0.2-0.7-0.4-1.3l-0.7-2.1h-4.2l-0.6,1.9c-0.2,0.6-0.4,1.1-0.4,1.5c0,0.5,0.7,0.6,1.3,0.6h0.3v0.1v0.7l-0.1,0
		c-0.8,0-1.5-0.1-2.3-0.1c-0.7,0-1.4,0-2,0.1l-0.1,0v-0.1v-0.7h0.1h0.1c0.7,0,1.3-0.4,1.6-1.2l3-8.7c0.2-0.7,0.6-1.6,0.8-2.4
		c0.6-0.2,1.4-0.6,1.7-0.8c0.1,0,0.1,0,0.2,0c0,0,0.1,0,0.2,0.1c0.1,0.2,0.1,0.3,0.2,0.5l3.5,9.9c0.2,0.7,0.4,1.4,0.7,1.9
		c0.2,0.5,0.6,0.7,1.2,0.7h0.2v0.1L955.5,90.2L955.5,90.2L955.5,90.2z M950.2,90.1L950.2,90.1c0.9,0,1.9-0.1,2.8-0.1
		c0.9,0,1.7,0,2.5,0.1v-0.4h0c-0.6,0-1.1-0.3-1.3-0.8c-0.2-0.6-0.5-1.3-0.7-1.9l-3.5-9.9c-0.1-0.2-0.1-0.3-0.2-0.5c0,0,0,0,0,0h0
		c0,0-0.1,0-0.1,0c-0.4,0.2-1.1,0.6-1.7,0.8c-0.1,0.7-0.5,1.7-0.7,2.4l-3,8.7c-0.3,0.8-1,1.3-1.7,1.3h0v0.4c0.6,0,1.3-0.1,2-0.1
		c0.7,0,1.5,0,2.2,0.1v-0.4h-0.1c-0.6,0-1.5-0.1-1.5-0.7c0-0.4,0.2-0.9,0.4-1.5l0.1,0l-0.1,0l0.6-2h4.4l0.8,2.3
		c0.2,0.6,0.4,1.1,0.4,1.4c0,0.6-0.8,0.6-1.3,0.6h-0.1L950.2,90.1L950.2,90.1z M946.3,84.5L946.3,84.5l1.8-5.5h0.1h0V79l0,0l0,0V79
		h0.1l1.8,5.5H946.3z M946.5,84.3L946.5,84.3h3.3l-1.7-5.1L946.5,84.3z M948.1,79.1L948.1,79.1L948.1,79.1L948.1,79.1z"/>
	<path class="st0" d="M956.4,77.9c-1.4,0-1.5,0.3-1.8,1.7H954c0.1-0.5,0.2-1.1,0.2-1.6c0.1-0.5,0.1-1.1,0.1-1.6h0.5
		c0.2,0.6,0.6,0.5,1.1,0.5h9.8c0.5,0,1,0,1-0.6l0.5,0.1c-0.1,0.5-0.1,1-0.2,1.5c0,0.5,0,1,0,1.5l-0.6,0.2c0-0.7-0.1-1.8-1.4-1.8
		h-3.1V88c0,1.5,0.7,1.6,1.6,1.6h0.4v0.6c-0.7,0-2.1-0.1-3.1-0.1c-1.1,0-2.5,0.1-3.2,0.1v-0.6h0.4c1,0,1.6-0.1,1.6-1.6V77.9
		L956.4,77.9L956.4,77.9z"/>
	<path class="st0" d="M963.8,90.2c-0.7,0-2.1-0.1-3.1-0.1c-1.1,0-2.5,0.1-3.2,0.1h-0.1v-0.1v-0.7h0.1h0.4c1,0,1.5,0,1.5-1.5l0-10.1
		h-3v-0.1v-0.1h3.2V88c0,1.5-0.6,1.7-1.7,1.7h-0.3v0.4c0.8,0,2-0.1,3.1-0.1c1,0,2.3,0.1,3,0.1v-0.4h-0.3c-0.9,0-1.7-0.2-1.7-1.7
		V77.8h3.2c1.3,0,1.4,1.1,1.5,1.8l0.4-0.2c0-0.5,0-1,0-1.5c0.1-0.5,0.1-1,0.2-1.5l-0.3,0c-0.1,0.6-0.6,0.6-1.1,0.6H956h-0.1
		c-0.4,0-0.9,0-1.1-0.6h-0.3c0,0.5,0,1-0.1,1.5c0,0.5-0.1,1-0.2,1.5h0.4c0.3-1.3,0.4-1.8,1.8-1.7v0.1v0.1c-1.4,0-1.4,0.3-1.7,1.7
		l0,0.1h-0.1h-0.7l0-0.1c0.1-0.5,0.2-1.1,0.2-1.6c0.1-0.5,0.1-1.1,0.1-1.6v-0.1h0.1h0.5l0,0.1c0.1,0.5,0.5,0.5,1,0.5l0.1,0h9.8
		c0.5,0,0.9,0,0.9-0.5l0-0.1l0.1,0l0.5,0.1l0,0.1c-0.1,0.5-0.2,1-0.2,1.5c0,0.5,0,1,0,1.5v0.1l-0.1,0l-0.7,0.2l0-0.1
		c0-0.7-0.1-1.7-1.3-1.7h-3v10c0,1.4,0.6,1.5,1.5,1.5h0.4v0.1L963.8,90.2L963.8,90.2L963.8,90.2z"/>
	<path class="st0" d="M967.9,89.6h0.3c0.7,0,1.4-0.1,1.4-1.1v-9.9c0-1-0.7-1.1-1.4-1.1h-0.3v-0.6c0.7,0,1.9,0.1,2.8,0.1
		c1,0,2.1-0.1,3-0.1v0.6h-0.3c-0.7,0-1.4,0.1-1.4,1.1v9.9c0,1,0.7,1.1,1.4,1.1h0.3v0.6c-0.9,0-2.1-0.1-3-0.1c-0.9,0-2,0.1-2.8,0.1
		L967.9,89.6L967.9,89.6z"/>
	<path class="st0" d="M973.7,90.2c-0.9,0-2.1-0.1-3-0.1c-0.9,0-2,0.1-2.8,0.1h-0.1v-0.1v-0.6v-0.1h0.1h0.3c0.7,0,1.3-0.1,1.3-1v-9.9
		c0-0.9-0.6-1-1.3-1h-0.3v-0.1v-0.7h0.1c0.7,0,1.9,0.1,2.8,0.1c0.9,0,2.1-0.1,3-0.1h0.1v0.1v0.6h-0.1h-0.3c-0.7,0-1.3,0.1-1.3,1v9.9
		c0,0.9,0.6,1,1.3,1h0.3v0.1L973.7,90.2L973.7,90.2L973.7,90.2z M973.6,90.1L973.6,90.1v-0.4h-0.2c-0.7,0-1.5-0.1-1.5-1.2v-9.9
		c0-1,0.8-1.2,1.5-1.2h0.2V77c-0.9,0-2,0.1-2.9,0.1c-0.9,0-2-0.1-2.7-0.1v0.4h0.2c0.7,0,1.5,0.1,1.5,1.2v9.9c0,1-0.8,1.2-1.5,1.2
		H968v0.4c0.7,0,1.8-0.1,2.7-0.1C971.6,90,972.7,90.1,973.6,90.1L973.6,90.1z"/>
	<path class="st0" d="M981.3,76.6c4,0,7.3,2.5,7.3,6.5c0,4.4-3.1,7.3-7.2,7.3c-4,0-7.1-2.7-7.1-6.8
		C974.3,79.7,977.3,76.6,981.3,76.6L981.3,76.6z M981.6,89.6L981.6,89.6c3.7,0,4.3-3.2,4.3-6c0-2.8-1.5-6.1-4.6-6.1
		c-3.3,0-4.3,3-4.3,5.5C976.9,86.4,978.5,89.6,981.6,89.6L981.6,89.6z"/>
	<path class="st0" d="M974.2,83.6c0-4,3.1-7.1,7.1-7.1v0.1v0.1c-3.9,0-6.9,3-6.9,6.9c0,4,3,6.7,7,6.7c4,0,7.1-2.9,7.1-7.2
		c0-4-3.2-6.5-7.2-6.5v-0.1v-0.1c4.1,0,7.3,2.5,7.3,6.6c0,4.4-3.2,7.3-7.3,7.3C977.3,90.5,974.2,87.8,974.2,83.6L974.2,83.6
		L974.2,83.6z M976.9,83L976.9,83c0-2.6,1-5.6,4.4-5.6c3.2,0,4.7,3.4,4.7,6.2c0,2.8-0.7,6.1-4.4,6.1v-0.1v-0.1
		c3.6,0,4.2-3.2,4.2-5.9c0-2.8-1.5-6-4.6-6c-3.3,0-4.2,2.9-4.2,5.4c0,3.4,1.5,6.6,4.5,6.6v0.1v0.1C978.4,89.7,976.9,86.4,976.9,83
		L976.9,83z"/>
	<path class="st0" d="M1001.3,86.4L1001.3,86.4l0-7.2c0-1.6-1.1-1.8-1.7-1.8h-0.4v-0.6c0.9,0,1.8,0.1,2.7,0.1c0.8,0,1.6-0.1,2.3-0.1
		v0.6h-0.3c-0.8,0-1.7,0.2-1.7,2.4v8.6c0,0.7,0,1.3,0.1,1.9h-0.7l-9.8-10.9v7.8c0,1.7,0.3,2.2,1.8,2.2h0.3v0.6
		c-0.8,0-1.6-0.1-2.4-0.1c-0.9,0-1.7,0.1-2.6,0.1v-0.6h0.3c1.3,0,1.7-0.9,1.7-2.4v-8c0-1.1-0.9-1.7-1.7-1.7H989v-0.6
		c0.7,0,1.5,0.1,2.2,0.1c0.6,0,1.1-0.1,1.7-0.1L1001.3,86.4L1001.3,86.4z"/>
	<path class="st0" d="M1002.4,90.5l-0.8,0L992,79.8v7.6c0,1.6,0.3,2.1,1.7,2.1h0.4v0.1v0.7h-0.1c-0.8,0-1.6-0.1-2.4-0.1
		c-0.9,0-1.7,0.1-2.6,0.1h-0.1v-0.1v-0.7h0.1h0.3c1.3,0,1.6-0.8,1.6-2.3v-8c0-1-0.8-1.6-1.6-1.6h-0.3v-0.1v-0.7h0.1
		c0.7,0,1.5,0.1,2.2,0.1c0.6,0,1.1-0.1,1.8,0l8.3,9.4v-7c0-1.5-1-1.7-1.6-1.7h-0.5v-0.1v-0.7h0.1c0.9,0,1.8,0.1,2.7,0.1
		c0.8,0,1.6-0.1,2.3-0.1h0.1v0.1v0.6h-0.1h-0.3c-0.8,0-1.6,0.1-1.6,2.3v8.6C1002.4,89.2,1002.4,89.8,1002.4,90.5L1002.4,90.5
		L1002.4,90.5L1002.4,90.5z M1001.7,90.4L1001.7,90.4h0.6c-0.1-0.6-0.1-1.2-0.1-1.8v-8.6c0-2.3,1-2.5,1.8-2.5h0.2V77
		c-0.7,0-1.5,0.1-2.3,0.1c-0.9,0-1.7-0.1-2.6-0.1v0.4h0.3c0.6,0,1.7,0.3,1.7,1.9l0,7.2l0,0l-0.1,0.1l-8.4-9.5
		c-0.6,0-1.1,0.1-1.7,0.1c-0.7,0-1.4-0.1-2.1-0.1v0.4h0.2c0.9,0,1.8,0.7,1.8,1.8v8c0,1.5-0.4,2.5-1.8,2.5l-0.2,0v0.4
		c0.8,0,1.7-0.1,2.5-0.1c0.8,0,1.6,0.1,2.4,0.1v-0.4h-0.2c-1.5,0-1.9-0.7-1.9-2.3v-8L1001.7,90.4L1001.7,90.4z M1001.3,86.4
		L1001.3,86.4L1001.3,86.4L1001.3,86.4z M1001.3,86.4L1001.3,86.4L1001.3,86.4L1001.3,86.4L1001.3,86.4z"/>
	<path class="st0" d="M1007.3,87.4c-0.2,0.6-0.4,1.1-0.4,1.5c0,0.6,0.8,0.7,1.4,0.7h0.2v0.6c-0.8,0-1.5-0.1-2.3-0.1
		c-0.7,0-1.4,0-2,0.1v-0.6h0.1c0.7,0,1.4-0.4,1.7-1.2l3-8.7c0.2-0.7,0.6-1.7,0.7-2.4c0.6-0.2,1.4-0.6,1.7-0.8c0.1,0,0.1,0,0.2,0
		c0.1,0,0.1,0,0.1,0.1c0.1,0.1,0.1,0.3,0.2,0.5l3.5,9.9c0.2,0.7,0.5,1.4,0.7,1.9c0.2,0.5,0.6,0.8,1.3,0.8h0.1v0.6
		c-0.9,0-1.7-0.1-2.6-0.1c-0.9,0-1.9,0-2.8,0.1v-0.6h0.2c0.4,0,1.2-0.1,1.2-0.5c0-0.2-0.2-0.8-0.4-1.4l-0.7-2.2h-4.3L1007.3,87.4
		L1007.3,87.4z M1010.1,79L1010.1,79L1010.1,79l-1.8,5.4h3.5L1010.1,79z"/>
	<path class="st0" d="M1017.5,90.2c-0.9,0-1.7-0.1-2.6-0.1c-0.9,0-1.9,0-2.8,0.1l-0.1,0v-0.1v-0.7h0.1h0.2c0.4,0,1.1-0.1,1.1-0.5
		c0-0.2-0.2-0.7-0.4-1.3l-0.7-2.1h-4.2l-0.6,1.9c-0.2,0.6-0.4,1.1-0.4,1.5c0,0.5,0.7,0.6,1.3,0.6h0.3v0.1v0.7l-0.1,0
		c-0.8,0-1.5-0.1-2.3-0.1c-0.7,0-1.4,0-2,0.1l-0.1,0v-0.1v-0.7h0.1h0.1c0.7,0,1.3-0.4,1.6-1.2l3-8.7c0.2-0.7,0.6-1.6,0.8-2.4
		c0.6-0.2,1.4-0.6,1.7-0.8c0,0,0.1,0,0.2,0c0.1,0,0.1,0,0.2,0.1c0.1,0.1,0.1,0.3,0.2,0.5l3.5,9.9c0.2,0.7,0.5,1.4,0.7,1.9
		c0.2,0.5,0.6,0.7,1.2,0.7h0.2v0.1L1017.5,90.2L1017.5,90.2L1017.5,90.2z M1012.1,90.1L1012.1,90.1c0.9,0,1.9-0.1,2.8-0.1
		c0.9,0,1.7,0,2.5,0.1l0-0.4h0c-0.6,0-1.1-0.3-1.3-0.8c-0.2-0.6-0.5-1.3-0.7-1.9l-3.5-9.9c-0.1-0.2-0.1-0.3-0.2-0.5c0,0,0,0,0,0h0
		c0,0-0.1,0-0.1,0c-0.4,0.2-1.1,0.6-1.7,0.8c-0.1,0.7-0.5,1.7-0.7,2.4l-3,8.7c-0.3,0.8-1,1.3-1.7,1.3h0v0.4c0.7,0,1.3-0.1,2-0.1
		c0.7,0,1.5,0,2.2,0.1v-0.4h-0.1c-0.6,0-1.5-0.1-1.5-0.7c0-0.4,0.2-0.9,0.4-1.5l0.1,0l-0.1,0l0.6-2h4.4l0.8,2.3
		c0.2,0.6,0.4,1.1,0.4,1.4c0,0.6-0.8,0.6-1.3,0.6h-0.1L1012.1,90.1L1012.1,90.1z M1008.2,84.5L1008.2,84.5l1.8-5.5h0.1h0V79l0,0l0,0
		V79h0.1l1.8,5.5H1008.2z M1008.4,84.3L1008.4,84.3h3.3l-1.6-5.1L1008.4,84.3L1008.4,84.3z M1010,79.1L1010,79.1L1010,79.1
		L1010,79.1z"/>
	<path class="st0" d="M1022.2,88.3c0,0.8,0.5,1,1.1,1.1c0.8,0.1,1.6,0.1,2.5,0c0.8-0.1,1.5-0.6,1.8-1c0.3-0.4,0.5-0.9,0.6-1.4h0.5
		c-0.2,1.1-0.5,2.1-0.7,3.2c-1.7,0-3.3-0.1-5-0.1c-1.7,0-3.3,0.1-5,0.1v-0.6h0.3c0.7,0,1.4-0.1,1.4-1.3v-9.7c0-1-0.7-1.1-1.4-1.1
		h-0.3v-0.6c1,0,2,0.1,3,0.1c1,0,1.9-0.1,2.9-0.1v0.6h-0.5c-0.7,0-1.3,0-1.3,1V88.3L1022.2,88.3z"/>
	<path class="st0" d="M1028.1,90.2c-1.7,0-3.3-0.1-5-0.1c-1.7,0-3.3,0.1-5,0.1h-0.1v-0.1v-0.7h0.1h0.3c0.7,0,1.3-0.1,1.3-1.2v-9.8
		c0-0.9-0.7-1-1.3-1h-0.3v-0.1v-0.7h0.1c1,0,2,0.1,3,0.1c1,0,1.9-0.1,2.9-0.1h0.1v0.1v0.6h-0.1h-0.5c-0.7,0-1.2,0-1.2,0.9v9.8
		c0,0.7,0.5,0.9,1.1,1c0.3,0,0.7,0,1.1,0c0.5,0,0.9,0,1.4-0.1c0.8-0.1,1.4-0.5,1.8-1c0.3-0.4,0.5-0.9,0.6-1.3l0-0.1h0.1h0.7l0,0.1
		C1028.7,88,1028.4,89.1,1028.1,90.2L1028.1,90.2L1028.1,90.2L1028.1,90.2L1028.1,90.2z M1028.1,90.1L1028.1,90.1
		c0.2-1,0.5-2,0.7-3.1h-0.4c-0.1,0.4-0.3,0.9-0.6,1.3c-0.4,0.5-1.1,1-1.9,1.1c-0.5,0.1-1,0.1-1.5,0.1c-0.4,0-0.7,0-1.1,0
		c-0.6-0.1-1.2-0.3-1.2-1.1v-9.8c0-1.1,0.7-1.1,1.4-1.1h0.4V77c-0.9,0-1.9,0.1-2.8,0.1c-1,0-1.9-0.1-2.9-0.1v0.4h0.2
		c0.7,0,1.5,0.1,1.5,1.2v9.8c0,1.2-0.8,1.4-1.5,1.4h-0.2v0.4c1.6,0,3.3-0.1,4.9-0.1S1026.4,90.1,1028.1,90.1L1028.1,90.1z"/>
	<path class="st0" d="M1028.6,76.4c1.1,0,2,0.9,2,2c0,1.1-0.9,2-2,2c-1.1,0-2-0.9-2-2C1026.6,77.3,1027.5,76.4,1028.6,76.4z
		 M1028.6,80L1028.6,80c0.9,0,1.6-0.8,1.6-1.6c0-0.9-0.7-1.6-1.6-1.6c-0.9,0-1.6,0.8-1.6,1.6C1027,79.2,1027.7,80,1028.6,80z
		 M1027.6,79.4L1027.6,79.4L1027.6,79.4c0.2-0.1,0.3-0.1,0.3-0.3v-1.5c0-0.2,0-0.3-0.3-0.3v-0.1h1c0.4,0,0.7,0.2,0.7,0.5
		c0,0.3-0.2,0.5-0.5,0.6l0.3,0.5c0.2,0.2,0.3,0.4,0.4,0.5v0.1h-0.4c-0.2,0-0.3-0.4-0.7-0.9h-0.2v0.7c0,0.1,0,0.1,0.3,0.2v0.1
		L1027.6,79.4L1027.6,79.4z M1028.3,78.4L1028.3,78.4h0.2c0.3,0,0.4-0.2,0.4-0.5c0-0.3-0.2-0.4-0.4-0.4h-0.2V78.4z"/>
	<g>
		<path class="st0" d="M815.1,49.7v35.9c7.2-2.8,12.3-9.8,12.4-18C827.5,59.5,822.4,52.5,815.1,49.7z"/>
		<path class="st0" d="M789,67.7c0,8.2,5.1,15.2,12.3,17.9V49.7C794.2,52.5,789,59.5,789,67.7z"/>
		<path class="st0" d="M823.8,34.6h-15.6c-18.3,0-33.4,13.7-33.4,33.4c0,18.1,15.1,32.9,33.4,32.9h15.6
			c18.1,0.1,34.7-14.8,34.7-32.9C858.4,48.2,841.9,34.6,823.8,34.6z M808.3,98c-16.8,0-30.3-13.6-30.3-30.3
			c0-16.8,13.6-30.3,30.3-30.3c16.8,0,30.3,13.6,30.3,30.3C838.6,84.4,825,98,808.3,98z"/>
	</g>
	<path class="st0" d="M869.1,48.8c0-3.1-1.6-2.9-3.2-3V45c1.4,0.1,2.8,0.1,4.1,0.1c1.5,0,3.5-0.1,6-0.1c9,0,13.9,6,13.9,12.2
		c0,3.5-2,12.1-14.4,12.1c-1.8,0-3.4-0.1-5.1-0.1c-1.6,0-3.1,0-4.7,0.1v-0.9c2.1-0.2,3.1-0.3,3.2-2.7L869.1,48.8L869.1,48.8z
		 M872.5,65.2L872.5,65.2c0,2.7,1.9,3,3.6,3c7.5,0,10-5.7,10-10.9c0-6.5-4.2-11.2-10.9-11.2c-1.4,0-2.1,0.1-2.7,0.1L872.5,65.2
		L872.5,65.2z"/>
	<path class="st0" d="M891.2,68.4h0.7c1,0,1.7,0,1.7-1.2v-9.4c0-1.5-0.5-1.7-1.8-2.4v-0.6c1.6-0.5,3.6-1.1,3.7-1.3
		c0.2-0.1,0.5-0.2,0.6-0.2c0.2,0,0.2,0.2,0.2,0.5v13.4c0,1.2,0.8,1.2,1.7,1.2h0.6v0.9c-1.2,0-2.4-0.1-3.7-0.1c-1.3,0-2.5,0-3.8,0.1
		L891.2,68.4L891.2,68.4z M894.9,48L894.9,48c-0.9,0-1.7-0.8-1.7-1.7c0-0.9,0.8-1.7,1.7-1.7c0.9,0,1.7,0.7,1.7,1.7
		C896.6,47.2,895.8,48,894.9,48z"/>
	<path class="st0" d="M901.9,58c0-1.3-0.4-1.6-2-2.3v-0.7c1.5-0.5,2.9-0.9,4.6-1.7c0.1,0,0.2,0.1,0.2,0.3V56c2-1.4,3.7-2.6,6-2.6
		c3,0,4,2.2,4,4.9v9c0,1.2,0.8,1.2,1.7,1.2h0.6v0.9c-1.2,0-2.4-0.1-3.7-0.1c-1.3,0-2.5,0-3.8,0.1v-0.9h0.6c1,0,1.7,0,1.7-1.2v-9
		c0-2-1.2-3-3.2-3c-1.1,0-2.9,0.9-4,1.7v10.3c0,1.2,0.8,1.2,1.7,1.2h0.6v0.9c-1.2,0-2.4-0.1-3.7-0.1c-1.3,0-2.5,0-3.8,0.1v-0.9h0.6
		c1,0,1.7,0,1.7-1.2L901.9,58L901.9,58z"/>
	<path class="st0" d="M919.8,59.7c-0.1,0.3-0.1,0.8,0,2c0.2,3.3,2.3,6,5.1,6c1.9,0,3.4-1,4.7-2.3l0.5,0.5c-1.6,2.1-3.6,3.9-6.4,3.9
		c-5.5,0-6.7-5.4-6.7-7.6c0-6.8,4.6-8.9,7-8.9c2.8,0,5.9,1.8,5.9,5.5c0,0.2,0,0.4,0,0.6l-0.3,0.2H919.8L919.8,59.7z M926,58.6
		L926,58.6c0.9,0,1-0.5,1-0.9c0-1.8-1.1-3.2-3-3.2c-2.1,0-3.6,1.6-4,4.1H926L926,58.6z"/>
	<path class="st0" d="M930.7,68.4h0.9c1,0,1.7,0,1.7-1.2v-9.8c0-1.1-1.3-1.3-1.8-1.6v-0.5c2.5-1.1,3.9-2,4.3-2
		c0.2,0,0.3,0.1,0.3,0.5V57h0.1c0.9-1.4,2.3-3.6,4.5-3.6c0.9,0,2,0.6,2,1.8c0,0.9-0.7,1.8-1.6,1.8c-1.1,0-1.1-0.8-2.3-0.8
		c-0.6,0-2.5,0.8-2.5,2.9v8.2c0,1.2,0.7,1.2,1.7,1.2h2v0.9c-1.9,0-3.4-0.1-4.9-0.1c-1.4,0-2.9,0-4.1,0.1L930.7,68.4L930.7,68.4z"/>
	<path class="st0" d="M944.2,64.5c0.5,2.3,1.8,4.3,4.4,4.3c2.1,0,2.8-1.3,2.8-2.5c0-4.1-7.6-2.8-7.6-8.4c0-2,1.6-4.5,5.4-4.5
		c1.1,0,2.6,0.3,4,1l0.2,3.6h-0.8c-0.3-2.2-1.6-3.5-3.8-3.5c-1.4,0-2.7,0.8-2.7,2.3c0,4.1,8.1,2.8,8.1,8.3c0,2.3-1.8,4.7-6,4.7
		c-1.4,0-3-0.5-4.3-1.2l-0.4-4L944.2,64.5L944.2,64.5z"/>
	<path class="st0" d="M985.6,51.3h-0.9c-0.7-4.1-3.6-5.7-7.5-5.7c-4,0-9.8,2.7-9.8,11.1c0,7,5,12.1,10.4,12.1c3.5,0,6.3-2.4,7-6
		l0.8,0.2l-0.8,5.1c-1.5,0.9-5.4,1.8-7.7,1.8c-8.2,0-13.3-5.3-13.3-13.1c0-7.1,6.4-12.3,13.2-12.3c2.8,0,5.5,0.9,8.2,1.9L985.6,51.3
		L985.6,51.3z"/>
	<path class="st0" d="M986.9,68.4h0.7c1,0,1.7,0,1.7-1.2V47.8c0-2.3-0.5-2.3-1.8-2.7v-0.6c1.4-0.5,2.9-1.1,3.6-1.5
		c0.4-0.2,0.7-0.4,0.8-0.4c0.2,0,0.3,0.2,0.3,0.5v24.1c0,1.2,0.8,1.2,1.7,1.2h0.6v0.9c-1.2,0-2.4-0.1-3.7-0.1c-1.3,0-2.5,0-3.8,0.1
		L986.9,68.4L986.9,68.4z"/>
	<path class="st0" d="M1009.3,67.4c0,0.6,0.4,0.7,1,0.7c0.4,0,0.9,0,1.4,0v0.7c-1.5,0.1-4.4,0.9-5,1.1l-0.2-0.1v-2.8
		c-2.1,1.7-3.7,2.9-6.2,2.9c-1.9,0-3.8-1.2-3.8-4.1v-8.9c0-0.9-0.1-1.8-2.1-2v-0.7c1.3,0,4-0.2,4.5-0.2c0.4,0,0.4,0.2,0.4,1v9
		c0,1,0,4,3,4c1.2,0,2.8-0.9,4.2-2.1v-9.4c0-0.7-1.7-1.1-2.9-1.4v-0.6c3.1-0.2,5.1-0.5,5.4-0.5c0.3,0,0.3,0.2,0.3,0.6L1009.3,67.4
		L1009.3,67.4z"/>
	<path class="st0" d="M1016.2,55.9c1.4-1.2,3.3-2.5,5.2-2.5c4,0,6.5,3.5,6.5,7.3c0,4.6-3.3,9.1-8.3,9.1c-2.6,0-3.9-0.8-4.8-1.2
		l-1,0.8l-0.7-0.4c0.3-2.1,0.5-4.1,0.5-6.2v-15c0-2.3-0.5-2.3-1.8-2.7v-0.6c1.4-0.5,2.9-1.1,3.6-1.5c0.4-0.2,0.7-0.4,0.8-0.4
		c0.2,0,0.3,0.2,0.3,0.5L1016.2,55.9L1016.2,55.9L1016.2,55.9z M1016.2,65.4L1016.2,65.4c0,1.3,1.3,3.6,3.6,3.6
		c3.7,0,5.3-3.7,5.3-6.8c0-3.8-2.9-6.9-5.6-6.9c-1.3,0-2.4,0.8-3.3,1.6L1016.2,65.4L1016.2,65.4z"/>
	<path class="st0" d="M865.8,89.6h0.3c0.7,0,1.4-0.1,1.4-1.1v-9.9c0-1-0.7-1.1-1.4-1.1h-0.3v-0.6c0.7,0,1.9,0.1,2.8,0.1
		c0.9,0,2.1-0.1,3-0.1v0.6h-0.3c-0.7,0-1.4,0.1-1.4,1.1v9.9c0,1,0.7,1.1,1.4,1.1h0.3v0.6c-0.9,0-2.1-0.1-3-0.1c-0.9,0-2,0.1-2.8,0.1
		V89.6L865.8,89.6z"/>
	<path class="st0" d="M871.6,90.2c-0.9,0-2.1-0.1-3-0.1c-0.9,0-2,0.1-2.8,0.1h-0.1v-0.1v-0.6v-0.1h0.1h0.3c0.7,0,1.3-0.1,1.3-1v-9.9
		c0-0.9-0.6-1-1.3-1h-0.3v-0.1v-0.7h0.1c0.7,0,1.9,0.1,2.8,0.1c0.9,0,2.1-0.1,3-0.1h0.1v0.1v0.6h-0.1h-0.3c-0.7,0-1.3,0.1-1.3,1v9.9
		c0,0.9,0.6,1,1.3,1h0.3v0.1L871.6,90.2L871.6,90.2L871.6,90.2z M871.5,90.1L871.5,90.1v-0.4h-0.2c-0.7,0-1.5-0.1-1.5-1.2v-9.9
		c0-1,0.8-1.2,1.5-1.2h0.2V77c-0.9,0-2,0.1-2.9,0.1c-0.9,0-2-0.1-2.7-0.1v0.4h0.2c0.7,0,1.5,0.1,1.5,1.2v9.9c0,1-0.8,1.2-1.5,1.2
		h-0.2v0.4c0.7,0,1.8-0.1,2.7-0.1C869.5,90,870.6,90.1,871.5,90.1L871.5,90.1z"/>
	<path class="st0" d="M884.6,86.4L884.6,86.4l0-7.2c0-1.6-1.1-1.8-1.7-1.8h-0.4v-0.6c0.9,0,1.8,0.1,2.7,0.1c0.8,0,1.6-0.1,2.3-0.1
		v0.6h-0.3c-0.8,0-1.7,0.2-1.7,2.4v8.6c0,0.7,0,1.3,0.1,1.9H885l-9.8-10.9v7.8c0,1.7,0.3,2.2,1.8,2.2h0.3v0.6
		c-0.8,0-1.6-0.1-2.4-0.1c-0.9,0-1.7,0.1-2.6,0.1v-0.6h0.3c1.3,0,1.7-0.9,1.7-2.4v-8c0-1.1-0.9-1.7-1.7-1.7h-0.2v-0.6
		c0.7,0,1.5,0.1,2.2,0.1c0.6,0,1.1-0.1,1.7-0.1L884.6,86.4L884.6,86.4z"/>
	<path class="st0" d="M885.7,90.5l-0.8,0l-9.6-10.7v7.6c0,1.6,0.3,2.1,1.7,2.1h0.4v0.1v0.7h-0.1c-0.8,0-1.6-0.1-2.4-0.1
		c-0.8,0-1.7,0.1-2.6,0.1h-0.1v-0.1v-0.7h0.1h0.3c1.3,0,1.6-0.8,1.6-2.3v-8c0-1-0.8-1.6-1.6-1.6h-0.3v-0.1v-0.6h0.1
		c0.7,0,1.5,0.1,2.2,0.1c0.6,0,1.1-0.1,1.8,0l8.3,9.4v-7c0-1.5-1-1.7-1.6-1.7h-0.5v-0.1v-0.6h0.1c0.9,0,1.8,0.1,2.7,0.1
		c0.8,0,1.5-0.1,2.3-0.1h0.1v0.1v0.6h-0.1h-0.3c-0.8,0-1.6,0.1-1.6,2.3v8.6C885.7,89.2,885.7,89.8,885.7,90.5L885.7,90.5L885.7,90.5
		L885.7,90.5z M885,90.4L885,90.4h0.6c-0.1-0.6-0.1-1.2-0.1-1.8v-8.6c0-2.3,1-2.5,1.8-2.5h0.2V77c-0.7,0-1.5,0.1-2.3,0.1
		c-0.9,0-1.7-0.1-2.6-0.1l0,0.4h0.3c0.6,0,1.7,0.3,1.7,1.9l0,7.2l0,0l-0.1,0.1l-8.4-9.5c-0.6,0-1.1,0.1-1.7,0.1
		c-0.7,0-1.4-0.1-2.1-0.1l0,0.4h0.2c0.9,0,1.8,0.7,1.8,1.8v8c0,1.5-0.4,2.5-1.8,2.5l-0.2,0v0.4c0.8,0,1.7-0.1,2.5-0.1
		c0.8,0,1.6,0.1,2.4,0.1v-0.4H877c-1.5,0-1.9-0.7-1.9-2.3v-8L885,90.4L885,90.4z M884.6,86.4L884.6,86.4L884.6,86.4L884.6,86.4z
		 M884.6,86.4L884.6,86.4L884.6,86.4L884.6,86.4L884.6,86.4z"/>
	<path class="st0" d="M890.4,77.9c-1.4,0-1.5,0.3-1.8,1.7h-0.6c0.1-0.5,0.2-1.1,0.2-1.6c0.1-0.5,0.1-1.1,0.1-1.6h0.5
		c0.2,0.6,0.6,0.5,1.1,0.5h9.8c0.5,0,1,0,1-0.6l0.5,0.1c-0.1,0.5-0.1,1-0.2,1.5c0,0.5,0,1,0,1.5l-0.6,0.2c0-0.7-0.1-1.8-1.4-1.8H896
		V88c0,1.5,0.7,1.6,1.6,1.6h0.4v0.6c-0.7,0-2.1-0.1-3.1-0.1c-1.1,0-2.5,0.1-3.2,0.1v-0.6h0.4c1,0,1.6-0.1,1.6-1.6V77.9L890.4,77.9
		L890.4,77.9z"/>
	<path class="st0" d="M897.9,90.2c-0.7,0-2.1-0.1-3.1-0.1c-1.1,0-2.5,0.1-3.2,0.1h-0.1v-0.1v-0.7h0.1h0.4c1,0,1.5,0,1.5-1.5V77.9h-3
		v-0.1v-0.1h3.2V88c0,1.5-0.6,1.7-1.7,1.7h-0.3v0.4c0.7,0,2-0.1,3.1-0.1c1,0,2.3,0.1,3,0.1v-0.4h-0.3c-0.9,0-1.7-0.2-1.7-1.7V77.8
		h3.2c1.3,0,1.4,1.1,1.5,1.8l0.4-0.2c0-0.5,0-1,0-1.5c0.1-0.5,0.1-1,0.2-1.5l-0.3,0c-0.1,0.6-0.6,0.6-1.1,0.6H890h-0.1
		c-0.4,0-0.9,0-1.1-0.6h-0.3c0,0.5,0,1-0.1,1.5c-0.1,0.5-0.1,1-0.2,1.5h0.4c0.2-1.3,0.4-1.8,1.8-1.7v0.1v0.1c-1.4,0-1.4,0.3-1.7,1.7
		l0,0.1h-0.1H888l0-0.1c0.1-0.5,0.2-1.1,0.2-1.6c0.1-0.5,0.1-1.1,0.1-1.6v-0.1h0.1h0.5l0,0.1c0.1,0.5,0.5,0.5,1,0.5h0.1h9.8
		c0.5,0,0.9,0,0.9-0.5l0-0.1l0.1,0l0.5,0.1l0,0.1c-0.1,0.5-0.2,1-0.2,1.5c0,0.5,0,1,0,1.5v0.1l-0.1,0l-0.7,0.2l0-0.1
		c-0.1-0.7-0.1-1.7-1.3-1.7h-3v10c0,1.4,0.6,1.5,1.5,1.5h0.4v0.1L897.9,90.2L897.9,90.2L897.9,90.2z"/>
	<path class="st0" d="M901.9,89.6h0.3c0.7,0,1.4-0.1,1.4-1.1v-9.9c0-1-0.7-1.1-1.4-1.1h-0.3v-0.6c1.2,0,3.1,0.1,4.7,0.1
		c1.6,0,3.6-0.1,4.9-0.1c0,0.8,0,2.1,0,2.9L911,80c-0.1-1.2-0.3-2.2-2.3-2.2H906v5h2.3c1.1,0,1.4-0.6,1.5-1.7h0.6
		c0,0.7-0.1,1.5-0.1,2.2c0,0.7,0,1.4,0.1,2.2l-0.6,0.1c-0.1-1.1-0.2-1.9-1.5-1.9H906v4.4c0,1.2,1.1,1.2,2.3,1.2
		c2.3,0,3.3-0.2,3.9-2.3l0.5,0.1c-0.2,1-0.5,2-0.6,3c-1.2,0-3.4-0.1-5.1-0.1c-1.7,0-4,0.1-5,0.1V89.6L901.9,89.6z"/>
	<path class="st0" d="M912.1,90.2c-1.2,0-3.4-0.1-5.1-0.1c-1.7,0-4,0.1-5,0.1h-0.1v-0.1v-0.6v-0.1h0.1h0.3c0.7,0,1.3-0.1,1.3-1v-9.9
		c0-0.9-0.6-1-1.3-1h-0.3v-0.1v-0.7h0.1c1.2,0,3.1,0.1,4.7,0.1c1.6,0,3.6-0.1,4.9-0.1h0.1l0,0.1c0,0.3,0,0.6,0,1
		c0,0.7,0,1.4,0.1,1.9l0,0.1l-0.1,0l-0.7,0.2l0-0.1c-0.1-1.2-0.3-2.1-2.2-2.1h-2.6l0,4.8h2.2c1.1,0,1.3-0.6,1.4-1.6l0-0.1h0.1h0.7
		l0,0.1c0,0.7-0.1,1.5-0.1,2.2c0,0.7,0,1.4,0.1,2.2l0,0.1l-0.1,0l-0.7,0.1l0-0.1c-0.1-1.2-0.1-1.8-1.4-1.8l-2.2,0v4.3
		c0,1.2,1,1.1,2.2,1.2c2.3,0,3.2-0.1,3.8-2.3l0-0.1l0.1,0l0.6,0.2l0,0.1C912.5,88.2,912.3,89.2,912.1,90.2L912.1,90.2L912.1,90.2
		L912.1,90.2z M912,90.1L912,90.1c0.2-1,0.4-1.9,0.6-2.9l-0.4-0.1c-0.6,2.1-1.7,2.3-3.9,2.3c-1.2,0-2.4,0-2.4-1.3v-4.5h2.4
		c1.3,0,1.5,0.8,1.6,1.9l0.4-0.1c0-0.7-0.1-1.4-0.1-2.1c0-0.7,0-1.4,0.1-2.1h-0.4c-0.1,1-0.4,1.7-1.6,1.7h-2.3v-5.1h2.7
		c2,0,2.3,1,2.4,2.2l0.4-0.1c0-0.5-0.1-1.2-0.1-1.9c0-0.3,0-0.6,0-0.9c-1.3,0-3.2,0.1-4.8,0.1c-1.6,0-3.5-0.1-4.6-0.1v0.4h0.2
		c0.7,0,1.5,0.1,1.5,1.2v9.9c0,1-0.8,1.2-1.5,1.2H902v0.4c1.1,0,3.3-0.1,5-0.1C908.6,90,910.8,90.1,912,90.1L912,90.1z"/>
	<path class="st0" d="M915.3,78.9c0-1.4-0.8-1.4-1.3-1.4h-0.3v-0.6c0.6,0,1.8,0.1,2.9,0.1c1.1,0,2-0.1,3.1-0.1
		c2.4,0,4.5,0.6,4.5,3.3c0,1.7-1.1,2.7-2.6,3.3l3.2,4.9c0.5,0.8,0.9,1,1.8,1.1v0.6c-0.6,0-1.2-0.1-1.9-0.1c-0.6,0-1.2,0.1-1.8,0.1
		c-1.5-1.9-2.7-4-3.9-6.1h-1.2v4.1c0,1.5,0.7,1.5,1.6,1.5h0.3v0.6c-1.1,0-2.2-0.1-3.3-0.1c-0.9,0-1.8,0.1-2.8,0.1v-0.6h0.3
		c0.7,0,1.3-0.3,1.3-1V78.9L915.3,78.9z M917.7,83.3L917.7,83.3h0.9c1.9,0,2.9-0.7,2.9-3c0-1.7-1.1-2.8-2.8-2.8
		c-0.6,0-0.8,0.1-1.1,0.1L917.7,83.3L917.7,83.3z"/>
	<path class="st0" d="M926.5,90.2c-0.6,0-1.2-0.1-1.9-0.1c-0.6,0-1.2,0.1-1.8,0c-1.5-1.9-2.7-3.9-3.9-6.1h-1.1v4
		c0,1.4,0.6,1.4,1.5,1.4h0.4v0.1v0.7h-0.1c-1.1,0-2.2-0.1-3.3-0.1c-0.9,0-1.8,0.1-2.7,0.1h-0.1v-0.1v-0.7h0.1h0.3
		c0.7,0,1.3-0.3,1.3-0.9v-9.6c0-1.3-0.7-1.3-1.3-1.4h-0.4v-0.1v-0.7h0.1c0.6,0,1.8,0.1,2.9,0.1c1.1,0,2-0.1,3.1-0.1
		c2.4,0,4.6,0.7,4.6,3.4c0,1.7-1.1,2.8-2.6,3.4l3.2,4.8c0.5,0.8,0.9,1,1.8,1.1l0.1,0v0.1L926.5,90.2L926.5,90.2L926.5,90.2z
		 M917.7,83.9L917.7,83.9h1.3l0,0c1.2,2.2,2.5,4.2,3.9,6.1c0.6,0,1.2-0.1,1.8-0.1c0.6,0,1.2,0.1,1.8,0.1v-0.4
		c-0.9-0.1-1.3-0.4-1.8-1.2l-3.3-4.9l0.1,0c1.5-0.6,2.6-1.6,2.6-3.3c0-2.6-2-3.2-4.4-3.3c-1,0-1.9,0.1-3.1,0.1
		c-1.1,0-2.2-0.1-2.9-0.1v0.4h0.3c0.6,0,1.4,0.1,1.4,1.5v9.6c0,0.8-0.7,1.1-1.4,1.1h-0.3v0.4c0.9,0,1.8-0.1,2.7-0.1
		c1.1,0,2.1,0.1,3.2,0.1v-0.4h-0.3c-0.9,0-1.6-0.1-1.6-1.6L917.7,83.9L917.7,83.9L917.7,83.9z M917.7,83.4L917.7,83.4L917.7,83.4
		l-0.1-5.8l0.1,0c0.3,0,0.5-0.1,1.1-0.1c1.7,0,2.9,1.1,2.9,2.9c0,2.3-1.1,3-3,3L917.7,83.4L917.7,83.4z M918.6,83.2L918.6,83.2
		c1.9,0,2.8-0.7,2.8-2.9c0-1.7-1-2.7-2.7-2.7c-0.5,0-0.8,0-1,0.1v5.5H918.6L918.6,83.2z"/>
	<path class="st0" d="M939.4,86.4L939.4,86.4l0-7.2c0-1.6-1.1-1.8-1.6-1.8h-0.4v-0.6c0.9,0,1.8,0.1,2.7,0.1c0.8,0,1.6-0.1,2.3-0.1
		v0.6h-0.3c-0.8,0-1.7,0.2-1.7,2.4v8.6c0,0.7,0,1.3,0.1,1.9h-0.7L930,79.5v7.8c0,1.7,0.3,2.2,1.8,2.2h0.3v0.6
		c-0.8,0-1.6-0.1-2.4-0.1c-0.9,0-1.7,0.1-2.6,0.1v-0.6h0.3c1.3,0,1.7-0.9,1.7-2.4v-8c0-1.1-0.9-1.7-1.7-1.7h-0.2v-0.6
		c0.7,0,1.5,0.1,2.2,0.1c0.6,0,1.1-0.1,1.7-0.1L939.4,86.4L939.4,86.4z"/>
	<path class="st0" d="M940.5,90.5l-0.8,0l-9.6-10.7v7.6c0,1.7,0.3,2.1,1.7,2.1h0.4v0.1v0.7h-0.1c-0.8,0-1.6-0.1-2.4-0.1
		c-0.8,0-1.7,0.1-2.6,0.1H927v-0.1v-0.7h0.1h0.3c1.3,0,1.6-0.8,1.6-2.3v-8c0-1-0.8-1.6-1.6-1.6H927v-0.1v-0.7h0.1
		c0.7,0,1.5,0.1,2.2,0.1c0.6,0,1.1-0.1,1.7,0l8.3,9.4v-7c0-1.5-1-1.7-1.6-1.7h-0.5v-0.1v-0.7h0.1c0.9,0,1.8,0.1,2.7,0.1
		c0.8,0,1.6-0.1,2.3-0.1h0.1v0.1v0.6h-0.1h-0.3c-0.8,0-1.6,0.1-1.6,2.3v8.6C940.5,89.2,940.5,89.8,940.5,90.5L940.5,90.5L940.5,90.5
		L940.5,90.5z M939.8,90.4L939.8,90.4h0.6c-0.1-0.6-0.1-1.2-0.1-1.8v-8.6c0-2.3,1-2.5,1.8-2.5h0.2V77c-0.7,0-1.5,0.1-2.2,0.1
		c-0.9,0-1.7-0.1-2.6-0.1v0.4h0.3c0.6,0,1.7,0.3,1.7,1.9l0,7.2l0,0l-0.1,0.1L931,77c-0.6,0-1.1,0.1-1.7,0.1c-0.7,0-1.4-0.1-2.1-0.1
		v0.4h0.2c0.9,0,1.8,0.7,1.8,1.8v8c0,1.5-0.4,2.5-1.8,2.5l-0.2,0v0.4c0.8,0,1.7-0.1,2.5-0.1c0.8,0,1.6,0.1,2.4,0.1v-0.4h-0.2
		c-1.5,0-1.9-0.7-1.9-2.3v-8L939.8,90.4L939.8,90.4z M939.4,86.4L939.4,86.4L939.4,86.4L939.4,86.4z M939.4,86.4L939.4,86.4
		L939.4,86.4L939.4,86.4L939.4,86.4z"/>
	<path class="st0" d="M945.4,87.4c-0.2,0.6-0.4,1.1-0.4,1.5c0,0.6,0.8,0.7,1.4,0.7h0.2v0.6c-0.8,0-1.5-0.1-2.3-0.1
		c-0.7,0-1.4,0-2,0.1v-0.6h0.1c0.7,0,1.4-0.4,1.6-1.2l3-8.7c0.2-0.7,0.6-1.7,0.7-2.4c0.6-0.2,1.4-0.6,1.7-0.8c0.1,0,0.1,0,0.2,0
		c0.1,0,0.1,0,0.1,0.1c0.1,0.1,0.1,0.3,0.2,0.5l3.5,9.9c0.2,0.7,0.5,1.4,0.7,1.9c0.2,0.5,0.6,0.8,1.3,0.8h0.1v0.6
		c-0.9,0-1.7-0.1-2.6-0.1c-0.9,0-1.9,0-2.8,0.1v-0.6h0.2c0.4,0,1.2-0.1,1.2-0.5c0-0.2-0.2-0.8-0.4-1.4l-0.7-2.2H946L945.4,87.4
		L945.4,87.4z M948.2,79L948.2,79L948.2,79l-1.8,5.4h3.5L948.2,79z"/>
	<path class="st0" d="M955.5,90.2c-0.9,0-1.7-0.1-2.6-0.1c-0.9,0-1.9,0-2.8,0.1l-0.1,0v-0.1v-0.7h0.1h0.2c0.4,0,1.1-0.1,1.1-0.5
		c0-0.2-0.2-0.7-0.4-1.3l-0.7-2.1h-4.2l-0.6,1.9c-0.2,0.6-0.4,1.1-0.4,1.5c0,0.5,0.7,0.6,1.3,0.6h0.3v0.1v0.7l-0.1,0
		c-0.8,0-1.5-0.1-2.3-0.1c-0.7,0-1.4,0-2,0.1l-0.1,0v-0.1v-0.7h0.1h0.1c0.7,0,1.3-0.4,1.6-1.2l3-8.7c0.2-0.7,0.6-1.6,0.8-2.4
		c0.6-0.2,1.4-0.6,1.7-0.8c0.1,0,0.1,0,0.2,0c0,0,0.1,0,0.2,0.1c0.1,0.2,0.1,0.3,0.2,0.5l3.5,9.9c0.2,0.7,0.4,1.4,0.7,1.9
		c0.2,0.5,0.6,0.7,1.2,0.7h0.2v0.1L955.5,90.2L955.5,90.2L955.5,90.2z M950.2,90.1L950.2,90.1c0.9,0,1.9-0.1,2.8-0.1
		c0.9,0,1.7,0,2.5,0.1v-0.4h0c-0.6,0-1.1-0.3-1.3-0.8c-0.2-0.6-0.5-1.3-0.7-1.9l-3.5-9.9c-0.1-0.2-0.1-0.3-0.2-0.5c0,0,0,0,0,0h0
		c0,0-0.1,0-0.1,0c-0.4,0.2-1.1,0.6-1.7,0.8c-0.1,0.7-0.5,1.7-0.7,2.4l-3,8.7c-0.3,0.8-1,1.3-1.7,1.3h0v0.4c0.6,0,1.3-0.1,2-0.1
		c0.7,0,1.5,0,2.2,0.1v-0.4h-0.1c-0.6,0-1.5-0.1-1.5-0.7c0-0.4,0.2-0.9,0.4-1.5l0.1,0l-0.1,0l0.6-2h4.4l0.8,2.3
		c0.2,0.6,0.4,1.1,0.4,1.4c0,0.6-0.8,0.6-1.3,0.6h-0.1L950.2,90.1L950.2,90.1z M946.3,84.5L946.3,84.5l1.8-5.5h0.1h0V79l0,0l0,0V79
		h0.1l1.8,5.5H946.3z M946.5,84.3L946.5,84.3h3.3l-1.7-5.1L946.5,84.3z M948.1,79.1L948.1,79.1L948.1,79.1L948.1,79.1z"/>
	<path class="st0" d="M956.4,77.9c-1.4,0-1.5,0.3-1.8,1.7H954c0.1-0.5,0.2-1.1,0.2-1.6c0.1-0.5,0.1-1.1,0.1-1.6h0.5
		c0.2,0.6,0.6,0.5,1.1,0.5h9.8c0.5,0,1,0,1-0.6l0.5,0.1c-0.1,0.5-0.1,1-0.2,1.5c0,0.5,0,1,0,1.5l-0.6,0.2c0-0.7-0.1-1.8-1.4-1.8
		h-3.1V88c0,1.5,0.7,1.6,1.6,1.6h0.4v0.6c-0.7,0-2.1-0.1-3.1-0.1c-1.1,0-2.5,0.1-3.2,0.1v-0.6h0.4c1,0,1.6-0.1,1.6-1.6V77.9
		L956.4,77.9L956.4,77.9z"/>
	<path class="st0" d="M963.8,90.2c-0.7,0-2.1-0.1-3.1-0.1c-1.1,0-2.5,0.1-3.2,0.1h-0.1v-0.1v-0.7h0.1h0.4c1,0,1.5,0,1.5-1.5l0-10.1
		h-3v-0.1v-0.1h3.2V88c0,1.5-0.6,1.7-1.7,1.7h-0.3v0.4c0.8,0,2-0.1,3.1-0.1c1,0,2.3,0.1,3,0.1v-0.4h-0.3c-0.9,0-1.7-0.2-1.7-1.7
		V77.8h3.2c1.3,0,1.4,1.1,1.5,1.8l0.4-0.2c0-0.5,0-1,0-1.5c0.1-0.5,0.1-1,0.2-1.5l-0.3,0c-0.1,0.6-0.6,0.6-1.1,0.6H956h-0.1
		c-0.4,0-0.9,0-1.1-0.6h-0.3c0,0.5,0,1-0.1,1.5c0,0.5-0.1,1-0.2,1.5h0.4c0.3-1.3,0.4-1.8,1.8-1.7v0.1v0.1c-1.4,0-1.4,0.3-1.7,1.7
		l0,0.1h-0.1h-0.7l0-0.1c0.1-0.5,0.2-1.1,0.2-1.6c0.1-0.5,0.1-1.1,0.1-1.6v-0.1h0.1h0.5l0,0.1c0.1,0.5,0.5,0.5,1,0.5l0.1,0h9.8
		c0.5,0,0.9,0,0.9-0.5l0-0.1l0.1,0l0.5,0.1l0,0.1c-0.1,0.5-0.2,1-0.2,1.5c0,0.5,0,1,0,1.5v0.1l-0.1,0l-0.7,0.2l0-0.1
		c0-0.7-0.1-1.7-1.3-1.7h-3v10c0,1.4,0.6,1.5,1.5,1.5h0.4v0.1L963.8,90.2L963.8,90.2L963.8,90.2z"/>
	<path class="st0" d="M967.9,89.6h0.3c0.7,0,1.4-0.1,1.4-1.1v-9.9c0-1-0.7-1.1-1.4-1.1h-0.3v-0.6c0.7,0,1.9,0.1,2.8,0.1
		c1,0,2.1-0.1,3-0.1v0.6h-0.3c-0.7,0-1.4,0.1-1.4,1.1v9.9c0,1,0.7,1.1,1.4,1.1h0.3v0.6c-0.9,0-2.1-0.1-3-0.1c-0.9,0-2,0.1-2.8,0.1
		L967.9,89.6L967.9,89.6z"/>
	<path class="st0" d="M973.7,90.2c-0.9,0-2.1-0.1-3-0.1c-0.9,0-2,0.1-2.8,0.1h-0.1v-0.1v-0.6v-0.1h0.1h0.3c0.7,0,1.3-0.1,1.3-1v-9.9
		c0-0.9-0.6-1-1.3-1h-0.3v-0.1v-0.7h0.1c0.7,0,1.9,0.1,2.8,0.1c0.9,0,2.1-0.1,3-0.1h0.1v0.1v0.6h-0.1h-0.3c-0.7,0-1.3,0.1-1.3,1v9.9
		c0,0.9,0.6,1,1.3,1h0.3v0.1L973.7,90.2L973.7,90.2L973.7,90.2z M973.6,90.1L973.6,90.1v-0.4h-0.2c-0.7,0-1.5-0.1-1.5-1.2v-9.9
		c0-1,0.8-1.2,1.5-1.2h0.2V77c-0.9,0-2,0.1-2.9,0.1c-0.9,0-2-0.1-2.7-0.1v0.4h0.2c0.7,0,1.5,0.1,1.5,1.2v9.9c0,1-0.8,1.2-1.5,1.2
		H968v0.4c0.7,0,1.8-0.1,2.7-0.1C971.6,90,972.7,90.1,973.6,90.1L973.6,90.1z"/>
	<path class="st0" d="M981.3,76.6c4,0,7.3,2.5,7.3,6.5c0,4.4-3.1,7.3-7.2,7.3c-4,0-7.1-2.7-7.1-6.8
		C974.3,79.7,977.3,76.6,981.3,76.6L981.3,76.6z M981.6,89.6L981.6,89.6c3.7,0,4.3-3.2,4.3-6c0-2.8-1.5-6.1-4.6-6.1
		c-3.3,0-4.3,3-4.3,5.5C976.9,86.4,978.5,89.6,981.6,89.6L981.6,89.6z"/>
	<path class="st0" d="M974.2,83.6c0-4,3.1-7.1,7.1-7.1v0.1v0.1c-3.9,0-6.9,3-6.9,6.9c0,4,3,6.7,7,6.7c4,0,7.1-2.9,7.1-7.2
		c0-4-3.2-6.5-7.2-6.5v-0.1v-0.1c4.1,0,7.3,2.5,7.3,6.6c0,4.4-3.2,7.3-7.3,7.3C977.3,90.5,974.2,87.8,974.2,83.6L974.2,83.6
		L974.2,83.6z M976.9,83L976.9,83c0-2.6,1-5.6,4.4-5.6c3.2,0,4.7,3.4,4.7,6.2c0,2.8-0.7,6.1-4.4,6.1v-0.1v-0.1
		c3.6,0,4.2-3.2,4.2-5.9c0-2.8-1.5-6-4.6-6c-3.3,0-4.2,2.9-4.2,5.4c0,3.4,1.5,6.6,4.5,6.6v0.1v0.1C978.4,89.7,976.9,86.4,976.9,83
		L976.9,83z"/>
	<path class="st0" d="M1001.3,86.4L1001.3,86.4l0-7.2c0-1.6-1.1-1.8-1.7-1.8h-0.4v-0.6c0.9,0,1.8,0.1,2.7,0.1c0.8,0,1.6-0.1,2.3-0.1
		v0.6h-0.3c-0.8,0-1.7,0.2-1.7,2.4v8.6c0,0.7,0,1.3,0.1,1.9h-0.7l-9.8-10.9v7.8c0,1.7,0.3,2.2,1.8,2.2h0.3v0.6
		c-0.8,0-1.6-0.1-2.4-0.1c-0.9,0-1.7,0.1-2.6,0.1v-0.6h0.3c1.3,0,1.7-0.9,1.7-2.4v-8c0-1.1-0.9-1.7-1.7-1.7H989v-0.6
		c0.7,0,1.5,0.1,2.2,0.1c0.6,0,1.1-0.1,1.7-0.1L1001.3,86.4L1001.3,86.4z"/>
	<path class="st0" d="M1002.4,90.5l-0.8,0L992,79.8v7.6c0,1.6,0.3,2.1,1.7,2.1h0.4v0.1v0.7h-0.1c-0.8,0-1.6-0.1-2.4-0.1
		c-0.9,0-1.7,0.1-2.6,0.1h-0.1v-0.1v-0.7h0.1h0.3c1.3,0,1.6-0.8,1.6-2.3v-8c0-1-0.8-1.6-1.6-1.6h-0.3v-0.1v-0.7h0.1
		c0.7,0,1.5,0.1,2.2,0.1c0.6,0,1.1-0.1,1.8,0l8.3,9.4v-7c0-1.5-1-1.7-1.6-1.7h-0.5v-0.1v-0.7h0.1c0.9,0,1.8,0.1,2.7,0.1
		c0.8,0,1.6-0.1,2.3-0.1h0.1v0.1v0.6h-0.1h-0.3c-0.8,0-1.6,0.1-1.6,2.3v8.6C1002.4,89.2,1002.4,89.8,1002.4,90.5L1002.4,90.5
		L1002.4,90.5L1002.4,90.5z M1001.7,90.4L1001.7,90.4h0.6c-0.1-0.6-0.1-1.2-0.1-1.8v-8.6c0-2.3,1-2.5,1.8-2.5h0.2V77
		c-0.7,0-1.5,0.1-2.3,0.1c-0.9,0-1.7-0.1-2.6-0.1v0.4h0.3c0.6,0,1.7,0.3,1.7,1.9l0,7.2l0,0l-0.1,0.1l-8.4-9.5
		c-0.6,0-1.1,0.1-1.7,0.1c-0.7,0-1.4-0.1-2.1-0.1v0.4h0.2c0.9,0,1.8,0.7,1.8,1.8v8c0,1.5-0.4,2.5-1.8,2.5l-0.2,0v0.4
		c0.8,0,1.7-0.1,2.5-0.1c0.8,0,1.6,0.1,2.4,0.1v-0.4h-0.2c-1.5,0-1.9-0.7-1.9-2.3v-8L1001.7,90.4L1001.7,90.4z M1001.3,86.4
		L1001.3,86.4L1001.3,86.4L1001.3,86.4z M1001.3,86.4L1001.3,86.4L1001.3,86.4L1001.3,86.4L1001.3,86.4z"/>
	<path class="st0" d="M1007.3,87.4c-0.2,0.6-0.4,1.1-0.4,1.5c0,0.6,0.8,0.7,1.4,0.7h0.2v0.6c-0.8,0-1.5-0.1-2.3-0.1
		c-0.7,0-1.4,0-2,0.1v-0.6h0.1c0.7,0,1.4-0.4,1.7-1.2l3-8.7c0.2-0.7,0.6-1.7,0.7-2.4c0.6-0.2,1.4-0.6,1.7-0.8c0.1,0,0.1,0,0.2,0
		c0.1,0,0.1,0,0.1,0.1c0.1,0.1,0.1,0.3,0.2,0.5l3.5,9.9c0.2,0.7,0.5,1.4,0.7,1.9c0.2,0.5,0.6,0.8,1.3,0.8h0.1v0.6
		c-0.9,0-1.7-0.1-2.6-0.1c-0.9,0-1.9,0-2.8,0.1v-0.6h0.2c0.4,0,1.2-0.1,1.2-0.5c0-0.2-0.2-0.8-0.4-1.4l-0.7-2.2h-4.3L1007.3,87.4
		L1007.3,87.4z M1010.1,79L1010.1,79L1010.1,79l-1.8,5.4h3.5L1010.1,79z"/>
	<path class="st0" d="M1017.5,90.2c-0.9,0-1.7-0.1-2.6-0.1c-0.9,0-1.9,0-2.8,0.1l-0.1,0v-0.1v-0.7h0.1h0.2c0.4,0,1.1-0.1,1.1-0.5
		c0-0.2-0.2-0.7-0.4-1.3l-0.7-2.1h-4.2l-0.6,1.9c-0.2,0.6-0.4,1.1-0.4,1.5c0,0.5,0.7,0.6,1.3,0.6h0.3v0.1v0.7l-0.1,0
		c-0.8,0-1.5-0.1-2.3-0.1c-0.7,0-1.4,0-2,0.1l-0.1,0v-0.1v-0.7h0.1h0.1c0.7,0,1.3-0.4,1.6-1.2l3-8.7c0.2-0.7,0.6-1.6,0.8-2.4
		c0.6-0.2,1.4-0.6,1.7-0.8c0,0,0.1,0,0.2,0c0.1,0,0.1,0,0.2,0.1c0.1,0.1,0.1,0.3,0.2,0.5l3.5,9.9c0.2,0.7,0.5,1.4,0.7,1.9
		c0.2,0.5,0.6,0.7,1.2,0.7h0.2v0.1L1017.5,90.2L1017.5,90.2L1017.5,90.2z M1012.1,90.1L1012.1,90.1c0.9,0,1.9-0.1,2.8-0.1
		c0.9,0,1.7,0,2.5,0.1l0-0.4h0c-0.6,0-1.1-0.3-1.3-0.8c-0.2-0.6-0.5-1.3-0.7-1.9l-3.5-9.9c-0.1-0.2-0.1-0.3-0.2-0.5c0,0,0,0,0,0h0
		c0,0-0.1,0-0.1,0c-0.4,0.2-1.1,0.6-1.7,0.8c-0.1,0.7-0.5,1.7-0.7,2.4l-3,8.7c-0.3,0.8-1,1.3-1.7,1.3h0v0.4c0.7,0,1.3-0.1,2-0.1
		c0.7,0,1.5,0,2.2,0.1v-0.4h-0.1c-0.6,0-1.5-0.1-1.5-0.7c0-0.4,0.2-0.9,0.4-1.5l0.1,0l-0.1,0l0.6-2h4.4l0.8,2.3
		c0.2,0.6,0.4,1.1,0.4,1.4c0,0.6-0.8,0.6-1.3,0.6h-0.1L1012.1,90.1L1012.1,90.1z M1008.2,84.5L1008.2,84.5l1.8-5.5h0.1h0V79l0,0l0,0
		V79h0.1l1.8,5.5H1008.2z M1008.4,84.3L1008.4,84.3h3.3l-1.6-5.1L1008.4,84.3L1008.4,84.3z M1010,79.1L1010,79.1L1010,79.1
		L1010,79.1z"/>
	<path class="st0" d="M1022.2,88.3c0,0.8,0.5,1,1.1,1.1c0.8,0.1,1.6,0.1,2.5,0c0.8-0.1,1.5-0.6,1.8-1c0.3-0.4,0.5-0.9,0.6-1.4h0.5
		c-0.2,1.1-0.5,2.1-0.7,3.2c-1.7,0-3.3-0.1-5-0.1c-1.7,0-3.3,0.1-5,0.1v-0.6h0.3c0.7,0,1.4-0.1,1.4-1.3v-9.7c0-1-0.7-1.1-1.4-1.1
		h-0.3v-0.6c1,0,2,0.1,3,0.1c1,0,1.9-0.1,2.9-0.1v0.6h-0.5c-0.7,0-1.3,0-1.3,1V88.3L1022.2,88.3z"/>
	<path class="st0" d="M1028.1,90.2c-1.7,0-3.3-0.1-5-0.1c-1.7,0-3.3,0.1-5,0.1h-0.1v-0.1v-0.7h0.1h0.3c0.7,0,1.3-0.1,1.3-1.2v-9.8
		c0-0.9-0.7-1-1.3-1h-0.3v-0.1v-0.7h0.1c1,0,2,0.1,3,0.1c1,0,1.9-0.1,2.9-0.1h0.1v0.1v0.6h-0.1h-0.5c-0.7,0-1.2,0-1.2,0.9v9.8
		c0,0.7,0.5,0.9,1.1,1c0.3,0,0.7,0,1.1,0c0.5,0,0.9,0,1.4-0.1c0.8-0.1,1.4-0.5,1.8-1c0.3-0.4,0.5-0.9,0.6-1.3l0-0.1h0.1h0.7l0,0.1
		C1028.7,88,1028.4,89.1,1028.1,90.2L1028.1,90.2L1028.1,90.2L1028.1,90.2L1028.1,90.2z M1028.1,90.1L1028.1,90.1
		c0.2-1,0.5-2,0.7-3.1h-0.4c-0.1,0.4-0.3,0.9-0.6,1.3c-0.4,0.5-1.1,1-1.9,1.1c-0.5,0.1-1,0.1-1.5,0.1c-0.4,0-0.7,0-1.1,0
		c-0.6-0.1-1.2-0.3-1.2-1.1v-9.8c0-1.1,0.7-1.1,1.4-1.1h0.4V77c-0.9,0-1.9,0.1-2.8,0.1c-1,0-1.9-0.1-2.9-0.1v0.4h0.2
		c0.7,0,1.5,0.1,1.5,1.2v9.8c0,1.2-0.8,1.4-1.5,1.4h-0.2v0.4c1.6,0,3.3-0.1,4.9-0.1S1026.4,90.1,1028.1,90.1L1028.1,90.1z"/>
	<path class="st0" d="M1028.6,76.4c1.1,0,2,0.9,2,2c0,1.1-0.9,2-2,2c-1.1,0-2-0.9-2-2C1026.6,77.3,1027.5,76.4,1028.6,76.4z
		 M1028.6,80L1028.6,80c0.9,0,1.6-0.8,1.6-1.6c0-0.9-0.7-1.6-1.6-1.6c-0.9,0-1.6,0.8-1.6,1.6C1027,79.2,1027.7,80,1028.6,80z
		 M1027.6,79.4L1027.6,79.4L1027.6,79.4c0.2-0.1,0.3-0.1,0.3-0.3v-1.5c0-0.2,0-0.3-0.3-0.3v-0.1h1c0.4,0,0.7,0.2,0.7,0.5
		c0,0.3-0.2,0.5-0.5,0.6l0.3,0.5c0.2,0.2,0.3,0.4,0.4,0.5v0.1h-0.4c-0.2,0-0.3-0.4-0.7-0.9h-0.2v0.7c0,0.1,0,0.1,0.3,0.2v0.1
		L1027.6,79.4L1027.6,79.4z M1028.3,78.4L1028.3,78.4h0.2c0.3,0,0.4-0.2,0.4-0.5c0-0.3-0.2-0.4-0.4-0.4h-0.2V78.4z"/>
</g>
</svg>
