<svg width="25" height="18" viewBox="0 0 25 18" fill="none" xmlns="http://www.w3.org/2000/svg">
<path id="Vector" fill-rule="evenodd" clip-rule="evenodd" d="M19.4754 10.0874L19.7171 7.90554H22.5456L22.0623 10.0874H19.4754ZM21.3374 13.3637H19.113L19.3546 11.1818H21.8207L21.3374 13.3637ZM20.1364 16.6399C19.5323 16.6399 19.049 16.1495 19.049 15.5455C19.049 14.9414 19.5394 14.4581 20.1364 14.4581C20.7333 14.4581 21.2237 14.9485 21.2237 15.5455C21.2237 16.1424 20.7333 16.6399 20.1364 16.6399ZM18.7363 6.81816H15.7727V4.63638H18.9779L18.7363 6.81816ZM18.3739 10.0945H15.7727V7.91265H18.6155L18.3739 10.0945ZM18.0114 13.3708H15.7727V11.1889H18.2531L18.0114 13.3708ZM14.6854 6.81816H11.7218L11.4802 4.63638H14.6854V6.81816ZM14.6854 10.0945H12.0842L11.8426 7.91265H14.6854V10.0945ZM14.6854 13.3708H12.4467L12.2051 11.1889H14.6854V13.3708ZM10.3217 16.6471C9.71765 16.6471 9.2344 16.1567 9.2344 15.5526C9.2344 14.9485 9.72476 14.4652 10.3217 14.4652C10.9187 14.4652 11.4091 14.9556 11.4091 15.5526C11.4091 16.1495 10.9187 16.6471 10.3217 16.6471ZM8.5166 11.1889H11.1035L11.3451 13.3708H9.09937L8.5166 11.1889ZM8.22519 10.0945L7.64242 7.91265H10.7411L10.9827 10.0945H8.22519ZM6.76117 4.63638H10.3786L10.6202 6.81816H7.35106L6.76829 4.63638H6.76117ZM20.0795 4.63638H23.2705L22.7873 6.81816H19.8379L20.0795 4.63638ZM22.2969 14.0459L24.4787 4.22421H24.4716C24.4787 4.18157 24.5 4.13889 24.5 4.08914C24.5 3.79065 24.2584 3.54189 23.9528 3.54189H6.46981L5.69514 0.656539H5.68802C5.61696 0.436225 5.41798 0.265625 5.16924 0.265625H1.04724C0.748755 0.265625 0.5 0.507273 0.5 0.81287C0.5 1.11847 0.741648 1.36011 1.04724 1.36011H4.74995L8.15414 14.0744C8.20389 14.2307 8.31049 14.3515 8.45973 14.4155C8.25363 14.7495 8.1328 15.1333 8.1328 15.5526C8.1328 16.7607 9.10645 17.7344 10.3146 17.7344C11.5228 17.7344 12.4964 16.7536 12.4964 15.5526C12.4964 15.1546 12.3827 14.785 12.1909 14.4652H18.2459C18.0612 14.785 17.9403 15.1546 17.9403 15.5526C17.9403 16.7607 18.914 17.7344 20.1222 17.7344C21.3303 17.7344 22.3039 16.7536 22.3039 15.5526C22.3039 15.1333 22.1832 14.7495 21.9771 14.4155C22.1334 14.3444 22.2471 14.2094 22.2827 14.0459" fill="white"/>
</svg>
