<svg width="40" height="16" viewBox="0 0 40 16" fill="none" xmlns="http://www.w3.org/2000/svg">
<path d="M9.24831 4.11C9.32831 4.34 9.54831 4.48 9.62831 4.72C9.63831 4.76 9.72831 4.81 9.76831 4.8C10.0483 4.71 10.1483 4.97 10.2383 5.1C10.5283 5.5 10.8483 5.87 11.1383 6.27C11.2083 6.36 11.2683 6.46 11.3683 6.54C11.5383 6.68 11.5483 6.93 11.6083 7.14C11.6683 7.36 11.5383 7.53 11.4483 7.69C11.6183 8.04 11.7983 8.36 11.9483 8.7C12.0183 8.86 11.9883 9.03 11.9383 9.21C11.8883 9.38 11.8983 9.55 11.6883 9.63C11.6283 9.65 11.6183 9.79 11.5083 9.78C11.5183 10.09 11.6683 10.37 11.6883 10.69C11.7083 10.97 11.6683 11.2 11.5183 11.42C11.4983 11.45 11.4783 11.49 11.4583 11.52C11.1783 11.7 10.8583 11.72 10.5583 11.82C10.2683 11.92 9.95831 11.86 9.67831 11.99C9.62831 11.94 9.53831 11.94 9.51831 11.86C9.54831 11.75 9.64831 11.71 9.97831 11.72C10.0183 11.65 10.0783 11.59 10.0383 11.49C9.97831 11.32 9.94831 11.14 9.89831 10.96C9.86831 10.85 9.84831 10.75 9.88831 10.62C9.60831 10.57 9.43831 10.82 9.19831 10.87C8.95831 10.92 8.75831 11.06 8.54831 11.17C8.57831 11.39 8.70831 11.6 8.66831 11.86C8.75831 12.01 8.89831 11.93 9.03831 11.9C9.04831 11.95 9.06831 12 9.08831 12.05C9.06831 12.06 9.04831 12.08 9.02831 12.08C8.78831 12.14 8.53831 12.2 8.29831 12.27C8.04831 12.35 7.78831 12.32 7.52831 12.4C7.27831 12.48 7.03831 12.59 6.76831 12.55C6.73831 12.55 6.71831 12.56 6.68831 12.57C6.10831 12.77 5.49831 12.83 4.89831 12.96C4.50831 13.04 4.11831 13.17 3.70831 13.12C3.50831 13.1 3.34831 13.06 3.17831 12.96C3.12831 12.93 3.06831 12.86 3.00831 12.95C2.95831 12.92 2.90831 12.89 2.85831 12.86C2.90831 12.79 2.84831 12.77 2.80831 12.73C2.69831 12.65 2.57831 12.6 2.47831 12.49C2.21831 12.19 2.07831 11.87 2.01831 11.47C1.96831 11.1 2.01831 10.78 2.19831 10.47C3.61831 8.05 5.03831 5.63 6.43831 3.24C6.62831 3.09 6.82831 3.03 7.02831 3C7.15831 3.08 7.28831 3.12 7.42831 3.04C8.03831 3.4 8.63831 3.76 9.24831 4.11ZM4.20831 7.39C5.15831 7.96 6.08831 8.5 7.04831 9.06C7.38831 8.63 7.70831 8.21 7.81831 7.65C7.25831 7.32 6.71831 7.01 6.17831 6.69C6.20831 6.64 6.20831 6.59 6.28831 6.58C6.81831 6.89 7.35831 7.21 7.88831 7.52C8.13831 7.42 8.22831 7.19 8.33831 7C8.45831 6.8 8.57831 6.59 8.70831 6.37C8.57831 6.3 8.74831 6.22 8.68831 6.13C7.77831 5.6 6.86831 5.06 5.94831 4.52C5.93831 4.51 5.91831 4.52 5.90831 4.52C5.64831 4.97 5.37831 5.42 5.10831 5.88C5.36831 6.03 5.60831 6.17 5.84831 6.32C5.85831 6.33 5.84831 6.37 5.85831 6.39C5.83831 6.43 5.81831 6.46 5.73831 6.47C5.50831 6.33 5.25831 6.19 4.99831 6.04C4.73831 6.49 4.47831 6.94 4.20831 7.39ZM3.16831 9.15C2.91831 9.57 2.68831 9.97 2.44831 10.37C2.25831 10.68 2.20831 10.99 2.22831 11.36C2.27831 12.18 2.86831 12.76 3.52831 12.87C4.07831 12.96 4.60831 12.86 5.00831 12.44C5.19831 12.24 5.35831 12 5.52831 11.77C5.63831 11.62 5.71831 11.46 5.80831 11.3C5.89831 11.14 6.02831 10.99 5.95831 10.78C5.03831 10.25 4.11831 9.71 3.16831 9.15ZM8.31831 8.5C8.25831 8.52 8.20831 8.54 8.15831 8.56C8.01831 8.47 8.02831 8.26 7.84831 8.19C7.56831 8.67 7.28831 9.15 7.00831 9.62C7.21831 9.9 7.42831 10.16 7.63831 10.44C8.05831 10.11 8.44831 9.81 8.82831 9.51C8.79831 9.43 8.81831 9.34 8.72831 9.29C8.59831 9.21 8.54831 9.1 8.50831 8.96C8.49831 8.94 8.50831 8.91 8.50831 8.9C8.56831 8.89 8.61831 8.87 8.66831 8.85C8.81831 9 8.85831 9.26 9.10831 9.3C9.48831 9 9.87831 8.69 10.2683 8.38C9.78831 7.76 9.30831 7.15 8.82831 6.53C8.53831 7.01 8.26831 7.48 7.99831 7.94C8.03831 8.17 8.30831 8.25 8.31831 8.5ZM6.11831 10.59C6.52831 10.25 6.67831 9.75 6.94831 9.37C6.92831 9.28 6.91831 9.24 6.90831 9.2C6.00831 8.67 5.10831 8.14 4.21831 7.62C4.14831 7.63 4.08831 7.64 4.06831 7.65C3.80831 8.09 3.56831 8.51 3.30831 8.94C3.39831 8.99 3.46831 9.03 3.53831 9.07C4.38831 9.57 5.24831 10.07 6.11831 10.59ZM6.52831 3.45C6.35831 3.74 6.17831 4.04 5.99831 4.35C6.86831 4.87 7.72831 5.37 8.57831 5.87C8.64831 5.91 8.72831 5.96 8.78831 5.99C8.93831 5.89 9.05831 5.8 9.12831 5.64C9.19831 5.49 9.25831 5.35 9.30831 5.19C9.36831 5 9.42831 4.83 9.34831 4.65C9.26831 4.46 9.12831 4.33 8.94831 4.22C8.63831 4.05 8.31831 3.86 8.00831 3.68C7.69831 3.5 7.41831 3.28 7.02831 3.25C6.85831 3.28 6.67831 3.33 6.52831 3.45ZM11.3983 7.01C11.3083 6.87 11.2483 6.75 11.1683 6.65C10.8783 6.28 10.5983 5.91 10.3083 5.54C10.1283 5.31 9.98831 4.99 9.61831 4.96C9.53831 5.46 9.13831 5.81 8.94831 6.31C9.43831 6.94 9.92831 7.57 10.4383 8.23C10.8583 7.88 11.3983 7.67 11.3983 7.01ZM11.7583 9.12C11.6883 9.05 11.7983 8.96 11.7583 8.86C11.6383 8.59 11.5383 8.31 11.4183 8.04C11.3683 7.94 11.1783 7.89 11.0983 7.98C10.8183 8.29 10.4283 8.48 10.1183 8.79C10.3083 9.16 10.4983 9.54 10.6583 9.95C10.7683 9.83 10.8883 9.82 10.9983 9.78C11.2983 9.65 11.6383 9.55 11.7583 9.12ZM10.0383 10.59C10.0883 10.78 10.1283 10.94 10.1783 11.1C10.2283 11.27 10.2483 11.45 10.3283 11.59C10.6483 11.51 10.9483 11.43 11.2583 11.35C11.3283 11.23 11.4083 11.09 11.4983 10.95C11.5183 10.58 11.3583 10.25 11.2883 9.89C10.8883 10.02 10.5683 10.31 10.1783 10.37C10.1183 10.46 10.0783 10.52 10.0383 10.59ZM9.85831 8.97C9.47831 9.26 9.10831 9.55 8.73831 9.84C8.81831 10.14 8.93831 10.42 9.15831 10.62C9.60831 10.42 10.0283 10.22 10.4683 10.02C10.3683 9.83 10.2683 9.66 10.1983 9.48C10.1183 9.3 10.0983 9.09 9.85831 8.97ZM6.90831 9.86C6.67831 10.14 5.86831 11.51 5.74831 11.85C6.10831 11.71 6.35831 11.43 6.64831 11.21C6.92831 10.99 7.25831 10.82 7.44831 10.53C7.24831 10.29 7.07831 10.07 6.90831 9.86ZM7.60831 11.35C8.03831 11.14 8.47831 10.94 8.90831 10.73C8.78831 10.49 8.68831 10.28 8.56831 10.05C8.51831 10.06 8.44831 10.06 8.41831 10.09C8.08831 10.4 7.67831 10.61 7.36831 10.96C7.40831 11.1 7.38831 11.27 7.60831 11.35ZM8.28831 11.29C8.17831 11.27 8.10831 11.41 7.98831 11.43C7.66831 11.49 7.41831 11.74 7.09831 11.79C7.05831 11.8 7.00831 11.89 7.01831 11.99C7.26831 11.97 6.95831 12.22 7.16831 12.26C7.36831 12.22 7.58831 12.16 7.81831 12.14C8.04831 12.12 8.27831 12.05 8.48831 11.95C8.41831 11.72 8.35831 11.5 8.28831 11.29ZM7.28831 11.48C7.32831 11.3 7.17831 11.22 7.14831 11.1C6.94831 11.25 6.72831 11.37 6.56831 11.55C6.38831 11.74 6.08831 11.77 5.95831 12.1C6.45831 11.92 6.86831 11.68 7.28831 11.48ZM6.86831 12.32C6.82831 12.19 6.79831 12.09 6.76831 11.98C6.44831 12.15 6.05831 12.26 5.64831 12.52C6.05831 12.55 6.33831 12.34 6.65831 12.39C6.72831 12.4 6.81831 12.38 6.86831 12.32Z" fill="black"/>
<path d="M4.21826 11.85C4.02826 11.93 3.82826 11.97 3.56826 11.93C3.35826 11.88 3.26826 11.64 3.11826 11.44C3.16826 11.33 3.11826 11.22 3.08826 11.1C3.17826 10.95 3.25826 10.81 3.34826 10.66C3.69826 10.46 4.02826 10.49 4.31826 10.69C4.45826 10.9 4.50826 11.1 4.53826 11.32C4.56826 11.62 4.30826 11.67 4.21826 11.85ZM3.31826 11.22C3.33826 11.33 3.36826 11.43 3.37826 11.51C3.52826 11.6 3.64826 11.67 3.70826 11.7C3.88826 11.66 4.02826 11.63 4.16826 11.6C4.26826 11.46 4.34826 11.31 4.32826 11.12C4.21826 10.92 4.03826 10.81 3.87826 10.74C3.74826 10.76 3.64826 10.77 3.53826 10.79C3.56826 10.94 3.43826 10.92 3.37826 10.99C3.42826 11.09 3.35826 11.15 3.31826 11.22Z" fill="black"/>
<path d="M34.2483 4.11C34.3283 4.34 34.5483 4.48 34.6283 4.72C34.6383 4.76 34.7283 4.81 34.7683 4.8C35.0483 4.71 35.1483 4.97 35.2383 5.1C35.5283 5.5 35.8483 5.87 36.1383 6.27C36.2083 6.36 36.2683 6.46 36.3683 6.54C36.5383 6.68 36.5483 6.93 36.6083 7.14C36.6683 7.36 36.5383 7.53 36.4483 7.69C36.6183 8.04 36.7983 8.36 36.9483 8.7C37.0183 8.86 36.9883 9.03 36.9383 9.21C36.8883 9.38 36.8983 9.55 36.6883 9.63C36.6283 9.65 36.6183 9.79 36.5083 9.78C36.5183 10.09 36.6683 10.37 36.6883 10.69C36.7083 10.97 36.6683 11.2 36.5183 11.42C36.4983 11.45 36.4783 11.49 36.4583 11.52C36.1783 11.7 35.8583 11.72 35.5583 11.82C35.2683 11.92 34.9583 11.86 34.6783 11.99C34.6283 11.94 34.5383 11.94 34.5183 11.86C34.5483 11.75 34.6483 11.71 34.9783 11.72C35.0183 11.65 35.0783 11.59 35.0383 11.49C34.9783 11.32 34.9483 11.14 34.8983 10.96C34.8683 10.85 34.8483 10.75 34.8883 10.62C34.6083 10.57 34.4383 10.82 34.1983 10.87C33.9583 10.92 33.7583 11.06 33.5483 11.17C33.5783 11.39 33.7083 11.6 33.6683 11.86C33.7583 12.01 33.8983 11.93 34.0383 11.9C34.0483 11.95 34.0683 12 34.0883 12.05C34.0683 12.06 34.0483 12.08 34.0283 12.08C33.7883 12.14 33.5383 12.2 33.2983 12.27C33.0483 12.35 32.7883 12.32 32.5283 12.4C32.2783 12.48 32.0383 12.59 31.7683 12.55C31.7383 12.55 31.7183 12.56 31.6883 12.57C31.1083 12.77 30.4983 12.83 29.8983 12.96C29.5083 13.04 29.1183 13.17 28.7083 13.12C28.5083 13.1 28.3483 13.06 28.1783 12.96C28.1283 12.93 28.0683 12.86 28.0083 12.95C27.9583 12.92 27.9083 12.89 27.8583 12.86C27.9083 12.79 27.8483 12.77 27.8083 12.73C27.6983 12.65 27.5783 12.6 27.4783 12.49C27.2183 12.19 27.0783 11.87 27.0183 11.47C26.9683 11.1 27.0183 10.78 27.1983 10.47C28.6183 8.05 30.0383 5.63 31.4383 3.24C31.6283 3.09 31.8283 3.03 32.0283 3C32.1583 3.08 32.2883 3.12 32.4283 3.04C33.0383 3.4 33.6383 3.76 34.2483 4.11ZM29.2083 7.39C30.1583 7.96 31.0883 8.5 32.0483 9.06C32.3883 8.63 32.7083 8.21 32.8183 7.65C32.2583 7.32 31.7183 7.01 31.1783 6.69C31.2083 6.64 31.2083 6.59 31.2883 6.58C31.8183 6.89 32.3583 7.21 32.8883 7.52C33.1383 7.42 33.2283 7.19 33.3383 7C33.4583 6.8 33.5783 6.59 33.7083 6.37C33.5783 6.3 33.7483 6.22 33.6883 6.13C32.7783 5.6 31.8683 5.06 30.9483 4.52C30.9383 4.51 30.9183 4.52 30.9083 4.52C30.6483 4.97 30.3783 5.42 30.1083 5.88C30.3683 6.03 30.6083 6.17 30.8483 6.32C30.8583 6.33 30.8483 6.37 30.8583 6.39C30.8383 6.43 30.8183 6.46 30.7383 6.47C30.5083 6.33 30.2583 6.19 29.9983 6.04C29.7383 6.49 29.4783 6.94 29.2083 7.39ZM28.1683 9.15C27.9183 9.57 27.6883 9.97 27.4483 10.37C27.2583 10.68 27.2083 10.99 27.2283 11.36C27.2783 12.18 27.8683 12.76 28.5283 12.87C29.0783 12.96 29.6083 12.86 30.0083 12.44C30.1983 12.24 30.3583 12 30.5283 11.77C30.6383 11.62 30.7183 11.46 30.8083 11.3C30.8983 11.14 31.0283 10.99 30.9583 10.78C30.0383 10.25 29.1183 9.71 28.1683 9.15ZM33.3183 8.5C33.2583 8.52 33.2083 8.54 33.1583 8.56C33.0183 8.47 33.0283 8.26 32.8483 8.19C32.5683 8.67 32.2883 9.15 32.0083 9.62C32.2183 9.9 32.4283 10.16 32.6383 10.44C33.0583 10.11 33.4483 9.81 33.8283 9.51C33.7983 9.43 33.8183 9.34 33.7283 9.29C33.5983 9.21 33.5483 9.1 33.5083 8.96C33.4983 8.94 33.5083 8.91 33.5083 8.9C33.5683 8.89 33.6183 8.87 33.6683 8.85C33.8183 9 33.8583 9.26 34.1083 9.3C34.4883 9 34.8783 8.69 35.2683 8.38C34.7883 7.76 34.3083 7.15 33.8283 6.53C33.5383 7.01 33.2683 7.48 32.9983 7.94C33.0383 8.17 33.3083 8.25 33.3183 8.5ZM31.1183 10.59C31.5283 10.25 31.6783 9.75 31.9483 9.37C31.9283 9.28 31.9183 9.24 31.9083 9.2C31.0083 8.67 30.1083 8.14 29.2183 7.62C29.1483 7.63 29.0883 7.64 29.0683 7.65C28.8083 8.09 28.5683 8.51 28.3083 8.94C28.3983 8.99 28.4683 9.03 28.5383 9.07C29.3883 9.57 30.2483 10.07 31.1183 10.59ZM31.5283 3.45C31.3583 3.74 31.1783 4.04 30.9983 4.35C31.8683 4.87 32.7283 5.37 33.5783 5.87C33.6483 5.91 33.7283 5.96 33.7883 5.99C33.9383 5.89 34.0583 5.8 34.1283 5.64C34.1983 5.49 34.2583 5.35 34.3083 5.19C34.3683 5 34.4283 4.83 34.3483 4.65C34.2683 4.46 34.1283 4.33 33.9483 4.22C33.6383 4.05 33.3183 3.86 33.0083 3.68C32.6983 3.5 32.4183 3.28 32.0283 3.25C31.8583 3.28 31.6783 3.33 31.5283 3.45ZM36.3983 7.01C36.3083 6.87 36.2483 6.75 36.1683 6.65C35.8783 6.28 35.5983 5.91 35.3083 5.54C35.1283 5.31 34.9883 4.99 34.6183 4.96C34.5383 5.46 34.1383 5.81 33.9483 6.31C34.4383 6.94 34.9283 7.57 35.4383 8.23C35.8583 7.88 36.3983 7.67 36.3983 7.01ZM36.7583 9.12C36.6883 9.05 36.7983 8.96 36.7583 8.86C36.6383 8.59 36.5383 8.31 36.4183 8.04C36.3683 7.94 36.1783 7.89 36.0983 7.98C35.8183 8.29 35.4283 8.48 35.1183 8.79C35.3083 9.16 35.4983 9.54 35.6583 9.95C35.7683 9.83 35.8883 9.82 35.9983 9.78C36.2983 9.65 36.6383 9.55 36.7583 9.12ZM35.0383 10.59C35.0883 10.78 35.1283 10.94 35.1783 11.1C35.2283 11.27 35.2483 11.45 35.3283 11.59C35.6483 11.51 35.9483 11.43 36.2583 11.35C36.3283 11.23 36.4083 11.09 36.4983 10.95C36.5183 10.58 36.3583 10.25 36.2883 9.89C35.8883 10.02 35.5683 10.31 35.1783 10.37C35.1183 10.46 35.0783 10.52 35.0383 10.59ZM34.8583 8.97C34.4783 9.26 34.1083 9.55 33.7383 9.84C33.8183 10.14 33.9383 10.42 34.1583 10.62C34.6083 10.42 35.0283 10.22 35.4683 10.02C35.3683 9.83 35.2683 9.66 35.1983 9.48C35.1183 9.3 35.0983 9.09 34.8583 8.97ZM31.9083 9.86C31.6783 10.14 30.8683 11.51 30.7483 11.85C31.1083 11.71 31.3583 11.43 31.6483 11.21C31.9283 10.99 32.2583 10.82 32.4483 10.53C32.2483 10.29 32.0783 10.07 31.9083 9.86ZM32.6083 11.35C33.0383 11.14 33.4783 10.94 33.9083 10.73C33.7883 10.49 33.6883 10.28 33.5683 10.05C33.5183 10.06 33.4483 10.06 33.4183 10.09C33.0883 10.4 32.6783 10.61 32.3683 10.96C32.4083 11.1 32.3883 11.27 32.6083 11.35ZM33.2883 11.29C33.1783 11.27 33.1083 11.41 32.9883 11.43C32.6683 11.49 32.4183 11.74 32.0983 11.79C32.0583 11.8 32.0083 11.89 32.0183 11.99C32.2683 11.97 31.9583 12.22 32.1683 12.26C32.3683 12.22 32.5883 12.16 32.8183 12.14C33.0483 12.12 33.2783 12.05 33.4883 11.95C33.4183 11.72 33.3583 11.5 33.2883 11.29ZM32.2883 11.48C32.3283 11.3 32.1783 11.22 32.1483 11.1C31.9483 11.25 31.7283 11.37 31.5683 11.55C31.3883 11.74 31.0883 11.77 30.9583 12.1C31.4583 11.92 31.8683 11.68 32.2883 11.48ZM31.8683 12.32C31.8283 12.19 31.7983 12.09 31.7683 11.98C31.4483 12.15 31.0583 12.26 30.6483 12.52C31.0583 12.55 31.3383 12.34 31.6583 12.39C31.7283 12.4 31.8183 12.38 31.8683 12.32Z" fill="white"/>
<path d="M29.2183 11.85C29.0283 11.93 28.8283 11.97 28.5683 11.93C28.3583 11.88 28.2683 11.64 28.1183 11.44C28.1683 11.33 28.1183 11.22 28.0883 11.1C28.1783 10.95 28.2583 10.81 28.3483 10.66C28.6983 10.46 29.0283 10.49 29.3183 10.69C29.4583 10.9 29.5083 11.1 29.5383 11.32C29.5683 11.62 29.3083 11.67 29.2183 11.85ZM28.3183 11.22C28.3383 11.33 28.3683 11.43 28.3783 11.51C28.5283 11.6 28.6483 11.67 28.7083 11.7C28.8883 11.66 29.0283 11.63 29.1683 11.6C29.2683 11.46 29.3483 11.31 29.3283 11.12C29.2183 10.92 29.0383 10.81 28.8783 10.74C28.7483 10.76 28.6483 10.77 28.5383 10.79C28.5683 10.94 28.4383 10.92 28.3783 10.99C28.4283 11.09 28.3583 11.15 28.3183 11.22Z" fill="white"/>
</svg>
