<?xml version="1.0" encoding="utf-8"?>
<!-- Generator: Adobe Illustrator 23.0.6, SVG Export Plug-In . SVG Version: 6.00 Build 0)  -->
<svg version="1.1" id="Capa_1" xmlns="http://www.w3.org/2000/svg" xmlns:xlink="http://www.w3.org/1999/xlink" x="0px" y="0px"
	 viewBox="0 0 16 16" style="fill: blue" xml:space="preserve">

<path class="st0" d="M12.4,7.6V2.5H7.3v5.1H12.4z M12.1,4.6c-0.9-0.1-1.6-0.8-1.6-1.8h1.6V4.6z M9.8,7.3c-0.1-1.1-1-1.9-2.1-1.9V2.9
	h2.5c0,1.1,0.9,2,1.9,2.1v2.3H9.8z M7.6,5.7c0.9,0,1.6,0.7,1.7,1.6H7.6V5.7z"/>
<path class="st0" d="M7.6,7.6V2.5H2.5v5.1H7.6z M2.9,2.9h1.6c0,0.9-0.7,1.6-1.6,1.8V2.9z M2.9,7.3V5c1.1-0.1,1.9-1,2-2.1h2.5v2.5
	c-1.1,0-2,0.9-2.1,1.9H2.9z M7.3,7.3H5.5c0.1-0.9,0.8-1.6,1.8-1.6V7.3z"/>
<path class="st1" d="M4.4,2.9H2.9v1.7C3.7,4.5,4.4,3.8,4.4,2.9z"/>
<path class="st1" d="M7.3,5.3V2.9H4.8c0,1.1-0.9,2-1.9,2.1v2.3h2.3C5.3,6.2,6.2,5.4,7.3,5.3z"/>
<path class="st1" d="M5.5,7.3h1.8V5.7C6.4,5.7,5.7,6.4,5.5,7.3z"/>
<path class="st1" d="M10.5,2.9h1.6v1.7C11.2,4.5,10.5,3.8,10.5,2.9z"/>
<path class="st1" d="M7.6,5.3V2.9h2.5c0,1.1,0.9,2,1.9,2.1v2.3H9.8C9.6,6.2,8.7,5.4,7.6,5.3z"/>
<path class="st1" d="M9.4,7.3H7.6V5.7C8.5,5.7,9.3,6.4,9.4,7.3z"/>
<path class="st1" d="M4.4,12.1H2.9v-1.8C3.7,10.4,4.4,11.2,4.4,12.1z"/>
<path class="st1" d="M7.3,9.6v2.5H4.8c0-1.1-0.9-2-2-2.1V7.6h2.3C5.3,8.7,6.2,9.6,7.3,9.6z"/>
<path class="st1" d="M5.5,7.6h1.8v1.6C6.4,9.2,5.7,8.5,5.5,7.6z"/>
<path class="st0" d="M2.5,7.3v5.1h5.1V7.3H2.5z M2.9,10.3c0.9,0.1,1.5,0.9,1.6,1.8H2.9V10.3z M5.2,7.6c0.1,1.1,1,1.9,2.1,2v2.5H4.8
	c0-1.1-0.9-2-2-2.1V7.6H5.2z M7.3,9.2c-0.9,0-1.6-0.7-1.8-1.6h1.8V9.2z"/>
<path class="st1" d="M11.6,13.1h1.6v-1.8C12.3,11.5,11.6,12.2,11.6,13.1z"/>
<path class="st1" d="M8.7,10.6v2.5h2.5c0-1.1,0.9-2,1.9-2.1V8.7h-2.3C10.7,9.8,9.8,10.6,8.7,10.6z"/>
<path class="st1" d="M10.5,8.7H8.7v1.6C9.6,10.3,10.3,9.6,10.5,8.7z"/>
<path class="st0" d="M8.4,8.4v5.1h5.1V8.4H8.4z M13.1,13.1h-1.6c0-0.9,0.7-1.6,1.6-1.8V13.1z M13.1,8.7V11c-1.1,0.1-1.9,1-1.9,2.1
	H8.7v-2.5c1.1,0,2-0.9,2.1-1.9L13.1,8.7L13.1,8.7z M8.7,8.7h1.8c-0.1,0.9-0.9,1.6-1.8,1.6V8.7z"/>
</svg>
