<?xml version="1.0" encoding="utf-8"?>
<!-- Generator: Adobe Illustrator 23.0.6, SVG Export Plug-In . SVG Version: 6.00 Build 0)  -->
<svg version="1.1" id="Capa_1" xmlns="http://www.w3.org/2000/svg" xmlns:xlink="http://www.w3.org/1999/xlink" x="0px" y="0px"
	 viewBox="0 0 16 16" style="enable-background:new 0 0 16 16;" xml:space="preserve">
<style type="text/css">
	.st0{fill:none;}
</style>
<path d="M12.43,7.64V2.5H7.29v5.14H12.43z M12.08,4.61c-0.87-0.12-1.55-0.85-1.6-1.75h1.6V4.61z M9.76,7.29
	c-0.13-1.07-1.02-1.9-2.12-1.95V2.86h2.49c0.04,1.09,0.88,1.98,1.95,2.11v2.32C12.08,7.29,9.76,7.29,9.76,7.29z M7.64,5.7
	c0.9,0.04,1.63,0.72,1.75,1.6H7.64V5.7z"/>
<path d="M7.64,7.64V2.5H2.5v5.14H7.64z M2.86,2.86h1.59C4.4,3.75,3.73,4.48,2.86,4.61V2.86z M2.86,7.29V4.97
	c1.07-0.13,1.9-1.02,1.95-2.11h2.49v2.49C6.2,5.39,5.3,6.22,5.18,7.29H2.86z M7.29,7.29H5.54C5.66,6.42,6.39,5.74,7.29,5.7V7.29z"/>
<path class="st0" d="M4.45,2.86H2.86v1.75C3.73,4.48,4.4,3.75,4.45,2.86z"/>
<path class="st0" d="M7.29,5.35V2.86H4.8C4.76,3.94,3.92,4.84,2.86,4.97v2.32h2.32C5.3,6.22,6.2,5.39,7.29,5.35z"/>
<path class="st0" d="M5.54,7.29h1.75V5.7C6.39,5.74,5.66,6.42,5.54,7.29z"/>
<path class="st0" d="M10.49,2.86h1.6v1.75C11.2,4.48,10.53,3.75,10.49,2.86z"/>
<path class="st0" d="M7.64,5.35V2.86h2.49c0.04,1.09,0.88,1.98,1.95,2.11v2.32H9.75C9.63,6.22,8.74,5.39,7.64,5.35z"/>
<path class="st0" d="M9.4,7.29H7.64V5.7C8.54,5.74,9.27,6.42,9.4,7.29z"/>
<path class="st0" d="M4.45,12.08H2.86v-1.75C3.73,10.45,4.4,11.18,4.45,12.08z"/>
<path class="st0" d="M7.29,9.59v2.49H4.8c-0.04-1.09-0.88-1.98-1.95-2.11V7.64h2.32C5.3,8.72,6.2,9.55,7.29,9.59z"/>
<path class="st0" d="M5.54,7.64h1.75v1.6C6.39,9.2,5.66,8.52,5.54,7.64z"/>
<path d="M2.5,7.29v5.14h5.14V7.29H2.5z M2.86,10.33c0.87,0.12,1.55,0.85,1.59,1.75H2.86V10.33z M5.18,7.64
	c0.13,1.07,1.02,1.9,2.11,1.95v2.49H4.8c-0.04-1.09-0.88-1.98-1.95-2.11V7.64H5.18z M7.29,9.24c-0.9-0.04-1.63-0.72-1.75-1.6h1.75
	C7.29,7.64,7.29,9.24,7.29,9.24z"/>
<path class="st0" d="M11.55,13.14h1.6v-1.75C12.27,11.52,11.6,12.25,11.55,13.14z"/>
<path class="st0" d="M8.71,10.65v2.49h2.49c0.04-1.09,0.88-1.98,1.95-2.11V8.71h-2.32C10.69,9.78,9.8,10.61,8.71,10.65z"/>
<path class="st0" d="M10.46,8.71H8.71v1.59C9.61,10.26,10.34,9.58,10.46,8.71z"/>
<path d="M8.36,8.36v5.14h5.14V8.36H8.36z M13.14,13.14h-1.6c0.04-0.9,0.72-1.63,1.6-1.75V13.14z M13.14,8.71v2.32
	c-1.07,0.13-1.9,1.02-1.95,2.11H8.71v-2.49c1.09-0.04,1.98-0.88,2.11-1.95H13.14z M8.71,8.71h1.75c-0.12,0.87-0.85,1.55-1.75,1.59
	V8.71z"/>
</svg>
