<svg width="40" height="16" viewBox="0 0 40 16" fill="none" xmlns="http://www.w3.org/2000/svg">
<path d="M12.93 8.14V3H7.79004V8.14H12.93ZM12.58 5.11C11.71 4.99 11.03 4.26 10.98 3.36H12.58V5.11ZM10.26 7.79C10.13 6.72 9.24004 5.89 8.14004 5.84V3.36H10.63C10.67 4.45 11.51 5.34 12.58 5.47V7.79H10.26ZM8.14004 6.2C9.04004 6.24 9.77004 6.92 9.89004 7.8H8.14004V6.2Z" fill="black"/>
<path d="M8.14 8.14V3H3V8.14H8.14ZM3.36 3.36H4.95C4.9 4.25 4.23 4.98 3.36 5.11V3.36ZM3.36 7.79V5.47C4.43 5.34 5.26 4.45 5.31 3.36H7.8V5.85C6.7 5.89 5.8 6.72 5.68 7.79H3.36ZM7.79 7.79H6.04C6.16 6.92 6.89 6.24 7.79 6.2V7.79Z" fill="black"/>
<path d="M3 7.79004V12.93H8.14V7.79004H3ZM3.36 10.83C4.23 10.95 4.91 11.68 4.95 12.58H3.36V10.83ZM5.68 8.14004C5.81 9.21004 6.7 10.04 7.79 10.09V12.58H5.3C5.26 11.49 4.42 10.6 3.35 10.47V8.14004H5.68ZM7.79 9.74004C6.89 9.70004 6.16 9.02004 6.04 8.14004H7.79V9.74004Z" fill="black"/>
<path d="M8.85999 8.86011V14.0001H14V8.86011H8.85999ZM13.64 13.6401H12.04C12.08 12.7401 12.76 12.0101 13.64 11.8901V13.6401ZM13.64 9.21011V11.5301C12.57 11.6601 11.74 12.5501 11.69 13.6401H9.20998V11.1501C10.3 11.1101 11.19 10.2701 11.32 9.20011H13.64V9.21011ZM9.20998 9.21011H10.96C10.84 10.0801 10.11 10.7601 9.20998 10.8001V9.21011Z" fill="black"/>
<path d="M36.93 8.14V3H31.79V8.14H36.93ZM36.58 5.11C35.71 4.99 35.03 4.26 34.98 3.36H36.58V5.11ZM34.26 7.79C34.13 6.72 33.24 5.89 32.14 5.84V3.36H34.63C34.67 4.45 35.51 5.34 36.58 5.47V7.79H34.26ZM32.14 6.2C33.04 6.24 33.77 6.92 33.89 7.8H32.14V6.2Z" fill="white"/>
<path d="M32.14 8.14V3H27V8.14H32.14ZM27.36 3.36H28.95C28.9 4.25 28.23 4.98 27.36 5.11V3.36ZM27.36 7.79V5.47C28.43 5.34 29.26 4.45 29.31 3.36H31.8V5.85C30.7 5.89 29.8 6.72 29.68 7.79H27.36ZM31.79 7.79H30.04C30.16 6.92 30.89 6.24 31.79 6.2V7.79Z" fill="white"/>
<path d="M27 7.79004V12.93H32.14V7.79004H27ZM27.36 10.83C28.23 10.95 28.91 11.68 28.95 12.58H27.36V10.83ZM29.68 8.14004C29.81 9.21004 30.7 10.04 31.79 10.09V12.58H29.3C29.26 11.49 28.42 10.6 27.35 10.47V8.14004H29.68ZM31.79 9.74004C30.89 9.70004 30.16 9.02004 30.04 8.14004H31.79V9.74004Z" fill="white"/>
<path d="M32.86 8.86011V14.0001H38V8.86011H32.86ZM37.64 13.6401H36.04C36.08 12.7401 36.76 12.0101 37.64 11.8901V13.6401ZM37.64 9.21011V11.5301C36.57 11.6601 35.74 12.5501 35.69 13.6401H33.21V11.1501C34.3 11.1101 35.19 10.2701 35.32 9.20011H37.64V9.21011ZM33.21 9.21011H34.96C34.84 10.0801 34.11 10.7601 33.21 10.8001V9.21011Z" fill="white"/>
</svg>
