<svg width="20" height="18" viewBox="0 0 20 18" fill="none" xmlns="http://www.w3.org/2000/svg">
<path id="Vector" d="M13.2727 12.3333V1.5H1V12.3333H13.2727ZM13.2727 12.3333H19V8.16667L16.5455 5.66667H13.2727V12.3333ZM6.72727 14.4167C6.72727 15.5673 5.81149 16.5 4.68182 16.5C3.55214 16.5 2.63636 15.5673 2.63636 14.4167C2.63636 13.2661 3.55214 12.3333 4.68182 12.3333C5.81149 12.3333 6.72727 13.2661 6.72727 14.4167ZM17.3636 14.4167C17.3636 15.5673 16.4479 16.5 15.3182 16.5C14.1885 16.5 13.2727 15.5673 13.2727 14.4167C13.2727 13.2661 14.1885 12.3333 15.3182 12.3333C16.4479 12.3333 17.3636 13.2661 17.3636 14.4167Z" stroke="white" stroke-width="2" stroke-linecap="round" stroke-linejoin="round"/>
</svg>
