<svg width="69" height="26" viewBox="0 0 69 26" fill="none" xmlns="http://www.w3.org/2000/svg">
<g id="vtex  1" clip-path="url(#clip0_1781_643)">
<g id="Capa 2">
<g id="layout">
<path id="Vector" d="M50.4704 10.0523H48.0729V18.2344C48.0729 18.3089 48.0431 18.3804 47.9902 18.433C47.9373 18.4857 47.8656 18.5153 47.7908 18.5153H45.9422C45.8674 18.5153 45.7956 18.4857 45.7427 18.433C45.6898 18.3804 45.6601 18.3089 45.6601 18.2344V10.0523H43.2473C43.2114 10.0544 43.1753 10.0492 43.1414 10.0373C43.1074 10.0253 43.0762 10.0067 43.0495 9.98252C43.0228 9.95837 43.0013 9.92918 42.9861 9.89664C42.9709 9.8641 42.9623 9.82886 42.9609 9.793V8.34504C42.9612 8.30882 42.9688 8.27302 42.9832 8.23977C42.9976 8.20652 43.0186 8.17651 43.045 8.15151C43.0713 8.1265 43.1024 8.10703 43.1364 8.09424C43.1704 8.08145 43.2067 8.07561 43.243 8.07706H50.4661C50.5034 8.07411 50.541 8.07854 50.5766 8.09011C50.6122 8.10167 50.6452 8.12013 50.6736 8.14444C50.7021 8.16874 50.7254 8.1984 50.7423 8.23171C50.7592 8.26503 50.7693 8.30134 50.772 8.33855V9.793C50.7675 9.86734 50.7338 9.93693 50.6782 9.98669C50.6225 10.0364 50.5494 10.0624 50.4748 10.0588" fill="white"/>
<path id="Vector_2" d="M58.1666 18.4592C57.2271 18.5974 56.2782 18.6625 55.3286 18.6537C53.5082 18.6537 51.9004 18.1891 51.9004 15.6281V10.9514C51.9004 8.3948 53.5234 7.94312 55.3438 7.94312C56.2917 7.93007 57.2392 7.99149 58.1775 8.12682C58.3771 8.15491 58.4617 8.22407 58.4617 8.40777V9.70445C58.4611 9.77916 58.4309 9.85061 58.3777 9.90324C58.3244 9.95587 58.2525 9.9854 58.1775 9.98539H55.1919C54.5279 9.98539 54.2871 10.2015 54.2871 10.9406V12.22H58.0538C58.1288 12.22 58.2008 12.2495 58.254 12.3022C58.3072 12.3548 58.3374 12.4262 58.338 12.501V13.8365C58.338 13.9116 58.3081 13.9836 58.2548 14.0367C58.2015 14.0898 58.1292 14.1196 58.0538 14.1196H54.2871V15.6281C54.2871 16.3586 54.5279 16.5833 55.1919 16.5833H58.1666C58.242 16.5833 58.3143 16.6132 58.3676 16.6663C58.4209 16.7194 58.4508 16.7914 58.4508 16.8664V18.1631C58.4508 18.3447 58.3662 18.4289 58.1666 18.457" fill="white"/>
<path id="Vector_3" d="M68.8177 18.5154H66.572C66.4961 18.5209 66.4202 18.5032 66.3547 18.4645C66.2891 18.4259 66.237 18.3682 66.2053 18.2992L64.2526 15.2218L62.4886 18.2344C62.3887 18.403 62.2911 18.5154 62.1349 18.5154H60.0476C60.021 18.5197 59.9938 18.5183 59.9679 18.5112C59.9419 18.5041 59.9178 18.4915 59.8972 18.4743C59.8766 18.457 59.86 18.4356 59.8485 18.4113C59.837 18.3871 59.8309 18.3606 59.8306 18.3338C59.8339 18.2993 59.8435 18.2656 59.8588 18.2344L62.9203 13.1601L59.8436 8.33858C59.8282 8.31208 59.8186 8.28262 59.8154 8.25213C59.8209 8.19977 59.8466 8.15157 59.8871 8.11771C59.9276 8.08384 59.9797 8.06695 60.0324 8.0706H62.3041C62.4603 8.0706 62.5732 8.21107 62.6578 8.33858L64.463 11.1783L66.2097 8.33858C66.2397 8.26702 66.2875 8.20426 66.3486 8.15624C66.4097 8.10821 66.4821 8.07651 66.559 8.06412H68.6485C68.7013 8.05991 68.7537 8.0766 68.7943 8.11057C68.8349 8.14454 68.8605 8.19307 68.8654 8.24565C68.863 8.27628 68.8534 8.3059 68.8372 8.3321L65.7562 13.1903L68.9587 18.2344C68.9833 18.2774 68.9975 18.3255 69 18.3749C69 18.4592 68.9305 18.5154 68.8177 18.5154Z" fill="white"/>
<path id="Vector_4" d="M39.5824 8.09843C39.5317 8.09741 39.4822 8.11415 39.4425 8.14574C39.4029 8.17733 39.3756 8.22177 39.3655 8.27132L37.3151 15.8353C37.2868 15.9887 37.2435 16.0514 37.1176 16.0514C36.9918 16.0514 36.9484 15.9952 36.9202 15.8353L34.8698 8.27132C34.8596 8.22177 34.8323 8.17733 34.7927 8.14574C34.7531 8.11415 34.7035 8.09741 34.6528 8.09843H32.6349C32.6017 8.09754 32.5687 8.10426 32.5385 8.11808C32.5083 8.1319 32.4817 8.15245 32.4607 8.17813C32.4398 8.20382 32.425 8.23396 32.4176 8.26623C32.4102 8.2985 32.4103 8.33204 32.4179 8.36425C32.4179 8.36425 34.9327 17.0261 34.9609 17.1125C35.295 18.1434 36.1065 18.6253 37.1306 18.6253C37.6085 18.6435 38.0792 18.5055 38.4709 18.2323C38.8626 17.9592 39.1539 17.5659 39.3004 17.1125C39.3394 16.9937 41.7869 8.36209 41.7869 8.36209C41.7946 8.32987 41.7947 8.29634 41.7873 8.26407C41.7798 8.2318 41.7651 8.20166 41.7441 8.17597C41.7231 8.15029 41.6965 8.12974 41.6663 8.11592C41.6361 8.1021 41.6031 8.09538 41.5699 8.09627L39.5824 8.09843Z" fill="white"/>
<path id="Vector_5" d="M27.1587 0.5H5.24426C4.85605 0.501109 4.4747 0.601953 4.13707 0.792783C3.79944 0.983612 3.51694 1.25797 3.31689 1.58934C3.11684 1.92071 3.006 2.29788 2.99509 2.6844C2.98418 3.07091 3.07356 3.45369 3.2546 3.79573L5.43953 7.92998H1.46456C1.21172 7.92843 0.962795 7.9922 0.742082 8.11508C0.521369 8.23795 0.336412 8.41572 0.205264 8.63104C0.0741152 8.84636 0.00125684 9.09187 -0.00619976 9.3436C-0.0136564 9.59534 0.0445436 9.8447 0.162719 10.0673L7.21438 23.3605C7.33882 23.5943 7.52485 23.7899 7.75249 23.9263C7.98013 24.0628 8.24079 24.1348 8.50647 24.1348C8.77214 24.1348 9.0328 24.0628 9.26044 23.9263C9.48808 23.7899 9.67411 23.5943 9.79855 23.3605L11.7166 19.7708L14.1207 24.3092C14.3128 24.6696 14.5998 24.971 14.9509 25.1813C15.302 25.3915 15.7039 25.5026 16.1136 25.5026C16.5232 25.5026 16.9252 25.3915 17.2763 25.1813C17.6273 24.971 17.9143 24.6696 18.1065 24.3092L29.0919 3.71361C29.2702 3.38085 29.359 3.00778 29.3496 2.63072C29.3402 2.25366 29.2329 1.88544 29.0383 1.56189C28.8437 1.23835 28.5683 0.970502 28.2389 0.784417C27.9095 0.598332 27.5373 0.500348 27.1587 0.5ZM17.3124 9.29798L12.5845 18.1802C12.5019 18.3358 12.3782 18.466 12.2268 18.5569C12.0754 18.6477 11.902 18.6957 11.7253 18.6957C11.5485 18.6957 11.3752 18.6477 11.2238 18.5569C11.0724 18.466 10.9487 18.3358 10.8661 18.1802L6.16423 9.33472C6.08525 9.18649 6.0463 9.02036 6.05121 8.85262C6.05612 8.68489 6.10471 8.5213 6.19223 8.37791C6.27975 8.23451 6.40318 8.11624 6.55042 8.03468C6.69766 7.95313 6.86366 7.91109 7.03213 7.91269H16.4748C16.6382 7.91286 16.7987 7.95504 16.9408 8.03515C17.0829 8.11525 17.2019 8.23056 17.2861 8.36991C17.3704 8.50925 17.417 8.66791 17.4216 8.83051C17.4262 8.9931 17.3886 9.15413 17.3124 9.29798Z" fill="white"/>
</g>
</g>
</g>
<defs>
<clipPath id="clip0_1781_643">
<rect width="69" height="25" fill="white" transform="translate(0 0.5)"/>
</clipPath>
</defs>
</svg>
