<svg xmlns="http://www.w3.org/2000/svg" xmlns:xlink="http://www.w3.org/1999/xlink" width="18.228" height="18.229" viewBox="0 0 18.228 18.229">
  <defs>
    <clipPath id="clip-path">
      <rect id="Rectángulo_1047" data-name="Rectángulo 1047" width="18.228" height="18.229" fill="#fff"/>
    </clipPath>
  </defs>
  <g id="Grupo_14174" data-name="Grupo 14174" transform="translate(-994.333 363.278)">
    <g id="Grupo_14091" data-name="Grupo 14091" transform="translate(994.333 -363.278)">
      <g id="Grupo_2850" data-name="Grupo 2850" transform="translate(0 0)" clip-path="url(#clip-path)">
        <path id="Trazado_372" data-name="Trazado 372" d="M18.224,8.642A8.852,8.852,0,0,0,9.293,0,8.881,8.881,0,0,0,.368,8.475c-.006.13-.01.26-.01.392a8.8,8.8,0,0,0,1.218,4.472.129.129,0,0,1,.011.107L0,18.121a.082.082,0,0,0,.1.1l4.869-1.548a.129.129,0,0,1,.1.009,9.012,9.012,0,0,0,4.218,1.05,8.912,8.912,0,0,0,8.935-8.869c0-.064,0-.224,0-.224M3.262,12.861A7.091,7.091,0,0,1,2.039,8.867c0-.229.011-.458.035-.7A7.259,7.259,0,0,1,16.524,8.3c.017.219.025.4.025.562A7.262,7.262,0,0,1,6.228,15.389c-.266-.124-.772-.426-.932-.523a.129.129,0,0,0-.107-.012l-2.45.78a.072.072,0,0,1-.09-.092l.792-2.334a.132.132,0,0,0-.017-.119c-.048-.067-.127-.178-.162-.229" transform="translate(0 0)" fill="#fff"/>
        <path id="Trazado_373" data-name="Trazado 373" d="M31.074,28.928a1.92,1.92,0,0,0-.441-.274c-.152-.075-1.271-.624-1.482-.7-.18-.065-.384-.138-.567.134-.139.206-.546.68-.678.83-.093.106-.178.14-.384.037A7.436,7.436,0,0,1,25.8,27.9a6.333,6.333,0,0,1-1.186-1.465c-.094-.159-.033-.234.084-.35.072-.07.387-.452.412-.488.05-.077.14-.261.14-.261a.466.466,0,0,0-.016-.439c-.036-.071-.61-1.453-.665-1.583-.164-.39-.338-.411-.505-.4-.081.006-.84.012-1.083.274l-.043.045a2.41,2.41,0,0,0-.732,1.785,2.735,2.735,0,0,0,.114.748,4.88,4.88,0,0,0,.782,1.508c.008.01.563.782.841,1.1a7.608,7.608,0,0,0,2.872,2.15,6.783,6.783,0,0,0,2.135.614,4.655,4.655,0,0,0,.483-.075,2.252,2.252,0,0,0,1.515-1.063,1.769,1.769,0,0,0,.119-1.079" transform="translate(-17.533 -18.088)" fill="#fff"/>
      </g>
    </g>
  </g>
</svg>
