<svg id="Grupo_14630" data-name="Grupo 14630" xmlns="http://www.w3.org/2000/svg" xmlns:xlink="http://www.w3.org/1999/xlink" width="47.913" height="47.913" viewBox="0 0 47.913 47.913">
  <defs>
    <clipPath id="clip-path">
      <rect id="Rectángulo_1047" data-name="Rectángulo 1047" width="23.432" height="23.433" fill="#fff"/>
    </clipPath>
  </defs>
  <path id="Trazado_12299" data-name="Trazado 12299" d="M23.957,0A23.957,23.957,0,1,1,0,23.957,23.957,23.957,0,0,1,23.957,0Z" transform="translate(0)" fill="#38b24b"/>
  <g id="Grupo_14535" data-name="Grupo 14535" transform="translate(12.391 12.391)">
    <g id="Grupo_2850" data-name="Grupo 2850" transform="translate(0 0)" clip-path="url(#clip-path)">
      <path id="Trazado_372" data-name="Trazado 372" d="M23.426,11.109A11.378,11.378,0,0,0,11.946,0,11.417,11.417,0,0,0,.473,10.894c-.008.167-.013.335-.013.5a11.307,11.307,0,0,0,1.566,5.748.166.166,0,0,1,.014.137L.006,23.294a.105.105,0,0,0,.132.134L6.4,21.437a.165.165,0,0,1,.128.012,11.585,11.585,0,0,0,5.422,1.35A11.456,11.456,0,0,0,23.431,11.4c0-.083-.005-.288-.005-.288M4.193,16.532A9.115,9.115,0,0,1,2.621,11.4c0-.295.015-.588.045-.9a9.331,9.331,0,0,1,18.576.173c.022.281.032.511.032.723A9.335,9.335,0,0,1,8.006,19.782c-.343-.159-.993-.548-1.2-.672a.166.166,0,0,0-.137-.015l-3.15,1a.093.093,0,0,1-.116-.118l1.018-3a.169.169,0,0,0-.022-.153c-.062-.086-.164-.228-.208-.294" transform="translate(0 0)" fill="#fff"/>
      <path id="Trazado_373" data-name="Trazado 373" d="M33.6,30.644a2.468,2.468,0,0,0-.567-.353c-.2-.1-1.634-.8-1.9-.9-.232-.083-.494-.177-.728.172-.179.265-.7.875-.872,1.067-.119.136-.229.18-.493.048a9.559,9.559,0,0,1-2.209-1.351,8.14,8.14,0,0,1-1.524-1.884c-.121-.2-.042-.3.108-.45.092-.09.5-.581.53-.628.065-.1.18-.335.18-.335a.6.6,0,0,0-.021-.564c-.047-.092-.784-1.868-.855-2.035-.21-.5-.435-.528-.649-.516-.1.008-1.08.015-1.392.353l-.055.058a3.1,3.1,0,0,0-.94,2.295,3.515,3.515,0,0,0,.146.962,6.273,6.273,0,0,0,1,1.939c.01.013.724,1,1.082,1.416A9.78,9.78,0,0,0,28.137,32.7a8.719,8.719,0,0,0,2.745.79,5.983,5.983,0,0,0,.621-.1,2.9,2.9,0,0,0,1.947-1.366,2.274,2.274,0,0,0,.154-1.386" transform="translate(-16.197 -16.71)" fill="#fff"/>
    </g>
  </g>
</svg>
