<svg width="48" height="48" viewBox="0 0 48 48" fill="none" xmlns="http://www.w3.org/2000/svg">
<g filter="url(#filter0_d_707_5264)">
<rect x="4" y="2" width="40" height="40" rx="20" fill="white" shape-rendering="crispEdges"/>
<path d="M24 31.1752L22.55 29.8752C20.8667 28.3585 19.475 27.0502 18.375 25.9502C17.275 24.8502 16.4 23.8627 15.75 22.9877C15.1 22.1127 14.6458 21.3085 14.3875 20.5752C14.1292 19.8419 14 19.0919 14 18.3252C14 16.7585 14.525 15.4502 15.575 14.4002C16.625 13.3502 17.9333 12.8252 19.5 12.8252C20.3667 12.8252 21.1917 13.0085 21.975 13.3752C22.7583 13.7419 23.4333 14.2585 24 14.9252C24.5667 14.2585 25.2417 13.7419 26.025 13.3752C26.8083 13.0085 27.6333 12.8252 28.5 12.8252C30.0667 12.8252 31.375 13.3502 32.425 14.4002C33.475 15.4502 34 16.7585 34 18.3252C34 19.0919 33.8708 19.8419 33.6125 20.5752C33.3542 21.3085 32.9 22.1127 32.25 22.9877C31.6 23.8627 30.725 24.8502 29.625 25.9502C28.525 27.0502 27.1333 28.3585 25.45 29.8752L24 31.1752ZM24 28.4752C25.6 27.0419 26.9167 25.8127 27.95 24.7877C28.9833 23.7627 29.8 22.871 30.4 22.1127C31 21.3544 31.4167 20.6794 31.65 20.0877C31.8833 19.496 32 18.9085 32 18.3252C32 17.3252 31.6667 16.4919 31 15.8252C30.3333 15.1585 29.5 14.8252 28.5 14.8252C27.7167 14.8252 26.9917 15.046 26.325 15.4877C25.6583 15.9294 25.2 16.4919 24.95 17.1752H23.05C22.8 16.4919 22.3417 15.9294 21.675 15.4877C21.0083 15.046 20.2833 14.8252 19.5 14.8252C18.5 14.8252 17.6667 15.1585 17 15.8252C16.3333 16.4919 16 17.3252 16 18.3252C16 18.9085 16.1167 19.496 16.35 20.0877C16.5833 20.6794 17 21.3544 17.6 22.1127C18.2 22.871 19.0167 23.7627 20.05 24.7877C21.0833 25.8127 22.4 27.0419 24 28.4752Z" fill="#686868"/>
</g>
<defs>
<filter id="filter0_d_707_5264" x="0" y="0" width="48" height="48" filterUnits="userSpaceOnUse" color-interpolation-filters="sRGB">
<feFlood flood-opacity="0" result="BackgroundImageFix"/>
<feColorMatrix in="SourceAlpha" type="matrix" values="0 0 0 0 0 0 0 0 0 0 0 0 0 0 0 0 0 0 127 0" result="hardAlpha"/>
<feOffset dy="2"/>
<feGaussianBlur stdDeviation="2"/>
<feComposite in2="hardAlpha" operator="out"/>
<feColorMatrix type="matrix" values="0 0 0 0 0 0 0 0 0 0 0 0 0 0 0 0 0 0 0.15 0"/>
<feBlend mode="normal" in2="BackgroundImageFix" result="effect1_dropShadow_707_5264"/>
<feBlend mode="normal" in="SourceGraphic" in2="effect1_dropShadow_707_5264" result="shape"/>
</filter>
</defs>
</svg>
