<svg width="49" height="49" viewBox="0 0 49 49" fill="none" xmlns="http://www.w3.org/2000/svg">
<path d="M49 24.5C49 10.969 38.031 0 24.5 0C10.969 0 0 10.969 0 24.5C0 38.031 10.969 49 24.5 49C38.031 49 49 38.031 49 24.5Z" fill="white"/>
<path d="M31.2548 14C28.6729 14 26.4124 15.1103 25.0033 16.987C23.5942 15.1103 21.3337 14 18.7518 14C16.6966 14.0023 14.7263 14.8198 13.273 16.273C11.8198 17.7263 11.0023 19.6966 11 21.7518C11 30.5039 23.9768 37.5881 24.5294 37.8806C24.6751 37.959 24.8379 38 25.0033 38C25.1687 38 25.3315 37.959 25.4772 37.8806C26.0298 37.5881 39.0066 30.5039 39.0066 21.7518C39.0043 19.6966 38.1868 17.7263 36.7336 16.273C35.2803 14.8198 33.31 14.0023 31.2548 14ZM25.0033 35.8552C22.7203 34.5248 13.0005 28.4647 13.0005 21.7518C13.0025 20.2271 13.609 18.7654 14.6872 17.6872C15.7654 16.609 17.2271 16.0025 18.7518 16.0005C21.1837 16.0005 23.2254 17.2958 24.0781 19.3763C24.1534 19.5597 24.2816 19.7166 24.4464 19.8271C24.6111 19.9375 24.805 19.9964 25.0033 19.9964C25.2016 19.9964 25.3955 19.9375 25.5602 19.8271C25.725 19.7166 25.8532 19.5597 25.9285 19.3763C26.7812 17.292 28.823 16.0005 31.2548 16.0005C32.7795 16.0025 34.2412 16.609 35.3194 17.6872C36.3976 18.7654 37.0041 20.2271 37.0061 21.7518C37.0061 28.4547 27.2838 34.5236 25.0033 35.8552Z" fill="#686868"/>
</svg>
